%TF.GenerationSoftware,KiCad,Pcbnew,6.0.7-f9a2dced07~116~ubuntu20.04.1*%
%TF.CreationDate,2022-10-16T12:29:11-07:00*%
%TF.ProjectId,keyboard,6b657962-6f61-4726-942e-6b696361645f,rev?*%
%TF.SameCoordinates,Original*%
%TF.FileFunction,Copper,L2,Bot*%
%TF.FilePolarity,Positive*%
%FSLAX46Y46*%
G04 Gerber Fmt 4.6, Leading zero omitted, Abs format (unit mm)*
G04 Created by KiCad (PCBNEW 6.0.7-f9a2dced07~116~ubuntu20.04.1) date 2022-10-16 12:29:11*
%MOMM*%
%LPD*%
G01*
G04 APERTURE LIST*
G04 Aperture macros list*
%AMRoundRect*
0 Rectangle with rounded corners*
0 $1 Rounding radius*
0 $2 $3 $4 $5 $6 $7 $8 $9 X,Y pos of 4 corners*
0 Add a 4 corners polygon primitive as box body*
4,1,4,$2,$3,$4,$5,$6,$7,$8,$9,$2,$3,0*
0 Add four circle primitives for the rounded corners*
1,1,$1+$1,$2,$3*
1,1,$1+$1,$4,$5*
1,1,$1+$1,$6,$7*
1,1,$1+$1,$8,$9*
0 Add four rect primitives between the rounded corners*
20,1,$1+$1,$2,$3,$4,$5,0*
20,1,$1+$1,$4,$5,$6,$7,0*
20,1,$1+$1,$6,$7,$8,$9,0*
20,1,$1+$1,$8,$9,$2,$3,0*%
G04 Aperture macros list end*
%TA.AperFunction,ComponentPad*%
%ADD10C,2.200000*%
%TD*%
%TA.AperFunction,ComponentPad*%
%ADD11C,0.600000*%
%TD*%
%TA.AperFunction,HeatsinkPad*%
%ADD12C,0.600000*%
%TD*%
%TA.AperFunction,ComponentPad*%
%ADD13C,8.600000*%
%TD*%
%TA.AperFunction,ComponentPad*%
%ADD14R,1.700000X1.700000*%
%TD*%
%TA.AperFunction,ComponentPad*%
%ADD15O,1.700000X1.700000*%
%TD*%
%TA.AperFunction,ComponentPad*%
%ADD16C,0.609600*%
%TD*%
%TA.AperFunction,ComponentPad*%
%ADD17O,1.193800X0.914400*%
%TD*%
%TA.AperFunction,ComponentPad*%
%ADD18O,1.016000X1.600200*%
%TD*%
%TA.AperFunction,SMDPad,CuDef*%
%ADD19RoundRect,0.250000X0.450000X-0.325000X0.450000X0.325000X-0.450000X0.325000X-0.450000X-0.325000X0*%
%TD*%
%TA.AperFunction,ViaPad*%
%ADD20C,0.800000*%
%TD*%
%TA.AperFunction,Conductor*%
%ADD21C,0.280000*%
%TD*%
%TA.AperFunction,Conductor*%
%ADD22C,0.200000*%
%TD*%
%TA.AperFunction,Conductor*%
%ADD23C,0.250000*%
%TD*%
G04 APERTURE END LIST*
D10*
%TO.P,SW22,1,1*%
%TO.N,/Key Matrix/R2*%
X264120000Y-130770000D03*
%TO.P,SW22,2,2*%
%TO.N,Net-(D22-Pad2)*%
X270470000Y-133310000D03*
%TD*%
D11*
%TO.P,U2,57,GND*%
%TO.N,GND*%
X217825000Y-145070000D03*
X219100000Y-143795000D03*
X220375000Y-145070000D03*
X220375000Y-143795000D03*
D12*
X217825000Y-143795000D03*
D11*
X217825000Y-146345000D03*
X219100000Y-145070000D03*
X220375000Y-146345000D03*
X219100000Y-146345000D03*
%TD*%
D13*
%TO.P,H3,1*%
%TO.N,N/C*%
X337500000Y-162500000D03*
%TD*%
%TO.P,H1,1*%
%TO.N,N/C*%
X100000000Y-125000000D03*
%TD*%
D14*
%TO.P,J2,1,Pin_1*%
%TO.N,GND*%
X199525000Y-164335000D03*
D15*
%TO.P,J2,2,Pin_2*%
%TO.N,Net-(J2-Pad2)*%
X199525000Y-161795000D03*
%TD*%
D16*
%TO.P,J1,B12,B12*%
%TO.N,unconnected-(J1-PadB12)*%
X221886519Y-106582486D03*
%TO.P,J1,B11,B11*%
%TO.N,unconnected-(J1-PadB11)*%
X221486393Y-105882486D03*
%TO.P,J1,B10,B10*%
%TO.N,unconnected-(J1-PadB10)*%
X220686267Y-105882486D03*
%TO.P,J1,B9,B9*%
%TO.N,unconnected-(J1-PadB9)*%
X220286141Y-106582486D03*
%TO.P,J1,B8,B8*%
%TO.N,unconnected-(J1-PadB8)*%
X219911515Y-105882486D03*
%TO.P,J1,B7,B7*%
%TO.N,/USB_D-*%
X219473889Y-106582486D03*
%TO.P,J1,B6,B6*%
%TO.N,/USB_D+*%
X218673763Y-106582486D03*
%TO.P,J1,B5,B5*%
%TO.N,Net-(J1-PadB5)*%
X218311137Y-105882486D03*
%TO.P,J1,B4,B4*%
%TO.N,unconnected-(J1-PadB4)*%
X217886511Y-106582486D03*
%TO.P,J1,B3,B3*%
%TO.N,unconnected-(J1-PadB3)*%
X217486385Y-105882486D03*
%TO.P,J1,B2,B2*%
%TO.N,unconnected-(J1-PadB2)*%
X216686259Y-105882486D03*
%TO.P,J1,B1,B1*%
%TO.N,unconnected-(J1-PadB1)*%
X216286133Y-106582486D03*
D17*
%TO.P,J1,29,29*%
%TO.N,unconnected-(J1-Pad29)*%
X215486326Y-107232486D03*
D18*
%TO.P,J1,28,28*%
%TO.N,unconnected-(J1-Pad28)*%
X214596325Y-101592486D03*
%TO.P,J1,27,27*%
%TO.N,unconnected-(J1-Pad27)*%
X214956327Y-105992486D03*
%TO.P,J1,26,26*%
%TO.N,unconnected-(J1-Pad26)*%
X223576327Y-101592486D03*
%TO.P,J1,25,25*%
%TO.N,unconnected-(J1-Pad25)*%
X223216325Y-105992486D03*
%TD*%
D13*
%TO.P,H4,1*%
%TO.N,N/C*%
X100000000Y-162500000D03*
%TD*%
%TO.P,H2,1*%
%TO.N,N/C*%
X337500000Y-125000000D03*
%TD*%
D19*
%TO.P,D55,1,K*%
%TO.N,/Key Matrix/C14*%
X106045000Y-154322500D03*
%TO.P,D55,2,A*%
%TO.N,Net-(D55-Pad2)*%
X106045000Y-152272500D03*
%TD*%
%TO.P,D17,1,K*%
%TO.N,/Key Matrix/C5*%
X294145000Y-116322500D03*
%TO.P,D17,2,A*%
%TO.N,Net-(D17-Pad2)*%
X294145000Y-114272500D03*
%TD*%
D10*
%TO.P,SW29,1,1*%
%TO.N,/Key Matrix/R1*%
X226067500Y-111720000D03*
%TO.P,SW29,2,2*%
%TO.N,Net-(D29-Pad2)*%
X232417500Y-114260000D03*
%TD*%
%TO.P,SW7,1,1*%
%TO.N,/Key Matrix/R3*%
X340177500Y-149730000D03*
%TO.P,SW7,2,2*%
%TO.N,Net-(D7-Pad2)*%
X346527500Y-152270000D03*
%TD*%
D19*
%TO.P,D33,1,K*%
%TO.N,/Key Matrix/C9*%
X201490000Y-116282500D03*
%TO.P,D33,2,A*%
%TO.N,Net-(D33-Pad2)*%
X201490000Y-114232500D03*
%TD*%
%TO.P,D12,1,K*%
%TO.N,/Key Matrix/C3*%
X332187500Y-173372500D03*
%TO.P,D12,2,A*%
%TO.N,Net-(D12-Pad2)*%
X332187500Y-171322500D03*
%TD*%
D10*
%TO.P,SW34,1,1*%
%TO.N,/Key Matrix/R2*%
X207017500Y-130770000D03*
%TO.P,SW34,2,2*%
%TO.N,Net-(D34-Pad2)*%
X213367500Y-133310000D03*
%TD*%
%TO.P,SW46,1,1*%
%TO.N,/Key Matrix/R2*%
X149820000Y-130770000D03*
%TO.P,SW46,2,2*%
%TO.N,Net-(D46-Pad2)*%
X156170000Y-133310000D03*
%TD*%
%TO.P,SW45,1,1*%
%TO.N,/Key Matrix/R1*%
X149820000Y-111720000D03*
%TO.P,SW45,2,2*%
%TO.N,Net-(D45-Pad2)*%
X156170000Y-114260000D03*
%TD*%
D19*
%TO.P,D2,1,K*%
%TO.N,/Key Matrix/C1*%
X370220000Y-135345000D03*
%TO.P,D2,2,A*%
%TO.N,Net-(D2-Pad2)*%
X370220000Y-133295000D03*
%TD*%
%TO.P,D26,1,K*%
%TO.N,/Key Matrix/C7*%
X256210000Y-135587500D03*
%TO.P,D26,2,A*%
%TO.N,Net-(D26-Pad2)*%
X256210000Y-133537500D03*
%TD*%
D10*
%TO.P,SW30,1,1*%
%TO.N,/Key Matrix/R2*%
X226067500Y-130770000D03*
%TO.P,SW30,2,2*%
%TO.N,Net-(D30-Pad2)*%
X232417500Y-133310000D03*
%TD*%
D19*
%TO.P,D48,1,K*%
%TO.N,/Key Matrix/C12*%
X144580000Y-173362500D03*
%TO.P,D48,2,A*%
%TO.N,Net-(D48-Pad2)*%
X144580000Y-171312500D03*
%TD*%
%TO.P,D21,1,K*%
%TO.N,/Key Matrix/C6*%
X275142500Y-116322500D03*
%TO.P,D21,2,A*%
%TO.N,Net-(D21-Pad2)*%
X275142500Y-114272500D03*
%TD*%
%TO.P,D36,1,K*%
%TO.N,/Key Matrix/C9*%
X201647500Y-173372500D03*
%TO.P,D36,2,A*%
%TO.N,Net-(D36-Pad2)*%
X201647500Y-171322500D03*
%TD*%
D10*
%TO.P,SW31,1,1*%
%TO.N,/Key Matrix/R3*%
X226067500Y-149730000D03*
%TO.P,SW31,2,2*%
%TO.N,Net-(D31-Pad2)*%
X232417500Y-152270000D03*
%TD*%
D19*
%TO.P,D46,1,K*%
%TO.N,/Key Matrix/C12*%
X144440000Y-135357500D03*
%TO.P,D46,2,A*%
%TO.N,Net-(D46-Pad2)*%
X144440000Y-133307500D03*
%TD*%
%TO.P,D34,1,K*%
%TO.N,/Key Matrix/C9*%
X201610000Y-135355000D03*
%TO.P,D34,2,A*%
%TO.N,Net-(D34-Pad2)*%
X201610000Y-133305000D03*
%TD*%
%TO.P,D13,1,K*%
%TO.N,/Key Matrix/C4*%
X313147500Y-116322500D03*
%TO.P,D13,2,A*%
%TO.N,Net-(D13-Pad2)*%
X313147500Y-114272500D03*
%TD*%
%TO.P,D64,1,K*%
%TO.N,/Key Matrix/C16*%
X67900000Y-173352500D03*
%TO.P,D64,2,A*%
%TO.N,Net-(D64-Pad2)*%
X67900000Y-171302500D03*
%TD*%
%TO.P,D5,1,K*%
%TO.N,/Key Matrix/C2*%
X351200000Y-116322500D03*
%TO.P,D5,2,A*%
%TO.N,Net-(D5-Pad2)*%
X351200000Y-114272500D03*
%TD*%
D10*
%TO.P,SW10,1,1*%
%TO.N,/Key Matrix/R2*%
X321127500Y-130770000D03*
%TO.P,SW10,2,2*%
%TO.N,Net-(D10-Pad2)*%
X327477500Y-133310000D03*
%TD*%
%TO.P,SW55,2,2*%
%TO.N,Net-(D55-Pad2)*%
X117975000Y-152270000D03*
%TO.P,SW55,1,1*%
%TO.N,/Key Matrix/R3*%
X111625000Y-149730000D03*
%TD*%
D19*
%TO.P,D56,1,K*%
%TO.N,/Key Matrix/C14*%
X106065000Y-173402500D03*
%TO.P,D56,2,A*%
%TO.N,Net-(D56-Pad2)*%
X106065000Y-171352500D03*
%TD*%
%TO.P,D29,1,K*%
%TO.N,/Key Matrix/C8*%
X237090000Y-116322500D03*
%TO.P,D29,2,A*%
%TO.N,Net-(D29-Pad2)*%
X237090000Y-114272500D03*
%TD*%
%TO.P,D60,1,K*%
%TO.N,/Key Matrix/C15*%
X87077500Y-173382500D03*
%TO.P,D60,2,A*%
%TO.N,Net-(D60-Pad2)*%
X87077500Y-171332500D03*
%TD*%
%TO.P,D58,1,K*%
%TO.N,/Key Matrix/C15*%
X87047500Y-135305000D03*
%TO.P,D58,2,A*%
%TO.N,Net-(D58-Pad2)*%
X87047500Y-133255000D03*
%TD*%
D10*
%TO.P,SW27,1,1*%
%TO.N,/Key Matrix/R3*%
X245070000Y-149730000D03*
%TO.P,SW27,2,2*%
%TO.N,Net-(D27-Pad2)*%
X251420000Y-152270000D03*
%TD*%
%TO.P,SW43,1,1*%
%TO.N,/Key Matrix/R3*%
X168917500Y-149730000D03*
%TO.P,SW43,2,2*%
%TO.N,Net-(D43-Pad2)*%
X175267500Y-152270000D03*
%TD*%
%TO.P,SW5,1,1*%
%TO.N,/Key Matrix/R1*%
X340177500Y-111720000D03*
%TO.P,SW5,2,2*%
%TO.N,Net-(D5-Pad2)*%
X346527500Y-114260000D03*
%TD*%
D19*
%TO.P,D38,1,K*%
%TO.N,/Key Matrix/C10*%
X182695000Y-135347500D03*
%TO.P,D38,2,A*%
%TO.N,Net-(D38-Pad2)*%
X182695000Y-133297500D03*
%TD*%
D10*
%TO.P,SW56,1,1*%
%TO.N,/Key Matrix/R4*%
X111625000Y-168780000D03*
%TO.P,SW56,2,2*%
%TO.N,Net-(D56-Pad2)*%
X117975000Y-171320000D03*
%TD*%
%TO.P,SW63,1,1*%
%TO.N,/Key Matrix/R3*%
X73430000Y-149730000D03*
%TO.P,SW63,2,2*%
%TO.N,Net-(D63-Pad2)*%
X79780000Y-152270000D03*
%TD*%
D19*
%TO.P,D30,1,K*%
%TO.N,/Key Matrix/C8*%
X237207500Y-135587500D03*
%TO.P,D30,2,A*%
%TO.N,Net-(D30-Pad2)*%
X237207500Y-133537500D03*
%TD*%
D10*
%TO.P,SW59,1,1*%
%TO.N,/Key Matrix/R3*%
X92527500Y-149730000D03*
%TO.P,SW59,2,2*%
%TO.N,Net-(D59-Pad2)*%
X98877500Y-152270000D03*
%TD*%
D19*
%TO.P,D20,1,K*%
%TO.N,/Key Matrix/C5*%
X294182500Y-173372500D03*
%TO.P,D20,2,A*%
%TO.N,Net-(D20-Pad2)*%
X294182500Y-171322500D03*
%TD*%
D10*
%TO.P,SW60,1,1*%
%TO.N,/Key Matrix/R4*%
X92570000Y-168760000D03*
%TO.P,SW60,2,2*%
%TO.N,Net-(D60-Pad2)*%
X98920000Y-171300000D03*
%TD*%
D19*
%TO.P,D42,1,K*%
%TO.N,/Key Matrix/C11*%
X163510000Y-135377500D03*
%TO.P,D42,2,A*%
%TO.N,Net-(D42-Pad2)*%
X163510000Y-133327500D03*
%TD*%
D10*
%TO.P,SW52,1,1*%
%TO.N,/Key Matrix/R4*%
X130722500Y-168780000D03*
%TO.P,SW52,2,2*%
%TO.N,Net-(D52-Pad2)*%
X137072500Y-171320000D03*
%TD*%
D19*
%TO.P,D22,1,K*%
%TO.N,/Key Matrix/C6*%
X275260000Y-135587500D03*
%TO.P,D22,2,A*%
%TO.N,Net-(D22-Pad2)*%
X275260000Y-133537500D03*
%TD*%
%TO.P,D19,1,K*%
%TO.N,/Key Matrix/C5*%
X294152500Y-154332500D03*
%TO.P,D19,2,A*%
%TO.N,Net-(D19-Pad2)*%
X294152500Y-152282500D03*
%TD*%
%TO.P,D32,1,K*%
%TO.N,/Key Matrix/C8*%
X237127500Y-173372500D03*
%TO.P,D32,2,A*%
%TO.N,Net-(D32-Pad2)*%
X237127500Y-171322500D03*
%TD*%
%TO.P,D3,1,K*%
%TO.N,/Key Matrix/C1*%
X370210000Y-154332500D03*
%TO.P,D3,2,A*%
%TO.N,Net-(D3-Pad2)*%
X370210000Y-152282500D03*
%TD*%
D10*
%TO.P,SW37,1,1*%
%TO.N,/Key Matrix/R1*%
X188015000Y-111720000D03*
%TO.P,SW37,2,2*%
%TO.N,Net-(D37-Pad2)*%
X194365000Y-114260000D03*
%TD*%
%TO.P,SW18,1,1*%
%TO.N,/Key Matrix/R2*%
X283122500Y-130770000D03*
%TO.P,SW18,2,2*%
%TO.N,Net-(D18-Pad2)*%
X289472500Y-133310000D03*
%TD*%
D19*
%TO.P,D45,1,K*%
%TO.N,/Key Matrix/C12*%
X144362500Y-116312500D03*
%TO.P,D45,2,A*%
%TO.N,Net-(D45-Pad2)*%
X144362500Y-114262500D03*
%TD*%
D10*
%TO.P,SW3,1,1*%
%TO.N,/Key Matrix/R3*%
X359180000Y-149730000D03*
%TO.P,SW3,2,2*%
%TO.N,Net-(D3-Pad2)*%
X365530000Y-152270000D03*
%TD*%
D19*
%TO.P,D50,1,K*%
%TO.N,/Key Matrix/C13*%
X125412500Y-135345000D03*
%TO.P,D50,2,A*%
%TO.N,Net-(D50-Pad2)*%
X125412500Y-133295000D03*
%TD*%
%TO.P,D10,1,K*%
%TO.N,/Key Matrix/C3*%
X332267500Y-135587500D03*
%TO.P,D10,2,A*%
%TO.N,Net-(D10-Pad2)*%
X332267500Y-133537500D03*
%TD*%
D10*
%TO.P,SW64,1,1*%
%TO.N,/Key Matrix/R4*%
X73430000Y-168780000D03*
%TO.P,SW64,2,2*%
%TO.N,Net-(D64-Pad2)*%
X79780000Y-171320000D03*
%TD*%
%TO.P,SW8,1,1*%
%TO.N,/Key Matrix/R4*%
X340177500Y-168780000D03*
%TO.P,SW8,2,2*%
%TO.N,Net-(D8-Pad2)*%
X346527500Y-171320000D03*
%TD*%
D19*
%TO.P,D61,2,A*%
%TO.N,Net-(D61-Pad2)*%
X67980000Y-114252500D03*
%TO.P,D61,1,K*%
%TO.N,/Key Matrix/C16*%
X67980000Y-116302500D03*
%TD*%
%TO.P,D37,1,K*%
%TO.N,/Key Matrix/C10*%
X182507500Y-116302500D03*
%TO.P,D37,2,A*%
%TO.N,Net-(D37-Pad2)*%
X182507500Y-114252500D03*
%TD*%
D10*
%TO.P,SW58,2,2*%
%TO.N,Net-(D58-Pad2)*%
X98877500Y-133310000D03*
%TO.P,SW58,1,1*%
%TO.N,/Key Matrix/R2*%
X92527500Y-130770000D03*
%TD*%
D19*
%TO.P,D62,1,K*%
%TO.N,/Key Matrix/C16*%
X67970000Y-135412500D03*
%TO.P,D62,2,A*%
%TO.N,Net-(D62-Pad2)*%
X67970000Y-133362500D03*
%TD*%
%TO.P,D6,1,K*%
%TO.N,/Key Matrix/C2*%
X351317500Y-135587500D03*
%TO.P,D6,2,A*%
%TO.N,Net-(D6-Pad2)*%
X351317500Y-133537500D03*
%TD*%
%TO.P,D27,1,K*%
%TO.N,/Key Matrix/C7*%
X256100000Y-154332500D03*
%TO.P,D27,2,A*%
%TO.N,Net-(D27-Pad2)*%
X256100000Y-152282500D03*
%TD*%
D10*
%TO.P,SW44,1,1*%
%TO.N,/Key Matrix/R4*%
X168917500Y-168780000D03*
%TO.P,SW44,2,2*%
%TO.N,Net-(D44-Pad2)*%
X175267500Y-171320000D03*
%TD*%
D19*
%TO.P,D54,1,K*%
%TO.N,/Key Matrix/C14*%
X106095000Y-135365000D03*
%TO.P,D54,2,A*%
%TO.N,Net-(D54-Pad2)*%
X106095000Y-133315000D03*
%TD*%
D10*
%TO.P,SW42,1,1*%
%TO.N,/Key Matrix/R2*%
X168917500Y-130770000D03*
%TO.P,SW42,2,2*%
%TO.N,Net-(D42-Pad2)*%
X175267500Y-133310000D03*
%TD*%
%TO.P,SW2,1,1*%
%TO.N,/Key Matrix/R2*%
X359180000Y-130770000D03*
%TO.P,SW2,2,2*%
%TO.N,Net-(D2-Pad2)*%
X365530000Y-133310000D03*
%TD*%
D19*
%TO.P,D11,1,K*%
%TO.N,/Key Matrix/C3*%
X332157500Y-154332500D03*
%TO.P,D11,2,A*%
%TO.N,Net-(D11-Pad2)*%
X332157500Y-152282500D03*
%TD*%
%TO.P,D43,1,K*%
%TO.N,/Key Matrix/C11*%
X163507500Y-154352500D03*
%TO.P,D43,2,A*%
%TO.N,Net-(D43-Pad2)*%
X163507500Y-152302500D03*
%TD*%
D10*
%TO.P,SW26,1,1*%
%TO.N,/Key Matrix/R2*%
X245070000Y-130770000D03*
%TO.P,SW26,2,2*%
%TO.N,Net-(D26-Pad2)*%
X251420000Y-133310000D03*
%TD*%
D19*
%TO.P,D28,1,K*%
%TO.N,/Key Matrix/C7*%
X256130000Y-173372500D03*
%TO.P,D28,2,A*%
%TO.N,Net-(D28-Pad2)*%
X256130000Y-171322500D03*
%TD*%
D10*
%TO.P,SW33,1,1*%
%TO.N,/Key Matrix/R1*%
X207017500Y-111720000D03*
%TO.P,SW33,2,2*%
%TO.N,Net-(D33-Pad2)*%
X213367500Y-114260000D03*
%TD*%
D19*
%TO.P,D41,1,K*%
%TO.N,/Key Matrix/C11*%
X163480000Y-116352500D03*
%TO.P,D41,2,A*%
%TO.N,Net-(D41-Pad2)*%
X163480000Y-114302500D03*
%TD*%
%TO.P,D44,1,K*%
%TO.N,/Key Matrix/C11*%
X163457500Y-173342500D03*
%TO.P,D44,2,A*%
%TO.N,Net-(D44-Pad2)*%
X163457500Y-171292500D03*
%TD*%
D10*
%TO.P,SW54,1,1*%
%TO.N,/Key Matrix/R2*%
X111625000Y-130770000D03*
%TO.P,SW54,2,2*%
%TO.N,Net-(D54-Pad2)*%
X117975000Y-133310000D03*
%TD*%
%TO.P,SW19,1,1*%
%TO.N,/Key Matrix/R3*%
X283122500Y-149730000D03*
%TO.P,SW19,2,2*%
%TO.N,Net-(D19-Pad2)*%
X289472500Y-152270000D03*
%TD*%
%TO.P,SW13,1,1*%
%TO.N,/Key Matrix/R1*%
X302125000Y-111720000D03*
%TO.P,SW13,2,2*%
%TO.N,Net-(D13-Pad2)*%
X308475000Y-114260000D03*
%TD*%
D19*
%TO.P,D57,1,K*%
%TO.N,/Key Matrix/C15*%
X87070000Y-116362500D03*
%TO.P,D57,2,A*%
%TO.N,Net-(D57-Pad2)*%
X87070000Y-114312500D03*
%TD*%
D10*
%TO.P,SW50,1,1*%
%TO.N,/Key Matrix/R2*%
X130722500Y-130770000D03*
%TO.P,SW50,2,2*%
%TO.N,Net-(D50-Pad2)*%
X137072500Y-133310000D03*
%TD*%
D19*
%TO.P,D59,1,K*%
%TO.N,/Key Matrix/C15*%
X87047500Y-154302500D03*
%TO.P,D59,2,A*%
%TO.N,Net-(D59-Pad2)*%
X87047500Y-152252500D03*
%TD*%
D10*
%TO.P,SW32,1,1*%
%TO.N,/Key Matrix/R4*%
X226067500Y-168780000D03*
%TO.P,SW32,2,2*%
%TO.N,Net-(D32-Pad2)*%
X232417500Y-171320000D03*
%TD*%
%TO.P,SW49,1,1*%
%TO.N,/Key Matrix/R1*%
X130722500Y-111720000D03*
%TO.P,SW49,2,2*%
%TO.N,Net-(D49-Pad2)*%
X137072500Y-114260000D03*
%TD*%
D19*
%TO.P,D35,1,K*%
%TO.N,/Key Matrix/C9*%
X201657500Y-154422500D03*
%TO.P,D35,2,A*%
%TO.N,Net-(D35-Pad2)*%
X201657500Y-152372500D03*
%TD*%
%TO.P,D24,1,K*%
%TO.N,/Key Matrix/C6*%
X275180000Y-173372500D03*
%TO.P,D24,2,A*%
%TO.N,Net-(D24-Pad2)*%
X275180000Y-171322500D03*
%TD*%
%TO.P,D47,1,K*%
%TO.N,/Key Matrix/C12*%
X144360000Y-154362500D03*
%TO.P,D47,2,A*%
%TO.N,Net-(D47-Pad2)*%
X144360000Y-152312500D03*
%TD*%
%TO.P,D16,1,K*%
%TO.N,/Key Matrix/C4*%
X313185000Y-173372500D03*
%TO.P,D16,2,A*%
%TO.N,Net-(D16-Pad2)*%
X313185000Y-171322500D03*
%TD*%
D10*
%TO.P,SW14,1,1*%
%TO.N,/Key Matrix/R2*%
X302125000Y-130770000D03*
%TO.P,SW14,2,2*%
%TO.N,Net-(D14-Pad2)*%
X308475000Y-133310000D03*
%TD*%
%TO.P,SW23,1,1*%
%TO.N,/Key Matrix/R3*%
X264120000Y-149730000D03*
%TO.P,SW23,2,2*%
%TO.N,Net-(D23-Pad2)*%
X270470000Y-152270000D03*
%TD*%
%TO.P,SW15,1,1*%
%TO.N,/Key Matrix/R3*%
X302125000Y-149730000D03*
%TO.P,SW15,2,2*%
%TO.N,Net-(D15-Pad2)*%
X308475000Y-152270000D03*
%TD*%
%TO.P,SW61,1,1*%
%TO.N,/Key Matrix/R1*%
X73430000Y-111720000D03*
%TO.P,SW61,2,2*%
%TO.N,Net-(D61-Pad2)*%
X79780000Y-114260000D03*
%TD*%
D19*
%TO.P,D14,1,K*%
%TO.N,/Key Matrix/C4*%
X313265000Y-135587500D03*
%TO.P,D14,2,A*%
%TO.N,Net-(D14-Pad2)*%
X313265000Y-133537500D03*
%TD*%
%TO.P,D1,1,K*%
%TO.N,/Key Matrix/C1*%
X370202500Y-116322500D03*
%TO.P,D1,2,A*%
%TO.N,Net-(D1-Pad2)*%
X370202500Y-114272500D03*
%TD*%
D10*
%TO.P,SW62,1,1*%
%TO.N,/Key Matrix/R2*%
X73430000Y-130770000D03*
%TO.P,SW62,2,2*%
%TO.N,Net-(D62-Pad2)*%
X79780000Y-133310000D03*
%TD*%
D19*
%TO.P,D53,1,K*%
%TO.N,/Key Matrix/C14*%
X106097500Y-116322500D03*
%TO.P,D53,2,A*%
%TO.N,Net-(D53-Pad2)*%
X106097500Y-114272500D03*
%TD*%
%TO.P,D15,1,K*%
%TO.N,/Key Matrix/C4*%
X313155000Y-154332500D03*
%TO.P,D15,2,A*%
%TO.N,Net-(D15-Pad2)*%
X313155000Y-152282500D03*
%TD*%
D10*
%TO.P,SW57,1,1*%
%TO.N,/Key Matrix/R1*%
X92527500Y-111720000D03*
%TO.P,SW57,2,2*%
%TO.N,Net-(D57-Pad2)*%
X98877500Y-114260000D03*
%TD*%
D19*
%TO.P,D25,1,K*%
%TO.N,/Key Matrix/C7*%
X256092500Y-116322500D03*
%TO.P,D25,2,A*%
%TO.N,Net-(D25-Pad2)*%
X256092500Y-114272500D03*
%TD*%
%TO.P,D4,1,K*%
%TO.N,/Key Matrix/C1*%
X370240000Y-173372500D03*
%TO.P,D4,2,A*%
%TO.N,Net-(D4-Pad2)*%
X370240000Y-171322500D03*
%TD*%
D10*
%TO.P,SW28,1,1*%
%TO.N,/Key Matrix/R4*%
X245070000Y-168780000D03*
%TO.P,SW28,2,2*%
%TO.N,Net-(D28-Pad2)*%
X251420000Y-171320000D03*
%TD*%
%TO.P,SW36,1,1*%
%TO.N,/Key Matrix/R4*%
X207017500Y-168780000D03*
%TO.P,SW36,2,2*%
%TO.N,Net-(D36-Pad2)*%
X213367500Y-171320000D03*
%TD*%
%TO.P,SW51,1,1*%
%TO.N,/Key Matrix/R3*%
X130722500Y-149730000D03*
%TO.P,SW51,2,2*%
%TO.N,Net-(D51-Pad2)*%
X137072500Y-152270000D03*
%TD*%
%TO.P,SW12,1,1*%
%TO.N,/Key Matrix/R4*%
X321127500Y-168780000D03*
%TO.P,SW12,2,2*%
%TO.N,Net-(D12-Pad2)*%
X327477500Y-171320000D03*
%TD*%
D19*
%TO.P,D23,1,K*%
%TO.N,/Key Matrix/C6*%
X275150000Y-154087500D03*
%TO.P,D23,2,A*%
%TO.N,Net-(D23-Pad2)*%
X275150000Y-152037500D03*
%TD*%
D10*
%TO.P,SW38,1,1*%
%TO.N,/Key Matrix/R2*%
X188015000Y-130770000D03*
%TO.P,SW38,2,2*%
%TO.N,Net-(D38-Pad2)*%
X194365000Y-133310000D03*
%TD*%
D19*
%TO.P,D9,1,K*%
%TO.N,/Key Matrix/C3*%
X332150000Y-116322500D03*
%TO.P,D9,2,A*%
%TO.N,Net-(D9-Pad2)*%
X332150000Y-114272500D03*
%TD*%
D10*
%TO.P,SW11,1,1*%
%TO.N,/Key Matrix/R3*%
X321127500Y-149730000D03*
%TO.P,SW11,2,2*%
%TO.N,Net-(D11-Pad2)*%
X327477500Y-152270000D03*
%TD*%
%TO.P,SW21,1,1*%
%TO.N,/Key Matrix/R1*%
X264120000Y-111720000D03*
%TO.P,SW21,2,2*%
%TO.N,Net-(D21-Pad2)*%
X270470000Y-114260000D03*
%TD*%
D19*
%TO.P,D7,1,K*%
%TO.N,/Key Matrix/C2*%
X351207500Y-154332500D03*
%TO.P,D7,2,A*%
%TO.N,Net-(D7-Pad2)*%
X351207500Y-152282500D03*
%TD*%
%TO.P,D51,1,K*%
%TO.N,/Key Matrix/C13*%
X125412500Y-154262500D03*
%TO.P,D51,2,A*%
%TO.N,Net-(D51-Pad2)*%
X125412500Y-152212500D03*
%TD*%
D10*
%TO.P,SW1,1,1*%
%TO.N,/Key Matrix/R1*%
X359180000Y-111720000D03*
%TO.P,SW1,2,2*%
%TO.N,Net-(D1-Pad2)*%
X365530000Y-114260000D03*
%TD*%
%TO.P,SW39,1,1*%
%TO.N,/Key Matrix/R3*%
X188015000Y-149730000D03*
%TO.P,SW39,2,2*%
%TO.N,Net-(D39-Pad2)*%
X194365000Y-152270000D03*
%TD*%
%TO.P,SW16,1,1*%
%TO.N,/Key Matrix/R4*%
X302125000Y-168780000D03*
%TO.P,SW16,2,2*%
%TO.N,Net-(D16-Pad2)*%
X308475000Y-171320000D03*
%TD*%
%TO.P,SW47,1,1*%
%TO.N,/Key Matrix/R3*%
X149820000Y-149730000D03*
%TO.P,SW47,2,2*%
%TO.N,Net-(D47-Pad2)*%
X156170000Y-152270000D03*
%TD*%
%TO.P,SW35,1,1*%
%TO.N,/Key Matrix/R3*%
X207050000Y-149770000D03*
%TO.P,SW35,2,2*%
%TO.N,Net-(D35-Pad2)*%
X213400000Y-152310000D03*
%TD*%
%TO.P,SW20,1,1*%
%TO.N,/Key Matrix/R4*%
X283122500Y-168780000D03*
%TO.P,SW20,2,2*%
%TO.N,Net-(D20-Pad2)*%
X289472500Y-171320000D03*
%TD*%
%TO.P,SW17,1,1*%
%TO.N,/Key Matrix/R1*%
X283122500Y-111720000D03*
%TO.P,SW17,2,2*%
%TO.N,Net-(D17-Pad2)*%
X289472500Y-114260000D03*
%TD*%
%TO.P,SW53,1,1*%
%TO.N,/Key Matrix/R1*%
X111625000Y-111720000D03*
%TO.P,SW53,2,2*%
%TO.N,Net-(D53-Pad2)*%
X117975000Y-114260000D03*
%TD*%
D19*
%TO.P,D18,1,K*%
%TO.N,/Key Matrix/C5*%
X294262500Y-135587500D03*
%TO.P,D18,2,A*%
%TO.N,Net-(D18-Pad2)*%
X294262500Y-133537500D03*
%TD*%
D10*
%TO.P,SW24,1,1*%
%TO.N,/Key Matrix/R4*%
X264120000Y-168780000D03*
%TO.P,SW24,2,2*%
%TO.N,Net-(D24-Pad2)*%
X270470000Y-171320000D03*
%TD*%
D19*
%TO.P,D49,1,K*%
%TO.N,/Key Matrix/C13*%
X125275000Y-116272500D03*
%TO.P,D49,2,A*%
%TO.N,Net-(D49-Pad2)*%
X125275000Y-114222500D03*
%TD*%
%TO.P,D39,1,K*%
%TO.N,/Key Matrix/C10*%
X182820000Y-154292500D03*
%TO.P,D39,2,A*%
%TO.N,Net-(D39-Pad2)*%
X182820000Y-152242500D03*
%TD*%
D10*
%TO.P,SW6,1,1*%
%TO.N,/Key Matrix/R2*%
X340177500Y-130770000D03*
%TO.P,SW6,2,2*%
%TO.N,Net-(D6-Pad2)*%
X346527500Y-133310000D03*
%TD*%
%TO.P,SW4,1,1*%
%TO.N,/Key Matrix/R4*%
X359180000Y-168780000D03*
%TO.P,SW4,2,2*%
%TO.N,Net-(D4-Pad2)*%
X365530000Y-171320000D03*
%TD*%
%TO.P,SW40,1,1*%
%TO.N,/Key Matrix/R4*%
X188015000Y-168780000D03*
%TO.P,SW40,2,2*%
%TO.N,Net-(D40-Pad2)*%
X194365000Y-171320000D03*
%TD*%
D19*
%TO.P,D52,1,K*%
%TO.N,/Key Matrix/C13*%
X125312500Y-173412500D03*
%TO.P,D52,2,A*%
%TO.N,Net-(D52-Pad2)*%
X125312500Y-171362500D03*
%TD*%
D10*
%TO.P,SW41,1,1*%
%TO.N,/Key Matrix/R1*%
X168917500Y-111720000D03*
%TO.P,SW41,2,2*%
%TO.N,Net-(D41-Pad2)*%
X175267500Y-114260000D03*
%TD*%
D19*
%TO.P,D8,1,K*%
%TO.N,/Key Matrix/C2*%
X351237500Y-173372500D03*
%TO.P,D8,2,A*%
%TO.N,Net-(D8-Pad2)*%
X351237500Y-171322500D03*
%TD*%
D10*
%TO.P,SW48,1,1*%
%TO.N,/Key Matrix/R4*%
X149820000Y-168780000D03*
%TO.P,SW48,2,2*%
%TO.N,Net-(D48-Pad2)*%
X156170000Y-171320000D03*
%TD*%
%TO.P,SW25,1,1*%
%TO.N,/Key Matrix/R1*%
X245070000Y-111720000D03*
%TO.P,SW25,2,2*%
%TO.N,Net-(D25-Pad2)*%
X251420000Y-114260000D03*
%TD*%
D19*
%TO.P,D63,1,K*%
%TO.N,/Key Matrix/C16*%
X68030000Y-154332500D03*
%TO.P,D63,2,A*%
%TO.N,Net-(D63-Pad2)*%
X68030000Y-152282500D03*
%TD*%
D10*
%TO.P,SW9,1,1*%
%TO.N,/Key Matrix/R1*%
X321127500Y-111720000D03*
%TO.P,SW9,2,2*%
%TO.N,Net-(D9-Pad2)*%
X327477500Y-114260000D03*
%TD*%
D19*
%TO.P,D31,1,K*%
%TO.N,/Key Matrix/C8*%
X237097500Y-154332500D03*
%TO.P,D31,2,A*%
%TO.N,Net-(D31-Pad2)*%
X237097500Y-152282500D03*
%TD*%
%TO.P,D40,1,K*%
%TO.N,/Key Matrix/C10*%
X182780000Y-173335000D03*
%TO.P,D40,2,A*%
%TO.N,Net-(D40-Pad2)*%
X182780000Y-171285000D03*
%TD*%
D20*
%TO.N,GND*%
X224760000Y-108780000D03*
%TO.N,+3V3*%
X198870000Y-159920000D03*
X221860000Y-153730000D03*
X213300000Y-141700000D03*
X224850000Y-134550000D03*
X209640000Y-127670000D03*
X222640000Y-127670000D03*
%TO.N,/Key Matrix/R1*%
X208750000Y-129720000D03*
X208750000Y-132310000D03*
%TO.N,Net-(D34-Pad2)*%
X211590000Y-133300000D03*
X204050000Y-133310000D03*
%TO.N,Net-(D33-Pad2)*%
X211090000Y-114260000D03*
X203840000Y-114260000D03*
%TO.N,GND*%
X204840000Y-137630000D03*
X209570000Y-146950000D03*
%TO.N,/Key Matrix/C16*%
X204870000Y-147350000D03*
%TO.N,/Key Matrix/C15*%
X204840000Y-146310000D03*
%TO.N,/Key Matrix/C14*%
X205260000Y-145190000D03*
%TO.N,/Key Matrix/C13*%
X204710000Y-144220000D03*
%TO.N,/Key Matrix/C12*%
X205300000Y-143300000D03*
%TO.N,/Key Matrix/C11*%
X204660000Y-142350000D03*
%TO.N,/Key Matrix/C10*%
X205290000Y-141520000D03*
%TO.N,/Key Matrix/R2*%
X210290000Y-141510000D03*
%TO.N,/Key Matrix/R1*%
X211680000Y-141650000D03*
%TO.N,/Key Matrix/C1*%
X225280000Y-147050000D03*
%TO.N,/Key Matrix/C2*%
X226600000Y-146460000D03*
%TO.N,/Key Matrix/C3*%
X227420000Y-145630000D03*
%TO.N,/Key Matrix/C4*%
X227590000Y-144390000D03*
%TO.N,/Key Matrix/C5*%
X226680000Y-143660000D03*
%TO.N,/Key Matrix/C6*%
X226180000Y-142650000D03*
%TO.N,/Key Matrix/C7*%
X225450000Y-141900000D03*
%TO.N,/Key Matrix/C8*%
X224500000Y-141510000D03*
%TO.N,+3V3*%
X217300000Y-133770000D03*
X228410000Y-132390000D03*
%TO.N,/Key Matrix/R3*%
X215880000Y-149770000D03*
%TO.N,/Key Matrix/R4*%
X207000000Y-165620000D03*
%TO.N,/Key Matrix/C9*%
X205240000Y-148570000D03*
%TO.N,/Key Matrix/C14*%
X106050000Y-175200000D03*
%TO.N,/Key Matrix/C1*%
X370160000Y-118180000D03*
X370150000Y-175210000D03*
X370200000Y-155970000D03*
X370160000Y-136930000D03*
%TO.N,/Key Matrix/C2*%
X351260000Y-175030000D03*
X351200000Y-118080000D03*
X351300000Y-137290000D03*
X351180000Y-156090000D03*
%TO.N,/Key Matrix/C3*%
X332140000Y-175030000D03*
X332140000Y-156020000D03*
X332290000Y-137290000D03*
X332140000Y-117870000D03*
%TO.N,/Key Matrix/C4*%
X313170000Y-156040000D03*
X313190000Y-174890000D03*
X313080000Y-117920000D03*
X313280000Y-137390000D03*
%TO.N,/Key Matrix/C5*%
X294200000Y-174890000D03*
X294250000Y-156140000D03*
X294170000Y-117920000D03*
X294320000Y-137290000D03*
%TO.N,/Key Matrix/C6*%
X275110000Y-155940000D03*
X275210000Y-117970000D03*
X275180000Y-174990000D03*
X275210000Y-137190000D03*
%TO.N,/Key Matrix/C7*%
X256140000Y-156330000D03*
X256100000Y-118180000D03*
X256160000Y-175230000D03*
X256200000Y-137340000D03*
%TO.N,/Key Matrix/C8*%
X237140000Y-137240000D03*
X237100000Y-175060000D03*
X237100000Y-155940000D03*
X237170000Y-129240000D03*
%TO.N,/Key Matrix/C9*%
X201690000Y-155920000D03*
X201440000Y-117870000D03*
X201590000Y-136830000D03*
X201670000Y-174960000D03*
%TO.N,/Key Matrix/C10*%
X182720000Y-137050000D03*
X182800000Y-155850000D03*
X182530000Y-118030000D03*
X183140000Y-174990000D03*
%TO.N,/Key Matrix/C11*%
X163530000Y-136850000D03*
X163510000Y-156020000D03*
X163420000Y-118030000D03*
X163510000Y-175160000D03*
%TO.N,/Key Matrix/C12*%
X144410000Y-117970000D03*
X144600000Y-175160000D03*
X144440000Y-136970000D03*
X144390000Y-156090000D03*
%TO.N,/Key Matrix/C13*%
X125370000Y-136920000D03*
X125300000Y-117920000D03*
X125330000Y-155920000D03*
X125260000Y-175280000D03*
%TO.N,/Key Matrix/C14*%
X106060000Y-156020000D03*
X106110000Y-137000000D03*
X106190000Y-117820000D03*
%TO.N,/Key Matrix/C15*%
X87130000Y-175030000D03*
X87030000Y-117870000D03*
X87090000Y-136900000D03*
X87020000Y-156140000D03*
%TO.N,/Key Matrix/C16*%
X68000000Y-117780000D03*
X67920000Y-175370000D03*
X67930000Y-137000000D03*
X68030000Y-156020000D03*
%TO.N,/USB_D+*%
X218160000Y-110150000D03*
%TO.N,/USB_D-*%
X219950000Y-110110000D03*
%TO.N,Net-(J1-PadB5)*%
X213350000Y-107500000D03*
%TD*%
D21*
%TO.N,/USB_D-*%
X219473889Y-106582486D02*
X219473889Y-109633889D01*
X219473889Y-109633889D02*
X219950000Y-110110000D01*
%TO.N,/USB_D+*%
X218673763Y-106582486D02*
X218673763Y-109636237D01*
X218673763Y-109636237D02*
X218160000Y-110150000D01*
%TO.N,+3V3*%
X215670000Y-159920000D02*
X198870000Y-159920000D01*
X221860000Y-153730000D02*
X215670000Y-159920000D01*
D22*
%TO.N,/Key Matrix/C12*%
X144440000Y-136970000D02*
X151150000Y-143680000D01*
X196815685Y-143290000D02*
X205290000Y-143290000D01*
X151150000Y-143680000D02*
X196425685Y-143680000D01*
X196425685Y-143680000D02*
X196815685Y-143290000D01*
X205290000Y-143290000D02*
X205300000Y-143300000D01*
%TO.N,/Key Matrix/C14*%
X106110000Y-137000000D02*
X113880000Y-144770000D01*
X113880000Y-144770000D02*
X196660000Y-144770000D01*
X196660000Y-144770000D02*
X197050000Y-145160000D01*
X197050000Y-145160000D02*
X205230000Y-145160000D01*
X205230000Y-145160000D02*
X205260000Y-145190000D01*
%TO.N,/Key Matrix/C5*%
X228960000Y-143640000D02*
X228790000Y-143470000D01*
X228790000Y-143470000D02*
X226870000Y-143470000D01*
X226870000Y-143470000D02*
X226680000Y-143660000D01*
%TO.N,/Key Matrix/C3*%
X227420000Y-145630000D02*
X227610000Y-145440000D01*
X227610000Y-145440000D02*
X326420000Y-145440000D01*
D21*
%TO.N,+3V3*%
X224850000Y-134550000D02*
X220450000Y-134550000D01*
X220450000Y-134550000D02*
X213300000Y-141700000D01*
X222640000Y-127670000D02*
X209640000Y-127670000D01*
D22*
%TO.N,/Key Matrix/R1*%
X208750000Y-129720000D02*
X207017500Y-127987500D01*
X207017500Y-127987500D02*
X207017500Y-111720000D01*
X207030000Y-137240000D02*
X207030000Y-134030000D01*
X207030000Y-134030000D02*
X208750000Y-132310000D01*
X211680000Y-141650000D02*
X211440000Y-141650000D01*
X211440000Y-141650000D02*
X207030000Y-137240000D01*
%TO.N,/Key Matrix/R2*%
X210290000Y-141510000D02*
X206420000Y-137640000D01*
D21*
X207017500Y-130770000D02*
X203600000Y-130770000D01*
X203600000Y-130770000D02*
X188015000Y-130770000D01*
D22*
X206420000Y-137640000D02*
X206420000Y-133340000D01*
X203850000Y-130770000D02*
X203600000Y-130770000D01*
X206420000Y-133340000D02*
X203850000Y-130770000D01*
D21*
%TO.N,GND*%
X209570000Y-146950000D02*
X206690000Y-144070000D01*
X206690000Y-144070000D02*
X206690000Y-140850000D01*
X206690000Y-140850000D02*
X204710000Y-138870000D01*
X204710000Y-138870000D02*
X204710000Y-137760000D01*
X204710000Y-137760000D02*
X204840000Y-137630000D01*
D22*
%TO.N,Net-(D34-Pad2)*%
X211590000Y-133300000D02*
X213357500Y-133300000D01*
D23*
%TO.N,Net-(D33-Pad2)*%
X203840000Y-114260000D02*
X201517500Y-114260000D01*
D22*
%TO.N,/Key Matrix/C16*%
X67930000Y-137000000D02*
X77160000Y-146230000D01*
X77160000Y-146230000D02*
X196680000Y-146230000D01*
X196680000Y-146230000D02*
X197800000Y-147350000D01*
X197800000Y-147350000D02*
X204870000Y-147350000D01*
%TO.N,/Key Matrix/C15*%
X87090000Y-136900000D02*
X95770000Y-145580000D01*
X95770000Y-145580000D02*
X196740000Y-145580000D01*
X196740000Y-145580000D02*
X197230000Y-146070000D01*
X197230000Y-146070000D02*
X204790000Y-146070000D01*
%TO.N,/Key Matrix/C13*%
X125370000Y-136920000D02*
X132640000Y-144190000D01*
X132640000Y-144190000D02*
X204680000Y-144190000D01*
X204680000Y-144190000D02*
X204710000Y-144220000D01*
%TO.N,/Key Matrix/C11*%
X163530000Y-136850000D02*
X169780000Y-143100000D01*
X196440000Y-143100000D02*
X197190000Y-142350000D01*
X169780000Y-143100000D02*
X196440000Y-143100000D01*
X197190000Y-142350000D02*
X204660000Y-142350000D01*
%TO.N,/Key Matrix/C10*%
X195510000Y-142440000D02*
X196430000Y-141520000D01*
X196430000Y-141520000D02*
X205290000Y-141520000D01*
D21*
%TO.N,/Key Matrix/C9*%
X203426519Y-138610000D02*
X206200000Y-141383481D01*
X203370000Y-138610000D02*
X203426519Y-138610000D01*
X201590000Y-136830000D02*
X203370000Y-138610000D01*
X206200000Y-141383481D02*
X206200000Y-147610000D01*
X206200000Y-147610000D02*
X205240000Y-148570000D01*
D22*
%TO.N,/Key Matrix/C10*%
X188110000Y-142440000D02*
X195510000Y-142440000D01*
X182720000Y-137050000D02*
X188110000Y-142440000D01*
%TO.N,/Key Matrix/C1*%
X225280000Y-147050000D02*
X225390000Y-147160000D01*
X225390000Y-147160000D02*
X359930000Y-147160000D01*
X359930000Y-147160000D02*
X370160000Y-136930000D01*
%TO.N,/Key Matrix/C2*%
X226600000Y-146460000D02*
X342130000Y-146460000D01*
X342130000Y-146460000D02*
X351300000Y-137290000D01*
%TO.N,/Key Matrix/C3*%
X324140000Y-145440000D02*
X332290000Y-137290000D01*
%TO.N,/Key Matrix/C4*%
X227570000Y-144420000D02*
X306980000Y-144420000D01*
X306300000Y-144370000D02*
X313280000Y-137390000D01*
%TO.N,/Key Matrix/C5*%
X228960000Y-143640000D02*
X290280000Y-143640000D01*
X287900000Y-143710000D02*
X294320000Y-137290000D01*
%TO.N,/Key Matrix/C6*%
X226410000Y-142790000D02*
X269610000Y-142790000D01*
X269610000Y-142790000D02*
X275210000Y-137190000D01*
%TO.N,/Key Matrix/C7*%
X225450000Y-141900000D02*
X251640000Y-141900000D01*
X251640000Y-141900000D02*
X256200000Y-137340000D01*
%TO.N,/Key Matrix/C8*%
X237140000Y-137240000D02*
X237140000Y-138540000D01*
X237140000Y-138540000D02*
X234480000Y-141200000D01*
X234480000Y-141200000D02*
X224810000Y-141200000D01*
X224810000Y-141200000D02*
X224500000Y-141510000D01*
D21*
%TO.N,+3V3*%
X217300000Y-133770000D02*
X227030000Y-133770000D01*
X227030000Y-133770000D02*
X228410000Y-132390000D01*
%TO.N,/Key Matrix/R3*%
X215880000Y-149770000D02*
X226027500Y-149770000D01*
D22*
%TO.N,/Key Matrix/R4*%
X207017500Y-168780000D02*
X207017500Y-165637500D01*
X207017500Y-165637500D02*
X207000000Y-165620000D01*
D21*
%TO.N,/Key Matrix/R1*%
X188015000Y-111720000D02*
X207017500Y-111720000D01*
D23*
%TO.N,/Key Matrix/C8*%
X237090000Y-116322500D02*
X237090000Y-129160000D01*
X237090000Y-129160000D02*
X237170000Y-129240000D01*
%TO.N,/Key Matrix/C5*%
X294170000Y-117920000D02*
X294145000Y-117895000D01*
X294145000Y-117895000D02*
X294145000Y-116322500D01*
%TO.N,/Key Matrix/C1*%
X370240000Y-173372500D02*
X370240000Y-175120000D01*
X370240000Y-175120000D02*
X370150000Y-175210000D01*
%TO.N,/Key Matrix/C2*%
X351237500Y-173372500D02*
X351237500Y-175007500D01*
X351237500Y-175007500D02*
X351260000Y-175030000D01*
%TO.N,/Key Matrix/C1*%
X370210000Y-154332500D02*
X370210000Y-155960000D01*
X370210000Y-155960000D02*
X370200000Y-155970000D01*
%TO.N,/Key Matrix/C2*%
X351207500Y-154332500D02*
X351207500Y-156062500D01*
X351207500Y-156062500D02*
X351180000Y-156090000D01*
%TO.N,/Key Matrix/C1*%
X370220000Y-135345000D02*
X370220000Y-136870000D01*
X370220000Y-136870000D02*
X370160000Y-136930000D01*
%TO.N,/Key Matrix/C2*%
X351317500Y-135587500D02*
X351317500Y-137272500D01*
X351317500Y-137272500D02*
X351300000Y-137290000D01*
%TO.N,/Key Matrix/C1*%
X370202500Y-116322500D02*
X370202500Y-118137500D01*
X370202500Y-118137500D02*
X370160000Y-118180000D01*
%TO.N,/Key Matrix/C2*%
X351200000Y-116322500D02*
X351200000Y-118080000D01*
%TO.N,/Key Matrix/C5*%
X294262500Y-135587500D02*
X294262500Y-137232500D01*
X294262500Y-137232500D02*
X294320000Y-137290000D01*
%TO.N,/Key Matrix/C4*%
X313265000Y-135587500D02*
X313265000Y-137375000D01*
X313265000Y-137375000D02*
X313280000Y-137390000D01*
%TO.N,/Key Matrix/C3*%
X332267500Y-135587500D02*
X332267500Y-137267500D01*
X332267500Y-137267500D02*
X332290000Y-137290000D01*
X332150000Y-116322500D02*
X332150000Y-117860000D01*
X332150000Y-117860000D02*
X332140000Y-117870000D01*
%TO.N,/Key Matrix/C4*%
X313147500Y-116322500D02*
X313147500Y-117852500D01*
X313147500Y-117852500D02*
X313080000Y-117920000D01*
%TO.N,/Key Matrix/C5*%
X294152500Y-154332500D02*
X294152500Y-156042500D01*
X294152500Y-156042500D02*
X294250000Y-156140000D01*
%TO.N,/Key Matrix/C4*%
X313155000Y-154332500D02*
X313155000Y-156025000D01*
X313155000Y-156025000D02*
X313170000Y-156040000D01*
%TO.N,/Key Matrix/C3*%
X332157500Y-154332500D02*
X332157500Y-156002500D01*
X332157500Y-156002500D02*
X332140000Y-156020000D01*
X332187500Y-173372500D02*
X332187500Y-174982500D01*
X332187500Y-174982500D02*
X332140000Y-175030000D01*
%TO.N,/Key Matrix/C4*%
X313185000Y-173372500D02*
X313185000Y-174885000D01*
X313185000Y-174885000D02*
X313190000Y-174890000D01*
%TO.N,/Key Matrix/C5*%
X294182500Y-173372500D02*
X294182500Y-174872500D01*
X294182500Y-174872500D02*
X294200000Y-174890000D01*
%TO.N,/Key Matrix/C6*%
X275180000Y-173372500D02*
X275180000Y-174990000D01*
%TO.N,/Key Matrix/C7*%
X256130000Y-173372500D02*
X256130000Y-175200000D01*
X256130000Y-175200000D02*
X256160000Y-175230000D01*
%TO.N,/Key Matrix/C8*%
X237127500Y-173372500D02*
X237127500Y-175032500D01*
X237127500Y-175032500D02*
X237100000Y-175060000D01*
%TO.N,/Key Matrix/C6*%
X275150000Y-154087500D02*
X275150000Y-155900000D01*
X275150000Y-155900000D02*
X275110000Y-155940000D01*
%TO.N,/Key Matrix/C7*%
X256100000Y-154332500D02*
X256100000Y-156290000D01*
X256100000Y-156290000D02*
X256140000Y-156330000D01*
%TO.N,/Key Matrix/C8*%
X237097500Y-154332500D02*
X237097500Y-155937500D01*
X237097500Y-155937500D02*
X237100000Y-155940000D01*
X237207500Y-135587500D02*
X237207500Y-137172500D01*
X237207500Y-137172500D02*
X237140000Y-137240000D01*
%TO.N,/Key Matrix/C7*%
X256210000Y-135587500D02*
X256210000Y-137330000D01*
X256210000Y-137330000D02*
X256200000Y-137340000D01*
%TO.N,/Key Matrix/C6*%
X275260000Y-135587500D02*
X275260000Y-137140000D01*
X275260000Y-137140000D02*
X275210000Y-137190000D01*
X275142500Y-116322500D02*
X275142500Y-117902500D01*
X275142500Y-117902500D02*
X275210000Y-117970000D01*
%TO.N,/Key Matrix/C7*%
X256092500Y-116322500D02*
X256092500Y-118172500D01*
X256092500Y-118172500D02*
X256100000Y-118180000D01*
%TO.N,/Key Matrix/C9*%
X201647500Y-173372500D02*
X201647500Y-174937500D01*
X201647500Y-174937500D02*
X201670000Y-174960000D01*
%TO.N,/Key Matrix/C10*%
X183135000Y-173352500D02*
X183135000Y-174985000D01*
X183135000Y-174985000D02*
X183140000Y-174990000D01*
%TO.N,/Key Matrix/C11*%
X163457500Y-173342500D02*
X163457500Y-175107500D01*
X163457500Y-175107500D02*
X163510000Y-175160000D01*
%TO.N,/Key Matrix/C9*%
X201657500Y-154422500D02*
X201657500Y-155887500D01*
X201657500Y-155887500D02*
X201690000Y-155920000D01*
%TO.N,/Key Matrix/C10*%
X182820000Y-154292500D02*
X182820000Y-155830000D01*
X182820000Y-155830000D02*
X182800000Y-155850000D01*
%TO.N,/Key Matrix/C11*%
X163507500Y-154352500D02*
X163507500Y-156017500D01*
X163507500Y-156017500D02*
X163510000Y-156020000D01*
X163510000Y-135377500D02*
X163510000Y-136830000D01*
X163510000Y-136830000D02*
X163530000Y-136850000D01*
%TO.N,/Key Matrix/C10*%
X182695000Y-135347500D02*
X182695000Y-137025000D01*
X182695000Y-137025000D02*
X182720000Y-137050000D01*
%TO.N,/Key Matrix/C9*%
X201610000Y-135355000D02*
X201610000Y-136810000D01*
X201610000Y-136810000D02*
X201590000Y-136830000D01*
X201490000Y-116282500D02*
X201490000Y-117820000D01*
X201490000Y-117820000D02*
X201440000Y-117870000D01*
%TO.N,/Key Matrix/C10*%
X182507500Y-116302500D02*
X182507500Y-118007500D01*
X182507500Y-118007500D02*
X182530000Y-118030000D01*
%TO.N,/Key Matrix/C11*%
X163480000Y-116352500D02*
X163480000Y-117970000D01*
X163480000Y-117970000D02*
X163420000Y-118030000D01*
%TO.N,/Key Matrix/C12*%
X144362500Y-116312500D02*
X144362500Y-117922500D01*
X144362500Y-117922500D02*
X144410000Y-117970000D01*
%TO.N,/Key Matrix/C13*%
X125275000Y-116272500D02*
X125275000Y-117895000D01*
X125275000Y-117895000D02*
X125300000Y-117920000D01*
%TO.N,/Key Matrix/C12*%
X144440000Y-135357500D02*
X144440000Y-136970000D01*
%TO.N,/Key Matrix/C13*%
X125412500Y-135345000D02*
X125412500Y-136877500D01*
X125412500Y-136877500D02*
X125370000Y-136920000D01*
%TO.N,/Key Matrix/C12*%
X144360000Y-154362500D02*
X144360000Y-156060000D01*
X144360000Y-156060000D02*
X144390000Y-156090000D01*
%TO.N,/Key Matrix/C13*%
X125412500Y-154262500D02*
X125412500Y-155837500D01*
X125412500Y-155837500D02*
X125330000Y-155920000D01*
%TO.N,/Key Matrix/C12*%
X144580000Y-173362500D02*
X144580000Y-175140000D01*
X144580000Y-175140000D02*
X144600000Y-175160000D01*
%TO.N,/Key Matrix/C13*%
X125312500Y-173412500D02*
X125312500Y-175227500D01*
X125312500Y-175227500D02*
X125260000Y-175280000D01*
%TO.N,/Key Matrix/C14*%
X106065000Y-173402500D02*
X106065000Y-175185000D01*
X106065000Y-175185000D02*
X106050000Y-175200000D01*
X106045000Y-154322500D02*
X106045000Y-156005000D01*
X106045000Y-156005000D02*
X106060000Y-156020000D01*
X106095000Y-135365000D02*
X106095000Y-136985000D01*
X106095000Y-136985000D02*
X106110000Y-137000000D01*
X106097500Y-116322500D02*
X106097500Y-117727500D01*
X106097500Y-117727500D02*
X106190000Y-117820000D01*
%TO.N,/Key Matrix/C15*%
X87070000Y-116362500D02*
X87070000Y-117830000D01*
X87070000Y-117830000D02*
X87030000Y-117870000D01*
X87047500Y-135305000D02*
X87047500Y-136857500D01*
X87047500Y-136857500D02*
X87090000Y-136900000D01*
X87047500Y-154302500D02*
X87047500Y-156112500D01*
X87047500Y-156112500D02*
X87020000Y-156140000D01*
X87077500Y-173382500D02*
X87077500Y-174977500D01*
X87077500Y-174977500D02*
X87130000Y-175030000D01*
%TO.N,/Key Matrix/C16*%
X67900000Y-173352500D02*
X67900000Y-175350000D01*
X67900000Y-175350000D02*
X67920000Y-175370000D01*
X68030000Y-154332500D02*
X68030000Y-156020000D01*
X67970000Y-135412500D02*
X67970000Y-136960000D01*
X67970000Y-136960000D02*
X67930000Y-137000000D01*
X67980000Y-116302500D02*
X67980000Y-117760000D01*
X67980000Y-117760000D02*
X68000000Y-117780000D01*
%TO.N,Net-(D64-Pad2)*%
X67917500Y-171320000D02*
X79780000Y-171320000D01*
%TO.N,Net-(D60-Pad2)*%
X87110000Y-171300000D02*
X98920000Y-171300000D01*
%TO.N,Net-(D52-Pad2)*%
X125355000Y-171320000D02*
X137072500Y-171320000D01*
%TO.N,Net-(D56-Pad2)*%
X106097500Y-171320000D02*
X117975000Y-171320000D01*
%TO.N,Net-(D37-Pad2)*%
X194365000Y-114260000D02*
X182515000Y-114260000D01*
%TO.N,Net-(D33-Pad2)*%
X213367500Y-114260000D02*
X211090000Y-114260000D01*
%TO.N,Net-(D38-Pad2)*%
X182707500Y-133310000D02*
X194365000Y-133310000D01*
%TO.N,Net-(D34-Pad2)*%
X201615000Y-133310000D02*
X204050000Y-133310000D01*
%TO.N,Net-(D39-Pad2)*%
X182847500Y-152270000D02*
X194365000Y-152270000D01*
%TO.N,Net-(D35-Pad2)*%
X201720000Y-152310000D02*
X213400000Y-152310000D01*
%TO.N,Net-(D36-Pad2)*%
X201650000Y-171320000D02*
X213367500Y-171320000D01*
%TO.N,Net-(D40-Pad2)*%
X183152500Y-171320000D02*
X194365000Y-171320000D01*
%TO.N,Net-(D48-Pad2)*%
X144587500Y-171320000D02*
X156170000Y-171320000D01*
%TO.N,Net-(D44-Pad2)*%
X163485000Y-171320000D02*
X175267500Y-171320000D01*
%TO.N,Net-(D43-Pad2)*%
X163540000Y-152270000D02*
X175267500Y-152270000D01*
%TO.N,Net-(D47-Pad2)*%
X144402500Y-152270000D02*
X156170000Y-152270000D01*
%TO.N,Net-(D51-Pad2)*%
X125470000Y-152270000D02*
X137072500Y-152270000D01*
%TO.N,Net-(D55-Pad2)*%
X106047500Y-152270000D02*
X117975000Y-152270000D01*
%TO.N,Net-(D59-Pad2)*%
X87065000Y-152270000D02*
X98877500Y-152270000D01*
%TO.N,Net-(D63-Pad2)*%
X68042500Y-152270000D02*
X79780000Y-152270000D01*
%TO.N,Net-(D62-Pad2)*%
X68022500Y-133310000D02*
X79780000Y-133310000D01*
%TO.N,Net-(D58-Pad2)*%
X87102500Y-133310000D02*
X98877500Y-133310000D01*
%TO.N,Net-(D54-Pad2)*%
X106100000Y-133310000D02*
X117975000Y-133310000D01*
%TO.N,Net-(D50-Pad2)*%
X125427500Y-133310000D02*
X137072500Y-133310000D01*
%TO.N,Net-(D46-Pad2)*%
X144442500Y-133310000D02*
X156170000Y-133310000D01*
%TO.N,Net-(D42-Pad2)*%
X163527500Y-133310000D02*
X175267500Y-133310000D01*
%TO.N,Net-(D41-Pad2)*%
X163522500Y-114260000D02*
X175267500Y-114260000D01*
%TO.N,Net-(D45-Pad2)*%
X144365000Y-114260000D02*
X156170000Y-114260000D01*
%TO.N,Net-(D49-Pad2)*%
X125312500Y-114260000D02*
X137072500Y-114260000D01*
%TO.N,Net-(D53-Pad2)*%
X106110000Y-114260000D02*
X117975000Y-114260000D01*
%TO.N,Net-(D57-Pad2)*%
X87122500Y-114260000D02*
X98877500Y-114260000D01*
%TO.N,Net-(D61-Pad2)*%
X79780000Y-114260000D02*
X67987500Y-114260000D01*
D21*
%TO.N,Net-(D1-Pad2)*%
X365530000Y-114260000D02*
X370190000Y-114260000D01*
%TO.N,Net-(D2-Pad2)*%
X370205000Y-133310000D02*
X365530000Y-133310000D01*
%TO.N,Net-(D3-Pad2)*%
X365530000Y-152270000D02*
X370197500Y-152270000D01*
%TO.N,Net-(D4-Pad2)*%
X365530000Y-171320000D02*
X370237500Y-171320000D01*
%TO.N,Net-(D5-Pad2)*%
X346527500Y-114260000D02*
X351187500Y-114260000D01*
%TO.N,Net-(D6-Pad2)*%
X346527500Y-133310000D02*
X350650000Y-133310000D01*
X350650000Y-133310000D02*
X350877500Y-133537500D01*
%TO.N,Net-(D7-Pad2)*%
X346527500Y-152270000D02*
X351195000Y-152270000D01*
%TO.N,Net-(D8-Pad2)*%
X346527500Y-171320000D02*
X351235000Y-171320000D01*
%TO.N,Net-(D9-Pad2)*%
X327477500Y-114260000D02*
X332137500Y-114260000D01*
%TO.N,Net-(D10-Pad2)*%
X332040000Y-133310000D02*
X327477500Y-133310000D01*
%TO.N,Net-(D11-Pad2)*%
X327477500Y-152270000D02*
X332145000Y-152270000D01*
%TO.N,Net-(D12-Pad2)*%
X327477500Y-171320000D02*
X332185000Y-171320000D01*
%TO.N,Net-(D13-Pad2)*%
X308475000Y-114260000D02*
X313135000Y-114260000D01*
%TO.N,Net-(D14-Pad2)*%
X313037500Y-133310000D02*
X308475000Y-133310000D01*
%TO.N,Net-(D15-Pad2)*%
X308475000Y-152270000D02*
X313142500Y-152270000D01*
%TO.N,Net-(D16-Pad2)*%
X308475000Y-171320000D02*
X313182500Y-171320000D01*
%TO.N,Net-(D17-Pad2)*%
X289472500Y-114260000D02*
X294132500Y-114260000D01*
%TO.N,Net-(D18-Pad2)*%
X294035000Y-133310000D02*
X289472500Y-133310000D01*
%TO.N,Net-(D19-Pad2)*%
X289472500Y-152270000D02*
X294140000Y-152270000D01*
%TO.N,Net-(D20-Pad2)*%
X289472500Y-171320000D02*
X294180000Y-171320000D01*
%TO.N,Net-(D21-Pad2)*%
X270470000Y-114260000D02*
X275130000Y-114260000D01*
%TO.N,Net-(D22-Pad2)*%
X270470000Y-133310000D02*
X275032500Y-133310000D01*
%TO.N,Net-(D23-Pad2)*%
X270470000Y-152270000D02*
X274917500Y-152270000D01*
%TO.N,Net-(D24-Pad2)*%
X270470000Y-171320000D02*
X275177500Y-171320000D01*
%TO.N,Net-(D25-Pad2)*%
X251420000Y-114260000D02*
X256080000Y-114260000D01*
%TO.N,Net-(D26-Pad2)*%
X251420000Y-133310000D02*
X255982500Y-133310000D01*
%TO.N,Net-(D27-Pad2)*%
X251420000Y-152270000D02*
X256087500Y-152270000D01*
%TO.N,Net-(D28-Pad2)*%
X251420000Y-171320000D02*
X256127500Y-171320000D01*
%TO.N,Net-(D29-Pad2)*%
X232417500Y-114260000D02*
X237077500Y-114260000D01*
%TO.N,Net-(D30-Pad2)*%
X232417500Y-133310000D02*
X236980000Y-133310000D01*
%TO.N,Net-(D31-Pad2)*%
X232417500Y-152270000D02*
X237085000Y-152270000D01*
%TO.N,Net-(D32-Pad2)*%
X232417500Y-171320000D02*
X237125000Y-171320000D01*
%TO.N,/Key Matrix/R1*%
X207017500Y-111720000D02*
X226067500Y-111720000D01*
X302125000Y-111720000D02*
X321127500Y-111720000D01*
X168917500Y-111720000D02*
X188015000Y-111720000D01*
X226067500Y-111720000D02*
X245070000Y-111720000D01*
X130722500Y-111720000D02*
X149820000Y-111720000D01*
X340177500Y-111720000D02*
X359180000Y-111720000D01*
X283122500Y-111720000D02*
X302125000Y-111720000D01*
X92527500Y-111720000D02*
X111625000Y-111720000D01*
X149820000Y-111720000D02*
X168917500Y-111720000D01*
X111625000Y-111720000D02*
X130722500Y-111720000D01*
X73430000Y-111720000D02*
X92527500Y-111720000D01*
X321127500Y-111720000D02*
X340177500Y-111720000D01*
X245070000Y-111720000D02*
X264120000Y-111720000D01*
X264120000Y-111720000D02*
X283122500Y-111720000D01*
%TO.N,/Key Matrix/R2*%
X245070000Y-130770000D02*
X226067500Y-130770000D01*
X321127500Y-130770000D02*
X302125000Y-130770000D01*
X264120000Y-130770000D02*
X245070000Y-130770000D01*
X283122500Y-130770000D02*
X264120000Y-130770000D01*
X359180000Y-130770000D02*
X340177500Y-130770000D01*
X321127500Y-130770000D02*
X340177500Y-130770000D01*
X188015000Y-130770000D02*
X168917500Y-130770000D01*
X149820000Y-130770000D02*
X130722500Y-130770000D01*
X130722500Y-130770000D02*
X111625000Y-130770000D01*
X92527500Y-130770000D02*
X73430000Y-130770000D01*
X92527500Y-130770000D02*
X111625000Y-130770000D01*
X226067500Y-130770000D02*
X207017500Y-130770000D01*
X302125000Y-130770000D02*
X283122500Y-130770000D01*
X168917500Y-130770000D02*
X149820000Y-130770000D01*
%TO.N,/Key Matrix/R3*%
X283122500Y-149730000D02*
X302125000Y-149730000D01*
X264120000Y-149730000D02*
X283122500Y-149730000D01*
X111625000Y-149730000D02*
X130722500Y-149730000D01*
X168917500Y-149730000D02*
X188015000Y-149730000D01*
X188015000Y-149730000D02*
X206377500Y-149730000D01*
X149820000Y-149730000D02*
X168917500Y-149730000D01*
X302125000Y-149730000D02*
X321127500Y-149730000D01*
X73430000Y-149730000D02*
X92527500Y-149730000D01*
X340177500Y-149730000D02*
X359180000Y-149730000D01*
X321127500Y-149730000D02*
X340177500Y-149730000D01*
X130722500Y-149730000D02*
X148950000Y-149730000D01*
X207050000Y-149770000D02*
X215880000Y-149770000D01*
X245070000Y-149730000D02*
X264120000Y-149730000D01*
X226067500Y-149730000D02*
X245070000Y-149730000D01*
X92527500Y-149730000D02*
X111625000Y-149730000D01*
%TO.N,/Key Matrix/R4*%
X92570000Y-168760000D02*
X111605000Y-168760000D01*
X264120000Y-168780000D02*
X283122500Y-168780000D01*
X168917500Y-168780000D02*
X188015000Y-168780000D01*
X207017500Y-168780000D02*
X226067500Y-168780000D01*
X245070000Y-168780000D02*
X264120000Y-168780000D01*
X226067500Y-168780000D02*
X245070000Y-168780000D01*
X130722500Y-168780000D02*
X149820000Y-168780000D01*
X321127500Y-168780000D02*
X340177500Y-168780000D01*
X321127500Y-168780000D02*
X302125000Y-168780000D01*
X149820000Y-168780000D02*
X168917500Y-168780000D01*
X302125000Y-168780000D02*
X283122500Y-168780000D01*
X111625000Y-168780000D02*
X130722500Y-168780000D01*
X188015000Y-168780000D02*
X207017500Y-168780000D01*
X359180000Y-168780000D02*
X340177500Y-168780000D01*
X73430000Y-168780000D02*
X92550000Y-168780000D01*
D22*
%TO.N,Net-(J1-PadB5)*%
X218311137Y-105451434D02*
X217752089Y-104892386D01*
X218311137Y-105882486D02*
X218311137Y-105451434D01*
X217752089Y-104892386D02*
X213947614Y-104892386D01*
X213370000Y-107480000D02*
X213350000Y-107500000D01*
X213947614Y-104892386D02*
X213370000Y-105470000D01*
X213370000Y-105470000D02*
X213370000Y-107480000D01*
%TD*%
M02*
