M48
; DRILL file {KiCad 6.0.7-f9a2dced07~116~ubuntu20.04.1} date Sun 16 Oct 2022 12:29:05 PM
; FORMAT={-:-/ absolute / inch / decimal}
; #@! TF.CreationDate,2022-10-16T12:29:05-07:00
; #@! TF.GenerationSoftware,Kicad,Pcbnew,6.0.7-f9a2dced07~116~ubuntu20.04.1
; #@! TF.FileFunction,NonPlated,1,2,NPTH
FMAT,2
INCH
; #@! TA.AperFunction,NonPlated,NPTH,ComponentDrill
T1C0.0200
; #@! TA.AperFunction,NonPlated,NPTH,ComponentDrill
T2C0.0260
; #@! TA.AperFunction,NonPlated,NPTH,ComponentDrill
T3C0.0669
; #@! TA.AperFunction,NonPlated,NPTH,ComponentDrill
T4C0.1575
%
G90
G05
T1
X8.4487Y-3.9882
X8.4487Y-4.0112
X8.4628Y-4.1614
X8.4628Y-4.1844
X8.788Y-4.1614
X8.788Y-4.1844
X8.8022Y-3.9882
X8.8022Y-4.0112
T2
X8.4782Y-4.2218
X8.4892Y-4.2218
X8.7672Y-4.2218
T3
X2.7909Y-4.5984
X2.7909Y-5.3484
X2.7909Y-6.0949
X2.7909Y-6.8449
X3.1909Y-4.5984
X3.1909Y-5.3484
X3.1909Y-6.0949
X3.1909Y-6.8449
X3.5428Y-4.5984
X3.5428Y-5.3484
X3.5428Y-6.0949
X3.5445Y-6.8441
X3.9428Y-4.5984
X3.9428Y-5.3484
X3.9428Y-6.0949
X3.9445Y-6.8441
X4.2947Y-4.5984
X4.2947Y-5.3484
X4.2947Y-6.0949
X4.2947Y-6.8449
X4.6947Y-4.5984
X4.6947Y-5.3484
X4.6947Y-6.0949
X4.6947Y-6.8449
X5.0466Y-4.5984
X5.0466Y-5.3484
X5.0466Y-6.0949
X5.0466Y-6.8449
X5.4466Y-4.5984
X5.4466Y-5.3484
X5.4466Y-6.0949
X5.4466Y-6.8449
X5.7984Y-4.5984
X5.7984Y-5.3484
X5.7984Y-6.0949
X5.7984Y-6.8449
X6.1984Y-4.5984
X6.1984Y-5.3484
X6.1984Y-6.0949
X6.1984Y-6.8449
X6.5503Y-4.5984
X6.5503Y-5.3484
X6.5503Y-6.0949
X6.5503Y-6.8449
X6.9503Y-4.5984
X6.9503Y-5.3484
X6.9503Y-6.0949
X6.9503Y-6.8449
X7.3022Y-4.5984
X7.3022Y-5.3484
X7.3022Y-6.0949
X7.3022Y-6.8449
X7.7022Y-4.5984
X7.7022Y-5.3484
X7.7022Y-6.0949
X7.7022Y-6.8449
X8.0503Y-4.5984
X8.0503Y-5.3484
X8.0503Y-6.8449
X8.0516Y-6.0965
X8.4503Y-4.5984
X8.4503Y-5.3484
X8.4503Y-6.8449
X8.4516Y-6.0965
X8.8003Y-4.5984
X8.8003Y-5.3484
X8.8003Y-6.0949
X8.8003Y-6.8449
X9.2003Y-4.5984
X9.2003Y-5.3484
X9.2003Y-6.0949
X9.2003Y-6.8449
X9.5484Y-4.5984
X9.5484Y-5.3484
X9.5484Y-6.0949
X9.5484Y-6.8449
X9.9484Y-4.5984
X9.9484Y-5.3484
X9.9484Y-6.0949
X9.9484Y-6.8449
X10.2984Y-4.5984
X10.2984Y-5.3484
X10.2984Y-6.0949
X10.2984Y-6.8449
X10.6984Y-4.5984
X10.6984Y-5.3484
X10.6984Y-6.0949
X10.6984Y-6.8449
X11.0466Y-4.5984
X11.0466Y-5.3484
X11.0466Y-6.0949
X11.0466Y-6.8449
X11.4466Y-4.5984
X11.4466Y-5.3484
X11.4466Y-6.0949
X11.4466Y-6.8449
X11.7947Y-4.5984
X11.7947Y-5.3484
X11.7947Y-6.0949
X11.7947Y-6.8449
X12.1947Y-4.5984
X12.1947Y-5.3484
X12.1947Y-6.0949
X12.1947Y-6.8449
X12.5428Y-4.5984
X12.5428Y-5.3484
X12.5428Y-6.0949
X12.5428Y-6.8449
X12.9428Y-4.5984
X12.9428Y-5.3484
X12.9428Y-6.0949
X12.9428Y-6.8449
X13.2928Y-4.5984
X13.2928Y-5.3484
X13.2928Y-6.0949
X13.2928Y-6.8449
X13.6928Y-4.5984
X13.6928Y-5.3484
X13.6928Y-6.0949
X13.6928Y-6.8449
X14.0409Y-4.5984
X14.0409Y-5.3484
X14.0409Y-6.0949
X14.0409Y-6.8449
X14.4409Y-4.5984
X14.4409Y-5.3484
X14.4409Y-6.0949
X14.4409Y-6.8449
T4
X2.9909Y-4.5984
X2.9909Y-5.3484
X2.9909Y-6.0949
X2.9909Y-6.8449
X3.7428Y-4.5984
X3.7428Y-5.3484
X3.7428Y-6.0949
X3.7445Y-6.8441
X4.4947Y-4.5984
X4.4947Y-5.3484
X4.4947Y-6.0949
X4.4947Y-6.8449
X5.2466Y-4.5984
X5.2466Y-5.3484
X5.2466Y-6.0949
X5.2466Y-6.8449
X5.9984Y-4.5984
X5.9984Y-5.3484
X5.9984Y-6.0949
X5.9984Y-6.8449
X6.7503Y-4.5984
X6.7503Y-5.3484
X6.7503Y-6.0949
X6.7503Y-6.8449
X7.5022Y-4.5984
X7.5022Y-5.3484
X7.5022Y-6.0949
X7.5022Y-6.8449
X8.2503Y-4.5984
X8.2503Y-5.3484
X8.2503Y-6.8449
X8.2516Y-6.0965
X9.0003Y-4.5984
X9.0003Y-5.3484
X9.0003Y-6.0949
X9.0003Y-6.8449
X9.7484Y-4.5984
X9.7484Y-5.3484
X9.7484Y-6.0949
X9.7484Y-6.8449
X10.4984Y-4.5984
X10.4984Y-5.3484
X10.4984Y-6.0949
X10.4984Y-6.8449
X11.2466Y-4.5984
X11.2466Y-5.3484
X11.2466Y-6.0949
X11.2466Y-6.8449
X11.9947Y-4.5984
X11.9947Y-5.3484
X11.9947Y-6.0949
X11.9947Y-6.8449
X12.7428Y-4.5984
X12.7428Y-5.3484
X12.7428Y-6.0949
X12.7428Y-6.8449
X13.4928Y-4.5984
X13.4928Y-5.3484
X13.4928Y-6.0949
X13.4928Y-6.8449
X14.2409Y-4.5984
X14.2409Y-5.3484
X14.2409Y-6.0949
X14.2409Y-6.8449
T0
M30
