%TF.GenerationSoftware,KiCad,Pcbnew,6.0.7-f9a2dced07~116~ubuntu20.04.1*%
%TF.CreationDate,2022-10-16T12:29:11-07:00*%
%TF.ProjectId,keyboard,6b657962-6f61-4726-942e-6b696361645f,rev?*%
%TF.SameCoordinates,Original*%
%TF.FileFunction,Legend,Top*%
%TF.FilePolarity,Positive*%
%FSLAX46Y46*%
G04 Gerber Fmt 4.6, Leading zero omitted, Abs format (unit mm)*
G04 Created by KiCad (PCBNEW 6.0.7-f9a2dced07~116~ubuntu20.04.1) date 2022-10-16 12:29:11*
%MOMM*%
%LPD*%
G01*
G04 APERTURE LIST*
%ADD10C,0.300000*%
%ADD11C,0.150000*%
%ADD12C,0.120000*%
G04 APERTURE END LIST*
D10*
X344968571Y-102355000D02*
X345682857Y-102355000D01*
X344825714Y-102783571D02*
X345325714Y-101283571D01*
X345825714Y-102783571D01*
X346325714Y-102783571D02*
X346325714Y-101783571D01*
X346325714Y-101283571D02*
X346254285Y-101355000D01*
X346325714Y-101426428D01*
X346397142Y-101355000D01*
X346325714Y-101283571D01*
X346325714Y-101426428D01*
X347254285Y-102783571D02*
X347111428Y-102712142D01*
X347040000Y-102569285D01*
X347040000Y-101283571D01*
X348468571Y-102783571D02*
X348468571Y-101997857D01*
X348397142Y-101855000D01*
X348254285Y-101783571D01*
X347968571Y-101783571D01*
X347825714Y-101855000D01*
X348468571Y-102712142D02*
X348325714Y-102783571D01*
X347968571Y-102783571D01*
X347825714Y-102712142D01*
X347754285Y-102569285D01*
X347754285Y-102426428D01*
X347825714Y-102283571D01*
X347968571Y-102212142D01*
X348325714Y-102212142D01*
X348468571Y-102140714D01*
X350254285Y-102712142D02*
X350468571Y-102783571D01*
X350825714Y-102783571D01*
X350968571Y-102712142D01*
X351040000Y-102640714D01*
X351111428Y-102497857D01*
X351111428Y-102355000D01*
X351040000Y-102212142D01*
X350968571Y-102140714D01*
X350825714Y-102069285D01*
X350540000Y-101997857D01*
X350397142Y-101926428D01*
X350325714Y-101855000D01*
X350254285Y-101712142D01*
X350254285Y-101569285D01*
X350325714Y-101426428D01*
X350397142Y-101355000D01*
X350540000Y-101283571D01*
X350897142Y-101283571D01*
X351111428Y-101355000D01*
X351754285Y-102783571D02*
X351754285Y-101783571D01*
X351754285Y-101283571D02*
X351682857Y-101355000D01*
X351754285Y-101426428D01*
X351825714Y-101355000D01*
X351754285Y-101283571D01*
X351754285Y-101426428D01*
X352468571Y-102783571D02*
X352468571Y-101783571D01*
X352468571Y-101926428D02*
X352540000Y-101855000D01*
X352682857Y-101783571D01*
X352897142Y-101783571D01*
X353040000Y-101855000D01*
X353111428Y-101997857D01*
X353111428Y-102783571D01*
X353111428Y-101997857D02*
X353182857Y-101855000D01*
X353325714Y-101783571D01*
X353540000Y-101783571D01*
X353682857Y-101855000D01*
X353754285Y-101997857D01*
X353754285Y-102783571D01*
X354468571Y-101783571D02*
X354468571Y-103283571D01*
X354468571Y-101855000D02*
X354611428Y-101783571D01*
X354897142Y-101783571D01*
X355040000Y-101855000D01*
X355111428Y-101926428D01*
X355182857Y-102069285D01*
X355182857Y-102497857D01*
X355111428Y-102640714D01*
X355040000Y-102712142D01*
X354897142Y-102783571D01*
X354611428Y-102783571D01*
X354468571Y-102712142D01*
X355754285Y-102712142D02*
X355897142Y-102783571D01*
X356182857Y-102783571D01*
X356325714Y-102712142D01*
X356397142Y-102569285D01*
X356397142Y-102497857D01*
X356325714Y-102355000D01*
X356182857Y-102283571D01*
X355968571Y-102283571D01*
X355825714Y-102212142D01*
X355754285Y-102069285D01*
X355754285Y-101997857D01*
X355825714Y-101855000D01*
X355968571Y-101783571D01*
X356182857Y-101783571D01*
X356325714Y-101855000D01*
X357254285Y-102783571D02*
X357111428Y-102712142D01*
X357040000Y-102640714D01*
X356968571Y-102497857D01*
X356968571Y-102069285D01*
X357040000Y-101926428D01*
X357111428Y-101855000D01*
X357254285Y-101783571D01*
X357468571Y-101783571D01*
X357611428Y-101855000D01*
X357682857Y-101926428D01*
X357754285Y-102069285D01*
X357754285Y-102497857D01*
X357682857Y-102640714D01*
X357611428Y-102712142D01*
X357468571Y-102783571D01*
X357254285Y-102783571D01*
X358397142Y-101783571D02*
X358397142Y-102783571D01*
X358397142Y-101926428D02*
X358468571Y-101855000D01*
X358611428Y-101783571D01*
X358825714Y-101783571D01*
X358968571Y-101855000D01*
X359040000Y-101997857D01*
X359040000Y-102783571D01*
X347254285Y-105198571D02*
X347254285Y-103698571D01*
X348111428Y-105198571D02*
X347468571Y-104341428D01*
X348111428Y-103698571D02*
X347254285Y-104555714D01*
X349325714Y-105127142D02*
X349182857Y-105198571D01*
X348897142Y-105198571D01*
X348754285Y-105127142D01*
X348682857Y-104984285D01*
X348682857Y-104412857D01*
X348754285Y-104270000D01*
X348897142Y-104198571D01*
X349182857Y-104198571D01*
X349325714Y-104270000D01*
X349397142Y-104412857D01*
X349397142Y-104555714D01*
X348682857Y-104698571D01*
X349897142Y-104198571D02*
X350254285Y-105198571D01*
X350611428Y-104198571D02*
X350254285Y-105198571D01*
X350111428Y-105555714D01*
X350040000Y-105627142D01*
X349897142Y-105698571D01*
X351182857Y-105198571D02*
X351182857Y-103698571D01*
X351182857Y-104270000D02*
X351325714Y-104198571D01*
X351611428Y-104198571D01*
X351754285Y-104270000D01*
X351825714Y-104341428D01*
X351897142Y-104484285D01*
X351897142Y-104912857D01*
X351825714Y-105055714D01*
X351754285Y-105127142D01*
X351611428Y-105198571D01*
X351325714Y-105198571D01*
X351182857Y-105127142D01*
X352754285Y-105198571D02*
X352611428Y-105127142D01*
X352540000Y-105055714D01*
X352468571Y-104912857D01*
X352468571Y-104484285D01*
X352540000Y-104341428D01*
X352611428Y-104270000D01*
X352754285Y-104198571D01*
X352968571Y-104198571D01*
X353111428Y-104270000D01*
X353182857Y-104341428D01*
X353254285Y-104484285D01*
X353254285Y-104912857D01*
X353182857Y-105055714D01*
X353111428Y-105127142D01*
X352968571Y-105198571D01*
X352754285Y-105198571D01*
X354540000Y-105198571D02*
X354540000Y-104412857D01*
X354468571Y-104270000D01*
X354325714Y-104198571D01*
X354040000Y-104198571D01*
X353897142Y-104270000D01*
X354540000Y-105127142D02*
X354397142Y-105198571D01*
X354040000Y-105198571D01*
X353897142Y-105127142D01*
X353825714Y-104984285D01*
X353825714Y-104841428D01*
X353897142Y-104698571D01*
X354040000Y-104627142D01*
X354397142Y-104627142D01*
X354540000Y-104555714D01*
X355254285Y-105198571D02*
X355254285Y-104198571D01*
X355254285Y-104484285D02*
X355325714Y-104341428D01*
X355397142Y-104270000D01*
X355540000Y-104198571D01*
X355682857Y-104198571D01*
X356825714Y-105198571D02*
X356825714Y-103698571D01*
X356825714Y-105127142D02*
X356682857Y-105198571D01*
X356397142Y-105198571D01*
X356254285Y-105127142D01*
X356182857Y-105055714D01*
X356111428Y-104912857D01*
X356111428Y-104484285D01*
X356182857Y-104341428D01*
X356254285Y-104270000D01*
X356397142Y-104198571D01*
X356682857Y-104198571D01*
X356825714Y-104270000D01*
X349754285Y-106113571D02*
X350254285Y-107613571D01*
X350754285Y-106113571D01*
X352040000Y-107613571D02*
X351182857Y-107613571D01*
X351611428Y-107613571D02*
X351611428Y-106113571D01*
X351468571Y-106327857D01*
X351325714Y-106470714D01*
X351182857Y-106542142D01*
X352682857Y-107470714D02*
X352754285Y-107542142D01*
X352682857Y-107613571D01*
X352611428Y-107542142D01*
X352682857Y-107470714D01*
X352682857Y-107613571D01*
X353682857Y-106113571D02*
X353825714Y-106113571D01*
X353968571Y-106185000D01*
X354040000Y-106256428D01*
X354111428Y-106399285D01*
X354182857Y-106685000D01*
X354182857Y-107042142D01*
X354111428Y-107327857D01*
X354040000Y-107470714D01*
X353968571Y-107542142D01*
X353825714Y-107613571D01*
X353682857Y-107613571D01*
X353540000Y-107542142D01*
X353468571Y-107470714D01*
X353397142Y-107327857D01*
X353325714Y-107042142D01*
X353325714Y-106685000D01*
X353397142Y-106399285D01*
X353468571Y-106256428D01*
X353540000Y-106185000D01*
X353682857Y-106113571D01*
D11*
%TO.C,Y1*%
X218533809Y-168876190D02*
X218533809Y-169352380D01*
X218200476Y-168352380D02*
X218533809Y-168876190D01*
X218867142Y-168352380D01*
X219724285Y-169352380D02*
X219152857Y-169352380D01*
X219438571Y-169352380D02*
X219438571Y-168352380D01*
X219343333Y-168495238D01*
X219248095Y-168590476D01*
X219152857Y-168638095D01*
%TO.C,R3*%
X220442380Y-160696666D02*
X219966190Y-161030000D01*
X220442380Y-161268095D02*
X219442380Y-161268095D01*
X219442380Y-160887142D01*
X219490000Y-160791904D01*
X219537619Y-160744285D01*
X219632857Y-160696666D01*
X219775714Y-160696666D01*
X219870952Y-160744285D01*
X219918571Y-160791904D01*
X219966190Y-160887142D01*
X219966190Y-161268095D01*
X219442380Y-160363333D02*
X219442380Y-159744285D01*
X219823333Y-160077619D01*
X219823333Y-159934761D01*
X219870952Y-159839523D01*
X219918571Y-159791904D01*
X220013809Y-159744285D01*
X220251904Y-159744285D01*
X220347142Y-159791904D01*
X220394761Y-159839523D01*
X220442380Y-159934761D01*
X220442380Y-160220476D01*
X220394761Y-160315714D01*
X220347142Y-160363333D01*
%TO.C,R2*%
X221983333Y-114352380D02*
X221650000Y-113876190D01*
X221411904Y-114352380D02*
X221411904Y-113352380D01*
X221792857Y-113352380D01*
X221888095Y-113400000D01*
X221935714Y-113447619D01*
X221983333Y-113542857D01*
X221983333Y-113685714D01*
X221935714Y-113780952D01*
X221888095Y-113828571D01*
X221792857Y-113876190D01*
X221411904Y-113876190D01*
X222364285Y-113447619D02*
X222411904Y-113400000D01*
X222507142Y-113352380D01*
X222745238Y-113352380D01*
X222840476Y-113400000D01*
X222888095Y-113447619D01*
X222935714Y-113542857D01*
X222935714Y-113638095D01*
X222888095Y-113780952D01*
X222316666Y-114352380D01*
X222935714Y-114352380D01*
%TO.C,C2*%
X237197142Y-129666666D02*
X237244761Y-129714285D01*
X237292380Y-129857142D01*
X237292380Y-129952380D01*
X237244761Y-130095238D01*
X237149523Y-130190476D01*
X237054285Y-130238095D01*
X236863809Y-130285714D01*
X236720952Y-130285714D01*
X236530476Y-130238095D01*
X236435238Y-130190476D01*
X236340000Y-130095238D01*
X236292380Y-129952380D01*
X236292380Y-129857142D01*
X236340000Y-129714285D01*
X236387619Y-129666666D01*
X236387619Y-129285714D02*
X236340000Y-129238095D01*
X236292380Y-129142857D01*
X236292380Y-128904761D01*
X236340000Y-128809523D01*
X236387619Y-128761904D01*
X236482857Y-128714285D01*
X236578095Y-128714285D01*
X236720952Y-128761904D01*
X237292380Y-129333333D01*
X237292380Y-128714285D01*
%TO.C,R6*%
X195423333Y-150722380D02*
X195090000Y-150246190D01*
X194851904Y-150722380D02*
X194851904Y-149722380D01*
X195232857Y-149722380D01*
X195328095Y-149770000D01*
X195375714Y-149817619D01*
X195423333Y-149912857D01*
X195423333Y-150055714D01*
X195375714Y-150150952D01*
X195328095Y-150198571D01*
X195232857Y-150246190D01*
X194851904Y-150246190D01*
X196280476Y-149722380D02*
X196090000Y-149722380D01*
X195994761Y-149770000D01*
X195947142Y-149817619D01*
X195851904Y-149960476D01*
X195804285Y-150150952D01*
X195804285Y-150531904D01*
X195851904Y-150627142D01*
X195899523Y-150674761D01*
X195994761Y-150722380D01*
X196185238Y-150722380D01*
X196280476Y-150674761D01*
X196328095Y-150627142D01*
X196375714Y-150531904D01*
X196375714Y-150293809D01*
X196328095Y-150198571D01*
X196280476Y-150150952D01*
X196185238Y-150103333D01*
X195994761Y-150103333D01*
X195899523Y-150150952D01*
X195851904Y-150198571D01*
X195804285Y-150293809D01*
%TO.C,U2*%
X213238095Y-149062380D02*
X213238095Y-149871904D01*
X213285714Y-149967142D01*
X213333333Y-150014761D01*
X213428571Y-150062380D01*
X213619047Y-150062380D01*
X213714285Y-150014761D01*
X213761904Y-149967142D01*
X213809523Y-149871904D01*
X213809523Y-149062380D01*
X214238095Y-149157619D02*
X214285714Y-149110000D01*
X214380952Y-149062380D01*
X214619047Y-149062380D01*
X214714285Y-149110000D01*
X214761904Y-149157619D01*
X214809523Y-149252857D01*
X214809523Y-149348095D01*
X214761904Y-149490952D01*
X214190476Y-150062380D01*
X214809523Y-150062380D01*
%TO.C,H3*%
X336738095Y-157652380D02*
X336738095Y-156652380D01*
X336738095Y-157128571D02*
X337309523Y-157128571D01*
X337309523Y-157652380D02*
X337309523Y-156652380D01*
X337690476Y-156652380D02*
X338309523Y-156652380D01*
X337976190Y-157033333D01*
X338119047Y-157033333D01*
X338214285Y-157080952D01*
X338261904Y-157128571D01*
X338309523Y-157223809D01*
X338309523Y-157461904D01*
X338261904Y-157557142D01*
X338214285Y-157604761D01*
X338119047Y-157652380D01*
X337833333Y-157652380D01*
X337738095Y-157604761D01*
X337690476Y-157557142D01*
%TO.C,H1*%
X99238095Y-120152380D02*
X99238095Y-119152380D01*
X99238095Y-119628571D02*
X99809523Y-119628571D01*
X99809523Y-120152380D02*
X99809523Y-119152380D01*
X100809523Y-120152380D02*
X100238095Y-120152380D01*
X100523809Y-120152380D02*
X100523809Y-119152380D01*
X100428571Y-119295238D01*
X100333333Y-119390476D01*
X100238095Y-119438095D01*
%TO.C,C13*%
X230887142Y-148087142D02*
X230839523Y-148134761D01*
X230696666Y-148182380D01*
X230601428Y-148182380D01*
X230458571Y-148134761D01*
X230363333Y-148039523D01*
X230315714Y-147944285D01*
X230268095Y-147753809D01*
X230268095Y-147610952D01*
X230315714Y-147420476D01*
X230363333Y-147325238D01*
X230458571Y-147230000D01*
X230601428Y-147182380D01*
X230696666Y-147182380D01*
X230839523Y-147230000D01*
X230887142Y-147277619D01*
X231839523Y-148182380D02*
X231268095Y-148182380D01*
X231553809Y-148182380D02*
X231553809Y-147182380D01*
X231458571Y-147325238D01*
X231363333Y-147420476D01*
X231268095Y-147468095D01*
X232172857Y-147182380D02*
X232791904Y-147182380D01*
X232458571Y-147563333D01*
X232601428Y-147563333D01*
X232696666Y-147610952D01*
X232744285Y-147658571D01*
X232791904Y-147753809D01*
X232791904Y-147991904D01*
X232744285Y-148087142D01*
X232696666Y-148134761D01*
X232601428Y-148182380D01*
X232315714Y-148182380D01*
X232220476Y-148134761D01*
X232172857Y-148087142D01*
%TO.C,C9*%
X221877142Y-135486666D02*
X221924761Y-135534285D01*
X221972380Y-135677142D01*
X221972380Y-135772380D01*
X221924761Y-135915238D01*
X221829523Y-136010476D01*
X221734285Y-136058095D01*
X221543809Y-136105714D01*
X221400952Y-136105714D01*
X221210476Y-136058095D01*
X221115238Y-136010476D01*
X221020000Y-135915238D01*
X220972380Y-135772380D01*
X220972380Y-135677142D01*
X221020000Y-135534285D01*
X221067619Y-135486666D01*
X221972380Y-135010476D02*
X221972380Y-134820000D01*
X221924761Y-134724761D01*
X221877142Y-134677142D01*
X221734285Y-134581904D01*
X221543809Y-134534285D01*
X221162857Y-134534285D01*
X221067619Y-134581904D01*
X221020000Y-134629523D01*
X220972380Y-134724761D01*
X220972380Y-134915238D01*
X221020000Y-135010476D01*
X221067619Y-135058095D01*
X221162857Y-135105714D01*
X221400952Y-135105714D01*
X221496190Y-135058095D01*
X221543809Y-135010476D01*
X221591428Y-134915238D01*
X221591428Y-134724761D01*
X221543809Y-134629523D01*
X221496190Y-134581904D01*
X221400952Y-134534285D01*
%TO.C,C3*%
X215457142Y-170476666D02*
X215504761Y-170524285D01*
X215552380Y-170667142D01*
X215552380Y-170762380D01*
X215504761Y-170905238D01*
X215409523Y-171000476D01*
X215314285Y-171048095D01*
X215123809Y-171095714D01*
X214980952Y-171095714D01*
X214790476Y-171048095D01*
X214695238Y-171000476D01*
X214600000Y-170905238D01*
X214552380Y-170762380D01*
X214552380Y-170667142D01*
X214600000Y-170524285D01*
X214647619Y-170476666D01*
X214552380Y-170143333D02*
X214552380Y-169524285D01*
X214933333Y-169857619D01*
X214933333Y-169714761D01*
X214980952Y-169619523D01*
X215028571Y-169571904D01*
X215123809Y-169524285D01*
X215361904Y-169524285D01*
X215457142Y-169571904D01*
X215504761Y-169619523D01*
X215552380Y-169714761D01*
X215552380Y-170000476D01*
X215504761Y-170095714D01*
X215457142Y-170143333D01*
%TO.C,C16*%
X230817142Y-142197142D02*
X230769523Y-142244761D01*
X230626666Y-142292380D01*
X230531428Y-142292380D01*
X230388571Y-142244761D01*
X230293333Y-142149523D01*
X230245714Y-142054285D01*
X230198095Y-141863809D01*
X230198095Y-141720952D01*
X230245714Y-141530476D01*
X230293333Y-141435238D01*
X230388571Y-141340000D01*
X230531428Y-141292380D01*
X230626666Y-141292380D01*
X230769523Y-141340000D01*
X230817142Y-141387619D01*
X231769523Y-142292380D02*
X231198095Y-142292380D01*
X231483809Y-142292380D02*
X231483809Y-141292380D01*
X231388571Y-141435238D01*
X231293333Y-141530476D01*
X231198095Y-141578095D01*
X232626666Y-141292380D02*
X232436190Y-141292380D01*
X232340952Y-141340000D01*
X232293333Y-141387619D01*
X232198095Y-141530476D01*
X232150476Y-141720952D01*
X232150476Y-142101904D01*
X232198095Y-142197142D01*
X232245714Y-142244761D01*
X232340952Y-142292380D01*
X232531428Y-142292380D01*
X232626666Y-142244761D01*
X232674285Y-142197142D01*
X232721904Y-142101904D01*
X232721904Y-141863809D01*
X232674285Y-141768571D01*
X232626666Y-141720952D01*
X232531428Y-141673333D01*
X232340952Y-141673333D01*
X232245714Y-141720952D01*
X232198095Y-141768571D01*
X232150476Y-141863809D01*
%TO.C,C10*%
X227877142Y-139167142D02*
X227829523Y-139214761D01*
X227686666Y-139262380D01*
X227591428Y-139262380D01*
X227448571Y-139214761D01*
X227353333Y-139119523D01*
X227305714Y-139024285D01*
X227258095Y-138833809D01*
X227258095Y-138690952D01*
X227305714Y-138500476D01*
X227353333Y-138405238D01*
X227448571Y-138310000D01*
X227591428Y-138262380D01*
X227686666Y-138262380D01*
X227829523Y-138310000D01*
X227877142Y-138357619D01*
X228829523Y-139262380D02*
X228258095Y-139262380D01*
X228543809Y-139262380D02*
X228543809Y-138262380D01*
X228448571Y-138405238D01*
X228353333Y-138500476D01*
X228258095Y-138548095D01*
X229448571Y-138262380D02*
X229543809Y-138262380D01*
X229639047Y-138310000D01*
X229686666Y-138357619D01*
X229734285Y-138452857D01*
X229781904Y-138643333D01*
X229781904Y-138881428D01*
X229734285Y-139071904D01*
X229686666Y-139167142D01*
X229639047Y-139214761D01*
X229543809Y-139262380D01*
X229448571Y-139262380D01*
X229353333Y-139214761D01*
X229305714Y-139167142D01*
X229258095Y-139071904D01*
X229210476Y-138881428D01*
X229210476Y-138643333D01*
X229258095Y-138452857D01*
X229305714Y-138357619D01*
X229353333Y-138310000D01*
X229448571Y-138262380D01*
%TO.C,R4*%
X221233333Y-115562380D02*
X220900000Y-115086190D01*
X220661904Y-115562380D02*
X220661904Y-114562380D01*
X221042857Y-114562380D01*
X221138095Y-114610000D01*
X221185714Y-114657619D01*
X221233333Y-114752857D01*
X221233333Y-114895714D01*
X221185714Y-114990952D01*
X221138095Y-115038571D01*
X221042857Y-115086190D01*
X220661904Y-115086190D01*
X222090476Y-114895714D02*
X222090476Y-115562380D01*
X221852380Y-114514761D02*
X221614285Y-115229047D01*
X222233333Y-115229047D01*
%TO.C,J2*%
X194806666Y-166057380D02*
X194806666Y-166771666D01*
X194759047Y-166914523D01*
X194663809Y-167009761D01*
X194520952Y-167057380D01*
X194425714Y-167057380D01*
X195235238Y-166152619D02*
X195282857Y-166105000D01*
X195378095Y-166057380D01*
X195616190Y-166057380D01*
X195711428Y-166105000D01*
X195759047Y-166152619D01*
X195806666Y-166247857D01*
X195806666Y-166343095D01*
X195759047Y-166485952D01*
X195187619Y-167057380D01*
X195806666Y-167057380D01*
%TO.C,J1*%
X225386666Y-101222380D02*
X225386666Y-101936666D01*
X225339047Y-102079523D01*
X225243809Y-102174761D01*
X225100952Y-102222380D01*
X225005714Y-102222380D01*
X226386666Y-102222380D02*
X225815238Y-102222380D01*
X226100952Y-102222380D02*
X226100952Y-101222380D01*
X226005714Y-101365238D01*
X225910476Y-101460476D01*
X225815238Y-101508095D01*
X225054285Y-102892380D02*
X225054285Y-103701904D01*
X225101904Y-103797142D01*
X225149523Y-103844761D01*
X225244761Y-103892380D01*
X225435238Y-103892380D01*
X225530476Y-103844761D01*
X225578095Y-103797142D01*
X225625714Y-103701904D01*
X225625714Y-102892380D01*
X226054285Y-103844761D02*
X226197142Y-103892380D01*
X226435238Y-103892380D01*
X226530476Y-103844761D01*
X226578095Y-103797142D01*
X226625714Y-103701904D01*
X226625714Y-103606666D01*
X226578095Y-103511428D01*
X226530476Y-103463809D01*
X226435238Y-103416190D01*
X226244761Y-103368571D01*
X226149523Y-103320952D01*
X226101904Y-103273333D01*
X226054285Y-103178095D01*
X226054285Y-103082857D01*
X226101904Y-102987619D01*
X226149523Y-102940000D01*
X226244761Y-102892380D01*
X226482857Y-102892380D01*
X226625714Y-102940000D01*
X227387619Y-103368571D02*
X227530476Y-103416190D01*
X227578095Y-103463809D01*
X227625714Y-103559047D01*
X227625714Y-103701904D01*
X227578095Y-103797142D01*
X227530476Y-103844761D01*
X227435238Y-103892380D01*
X227054285Y-103892380D01*
X227054285Y-102892380D01*
X227387619Y-102892380D01*
X227482857Y-102940000D01*
X227530476Y-102987619D01*
X227578095Y-103082857D01*
X227578095Y-103178095D01*
X227530476Y-103273333D01*
X227482857Y-103320952D01*
X227387619Y-103368571D01*
X227054285Y-103368571D01*
X228482857Y-103225714D02*
X228482857Y-103892380D01*
X228244761Y-102844761D02*
X228006666Y-103559047D01*
X228625714Y-103559047D01*
X229197142Y-102892380D02*
X229292380Y-102892380D01*
X229387619Y-102940000D01*
X229435238Y-102987619D01*
X229482857Y-103082857D01*
X229530476Y-103273333D01*
X229530476Y-103511428D01*
X229482857Y-103701904D01*
X229435238Y-103797142D01*
X229387619Y-103844761D01*
X229292380Y-103892380D01*
X229197142Y-103892380D01*
X229101904Y-103844761D01*
X229054285Y-103797142D01*
X229006666Y-103701904D01*
X228959047Y-103511428D01*
X228959047Y-103273333D01*
X229006666Y-103082857D01*
X229054285Y-102987619D01*
X229101904Y-102940000D01*
X229197142Y-102892380D01*
X230435238Y-102892380D02*
X229959047Y-102892380D01*
X229911428Y-103368571D01*
X229959047Y-103320952D01*
X230054285Y-103273333D01*
X230292380Y-103273333D01*
X230387619Y-103320952D01*
X230435238Y-103368571D01*
X230482857Y-103463809D01*
X230482857Y-103701904D01*
X230435238Y-103797142D01*
X230387619Y-103844761D01*
X230292380Y-103892380D01*
X230054285Y-103892380D01*
X229959047Y-103844761D01*
X229911428Y-103797142D01*
X231340000Y-102892380D02*
X231149523Y-102892380D01*
X231054285Y-102940000D01*
X231006666Y-102987619D01*
X230911428Y-103130476D01*
X230863809Y-103320952D01*
X230863809Y-103701904D01*
X230911428Y-103797142D01*
X230959047Y-103844761D01*
X231054285Y-103892380D01*
X231244761Y-103892380D01*
X231340000Y-103844761D01*
X231387619Y-103797142D01*
X231435238Y-103701904D01*
X231435238Y-103463809D01*
X231387619Y-103368571D01*
X231340000Y-103320952D01*
X231244761Y-103273333D01*
X231054285Y-103273333D01*
X230959047Y-103320952D01*
X230911428Y-103368571D01*
X230863809Y-103463809D01*
X231863809Y-103511428D02*
X232625714Y-103511428D01*
X233292380Y-102892380D02*
X233387619Y-102892380D01*
X233482857Y-102940000D01*
X233530476Y-102987619D01*
X233578095Y-103082857D01*
X233625714Y-103273333D01*
X233625714Y-103511428D01*
X233578095Y-103701904D01*
X233530476Y-103797142D01*
X233482857Y-103844761D01*
X233387619Y-103892380D01*
X233292380Y-103892380D01*
X233197142Y-103844761D01*
X233149523Y-103797142D01*
X233101904Y-103701904D01*
X233054285Y-103511428D01*
X233054285Y-103273333D01*
X233101904Y-103082857D01*
X233149523Y-102987619D01*
X233197142Y-102940000D01*
X233292380Y-102892380D01*
X233959047Y-102892380D02*
X234578095Y-102892380D01*
X234244761Y-103273333D01*
X234387619Y-103273333D01*
X234482857Y-103320952D01*
X234530476Y-103368571D01*
X234578095Y-103463809D01*
X234578095Y-103701904D01*
X234530476Y-103797142D01*
X234482857Y-103844761D01*
X234387619Y-103892380D01*
X234101904Y-103892380D01*
X234006666Y-103844761D01*
X233959047Y-103797142D01*
X235006666Y-103511428D02*
X235768571Y-103511428D01*
X236197142Y-103606666D02*
X236673333Y-103606666D01*
X236101904Y-103892380D02*
X236435238Y-102892380D01*
X236768571Y-103892380D01*
%TO.C,U3*%
X195972380Y-144951904D02*
X196781904Y-144951904D01*
X196877142Y-144904285D01*
X196924761Y-144856666D01*
X196972380Y-144761428D01*
X196972380Y-144570952D01*
X196924761Y-144475714D01*
X196877142Y-144428095D01*
X196781904Y-144380476D01*
X195972380Y-144380476D01*
X195972380Y-143999523D02*
X195972380Y-143380476D01*
X196353333Y-143713809D01*
X196353333Y-143570952D01*
X196400952Y-143475714D01*
X196448571Y-143428095D01*
X196543809Y-143380476D01*
X196781904Y-143380476D01*
X196877142Y-143428095D01*
X196924761Y-143475714D01*
X196972380Y-143570952D01*
X196972380Y-143856666D01*
X196924761Y-143951904D01*
X196877142Y-143999523D01*
%TO.C,R5*%
X216513333Y-115352380D02*
X216180000Y-114876190D01*
X215941904Y-115352380D02*
X215941904Y-114352380D01*
X216322857Y-114352380D01*
X216418095Y-114400000D01*
X216465714Y-114447619D01*
X216513333Y-114542857D01*
X216513333Y-114685714D01*
X216465714Y-114780952D01*
X216418095Y-114828571D01*
X216322857Y-114876190D01*
X215941904Y-114876190D01*
X217418095Y-114352380D02*
X216941904Y-114352380D01*
X216894285Y-114828571D01*
X216941904Y-114780952D01*
X217037142Y-114733333D01*
X217275238Y-114733333D01*
X217370476Y-114780952D01*
X217418095Y-114828571D01*
X217465714Y-114923809D01*
X217465714Y-115161904D01*
X217418095Y-115257142D01*
X217370476Y-115304761D01*
X217275238Y-115352380D01*
X217037142Y-115352380D01*
X216941904Y-115304761D01*
X216894285Y-115257142D01*
%TO.C,C6*%
X228143333Y-140547142D02*
X228095714Y-140594761D01*
X227952857Y-140642380D01*
X227857619Y-140642380D01*
X227714761Y-140594761D01*
X227619523Y-140499523D01*
X227571904Y-140404285D01*
X227524285Y-140213809D01*
X227524285Y-140070952D01*
X227571904Y-139880476D01*
X227619523Y-139785238D01*
X227714761Y-139690000D01*
X227857619Y-139642380D01*
X227952857Y-139642380D01*
X228095714Y-139690000D01*
X228143333Y-139737619D01*
X229000476Y-139642380D02*
X228810000Y-139642380D01*
X228714761Y-139690000D01*
X228667142Y-139737619D01*
X228571904Y-139880476D01*
X228524285Y-140070952D01*
X228524285Y-140451904D01*
X228571904Y-140547142D01*
X228619523Y-140594761D01*
X228714761Y-140642380D01*
X228905238Y-140642380D01*
X229000476Y-140594761D01*
X229048095Y-140547142D01*
X229095714Y-140451904D01*
X229095714Y-140213809D01*
X229048095Y-140118571D01*
X229000476Y-140070952D01*
X228905238Y-140023333D01*
X228714761Y-140023333D01*
X228619523Y-140070952D01*
X228571904Y-140118571D01*
X228524285Y-140213809D01*
%TO.C,C14*%
X193407142Y-138997142D02*
X193359523Y-139044761D01*
X193216666Y-139092380D01*
X193121428Y-139092380D01*
X192978571Y-139044761D01*
X192883333Y-138949523D01*
X192835714Y-138854285D01*
X192788095Y-138663809D01*
X192788095Y-138520952D01*
X192835714Y-138330476D01*
X192883333Y-138235238D01*
X192978571Y-138140000D01*
X193121428Y-138092380D01*
X193216666Y-138092380D01*
X193359523Y-138140000D01*
X193407142Y-138187619D01*
X194359523Y-139092380D02*
X193788095Y-139092380D01*
X194073809Y-139092380D02*
X194073809Y-138092380D01*
X193978571Y-138235238D01*
X193883333Y-138330476D01*
X193788095Y-138378095D01*
X195216666Y-138425714D02*
X195216666Y-139092380D01*
X194978571Y-138044761D02*
X194740476Y-138759047D01*
X195359523Y-138759047D01*
%TO.C,C11*%
X222297142Y-155172857D02*
X222344761Y-155220476D01*
X222392380Y-155363333D01*
X222392380Y-155458571D01*
X222344761Y-155601428D01*
X222249523Y-155696666D01*
X222154285Y-155744285D01*
X221963809Y-155791904D01*
X221820952Y-155791904D01*
X221630476Y-155744285D01*
X221535238Y-155696666D01*
X221440000Y-155601428D01*
X221392380Y-155458571D01*
X221392380Y-155363333D01*
X221440000Y-155220476D01*
X221487619Y-155172857D01*
X222392380Y-154220476D02*
X222392380Y-154791904D01*
X222392380Y-154506190D02*
X221392380Y-154506190D01*
X221535238Y-154601428D01*
X221630476Y-154696666D01*
X221678095Y-154791904D01*
X222392380Y-153268095D02*
X222392380Y-153839523D01*
X222392380Y-153553809D02*
X221392380Y-153553809D01*
X221535238Y-153649047D01*
X221630476Y-153744285D01*
X221678095Y-153839523D01*
%TO.C,R7*%
X197932380Y-157066666D02*
X197456190Y-157400000D01*
X197932380Y-157638095D02*
X196932380Y-157638095D01*
X196932380Y-157257142D01*
X196980000Y-157161904D01*
X197027619Y-157114285D01*
X197122857Y-157066666D01*
X197265714Y-157066666D01*
X197360952Y-157114285D01*
X197408571Y-157161904D01*
X197456190Y-157257142D01*
X197456190Y-157638095D01*
X196932380Y-156733333D02*
X196932380Y-156066666D01*
X197932380Y-156495238D01*
%TO.C,C1*%
X223913333Y-113637142D02*
X223865714Y-113684761D01*
X223722857Y-113732380D01*
X223627619Y-113732380D01*
X223484761Y-113684761D01*
X223389523Y-113589523D01*
X223341904Y-113494285D01*
X223294285Y-113303809D01*
X223294285Y-113160952D01*
X223341904Y-112970476D01*
X223389523Y-112875238D01*
X223484761Y-112780000D01*
X223627619Y-112732380D01*
X223722857Y-112732380D01*
X223865714Y-112780000D01*
X223913333Y-112827619D01*
X224865714Y-113732380D02*
X224294285Y-113732380D01*
X224580000Y-113732380D02*
X224580000Y-112732380D01*
X224484761Y-112875238D01*
X224389523Y-112970476D01*
X224294285Y-113018095D01*
%TO.C,C8*%
X211613333Y-149677142D02*
X211565714Y-149724761D01*
X211422857Y-149772380D01*
X211327619Y-149772380D01*
X211184761Y-149724761D01*
X211089523Y-149629523D01*
X211041904Y-149534285D01*
X210994285Y-149343809D01*
X210994285Y-149200952D01*
X211041904Y-149010476D01*
X211089523Y-148915238D01*
X211184761Y-148820000D01*
X211327619Y-148772380D01*
X211422857Y-148772380D01*
X211565714Y-148820000D01*
X211613333Y-148867619D01*
X212184761Y-149200952D02*
X212089523Y-149153333D01*
X212041904Y-149105714D01*
X211994285Y-149010476D01*
X211994285Y-148962857D01*
X212041904Y-148867619D01*
X212089523Y-148820000D01*
X212184761Y-148772380D01*
X212375238Y-148772380D01*
X212470476Y-148820000D01*
X212518095Y-148867619D01*
X212565714Y-148962857D01*
X212565714Y-149010476D01*
X212518095Y-149105714D01*
X212470476Y-149153333D01*
X212375238Y-149200952D01*
X212184761Y-149200952D01*
X212089523Y-149248571D01*
X212041904Y-149296190D01*
X211994285Y-149391428D01*
X211994285Y-149581904D01*
X212041904Y-149677142D01*
X212089523Y-149724761D01*
X212184761Y-149772380D01*
X212375238Y-149772380D01*
X212470476Y-149724761D01*
X212518095Y-149677142D01*
X212565714Y-149581904D01*
X212565714Y-149391428D01*
X212518095Y-149296190D01*
X212470476Y-149248571D01*
X212375238Y-149200952D01*
%TO.C,C15*%
X218067142Y-131552857D02*
X218114761Y-131600476D01*
X218162380Y-131743333D01*
X218162380Y-131838571D01*
X218114761Y-131981428D01*
X218019523Y-132076666D01*
X217924285Y-132124285D01*
X217733809Y-132171904D01*
X217590952Y-132171904D01*
X217400476Y-132124285D01*
X217305238Y-132076666D01*
X217210000Y-131981428D01*
X217162380Y-131838571D01*
X217162380Y-131743333D01*
X217210000Y-131600476D01*
X217257619Y-131552857D01*
X218162380Y-130600476D02*
X218162380Y-131171904D01*
X218162380Y-130886190D02*
X217162380Y-130886190D01*
X217305238Y-130981428D01*
X217400476Y-131076666D01*
X217448095Y-131171904D01*
X217162380Y-129695714D02*
X217162380Y-130171904D01*
X217638571Y-130219523D01*
X217590952Y-130171904D01*
X217543333Y-130076666D01*
X217543333Y-129838571D01*
X217590952Y-129743333D01*
X217638571Y-129695714D01*
X217733809Y-129648095D01*
X217971904Y-129648095D01*
X218067142Y-129695714D01*
X218114761Y-129743333D01*
X218162380Y-129838571D01*
X218162380Y-130076666D01*
X218114761Y-130171904D01*
X218067142Y-130219523D01*
%TO.C,C7*%
X221253333Y-150937142D02*
X221205714Y-150984761D01*
X221062857Y-151032380D01*
X220967619Y-151032380D01*
X220824761Y-150984761D01*
X220729523Y-150889523D01*
X220681904Y-150794285D01*
X220634285Y-150603809D01*
X220634285Y-150460952D01*
X220681904Y-150270476D01*
X220729523Y-150175238D01*
X220824761Y-150080000D01*
X220967619Y-150032380D01*
X221062857Y-150032380D01*
X221205714Y-150080000D01*
X221253333Y-150127619D01*
X221586666Y-150032380D02*
X222253333Y-150032380D01*
X221824761Y-151032380D01*
%TO.C,H4*%
X99238095Y-157652380D02*
X99238095Y-156652380D01*
X99238095Y-157128571D02*
X99809523Y-157128571D01*
X99809523Y-157652380D02*
X99809523Y-156652380D01*
X100714285Y-156985714D02*
X100714285Y-157652380D01*
X100476190Y-156604761D02*
X100238095Y-157319047D01*
X100857142Y-157319047D01*
%TO.C,C5*%
X214383333Y-137997142D02*
X214335714Y-138044761D01*
X214192857Y-138092380D01*
X214097619Y-138092380D01*
X213954761Y-138044761D01*
X213859523Y-137949523D01*
X213811904Y-137854285D01*
X213764285Y-137663809D01*
X213764285Y-137520952D01*
X213811904Y-137330476D01*
X213859523Y-137235238D01*
X213954761Y-137140000D01*
X214097619Y-137092380D01*
X214192857Y-137092380D01*
X214335714Y-137140000D01*
X214383333Y-137187619D01*
X215288095Y-137092380D02*
X214811904Y-137092380D01*
X214764285Y-137568571D01*
X214811904Y-137520952D01*
X214907142Y-137473333D01*
X215145238Y-137473333D01*
X215240476Y-137520952D01*
X215288095Y-137568571D01*
X215335714Y-137663809D01*
X215335714Y-137901904D01*
X215288095Y-137997142D01*
X215240476Y-138044761D01*
X215145238Y-138092380D01*
X214907142Y-138092380D01*
X214811904Y-138044761D01*
X214764285Y-137997142D01*
%TO.C,H2*%
X336738095Y-120152380D02*
X336738095Y-119152380D01*
X336738095Y-119628571D02*
X337309523Y-119628571D01*
X337309523Y-120152380D02*
X337309523Y-119152380D01*
X337738095Y-119247619D02*
X337785714Y-119200000D01*
X337880952Y-119152380D01*
X338119047Y-119152380D01*
X338214285Y-119200000D01*
X338261904Y-119247619D01*
X338309523Y-119342857D01*
X338309523Y-119438095D01*
X338261904Y-119580952D01*
X337690476Y-120152380D01*
X338309523Y-120152380D01*
%TO.C,R1*%
X213393333Y-110802380D02*
X213060000Y-110326190D01*
X212821904Y-110802380D02*
X212821904Y-109802380D01*
X213202857Y-109802380D01*
X213298095Y-109850000D01*
X213345714Y-109897619D01*
X213393333Y-109992857D01*
X213393333Y-110135714D01*
X213345714Y-110230952D01*
X213298095Y-110278571D01*
X213202857Y-110326190D01*
X212821904Y-110326190D01*
X214345714Y-110802380D02*
X213774285Y-110802380D01*
X214060000Y-110802380D02*
X214060000Y-109802380D01*
X213964761Y-109945238D01*
X213869523Y-110040476D01*
X213774285Y-110088095D01*
%TO.C,C12*%
X216447142Y-131802857D02*
X216494761Y-131850476D01*
X216542380Y-131993333D01*
X216542380Y-132088571D01*
X216494761Y-132231428D01*
X216399523Y-132326666D01*
X216304285Y-132374285D01*
X216113809Y-132421904D01*
X215970952Y-132421904D01*
X215780476Y-132374285D01*
X215685238Y-132326666D01*
X215590000Y-132231428D01*
X215542380Y-132088571D01*
X215542380Y-131993333D01*
X215590000Y-131850476D01*
X215637619Y-131802857D01*
X216542380Y-130850476D02*
X216542380Y-131421904D01*
X216542380Y-131136190D02*
X215542380Y-131136190D01*
X215685238Y-131231428D01*
X215780476Y-131326666D01*
X215828095Y-131421904D01*
X215637619Y-130469523D02*
X215590000Y-130421904D01*
X215542380Y-130326666D01*
X215542380Y-130088571D01*
X215590000Y-129993333D01*
X215637619Y-129945714D01*
X215732857Y-129898095D01*
X215828095Y-129898095D01*
X215970952Y-129945714D01*
X216542380Y-130517142D01*
X216542380Y-129898095D01*
%TO.C,U1*%
X234228095Y-128152380D02*
X234228095Y-128961904D01*
X234275714Y-129057142D01*
X234323333Y-129104761D01*
X234418571Y-129152380D01*
X234609047Y-129152380D01*
X234704285Y-129104761D01*
X234751904Y-129057142D01*
X234799523Y-128961904D01*
X234799523Y-128152380D01*
X235799523Y-129152380D02*
X235228095Y-129152380D01*
X235513809Y-129152380D02*
X235513809Y-128152380D01*
X235418571Y-128295238D01*
X235323333Y-128390476D01*
X235228095Y-128438095D01*
%TO.C,C4*%
X220337142Y-170466666D02*
X220384761Y-170514285D01*
X220432380Y-170657142D01*
X220432380Y-170752380D01*
X220384761Y-170895238D01*
X220289523Y-170990476D01*
X220194285Y-171038095D01*
X220003809Y-171085714D01*
X219860952Y-171085714D01*
X219670476Y-171038095D01*
X219575238Y-170990476D01*
X219480000Y-170895238D01*
X219432380Y-170752380D01*
X219432380Y-170657142D01*
X219480000Y-170514285D01*
X219527619Y-170466666D01*
X219765714Y-169609523D02*
X220432380Y-169609523D01*
X219384761Y-169847619D02*
X220099047Y-170085714D01*
X220099047Y-169466666D01*
D12*
%TO.C,Y1*%
X229085000Y-162800000D02*
X213110000Y-162800000D01*
X213110000Y-167900000D02*
X229085000Y-167900000D01*
X229085000Y-167900000D02*
X229085000Y-162800000D01*
%TO.C,R3*%
X221942500Y-160784724D02*
X221942500Y-160275276D01*
X220897500Y-160784724D02*
X220897500Y-160275276D01*
%TO.C,R2*%
X221067500Y-111082776D02*
X221067500Y-111592224D01*
X222112500Y-111082776D02*
X222112500Y-111592224D01*
%TO.C,C2*%
X234900000Y-129353733D02*
X234900000Y-129646267D01*
X235920000Y-129353733D02*
X235920000Y-129646267D01*
%TO.C,R6*%
X200084724Y-151217500D02*
X199575276Y-151217500D01*
X200084724Y-152262500D02*
X199575276Y-152262500D01*
%TO.C,U2*%
X216140000Y-148680000D02*
X215490000Y-148680000D01*
X215490000Y-148680000D02*
X215490000Y-148030000D01*
X222710000Y-148680000D02*
X222710000Y-148030000D01*
X216140000Y-141460000D02*
X215490000Y-141460000D01*
X222060000Y-141460000D02*
X222710000Y-141460000D01*
X222060000Y-148680000D02*
X222710000Y-148680000D01*
X222710000Y-141460000D02*
X222710000Y-142110000D01*
%TO.C,C13*%
X228123733Y-148160000D02*
X228416267Y-148160000D01*
X228123733Y-147140000D02*
X228416267Y-147140000D01*
%TO.C,C9*%
X220940000Y-138076267D02*
X220940000Y-137783733D01*
X221960000Y-138076267D02*
X221960000Y-137783733D01*
%TO.C,C3*%
X217040000Y-170456267D02*
X217040000Y-170163733D01*
X216020000Y-170456267D02*
X216020000Y-170163733D01*
%TO.C,C16*%
X228123733Y-141360000D02*
X228416267Y-141360000D01*
X228123733Y-142380000D02*
X228416267Y-142380000D01*
%TO.C,C10*%
X224273733Y-137440000D02*
X224566267Y-137440000D01*
X224273733Y-138460000D02*
X224566267Y-138460000D01*
%TO.C,R4*%
X220492500Y-112375276D02*
X220492500Y-112884724D01*
X219447500Y-112375276D02*
X219447500Y-112884724D01*
%TO.C,J2*%
X189425000Y-162175000D02*
X189425000Y-161415000D01*
X195425000Y-164655000D02*
X189425000Y-164655000D01*
X200795000Y-165605000D02*
X199525000Y-165605000D01*
X195425000Y-164715000D02*
X189425000Y-164715000D01*
X200795000Y-164335000D02*
X200795000Y-165605000D01*
X198482071Y-162175000D02*
X198085000Y-162175000D01*
X195425000Y-164415000D02*
X189425000Y-164415000D01*
X195425000Y-164295000D02*
X189425000Y-164295000D01*
X198482071Y-161415000D02*
X198085000Y-161415000D01*
X198085000Y-165665000D02*
X198085000Y-160465000D01*
X195425000Y-164055000D02*
X189425000Y-164055000D01*
X198415000Y-163955000D02*
X198085000Y-163955000D01*
X189425000Y-164715000D02*
X189425000Y-163955000D01*
X195425000Y-162175000D02*
X189425000Y-162175000D01*
X195425000Y-165665000D02*
X198085000Y-165665000D01*
X198085000Y-160465000D02*
X195425000Y-160465000D01*
X195425000Y-164175000D02*
X189425000Y-164175000D01*
X189425000Y-163955000D02*
X195425000Y-163955000D01*
X189425000Y-161415000D02*
X195425000Y-161415000D01*
X198085000Y-163065000D02*
X195425000Y-163065000D01*
X195425000Y-160465000D02*
X195425000Y-165665000D01*
X195425000Y-164535000D02*
X189425000Y-164535000D01*
X198415000Y-164715000D02*
X198085000Y-164715000D01*
%TO.C,J1*%
X226299926Y-110213486D02*
G75*
G03*
X226299926Y-110213486I-381000J0D01*
G01*
X224140926Y-102340746D02*
X224140926Y-98935886D01*
X216265990Y-109070486D02*
X221906662Y-109070486D01*
X224140926Y-98935886D02*
X214031726Y-98935886D01*
X223465991Y-109070486D02*
X224140926Y-109070486D01*
X214031726Y-109070486D02*
X214706661Y-109070486D01*
X214031726Y-98935886D02*
X214031726Y-102340746D01*
X214031726Y-105546226D02*
X214031726Y-109070486D01*
X224140926Y-109070486D02*
X224140926Y-105546226D01*
%TO.C,U3*%
X197355000Y-144190000D02*
X197355000Y-141465000D01*
X202805000Y-144190000D02*
X202805000Y-141465000D01*
X202805000Y-146915000D02*
X202545000Y-146915000D01*
X202805000Y-141465000D02*
X202545000Y-141465000D01*
X197355000Y-141465000D02*
X197615000Y-141465000D01*
X197615000Y-146915000D02*
X197615000Y-148590000D01*
X197355000Y-144190000D02*
X197355000Y-146915000D01*
X197355000Y-146915000D02*
X197615000Y-146915000D01*
X202805000Y-144190000D02*
X202805000Y-146915000D01*
%TO.C,R5*%
X217687500Y-112375276D02*
X217687500Y-112884724D01*
X218732500Y-112375276D02*
X218732500Y-112884724D01*
%TO.C,C6*%
X225463733Y-140520000D02*
X225756267Y-140520000D01*
X225463733Y-139500000D02*
X225756267Y-139500000D01*
%TO.C,C14*%
X197426267Y-139010000D02*
X197133733Y-139010000D01*
X197426267Y-137990000D02*
X197133733Y-137990000D01*
%TO.C,C11*%
X220000000Y-154383733D02*
X220000000Y-154676267D01*
X221020000Y-154383733D02*
X221020000Y-154676267D01*
%TO.C,R7*%
X198387500Y-157154724D02*
X198387500Y-156645276D01*
X199432500Y-157154724D02*
X199432500Y-156645276D01*
%TO.C,C1*%
X224180000Y-110593733D02*
X224180000Y-110886267D01*
X223160000Y-110593733D02*
X223160000Y-110886267D01*
%TO.C,C8*%
X212146267Y-147310000D02*
X211853733Y-147310000D01*
X212146267Y-146290000D02*
X211853733Y-146290000D01*
%TO.C,C15*%
X219650000Y-131056267D02*
X219650000Y-130763733D01*
X218630000Y-131056267D02*
X218630000Y-130763733D01*
%TO.C,C7*%
X221273733Y-152520000D02*
X221566267Y-152520000D01*
X221273733Y-151500000D02*
X221566267Y-151500000D01*
%TO.C,C5*%
X217496267Y-136830000D02*
X217203733Y-136830000D01*
X217496267Y-137850000D02*
X217203733Y-137850000D01*
%TO.C,R1*%
X214477224Y-108397500D02*
X213967776Y-108397500D01*
X214477224Y-109442500D02*
X213967776Y-109442500D01*
%TO.C,C12*%
X217010000Y-131306267D02*
X217010000Y-131013733D01*
X218030000Y-131306267D02*
X218030000Y-131013733D01*
%TO.C,U1*%
X237460000Y-121020000D02*
X238560000Y-121020000D01*
X235960000Y-120750000D02*
X237460000Y-120750000D01*
X235960000Y-127650000D02*
X237460000Y-127650000D01*
X237460000Y-127380000D02*
X240290000Y-127380000D01*
X237460000Y-120750000D02*
X237460000Y-121020000D01*
X237460000Y-127650000D02*
X237460000Y-127380000D01*
%TO.C,C4*%
X221920000Y-170446267D02*
X221920000Y-170153733D01*
X220900000Y-170446267D02*
X220900000Y-170153733D01*
%TD*%
M02*
