%TF.GenerationSoftware,KiCad,Pcbnew,6.0.7-f9a2dced07~116~ubuntu20.04.1*%
%TF.CreationDate,2022-10-16T12:29:11-07:00*%
%TF.ProjectId,keyboard,6b657962-6f61-4726-942e-6b696361645f,rev?*%
%TF.SameCoordinates,Original*%
%TF.FileFunction,Legend,Bot*%
%TF.FilePolarity,Positive*%
%FSLAX46Y46*%
G04 Gerber Fmt 4.6, Leading zero omitted, Abs format (unit mm)*
G04 Created by KiCad (PCBNEW 6.0.7-f9a2dced07~116~ubuntu20.04.1) date 2022-10-16 12:29:11*
%MOMM*%
%LPD*%
G01*
G04 APERTURE LIST*
%ADD10C,0.150000*%
%ADD11C,0.120000*%
G04 APERTURE END LIST*
D10*
%TO.C,SW22*%
X268469523Y-128380761D02*
X268326666Y-128428380D01*
X268088571Y-128428380D01*
X267993333Y-128380761D01*
X267945714Y-128333142D01*
X267898095Y-128237904D01*
X267898095Y-128142666D01*
X267945714Y-128047428D01*
X267993333Y-127999809D01*
X268088571Y-127952190D01*
X268279047Y-127904571D01*
X268374285Y-127856952D01*
X268421904Y-127809333D01*
X268469523Y-127714095D01*
X268469523Y-127618857D01*
X268421904Y-127523619D01*
X268374285Y-127476000D01*
X268279047Y-127428380D01*
X268040952Y-127428380D01*
X267898095Y-127476000D01*
X267564761Y-127428380D02*
X267326666Y-128428380D01*
X267136190Y-127714095D01*
X266945714Y-128428380D01*
X266707619Y-127428380D01*
X266374285Y-127523619D02*
X266326666Y-127476000D01*
X266231428Y-127428380D01*
X265993333Y-127428380D01*
X265898095Y-127476000D01*
X265850476Y-127523619D01*
X265802857Y-127618857D01*
X265802857Y-127714095D01*
X265850476Y-127856952D01*
X266421904Y-128428380D01*
X265802857Y-128428380D01*
X265421904Y-127523619D02*
X265374285Y-127476000D01*
X265279047Y-127428380D01*
X265040952Y-127428380D01*
X264945714Y-127476000D01*
X264898095Y-127523619D01*
X264850476Y-127618857D01*
X264850476Y-127714095D01*
X264898095Y-127856952D01*
X265469523Y-128428380D01*
X264850476Y-128428380D01*
%TO.C,D55*%
X108147380Y-152083214D02*
X107147380Y-152083214D01*
X107147380Y-152321309D01*
X107195000Y-152464166D01*
X107290238Y-152559404D01*
X107385476Y-152607023D01*
X107575952Y-152654642D01*
X107718809Y-152654642D01*
X107909285Y-152607023D01*
X108004523Y-152559404D01*
X108099761Y-152464166D01*
X108147380Y-152321309D01*
X108147380Y-152083214D01*
X107147380Y-153559404D02*
X107147380Y-153083214D01*
X107623571Y-153035595D01*
X107575952Y-153083214D01*
X107528333Y-153178452D01*
X107528333Y-153416547D01*
X107575952Y-153511785D01*
X107623571Y-153559404D01*
X107718809Y-153607023D01*
X107956904Y-153607023D01*
X108052142Y-153559404D01*
X108099761Y-153511785D01*
X108147380Y-153416547D01*
X108147380Y-153178452D01*
X108099761Y-153083214D01*
X108052142Y-153035595D01*
X107147380Y-154511785D02*
X107147380Y-154035595D01*
X107623571Y-153987976D01*
X107575952Y-154035595D01*
X107528333Y-154130833D01*
X107528333Y-154368928D01*
X107575952Y-154464166D01*
X107623571Y-154511785D01*
X107718809Y-154559404D01*
X107956904Y-154559404D01*
X108052142Y-154511785D01*
X108099761Y-154464166D01*
X108147380Y-154368928D01*
X108147380Y-154130833D01*
X108099761Y-154035595D01*
X108052142Y-153987976D01*
%TO.C,D17*%
X296247380Y-114083214D02*
X295247380Y-114083214D01*
X295247380Y-114321309D01*
X295295000Y-114464166D01*
X295390238Y-114559404D01*
X295485476Y-114607023D01*
X295675952Y-114654642D01*
X295818809Y-114654642D01*
X296009285Y-114607023D01*
X296104523Y-114559404D01*
X296199761Y-114464166D01*
X296247380Y-114321309D01*
X296247380Y-114083214D01*
X296247380Y-115607023D02*
X296247380Y-115035595D01*
X296247380Y-115321309D02*
X295247380Y-115321309D01*
X295390238Y-115226071D01*
X295485476Y-115130833D01*
X295533095Y-115035595D01*
X295247380Y-115940357D02*
X295247380Y-116607023D01*
X296247380Y-116178452D01*
%TO.C,SW29*%
X230417023Y-109330761D02*
X230274166Y-109378380D01*
X230036071Y-109378380D01*
X229940833Y-109330761D01*
X229893214Y-109283142D01*
X229845595Y-109187904D01*
X229845595Y-109092666D01*
X229893214Y-108997428D01*
X229940833Y-108949809D01*
X230036071Y-108902190D01*
X230226547Y-108854571D01*
X230321785Y-108806952D01*
X230369404Y-108759333D01*
X230417023Y-108664095D01*
X230417023Y-108568857D01*
X230369404Y-108473619D01*
X230321785Y-108426000D01*
X230226547Y-108378380D01*
X229988452Y-108378380D01*
X229845595Y-108426000D01*
X229512261Y-108378380D02*
X229274166Y-109378380D01*
X229083690Y-108664095D01*
X228893214Y-109378380D01*
X228655119Y-108378380D01*
X228321785Y-108473619D02*
X228274166Y-108426000D01*
X228178928Y-108378380D01*
X227940833Y-108378380D01*
X227845595Y-108426000D01*
X227797976Y-108473619D01*
X227750357Y-108568857D01*
X227750357Y-108664095D01*
X227797976Y-108806952D01*
X228369404Y-109378380D01*
X227750357Y-109378380D01*
X227274166Y-109378380D02*
X227083690Y-109378380D01*
X226988452Y-109330761D01*
X226940833Y-109283142D01*
X226845595Y-109140285D01*
X226797976Y-108949809D01*
X226797976Y-108568857D01*
X226845595Y-108473619D01*
X226893214Y-108426000D01*
X226988452Y-108378380D01*
X227178928Y-108378380D01*
X227274166Y-108426000D01*
X227321785Y-108473619D01*
X227369404Y-108568857D01*
X227369404Y-108806952D01*
X227321785Y-108902190D01*
X227274166Y-108949809D01*
X227178928Y-108997428D01*
X226988452Y-108997428D01*
X226893214Y-108949809D01*
X226845595Y-108902190D01*
X226797976Y-108806952D01*
%TO.C,SW7*%
X344050833Y-147340761D02*
X343907976Y-147388380D01*
X343669880Y-147388380D01*
X343574642Y-147340761D01*
X343527023Y-147293142D01*
X343479404Y-147197904D01*
X343479404Y-147102666D01*
X343527023Y-147007428D01*
X343574642Y-146959809D01*
X343669880Y-146912190D01*
X343860357Y-146864571D01*
X343955595Y-146816952D01*
X344003214Y-146769333D01*
X344050833Y-146674095D01*
X344050833Y-146578857D01*
X344003214Y-146483619D01*
X343955595Y-146436000D01*
X343860357Y-146388380D01*
X343622261Y-146388380D01*
X343479404Y-146436000D01*
X343146071Y-146388380D02*
X342907976Y-147388380D01*
X342717500Y-146674095D01*
X342527023Y-147388380D01*
X342288928Y-146388380D01*
X342003214Y-146388380D02*
X341336547Y-146388380D01*
X341765119Y-147388380D01*
%TO.C,D33*%
X203592380Y-114043214D02*
X202592380Y-114043214D01*
X202592380Y-114281309D01*
X202640000Y-114424166D01*
X202735238Y-114519404D01*
X202830476Y-114567023D01*
X203020952Y-114614642D01*
X203163809Y-114614642D01*
X203354285Y-114567023D01*
X203449523Y-114519404D01*
X203544761Y-114424166D01*
X203592380Y-114281309D01*
X203592380Y-114043214D01*
X202592380Y-114947976D02*
X202592380Y-115567023D01*
X202973333Y-115233690D01*
X202973333Y-115376547D01*
X203020952Y-115471785D01*
X203068571Y-115519404D01*
X203163809Y-115567023D01*
X203401904Y-115567023D01*
X203497142Y-115519404D01*
X203544761Y-115471785D01*
X203592380Y-115376547D01*
X203592380Y-115090833D01*
X203544761Y-114995595D01*
X203497142Y-114947976D01*
X202592380Y-115900357D02*
X202592380Y-116519404D01*
X202973333Y-116186071D01*
X202973333Y-116328928D01*
X203020952Y-116424166D01*
X203068571Y-116471785D01*
X203163809Y-116519404D01*
X203401904Y-116519404D01*
X203497142Y-116471785D01*
X203544761Y-116424166D01*
X203592380Y-116328928D01*
X203592380Y-116043214D01*
X203544761Y-115947976D01*
X203497142Y-115900357D01*
%TO.C,D12*%
X334289880Y-171133214D02*
X333289880Y-171133214D01*
X333289880Y-171371309D01*
X333337500Y-171514166D01*
X333432738Y-171609404D01*
X333527976Y-171657023D01*
X333718452Y-171704642D01*
X333861309Y-171704642D01*
X334051785Y-171657023D01*
X334147023Y-171609404D01*
X334242261Y-171514166D01*
X334289880Y-171371309D01*
X334289880Y-171133214D01*
X334289880Y-172657023D02*
X334289880Y-172085595D01*
X334289880Y-172371309D02*
X333289880Y-172371309D01*
X333432738Y-172276071D01*
X333527976Y-172180833D01*
X333575595Y-172085595D01*
X333385119Y-173037976D02*
X333337500Y-173085595D01*
X333289880Y-173180833D01*
X333289880Y-173418928D01*
X333337500Y-173514166D01*
X333385119Y-173561785D01*
X333480357Y-173609404D01*
X333575595Y-173609404D01*
X333718452Y-173561785D01*
X334289880Y-172990357D01*
X334289880Y-173609404D01*
%TO.C,SW34*%
X211367023Y-128380761D02*
X211224166Y-128428380D01*
X210986071Y-128428380D01*
X210890833Y-128380761D01*
X210843214Y-128333142D01*
X210795595Y-128237904D01*
X210795595Y-128142666D01*
X210843214Y-128047428D01*
X210890833Y-127999809D01*
X210986071Y-127952190D01*
X211176547Y-127904571D01*
X211271785Y-127856952D01*
X211319404Y-127809333D01*
X211367023Y-127714095D01*
X211367023Y-127618857D01*
X211319404Y-127523619D01*
X211271785Y-127476000D01*
X211176547Y-127428380D01*
X210938452Y-127428380D01*
X210795595Y-127476000D01*
X210462261Y-127428380D02*
X210224166Y-128428380D01*
X210033690Y-127714095D01*
X209843214Y-128428380D01*
X209605119Y-127428380D01*
X209319404Y-127428380D02*
X208700357Y-127428380D01*
X209033690Y-127809333D01*
X208890833Y-127809333D01*
X208795595Y-127856952D01*
X208747976Y-127904571D01*
X208700357Y-127999809D01*
X208700357Y-128237904D01*
X208747976Y-128333142D01*
X208795595Y-128380761D01*
X208890833Y-128428380D01*
X209176547Y-128428380D01*
X209271785Y-128380761D01*
X209319404Y-128333142D01*
X207843214Y-127761714D02*
X207843214Y-128428380D01*
X208081309Y-127380761D02*
X208319404Y-128095047D01*
X207700357Y-128095047D01*
%TO.C,SW46*%
X154169523Y-128380761D02*
X154026666Y-128428380D01*
X153788571Y-128428380D01*
X153693333Y-128380761D01*
X153645714Y-128333142D01*
X153598095Y-128237904D01*
X153598095Y-128142666D01*
X153645714Y-128047428D01*
X153693333Y-127999809D01*
X153788571Y-127952190D01*
X153979047Y-127904571D01*
X154074285Y-127856952D01*
X154121904Y-127809333D01*
X154169523Y-127714095D01*
X154169523Y-127618857D01*
X154121904Y-127523619D01*
X154074285Y-127476000D01*
X153979047Y-127428380D01*
X153740952Y-127428380D01*
X153598095Y-127476000D01*
X153264761Y-127428380D02*
X153026666Y-128428380D01*
X152836190Y-127714095D01*
X152645714Y-128428380D01*
X152407619Y-127428380D01*
X151598095Y-127761714D02*
X151598095Y-128428380D01*
X151836190Y-127380761D02*
X152074285Y-128095047D01*
X151455238Y-128095047D01*
X150645714Y-127428380D02*
X150836190Y-127428380D01*
X150931428Y-127476000D01*
X150979047Y-127523619D01*
X151074285Y-127666476D01*
X151121904Y-127856952D01*
X151121904Y-128237904D01*
X151074285Y-128333142D01*
X151026666Y-128380761D01*
X150931428Y-128428380D01*
X150740952Y-128428380D01*
X150645714Y-128380761D01*
X150598095Y-128333142D01*
X150550476Y-128237904D01*
X150550476Y-127999809D01*
X150598095Y-127904571D01*
X150645714Y-127856952D01*
X150740952Y-127809333D01*
X150931428Y-127809333D01*
X151026666Y-127856952D01*
X151074285Y-127904571D01*
X151121904Y-127999809D01*
%TO.C,SW45*%
X154169523Y-109330761D02*
X154026666Y-109378380D01*
X153788571Y-109378380D01*
X153693333Y-109330761D01*
X153645714Y-109283142D01*
X153598095Y-109187904D01*
X153598095Y-109092666D01*
X153645714Y-108997428D01*
X153693333Y-108949809D01*
X153788571Y-108902190D01*
X153979047Y-108854571D01*
X154074285Y-108806952D01*
X154121904Y-108759333D01*
X154169523Y-108664095D01*
X154169523Y-108568857D01*
X154121904Y-108473619D01*
X154074285Y-108426000D01*
X153979047Y-108378380D01*
X153740952Y-108378380D01*
X153598095Y-108426000D01*
X153264761Y-108378380D02*
X153026666Y-109378380D01*
X152836190Y-108664095D01*
X152645714Y-109378380D01*
X152407619Y-108378380D01*
X151598095Y-108711714D02*
X151598095Y-109378380D01*
X151836190Y-108330761D02*
X152074285Y-109045047D01*
X151455238Y-109045047D01*
X150598095Y-108378380D02*
X151074285Y-108378380D01*
X151121904Y-108854571D01*
X151074285Y-108806952D01*
X150979047Y-108759333D01*
X150740952Y-108759333D01*
X150645714Y-108806952D01*
X150598095Y-108854571D01*
X150550476Y-108949809D01*
X150550476Y-109187904D01*
X150598095Y-109283142D01*
X150645714Y-109330761D01*
X150740952Y-109378380D01*
X150979047Y-109378380D01*
X151074285Y-109330761D01*
X151121904Y-109283142D01*
%TO.C,D2*%
X372322380Y-133581904D02*
X371322380Y-133581904D01*
X371322380Y-133820000D01*
X371370000Y-133962857D01*
X371465238Y-134058095D01*
X371560476Y-134105714D01*
X371750952Y-134153333D01*
X371893809Y-134153333D01*
X372084285Y-134105714D01*
X372179523Y-134058095D01*
X372274761Y-133962857D01*
X372322380Y-133820000D01*
X372322380Y-133581904D01*
X371417619Y-134534285D02*
X371370000Y-134581904D01*
X371322380Y-134677142D01*
X371322380Y-134915238D01*
X371370000Y-135010476D01*
X371417619Y-135058095D01*
X371512857Y-135105714D01*
X371608095Y-135105714D01*
X371750952Y-135058095D01*
X372322380Y-134486666D01*
X372322380Y-135105714D01*
%TO.C,D26*%
X258312380Y-133348214D02*
X257312380Y-133348214D01*
X257312380Y-133586309D01*
X257360000Y-133729166D01*
X257455238Y-133824404D01*
X257550476Y-133872023D01*
X257740952Y-133919642D01*
X257883809Y-133919642D01*
X258074285Y-133872023D01*
X258169523Y-133824404D01*
X258264761Y-133729166D01*
X258312380Y-133586309D01*
X258312380Y-133348214D01*
X257407619Y-134300595D02*
X257360000Y-134348214D01*
X257312380Y-134443452D01*
X257312380Y-134681547D01*
X257360000Y-134776785D01*
X257407619Y-134824404D01*
X257502857Y-134872023D01*
X257598095Y-134872023D01*
X257740952Y-134824404D01*
X258312380Y-134252976D01*
X258312380Y-134872023D01*
X257312380Y-135729166D02*
X257312380Y-135538690D01*
X257360000Y-135443452D01*
X257407619Y-135395833D01*
X257550476Y-135300595D01*
X257740952Y-135252976D01*
X258121904Y-135252976D01*
X258217142Y-135300595D01*
X258264761Y-135348214D01*
X258312380Y-135443452D01*
X258312380Y-135633928D01*
X258264761Y-135729166D01*
X258217142Y-135776785D01*
X258121904Y-135824404D01*
X257883809Y-135824404D01*
X257788571Y-135776785D01*
X257740952Y-135729166D01*
X257693333Y-135633928D01*
X257693333Y-135443452D01*
X257740952Y-135348214D01*
X257788571Y-135300595D01*
X257883809Y-135252976D01*
%TO.C,SW30*%
X230417023Y-128380761D02*
X230274166Y-128428380D01*
X230036071Y-128428380D01*
X229940833Y-128380761D01*
X229893214Y-128333142D01*
X229845595Y-128237904D01*
X229845595Y-128142666D01*
X229893214Y-128047428D01*
X229940833Y-127999809D01*
X230036071Y-127952190D01*
X230226547Y-127904571D01*
X230321785Y-127856952D01*
X230369404Y-127809333D01*
X230417023Y-127714095D01*
X230417023Y-127618857D01*
X230369404Y-127523619D01*
X230321785Y-127476000D01*
X230226547Y-127428380D01*
X229988452Y-127428380D01*
X229845595Y-127476000D01*
X229512261Y-127428380D02*
X229274166Y-128428380D01*
X229083690Y-127714095D01*
X228893214Y-128428380D01*
X228655119Y-127428380D01*
X228369404Y-127428380D02*
X227750357Y-127428380D01*
X228083690Y-127809333D01*
X227940833Y-127809333D01*
X227845595Y-127856952D01*
X227797976Y-127904571D01*
X227750357Y-127999809D01*
X227750357Y-128237904D01*
X227797976Y-128333142D01*
X227845595Y-128380761D01*
X227940833Y-128428380D01*
X228226547Y-128428380D01*
X228321785Y-128380761D01*
X228369404Y-128333142D01*
X227131309Y-127428380D02*
X227036071Y-127428380D01*
X226940833Y-127476000D01*
X226893214Y-127523619D01*
X226845595Y-127618857D01*
X226797976Y-127809333D01*
X226797976Y-128047428D01*
X226845595Y-128237904D01*
X226893214Y-128333142D01*
X226940833Y-128380761D01*
X227036071Y-128428380D01*
X227131309Y-128428380D01*
X227226547Y-128380761D01*
X227274166Y-128333142D01*
X227321785Y-128237904D01*
X227369404Y-128047428D01*
X227369404Y-127809333D01*
X227321785Y-127618857D01*
X227274166Y-127523619D01*
X227226547Y-127476000D01*
X227131309Y-127428380D01*
%TO.C,D48*%
X146682380Y-171123214D02*
X145682380Y-171123214D01*
X145682380Y-171361309D01*
X145730000Y-171504166D01*
X145825238Y-171599404D01*
X145920476Y-171647023D01*
X146110952Y-171694642D01*
X146253809Y-171694642D01*
X146444285Y-171647023D01*
X146539523Y-171599404D01*
X146634761Y-171504166D01*
X146682380Y-171361309D01*
X146682380Y-171123214D01*
X146015714Y-172551785D02*
X146682380Y-172551785D01*
X145634761Y-172313690D02*
X146349047Y-172075595D01*
X146349047Y-172694642D01*
X146110952Y-173218452D02*
X146063333Y-173123214D01*
X146015714Y-173075595D01*
X145920476Y-173027976D01*
X145872857Y-173027976D01*
X145777619Y-173075595D01*
X145730000Y-173123214D01*
X145682380Y-173218452D01*
X145682380Y-173408928D01*
X145730000Y-173504166D01*
X145777619Y-173551785D01*
X145872857Y-173599404D01*
X145920476Y-173599404D01*
X146015714Y-173551785D01*
X146063333Y-173504166D01*
X146110952Y-173408928D01*
X146110952Y-173218452D01*
X146158571Y-173123214D01*
X146206190Y-173075595D01*
X146301428Y-173027976D01*
X146491904Y-173027976D01*
X146587142Y-173075595D01*
X146634761Y-173123214D01*
X146682380Y-173218452D01*
X146682380Y-173408928D01*
X146634761Y-173504166D01*
X146587142Y-173551785D01*
X146491904Y-173599404D01*
X146301428Y-173599404D01*
X146206190Y-173551785D01*
X146158571Y-173504166D01*
X146110952Y-173408928D01*
%TO.C,D21*%
X277244880Y-114083214D02*
X276244880Y-114083214D01*
X276244880Y-114321309D01*
X276292500Y-114464166D01*
X276387738Y-114559404D01*
X276482976Y-114607023D01*
X276673452Y-114654642D01*
X276816309Y-114654642D01*
X277006785Y-114607023D01*
X277102023Y-114559404D01*
X277197261Y-114464166D01*
X277244880Y-114321309D01*
X277244880Y-114083214D01*
X276340119Y-115035595D02*
X276292500Y-115083214D01*
X276244880Y-115178452D01*
X276244880Y-115416547D01*
X276292500Y-115511785D01*
X276340119Y-115559404D01*
X276435357Y-115607023D01*
X276530595Y-115607023D01*
X276673452Y-115559404D01*
X277244880Y-114987976D01*
X277244880Y-115607023D01*
X277244880Y-116559404D02*
X277244880Y-115987976D01*
X277244880Y-116273690D02*
X276244880Y-116273690D01*
X276387738Y-116178452D01*
X276482976Y-116083214D01*
X276530595Y-115987976D01*
%TO.C,D36*%
X203749880Y-171133214D02*
X202749880Y-171133214D01*
X202749880Y-171371309D01*
X202797500Y-171514166D01*
X202892738Y-171609404D01*
X202987976Y-171657023D01*
X203178452Y-171704642D01*
X203321309Y-171704642D01*
X203511785Y-171657023D01*
X203607023Y-171609404D01*
X203702261Y-171514166D01*
X203749880Y-171371309D01*
X203749880Y-171133214D01*
X202749880Y-172037976D02*
X202749880Y-172657023D01*
X203130833Y-172323690D01*
X203130833Y-172466547D01*
X203178452Y-172561785D01*
X203226071Y-172609404D01*
X203321309Y-172657023D01*
X203559404Y-172657023D01*
X203654642Y-172609404D01*
X203702261Y-172561785D01*
X203749880Y-172466547D01*
X203749880Y-172180833D01*
X203702261Y-172085595D01*
X203654642Y-172037976D01*
X202749880Y-173514166D02*
X202749880Y-173323690D01*
X202797500Y-173228452D01*
X202845119Y-173180833D01*
X202987976Y-173085595D01*
X203178452Y-173037976D01*
X203559404Y-173037976D01*
X203654642Y-173085595D01*
X203702261Y-173133214D01*
X203749880Y-173228452D01*
X203749880Y-173418928D01*
X203702261Y-173514166D01*
X203654642Y-173561785D01*
X203559404Y-173609404D01*
X203321309Y-173609404D01*
X203226071Y-173561785D01*
X203178452Y-173514166D01*
X203130833Y-173418928D01*
X203130833Y-173228452D01*
X203178452Y-173133214D01*
X203226071Y-173085595D01*
X203321309Y-173037976D01*
%TO.C,SW31*%
X230417023Y-147340761D02*
X230274166Y-147388380D01*
X230036071Y-147388380D01*
X229940833Y-147340761D01*
X229893214Y-147293142D01*
X229845595Y-147197904D01*
X229845595Y-147102666D01*
X229893214Y-147007428D01*
X229940833Y-146959809D01*
X230036071Y-146912190D01*
X230226547Y-146864571D01*
X230321785Y-146816952D01*
X230369404Y-146769333D01*
X230417023Y-146674095D01*
X230417023Y-146578857D01*
X230369404Y-146483619D01*
X230321785Y-146436000D01*
X230226547Y-146388380D01*
X229988452Y-146388380D01*
X229845595Y-146436000D01*
X229512261Y-146388380D02*
X229274166Y-147388380D01*
X229083690Y-146674095D01*
X228893214Y-147388380D01*
X228655119Y-146388380D01*
X228369404Y-146388380D02*
X227750357Y-146388380D01*
X228083690Y-146769333D01*
X227940833Y-146769333D01*
X227845595Y-146816952D01*
X227797976Y-146864571D01*
X227750357Y-146959809D01*
X227750357Y-147197904D01*
X227797976Y-147293142D01*
X227845595Y-147340761D01*
X227940833Y-147388380D01*
X228226547Y-147388380D01*
X228321785Y-147340761D01*
X228369404Y-147293142D01*
X226797976Y-147388380D02*
X227369404Y-147388380D01*
X227083690Y-147388380D02*
X227083690Y-146388380D01*
X227178928Y-146531238D01*
X227274166Y-146626476D01*
X227369404Y-146674095D01*
%TO.C,D46*%
X146542380Y-133118214D02*
X145542380Y-133118214D01*
X145542380Y-133356309D01*
X145590000Y-133499166D01*
X145685238Y-133594404D01*
X145780476Y-133642023D01*
X145970952Y-133689642D01*
X146113809Y-133689642D01*
X146304285Y-133642023D01*
X146399523Y-133594404D01*
X146494761Y-133499166D01*
X146542380Y-133356309D01*
X146542380Y-133118214D01*
X145875714Y-134546785D02*
X146542380Y-134546785D01*
X145494761Y-134308690D02*
X146209047Y-134070595D01*
X146209047Y-134689642D01*
X145542380Y-135499166D02*
X145542380Y-135308690D01*
X145590000Y-135213452D01*
X145637619Y-135165833D01*
X145780476Y-135070595D01*
X145970952Y-135022976D01*
X146351904Y-135022976D01*
X146447142Y-135070595D01*
X146494761Y-135118214D01*
X146542380Y-135213452D01*
X146542380Y-135403928D01*
X146494761Y-135499166D01*
X146447142Y-135546785D01*
X146351904Y-135594404D01*
X146113809Y-135594404D01*
X146018571Y-135546785D01*
X145970952Y-135499166D01*
X145923333Y-135403928D01*
X145923333Y-135213452D01*
X145970952Y-135118214D01*
X146018571Y-135070595D01*
X146113809Y-135022976D01*
%TO.C,D34*%
X203712380Y-133115714D02*
X202712380Y-133115714D01*
X202712380Y-133353809D01*
X202760000Y-133496666D01*
X202855238Y-133591904D01*
X202950476Y-133639523D01*
X203140952Y-133687142D01*
X203283809Y-133687142D01*
X203474285Y-133639523D01*
X203569523Y-133591904D01*
X203664761Y-133496666D01*
X203712380Y-133353809D01*
X203712380Y-133115714D01*
X202712380Y-134020476D02*
X202712380Y-134639523D01*
X203093333Y-134306190D01*
X203093333Y-134449047D01*
X203140952Y-134544285D01*
X203188571Y-134591904D01*
X203283809Y-134639523D01*
X203521904Y-134639523D01*
X203617142Y-134591904D01*
X203664761Y-134544285D01*
X203712380Y-134449047D01*
X203712380Y-134163333D01*
X203664761Y-134068095D01*
X203617142Y-134020476D01*
X203045714Y-135496666D02*
X203712380Y-135496666D01*
X202664761Y-135258571D02*
X203379047Y-135020476D01*
X203379047Y-135639523D01*
%TO.C,D13*%
X315249880Y-114083214D02*
X314249880Y-114083214D01*
X314249880Y-114321309D01*
X314297500Y-114464166D01*
X314392738Y-114559404D01*
X314487976Y-114607023D01*
X314678452Y-114654642D01*
X314821309Y-114654642D01*
X315011785Y-114607023D01*
X315107023Y-114559404D01*
X315202261Y-114464166D01*
X315249880Y-114321309D01*
X315249880Y-114083214D01*
X315249880Y-115607023D02*
X315249880Y-115035595D01*
X315249880Y-115321309D02*
X314249880Y-115321309D01*
X314392738Y-115226071D01*
X314487976Y-115130833D01*
X314535595Y-115035595D01*
X314249880Y-115940357D02*
X314249880Y-116559404D01*
X314630833Y-116226071D01*
X314630833Y-116368928D01*
X314678452Y-116464166D01*
X314726071Y-116511785D01*
X314821309Y-116559404D01*
X315059404Y-116559404D01*
X315154642Y-116511785D01*
X315202261Y-116464166D01*
X315249880Y-116368928D01*
X315249880Y-116083214D01*
X315202261Y-115987976D01*
X315154642Y-115940357D01*
%TO.C,D64*%
X70002380Y-171113214D02*
X69002380Y-171113214D01*
X69002380Y-171351309D01*
X69050000Y-171494166D01*
X69145238Y-171589404D01*
X69240476Y-171637023D01*
X69430952Y-171684642D01*
X69573809Y-171684642D01*
X69764285Y-171637023D01*
X69859523Y-171589404D01*
X69954761Y-171494166D01*
X70002380Y-171351309D01*
X70002380Y-171113214D01*
X69002380Y-172541785D02*
X69002380Y-172351309D01*
X69050000Y-172256071D01*
X69097619Y-172208452D01*
X69240476Y-172113214D01*
X69430952Y-172065595D01*
X69811904Y-172065595D01*
X69907142Y-172113214D01*
X69954761Y-172160833D01*
X70002380Y-172256071D01*
X70002380Y-172446547D01*
X69954761Y-172541785D01*
X69907142Y-172589404D01*
X69811904Y-172637023D01*
X69573809Y-172637023D01*
X69478571Y-172589404D01*
X69430952Y-172541785D01*
X69383333Y-172446547D01*
X69383333Y-172256071D01*
X69430952Y-172160833D01*
X69478571Y-172113214D01*
X69573809Y-172065595D01*
X69335714Y-173494166D02*
X70002380Y-173494166D01*
X68954761Y-173256071D02*
X69669047Y-173017976D01*
X69669047Y-173637023D01*
%TO.C,D5*%
X353302380Y-114559404D02*
X352302380Y-114559404D01*
X352302380Y-114797500D01*
X352350000Y-114940357D01*
X352445238Y-115035595D01*
X352540476Y-115083214D01*
X352730952Y-115130833D01*
X352873809Y-115130833D01*
X353064285Y-115083214D01*
X353159523Y-115035595D01*
X353254761Y-114940357D01*
X353302380Y-114797500D01*
X353302380Y-114559404D01*
X352302380Y-116035595D02*
X352302380Y-115559404D01*
X352778571Y-115511785D01*
X352730952Y-115559404D01*
X352683333Y-115654642D01*
X352683333Y-115892738D01*
X352730952Y-115987976D01*
X352778571Y-116035595D01*
X352873809Y-116083214D01*
X353111904Y-116083214D01*
X353207142Y-116035595D01*
X353254761Y-115987976D01*
X353302380Y-115892738D01*
X353302380Y-115654642D01*
X353254761Y-115559404D01*
X353207142Y-115511785D01*
%TO.C,SW10*%
X325477023Y-128380761D02*
X325334166Y-128428380D01*
X325096071Y-128428380D01*
X325000833Y-128380761D01*
X324953214Y-128333142D01*
X324905595Y-128237904D01*
X324905595Y-128142666D01*
X324953214Y-128047428D01*
X325000833Y-127999809D01*
X325096071Y-127952190D01*
X325286547Y-127904571D01*
X325381785Y-127856952D01*
X325429404Y-127809333D01*
X325477023Y-127714095D01*
X325477023Y-127618857D01*
X325429404Y-127523619D01*
X325381785Y-127476000D01*
X325286547Y-127428380D01*
X325048452Y-127428380D01*
X324905595Y-127476000D01*
X324572261Y-127428380D02*
X324334166Y-128428380D01*
X324143690Y-127714095D01*
X323953214Y-128428380D01*
X323715119Y-127428380D01*
X322810357Y-128428380D02*
X323381785Y-128428380D01*
X323096071Y-128428380D02*
X323096071Y-127428380D01*
X323191309Y-127571238D01*
X323286547Y-127666476D01*
X323381785Y-127714095D01*
X322191309Y-127428380D02*
X322096071Y-127428380D01*
X322000833Y-127476000D01*
X321953214Y-127523619D01*
X321905595Y-127618857D01*
X321857976Y-127809333D01*
X321857976Y-128047428D01*
X321905595Y-128237904D01*
X321953214Y-128333142D01*
X322000833Y-128380761D01*
X322096071Y-128428380D01*
X322191309Y-128428380D01*
X322286547Y-128380761D01*
X322334166Y-128333142D01*
X322381785Y-128237904D01*
X322429404Y-128047428D01*
X322429404Y-127809333D01*
X322381785Y-127618857D01*
X322334166Y-127523619D01*
X322286547Y-127476000D01*
X322191309Y-127428380D01*
%TO.C,SW55*%
X115974523Y-147340761D02*
X115831666Y-147388380D01*
X115593571Y-147388380D01*
X115498333Y-147340761D01*
X115450714Y-147293142D01*
X115403095Y-147197904D01*
X115403095Y-147102666D01*
X115450714Y-147007428D01*
X115498333Y-146959809D01*
X115593571Y-146912190D01*
X115784047Y-146864571D01*
X115879285Y-146816952D01*
X115926904Y-146769333D01*
X115974523Y-146674095D01*
X115974523Y-146578857D01*
X115926904Y-146483619D01*
X115879285Y-146436000D01*
X115784047Y-146388380D01*
X115545952Y-146388380D01*
X115403095Y-146436000D01*
X115069761Y-146388380D02*
X114831666Y-147388380D01*
X114641190Y-146674095D01*
X114450714Y-147388380D01*
X114212619Y-146388380D01*
X113355476Y-146388380D02*
X113831666Y-146388380D01*
X113879285Y-146864571D01*
X113831666Y-146816952D01*
X113736428Y-146769333D01*
X113498333Y-146769333D01*
X113403095Y-146816952D01*
X113355476Y-146864571D01*
X113307857Y-146959809D01*
X113307857Y-147197904D01*
X113355476Y-147293142D01*
X113403095Y-147340761D01*
X113498333Y-147388380D01*
X113736428Y-147388380D01*
X113831666Y-147340761D01*
X113879285Y-147293142D01*
X112403095Y-146388380D02*
X112879285Y-146388380D01*
X112926904Y-146864571D01*
X112879285Y-146816952D01*
X112784047Y-146769333D01*
X112545952Y-146769333D01*
X112450714Y-146816952D01*
X112403095Y-146864571D01*
X112355476Y-146959809D01*
X112355476Y-147197904D01*
X112403095Y-147293142D01*
X112450714Y-147340761D01*
X112545952Y-147388380D01*
X112784047Y-147388380D01*
X112879285Y-147340761D01*
X112926904Y-147293142D01*
%TO.C,D56*%
X108167380Y-171163214D02*
X107167380Y-171163214D01*
X107167380Y-171401309D01*
X107215000Y-171544166D01*
X107310238Y-171639404D01*
X107405476Y-171687023D01*
X107595952Y-171734642D01*
X107738809Y-171734642D01*
X107929285Y-171687023D01*
X108024523Y-171639404D01*
X108119761Y-171544166D01*
X108167380Y-171401309D01*
X108167380Y-171163214D01*
X107167380Y-172639404D02*
X107167380Y-172163214D01*
X107643571Y-172115595D01*
X107595952Y-172163214D01*
X107548333Y-172258452D01*
X107548333Y-172496547D01*
X107595952Y-172591785D01*
X107643571Y-172639404D01*
X107738809Y-172687023D01*
X107976904Y-172687023D01*
X108072142Y-172639404D01*
X108119761Y-172591785D01*
X108167380Y-172496547D01*
X108167380Y-172258452D01*
X108119761Y-172163214D01*
X108072142Y-172115595D01*
X107167380Y-173544166D02*
X107167380Y-173353690D01*
X107215000Y-173258452D01*
X107262619Y-173210833D01*
X107405476Y-173115595D01*
X107595952Y-173067976D01*
X107976904Y-173067976D01*
X108072142Y-173115595D01*
X108119761Y-173163214D01*
X108167380Y-173258452D01*
X108167380Y-173448928D01*
X108119761Y-173544166D01*
X108072142Y-173591785D01*
X107976904Y-173639404D01*
X107738809Y-173639404D01*
X107643571Y-173591785D01*
X107595952Y-173544166D01*
X107548333Y-173448928D01*
X107548333Y-173258452D01*
X107595952Y-173163214D01*
X107643571Y-173115595D01*
X107738809Y-173067976D01*
%TO.C,D29*%
X239192380Y-114083214D02*
X238192380Y-114083214D01*
X238192380Y-114321309D01*
X238240000Y-114464166D01*
X238335238Y-114559404D01*
X238430476Y-114607023D01*
X238620952Y-114654642D01*
X238763809Y-114654642D01*
X238954285Y-114607023D01*
X239049523Y-114559404D01*
X239144761Y-114464166D01*
X239192380Y-114321309D01*
X239192380Y-114083214D01*
X238287619Y-115035595D02*
X238240000Y-115083214D01*
X238192380Y-115178452D01*
X238192380Y-115416547D01*
X238240000Y-115511785D01*
X238287619Y-115559404D01*
X238382857Y-115607023D01*
X238478095Y-115607023D01*
X238620952Y-115559404D01*
X239192380Y-114987976D01*
X239192380Y-115607023D01*
X239192380Y-116083214D02*
X239192380Y-116273690D01*
X239144761Y-116368928D01*
X239097142Y-116416547D01*
X238954285Y-116511785D01*
X238763809Y-116559404D01*
X238382857Y-116559404D01*
X238287619Y-116511785D01*
X238240000Y-116464166D01*
X238192380Y-116368928D01*
X238192380Y-116178452D01*
X238240000Y-116083214D01*
X238287619Y-116035595D01*
X238382857Y-115987976D01*
X238620952Y-115987976D01*
X238716190Y-116035595D01*
X238763809Y-116083214D01*
X238811428Y-116178452D01*
X238811428Y-116368928D01*
X238763809Y-116464166D01*
X238716190Y-116511785D01*
X238620952Y-116559404D01*
%TO.C,D60*%
X89179880Y-171143214D02*
X88179880Y-171143214D01*
X88179880Y-171381309D01*
X88227500Y-171524166D01*
X88322738Y-171619404D01*
X88417976Y-171667023D01*
X88608452Y-171714642D01*
X88751309Y-171714642D01*
X88941785Y-171667023D01*
X89037023Y-171619404D01*
X89132261Y-171524166D01*
X89179880Y-171381309D01*
X89179880Y-171143214D01*
X88179880Y-172571785D02*
X88179880Y-172381309D01*
X88227500Y-172286071D01*
X88275119Y-172238452D01*
X88417976Y-172143214D01*
X88608452Y-172095595D01*
X88989404Y-172095595D01*
X89084642Y-172143214D01*
X89132261Y-172190833D01*
X89179880Y-172286071D01*
X89179880Y-172476547D01*
X89132261Y-172571785D01*
X89084642Y-172619404D01*
X88989404Y-172667023D01*
X88751309Y-172667023D01*
X88656071Y-172619404D01*
X88608452Y-172571785D01*
X88560833Y-172476547D01*
X88560833Y-172286071D01*
X88608452Y-172190833D01*
X88656071Y-172143214D01*
X88751309Y-172095595D01*
X88179880Y-173286071D02*
X88179880Y-173381309D01*
X88227500Y-173476547D01*
X88275119Y-173524166D01*
X88370357Y-173571785D01*
X88560833Y-173619404D01*
X88798928Y-173619404D01*
X88989404Y-173571785D01*
X89084642Y-173524166D01*
X89132261Y-173476547D01*
X89179880Y-173381309D01*
X89179880Y-173286071D01*
X89132261Y-173190833D01*
X89084642Y-173143214D01*
X88989404Y-173095595D01*
X88798928Y-173047976D01*
X88560833Y-173047976D01*
X88370357Y-173095595D01*
X88275119Y-173143214D01*
X88227500Y-173190833D01*
X88179880Y-173286071D01*
%TO.C,D58*%
X89149880Y-133065714D02*
X88149880Y-133065714D01*
X88149880Y-133303809D01*
X88197500Y-133446666D01*
X88292738Y-133541904D01*
X88387976Y-133589523D01*
X88578452Y-133637142D01*
X88721309Y-133637142D01*
X88911785Y-133589523D01*
X89007023Y-133541904D01*
X89102261Y-133446666D01*
X89149880Y-133303809D01*
X89149880Y-133065714D01*
X88149880Y-134541904D02*
X88149880Y-134065714D01*
X88626071Y-134018095D01*
X88578452Y-134065714D01*
X88530833Y-134160952D01*
X88530833Y-134399047D01*
X88578452Y-134494285D01*
X88626071Y-134541904D01*
X88721309Y-134589523D01*
X88959404Y-134589523D01*
X89054642Y-134541904D01*
X89102261Y-134494285D01*
X89149880Y-134399047D01*
X89149880Y-134160952D01*
X89102261Y-134065714D01*
X89054642Y-134018095D01*
X88578452Y-135160952D02*
X88530833Y-135065714D01*
X88483214Y-135018095D01*
X88387976Y-134970476D01*
X88340357Y-134970476D01*
X88245119Y-135018095D01*
X88197500Y-135065714D01*
X88149880Y-135160952D01*
X88149880Y-135351428D01*
X88197500Y-135446666D01*
X88245119Y-135494285D01*
X88340357Y-135541904D01*
X88387976Y-135541904D01*
X88483214Y-135494285D01*
X88530833Y-135446666D01*
X88578452Y-135351428D01*
X88578452Y-135160952D01*
X88626071Y-135065714D01*
X88673690Y-135018095D01*
X88768928Y-134970476D01*
X88959404Y-134970476D01*
X89054642Y-135018095D01*
X89102261Y-135065714D01*
X89149880Y-135160952D01*
X89149880Y-135351428D01*
X89102261Y-135446666D01*
X89054642Y-135494285D01*
X88959404Y-135541904D01*
X88768928Y-135541904D01*
X88673690Y-135494285D01*
X88626071Y-135446666D01*
X88578452Y-135351428D01*
%TO.C,SW27*%
X249419523Y-147340761D02*
X249276666Y-147388380D01*
X249038571Y-147388380D01*
X248943333Y-147340761D01*
X248895714Y-147293142D01*
X248848095Y-147197904D01*
X248848095Y-147102666D01*
X248895714Y-147007428D01*
X248943333Y-146959809D01*
X249038571Y-146912190D01*
X249229047Y-146864571D01*
X249324285Y-146816952D01*
X249371904Y-146769333D01*
X249419523Y-146674095D01*
X249419523Y-146578857D01*
X249371904Y-146483619D01*
X249324285Y-146436000D01*
X249229047Y-146388380D01*
X248990952Y-146388380D01*
X248848095Y-146436000D01*
X248514761Y-146388380D02*
X248276666Y-147388380D01*
X248086190Y-146674095D01*
X247895714Y-147388380D01*
X247657619Y-146388380D01*
X247324285Y-146483619D02*
X247276666Y-146436000D01*
X247181428Y-146388380D01*
X246943333Y-146388380D01*
X246848095Y-146436000D01*
X246800476Y-146483619D01*
X246752857Y-146578857D01*
X246752857Y-146674095D01*
X246800476Y-146816952D01*
X247371904Y-147388380D01*
X246752857Y-147388380D01*
X246419523Y-146388380D02*
X245752857Y-146388380D01*
X246181428Y-147388380D01*
%TO.C,SW43*%
X173267023Y-147340761D02*
X173124166Y-147388380D01*
X172886071Y-147388380D01*
X172790833Y-147340761D01*
X172743214Y-147293142D01*
X172695595Y-147197904D01*
X172695595Y-147102666D01*
X172743214Y-147007428D01*
X172790833Y-146959809D01*
X172886071Y-146912190D01*
X173076547Y-146864571D01*
X173171785Y-146816952D01*
X173219404Y-146769333D01*
X173267023Y-146674095D01*
X173267023Y-146578857D01*
X173219404Y-146483619D01*
X173171785Y-146436000D01*
X173076547Y-146388380D01*
X172838452Y-146388380D01*
X172695595Y-146436000D01*
X172362261Y-146388380D02*
X172124166Y-147388380D01*
X171933690Y-146674095D01*
X171743214Y-147388380D01*
X171505119Y-146388380D01*
X170695595Y-146721714D02*
X170695595Y-147388380D01*
X170933690Y-146340761D02*
X171171785Y-147055047D01*
X170552738Y-147055047D01*
X170267023Y-146388380D02*
X169647976Y-146388380D01*
X169981309Y-146769333D01*
X169838452Y-146769333D01*
X169743214Y-146816952D01*
X169695595Y-146864571D01*
X169647976Y-146959809D01*
X169647976Y-147197904D01*
X169695595Y-147293142D01*
X169743214Y-147340761D01*
X169838452Y-147388380D01*
X170124166Y-147388380D01*
X170219404Y-147340761D01*
X170267023Y-147293142D01*
%TO.C,SW5*%
X344050833Y-109330761D02*
X343907976Y-109378380D01*
X343669880Y-109378380D01*
X343574642Y-109330761D01*
X343527023Y-109283142D01*
X343479404Y-109187904D01*
X343479404Y-109092666D01*
X343527023Y-108997428D01*
X343574642Y-108949809D01*
X343669880Y-108902190D01*
X343860357Y-108854571D01*
X343955595Y-108806952D01*
X344003214Y-108759333D01*
X344050833Y-108664095D01*
X344050833Y-108568857D01*
X344003214Y-108473619D01*
X343955595Y-108426000D01*
X343860357Y-108378380D01*
X343622261Y-108378380D01*
X343479404Y-108426000D01*
X343146071Y-108378380D02*
X342907976Y-109378380D01*
X342717500Y-108664095D01*
X342527023Y-109378380D01*
X342288928Y-108378380D01*
X341431785Y-108378380D02*
X341907976Y-108378380D01*
X341955595Y-108854571D01*
X341907976Y-108806952D01*
X341812738Y-108759333D01*
X341574642Y-108759333D01*
X341479404Y-108806952D01*
X341431785Y-108854571D01*
X341384166Y-108949809D01*
X341384166Y-109187904D01*
X341431785Y-109283142D01*
X341479404Y-109330761D01*
X341574642Y-109378380D01*
X341812738Y-109378380D01*
X341907976Y-109330761D01*
X341955595Y-109283142D01*
%TO.C,D38*%
X184797380Y-133108214D02*
X183797380Y-133108214D01*
X183797380Y-133346309D01*
X183845000Y-133489166D01*
X183940238Y-133584404D01*
X184035476Y-133632023D01*
X184225952Y-133679642D01*
X184368809Y-133679642D01*
X184559285Y-133632023D01*
X184654523Y-133584404D01*
X184749761Y-133489166D01*
X184797380Y-133346309D01*
X184797380Y-133108214D01*
X183797380Y-134012976D02*
X183797380Y-134632023D01*
X184178333Y-134298690D01*
X184178333Y-134441547D01*
X184225952Y-134536785D01*
X184273571Y-134584404D01*
X184368809Y-134632023D01*
X184606904Y-134632023D01*
X184702142Y-134584404D01*
X184749761Y-134536785D01*
X184797380Y-134441547D01*
X184797380Y-134155833D01*
X184749761Y-134060595D01*
X184702142Y-134012976D01*
X184225952Y-135203452D02*
X184178333Y-135108214D01*
X184130714Y-135060595D01*
X184035476Y-135012976D01*
X183987857Y-135012976D01*
X183892619Y-135060595D01*
X183845000Y-135108214D01*
X183797380Y-135203452D01*
X183797380Y-135393928D01*
X183845000Y-135489166D01*
X183892619Y-135536785D01*
X183987857Y-135584404D01*
X184035476Y-135584404D01*
X184130714Y-135536785D01*
X184178333Y-135489166D01*
X184225952Y-135393928D01*
X184225952Y-135203452D01*
X184273571Y-135108214D01*
X184321190Y-135060595D01*
X184416428Y-135012976D01*
X184606904Y-135012976D01*
X184702142Y-135060595D01*
X184749761Y-135108214D01*
X184797380Y-135203452D01*
X184797380Y-135393928D01*
X184749761Y-135489166D01*
X184702142Y-135536785D01*
X184606904Y-135584404D01*
X184416428Y-135584404D01*
X184321190Y-135536785D01*
X184273571Y-135489166D01*
X184225952Y-135393928D01*
%TO.C,SW56*%
X115974523Y-166390761D02*
X115831666Y-166438380D01*
X115593571Y-166438380D01*
X115498333Y-166390761D01*
X115450714Y-166343142D01*
X115403095Y-166247904D01*
X115403095Y-166152666D01*
X115450714Y-166057428D01*
X115498333Y-166009809D01*
X115593571Y-165962190D01*
X115784047Y-165914571D01*
X115879285Y-165866952D01*
X115926904Y-165819333D01*
X115974523Y-165724095D01*
X115974523Y-165628857D01*
X115926904Y-165533619D01*
X115879285Y-165486000D01*
X115784047Y-165438380D01*
X115545952Y-165438380D01*
X115403095Y-165486000D01*
X115069761Y-165438380D02*
X114831666Y-166438380D01*
X114641190Y-165724095D01*
X114450714Y-166438380D01*
X114212619Y-165438380D01*
X113355476Y-165438380D02*
X113831666Y-165438380D01*
X113879285Y-165914571D01*
X113831666Y-165866952D01*
X113736428Y-165819333D01*
X113498333Y-165819333D01*
X113403095Y-165866952D01*
X113355476Y-165914571D01*
X113307857Y-166009809D01*
X113307857Y-166247904D01*
X113355476Y-166343142D01*
X113403095Y-166390761D01*
X113498333Y-166438380D01*
X113736428Y-166438380D01*
X113831666Y-166390761D01*
X113879285Y-166343142D01*
X112450714Y-165438380D02*
X112641190Y-165438380D01*
X112736428Y-165486000D01*
X112784047Y-165533619D01*
X112879285Y-165676476D01*
X112926904Y-165866952D01*
X112926904Y-166247904D01*
X112879285Y-166343142D01*
X112831666Y-166390761D01*
X112736428Y-166438380D01*
X112545952Y-166438380D01*
X112450714Y-166390761D01*
X112403095Y-166343142D01*
X112355476Y-166247904D01*
X112355476Y-166009809D01*
X112403095Y-165914571D01*
X112450714Y-165866952D01*
X112545952Y-165819333D01*
X112736428Y-165819333D01*
X112831666Y-165866952D01*
X112879285Y-165914571D01*
X112926904Y-166009809D01*
%TO.C,SW63*%
X77779523Y-147340761D02*
X77636666Y-147388380D01*
X77398571Y-147388380D01*
X77303333Y-147340761D01*
X77255714Y-147293142D01*
X77208095Y-147197904D01*
X77208095Y-147102666D01*
X77255714Y-147007428D01*
X77303333Y-146959809D01*
X77398571Y-146912190D01*
X77589047Y-146864571D01*
X77684285Y-146816952D01*
X77731904Y-146769333D01*
X77779523Y-146674095D01*
X77779523Y-146578857D01*
X77731904Y-146483619D01*
X77684285Y-146436000D01*
X77589047Y-146388380D01*
X77350952Y-146388380D01*
X77208095Y-146436000D01*
X76874761Y-146388380D02*
X76636666Y-147388380D01*
X76446190Y-146674095D01*
X76255714Y-147388380D01*
X76017619Y-146388380D01*
X75208095Y-146388380D02*
X75398571Y-146388380D01*
X75493809Y-146436000D01*
X75541428Y-146483619D01*
X75636666Y-146626476D01*
X75684285Y-146816952D01*
X75684285Y-147197904D01*
X75636666Y-147293142D01*
X75589047Y-147340761D01*
X75493809Y-147388380D01*
X75303333Y-147388380D01*
X75208095Y-147340761D01*
X75160476Y-147293142D01*
X75112857Y-147197904D01*
X75112857Y-146959809D01*
X75160476Y-146864571D01*
X75208095Y-146816952D01*
X75303333Y-146769333D01*
X75493809Y-146769333D01*
X75589047Y-146816952D01*
X75636666Y-146864571D01*
X75684285Y-146959809D01*
X74779523Y-146388380D02*
X74160476Y-146388380D01*
X74493809Y-146769333D01*
X74350952Y-146769333D01*
X74255714Y-146816952D01*
X74208095Y-146864571D01*
X74160476Y-146959809D01*
X74160476Y-147197904D01*
X74208095Y-147293142D01*
X74255714Y-147340761D01*
X74350952Y-147388380D01*
X74636666Y-147388380D01*
X74731904Y-147340761D01*
X74779523Y-147293142D01*
%TO.C,D30*%
X239309880Y-133348214D02*
X238309880Y-133348214D01*
X238309880Y-133586309D01*
X238357500Y-133729166D01*
X238452738Y-133824404D01*
X238547976Y-133872023D01*
X238738452Y-133919642D01*
X238881309Y-133919642D01*
X239071785Y-133872023D01*
X239167023Y-133824404D01*
X239262261Y-133729166D01*
X239309880Y-133586309D01*
X239309880Y-133348214D01*
X238309880Y-134252976D02*
X238309880Y-134872023D01*
X238690833Y-134538690D01*
X238690833Y-134681547D01*
X238738452Y-134776785D01*
X238786071Y-134824404D01*
X238881309Y-134872023D01*
X239119404Y-134872023D01*
X239214642Y-134824404D01*
X239262261Y-134776785D01*
X239309880Y-134681547D01*
X239309880Y-134395833D01*
X239262261Y-134300595D01*
X239214642Y-134252976D01*
X238309880Y-135491071D02*
X238309880Y-135586309D01*
X238357500Y-135681547D01*
X238405119Y-135729166D01*
X238500357Y-135776785D01*
X238690833Y-135824404D01*
X238928928Y-135824404D01*
X239119404Y-135776785D01*
X239214642Y-135729166D01*
X239262261Y-135681547D01*
X239309880Y-135586309D01*
X239309880Y-135491071D01*
X239262261Y-135395833D01*
X239214642Y-135348214D01*
X239119404Y-135300595D01*
X238928928Y-135252976D01*
X238690833Y-135252976D01*
X238500357Y-135300595D01*
X238405119Y-135348214D01*
X238357500Y-135395833D01*
X238309880Y-135491071D01*
%TO.C,SW59*%
X96877023Y-147340761D02*
X96734166Y-147388380D01*
X96496071Y-147388380D01*
X96400833Y-147340761D01*
X96353214Y-147293142D01*
X96305595Y-147197904D01*
X96305595Y-147102666D01*
X96353214Y-147007428D01*
X96400833Y-146959809D01*
X96496071Y-146912190D01*
X96686547Y-146864571D01*
X96781785Y-146816952D01*
X96829404Y-146769333D01*
X96877023Y-146674095D01*
X96877023Y-146578857D01*
X96829404Y-146483619D01*
X96781785Y-146436000D01*
X96686547Y-146388380D01*
X96448452Y-146388380D01*
X96305595Y-146436000D01*
X95972261Y-146388380D02*
X95734166Y-147388380D01*
X95543690Y-146674095D01*
X95353214Y-147388380D01*
X95115119Y-146388380D01*
X94257976Y-146388380D02*
X94734166Y-146388380D01*
X94781785Y-146864571D01*
X94734166Y-146816952D01*
X94638928Y-146769333D01*
X94400833Y-146769333D01*
X94305595Y-146816952D01*
X94257976Y-146864571D01*
X94210357Y-146959809D01*
X94210357Y-147197904D01*
X94257976Y-147293142D01*
X94305595Y-147340761D01*
X94400833Y-147388380D01*
X94638928Y-147388380D01*
X94734166Y-147340761D01*
X94781785Y-147293142D01*
X93734166Y-147388380D02*
X93543690Y-147388380D01*
X93448452Y-147340761D01*
X93400833Y-147293142D01*
X93305595Y-147150285D01*
X93257976Y-146959809D01*
X93257976Y-146578857D01*
X93305595Y-146483619D01*
X93353214Y-146436000D01*
X93448452Y-146388380D01*
X93638928Y-146388380D01*
X93734166Y-146436000D01*
X93781785Y-146483619D01*
X93829404Y-146578857D01*
X93829404Y-146816952D01*
X93781785Y-146912190D01*
X93734166Y-146959809D01*
X93638928Y-147007428D01*
X93448452Y-147007428D01*
X93353214Y-146959809D01*
X93305595Y-146912190D01*
X93257976Y-146816952D01*
%TO.C,D20*%
X296284880Y-171133214D02*
X295284880Y-171133214D01*
X295284880Y-171371309D01*
X295332500Y-171514166D01*
X295427738Y-171609404D01*
X295522976Y-171657023D01*
X295713452Y-171704642D01*
X295856309Y-171704642D01*
X296046785Y-171657023D01*
X296142023Y-171609404D01*
X296237261Y-171514166D01*
X296284880Y-171371309D01*
X296284880Y-171133214D01*
X295380119Y-172085595D02*
X295332500Y-172133214D01*
X295284880Y-172228452D01*
X295284880Y-172466547D01*
X295332500Y-172561785D01*
X295380119Y-172609404D01*
X295475357Y-172657023D01*
X295570595Y-172657023D01*
X295713452Y-172609404D01*
X296284880Y-172037976D01*
X296284880Y-172657023D01*
X295284880Y-173276071D02*
X295284880Y-173371309D01*
X295332500Y-173466547D01*
X295380119Y-173514166D01*
X295475357Y-173561785D01*
X295665833Y-173609404D01*
X295903928Y-173609404D01*
X296094404Y-173561785D01*
X296189642Y-173514166D01*
X296237261Y-173466547D01*
X296284880Y-173371309D01*
X296284880Y-173276071D01*
X296237261Y-173180833D01*
X296189642Y-173133214D01*
X296094404Y-173085595D01*
X295903928Y-173037976D01*
X295665833Y-173037976D01*
X295475357Y-173085595D01*
X295380119Y-173133214D01*
X295332500Y-173180833D01*
X295284880Y-173276071D01*
%TO.C,SW60*%
X96919523Y-166370761D02*
X96776666Y-166418380D01*
X96538571Y-166418380D01*
X96443333Y-166370761D01*
X96395714Y-166323142D01*
X96348095Y-166227904D01*
X96348095Y-166132666D01*
X96395714Y-166037428D01*
X96443333Y-165989809D01*
X96538571Y-165942190D01*
X96729047Y-165894571D01*
X96824285Y-165846952D01*
X96871904Y-165799333D01*
X96919523Y-165704095D01*
X96919523Y-165608857D01*
X96871904Y-165513619D01*
X96824285Y-165466000D01*
X96729047Y-165418380D01*
X96490952Y-165418380D01*
X96348095Y-165466000D01*
X96014761Y-165418380D02*
X95776666Y-166418380D01*
X95586190Y-165704095D01*
X95395714Y-166418380D01*
X95157619Y-165418380D01*
X94348095Y-165418380D02*
X94538571Y-165418380D01*
X94633809Y-165466000D01*
X94681428Y-165513619D01*
X94776666Y-165656476D01*
X94824285Y-165846952D01*
X94824285Y-166227904D01*
X94776666Y-166323142D01*
X94729047Y-166370761D01*
X94633809Y-166418380D01*
X94443333Y-166418380D01*
X94348095Y-166370761D01*
X94300476Y-166323142D01*
X94252857Y-166227904D01*
X94252857Y-165989809D01*
X94300476Y-165894571D01*
X94348095Y-165846952D01*
X94443333Y-165799333D01*
X94633809Y-165799333D01*
X94729047Y-165846952D01*
X94776666Y-165894571D01*
X94824285Y-165989809D01*
X93633809Y-165418380D02*
X93538571Y-165418380D01*
X93443333Y-165466000D01*
X93395714Y-165513619D01*
X93348095Y-165608857D01*
X93300476Y-165799333D01*
X93300476Y-166037428D01*
X93348095Y-166227904D01*
X93395714Y-166323142D01*
X93443333Y-166370761D01*
X93538571Y-166418380D01*
X93633809Y-166418380D01*
X93729047Y-166370761D01*
X93776666Y-166323142D01*
X93824285Y-166227904D01*
X93871904Y-166037428D01*
X93871904Y-165799333D01*
X93824285Y-165608857D01*
X93776666Y-165513619D01*
X93729047Y-165466000D01*
X93633809Y-165418380D01*
%TO.C,D42*%
X165612380Y-133138214D02*
X164612380Y-133138214D01*
X164612380Y-133376309D01*
X164660000Y-133519166D01*
X164755238Y-133614404D01*
X164850476Y-133662023D01*
X165040952Y-133709642D01*
X165183809Y-133709642D01*
X165374285Y-133662023D01*
X165469523Y-133614404D01*
X165564761Y-133519166D01*
X165612380Y-133376309D01*
X165612380Y-133138214D01*
X164945714Y-134566785D02*
X165612380Y-134566785D01*
X164564761Y-134328690D02*
X165279047Y-134090595D01*
X165279047Y-134709642D01*
X164707619Y-135042976D02*
X164660000Y-135090595D01*
X164612380Y-135185833D01*
X164612380Y-135423928D01*
X164660000Y-135519166D01*
X164707619Y-135566785D01*
X164802857Y-135614404D01*
X164898095Y-135614404D01*
X165040952Y-135566785D01*
X165612380Y-134995357D01*
X165612380Y-135614404D01*
%TO.C,SW52*%
X135072023Y-166390761D02*
X134929166Y-166438380D01*
X134691071Y-166438380D01*
X134595833Y-166390761D01*
X134548214Y-166343142D01*
X134500595Y-166247904D01*
X134500595Y-166152666D01*
X134548214Y-166057428D01*
X134595833Y-166009809D01*
X134691071Y-165962190D01*
X134881547Y-165914571D01*
X134976785Y-165866952D01*
X135024404Y-165819333D01*
X135072023Y-165724095D01*
X135072023Y-165628857D01*
X135024404Y-165533619D01*
X134976785Y-165486000D01*
X134881547Y-165438380D01*
X134643452Y-165438380D01*
X134500595Y-165486000D01*
X134167261Y-165438380D02*
X133929166Y-166438380D01*
X133738690Y-165724095D01*
X133548214Y-166438380D01*
X133310119Y-165438380D01*
X132452976Y-165438380D02*
X132929166Y-165438380D01*
X132976785Y-165914571D01*
X132929166Y-165866952D01*
X132833928Y-165819333D01*
X132595833Y-165819333D01*
X132500595Y-165866952D01*
X132452976Y-165914571D01*
X132405357Y-166009809D01*
X132405357Y-166247904D01*
X132452976Y-166343142D01*
X132500595Y-166390761D01*
X132595833Y-166438380D01*
X132833928Y-166438380D01*
X132929166Y-166390761D01*
X132976785Y-166343142D01*
X132024404Y-165533619D02*
X131976785Y-165486000D01*
X131881547Y-165438380D01*
X131643452Y-165438380D01*
X131548214Y-165486000D01*
X131500595Y-165533619D01*
X131452976Y-165628857D01*
X131452976Y-165724095D01*
X131500595Y-165866952D01*
X132072023Y-166438380D01*
X131452976Y-166438380D01*
%TO.C,D22*%
X277362380Y-133348214D02*
X276362380Y-133348214D01*
X276362380Y-133586309D01*
X276410000Y-133729166D01*
X276505238Y-133824404D01*
X276600476Y-133872023D01*
X276790952Y-133919642D01*
X276933809Y-133919642D01*
X277124285Y-133872023D01*
X277219523Y-133824404D01*
X277314761Y-133729166D01*
X277362380Y-133586309D01*
X277362380Y-133348214D01*
X276457619Y-134300595D02*
X276410000Y-134348214D01*
X276362380Y-134443452D01*
X276362380Y-134681547D01*
X276410000Y-134776785D01*
X276457619Y-134824404D01*
X276552857Y-134872023D01*
X276648095Y-134872023D01*
X276790952Y-134824404D01*
X277362380Y-134252976D01*
X277362380Y-134872023D01*
X276457619Y-135252976D02*
X276410000Y-135300595D01*
X276362380Y-135395833D01*
X276362380Y-135633928D01*
X276410000Y-135729166D01*
X276457619Y-135776785D01*
X276552857Y-135824404D01*
X276648095Y-135824404D01*
X276790952Y-135776785D01*
X277362380Y-135205357D01*
X277362380Y-135824404D01*
%TO.C,D19*%
X296254880Y-152093214D02*
X295254880Y-152093214D01*
X295254880Y-152331309D01*
X295302500Y-152474166D01*
X295397738Y-152569404D01*
X295492976Y-152617023D01*
X295683452Y-152664642D01*
X295826309Y-152664642D01*
X296016785Y-152617023D01*
X296112023Y-152569404D01*
X296207261Y-152474166D01*
X296254880Y-152331309D01*
X296254880Y-152093214D01*
X296254880Y-153617023D02*
X296254880Y-153045595D01*
X296254880Y-153331309D02*
X295254880Y-153331309D01*
X295397738Y-153236071D01*
X295492976Y-153140833D01*
X295540595Y-153045595D01*
X296254880Y-154093214D02*
X296254880Y-154283690D01*
X296207261Y-154378928D01*
X296159642Y-154426547D01*
X296016785Y-154521785D01*
X295826309Y-154569404D01*
X295445357Y-154569404D01*
X295350119Y-154521785D01*
X295302500Y-154474166D01*
X295254880Y-154378928D01*
X295254880Y-154188452D01*
X295302500Y-154093214D01*
X295350119Y-154045595D01*
X295445357Y-153997976D01*
X295683452Y-153997976D01*
X295778690Y-154045595D01*
X295826309Y-154093214D01*
X295873928Y-154188452D01*
X295873928Y-154378928D01*
X295826309Y-154474166D01*
X295778690Y-154521785D01*
X295683452Y-154569404D01*
%TO.C,D32*%
X239229880Y-171133214D02*
X238229880Y-171133214D01*
X238229880Y-171371309D01*
X238277500Y-171514166D01*
X238372738Y-171609404D01*
X238467976Y-171657023D01*
X238658452Y-171704642D01*
X238801309Y-171704642D01*
X238991785Y-171657023D01*
X239087023Y-171609404D01*
X239182261Y-171514166D01*
X239229880Y-171371309D01*
X239229880Y-171133214D01*
X238229880Y-172037976D02*
X238229880Y-172657023D01*
X238610833Y-172323690D01*
X238610833Y-172466547D01*
X238658452Y-172561785D01*
X238706071Y-172609404D01*
X238801309Y-172657023D01*
X239039404Y-172657023D01*
X239134642Y-172609404D01*
X239182261Y-172561785D01*
X239229880Y-172466547D01*
X239229880Y-172180833D01*
X239182261Y-172085595D01*
X239134642Y-172037976D01*
X238325119Y-173037976D02*
X238277500Y-173085595D01*
X238229880Y-173180833D01*
X238229880Y-173418928D01*
X238277500Y-173514166D01*
X238325119Y-173561785D01*
X238420357Y-173609404D01*
X238515595Y-173609404D01*
X238658452Y-173561785D01*
X239229880Y-172990357D01*
X239229880Y-173609404D01*
%TO.C,D3*%
X372312380Y-152569404D02*
X371312380Y-152569404D01*
X371312380Y-152807500D01*
X371360000Y-152950357D01*
X371455238Y-153045595D01*
X371550476Y-153093214D01*
X371740952Y-153140833D01*
X371883809Y-153140833D01*
X372074285Y-153093214D01*
X372169523Y-153045595D01*
X372264761Y-152950357D01*
X372312380Y-152807500D01*
X372312380Y-152569404D01*
X371312380Y-153474166D02*
X371312380Y-154093214D01*
X371693333Y-153759880D01*
X371693333Y-153902738D01*
X371740952Y-153997976D01*
X371788571Y-154045595D01*
X371883809Y-154093214D01*
X372121904Y-154093214D01*
X372217142Y-154045595D01*
X372264761Y-153997976D01*
X372312380Y-153902738D01*
X372312380Y-153617023D01*
X372264761Y-153521785D01*
X372217142Y-153474166D01*
%TO.C,SW37*%
X192364523Y-109330761D02*
X192221666Y-109378380D01*
X191983571Y-109378380D01*
X191888333Y-109330761D01*
X191840714Y-109283142D01*
X191793095Y-109187904D01*
X191793095Y-109092666D01*
X191840714Y-108997428D01*
X191888333Y-108949809D01*
X191983571Y-108902190D01*
X192174047Y-108854571D01*
X192269285Y-108806952D01*
X192316904Y-108759333D01*
X192364523Y-108664095D01*
X192364523Y-108568857D01*
X192316904Y-108473619D01*
X192269285Y-108426000D01*
X192174047Y-108378380D01*
X191935952Y-108378380D01*
X191793095Y-108426000D01*
X191459761Y-108378380D02*
X191221666Y-109378380D01*
X191031190Y-108664095D01*
X190840714Y-109378380D01*
X190602619Y-108378380D01*
X190316904Y-108378380D02*
X189697857Y-108378380D01*
X190031190Y-108759333D01*
X189888333Y-108759333D01*
X189793095Y-108806952D01*
X189745476Y-108854571D01*
X189697857Y-108949809D01*
X189697857Y-109187904D01*
X189745476Y-109283142D01*
X189793095Y-109330761D01*
X189888333Y-109378380D01*
X190174047Y-109378380D01*
X190269285Y-109330761D01*
X190316904Y-109283142D01*
X189364523Y-108378380D02*
X188697857Y-108378380D01*
X189126428Y-109378380D01*
%TO.C,SW18*%
X287472023Y-128380761D02*
X287329166Y-128428380D01*
X287091071Y-128428380D01*
X286995833Y-128380761D01*
X286948214Y-128333142D01*
X286900595Y-128237904D01*
X286900595Y-128142666D01*
X286948214Y-128047428D01*
X286995833Y-127999809D01*
X287091071Y-127952190D01*
X287281547Y-127904571D01*
X287376785Y-127856952D01*
X287424404Y-127809333D01*
X287472023Y-127714095D01*
X287472023Y-127618857D01*
X287424404Y-127523619D01*
X287376785Y-127476000D01*
X287281547Y-127428380D01*
X287043452Y-127428380D01*
X286900595Y-127476000D01*
X286567261Y-127428380D02*
X286329166Y-128428380D01*
X286138690Y-127714095D01*
X285948214Y-128428380D01*
X285710119Y-127428380D01*
X284805357Y-128428380D02*
X285376785Y-128428380D01*
X285091071Y-128428380D02*
X285091071Y-127428380D01*
X285186309Y-127571238D01*
X285281547Y-127666476D01*
X285376785Y-127714095D01*
X284233928Y-127856952D02*
X284329166Y-127809333D01*
X284376785Y-127761714D01*
X284424404Y-127666476D01*
X284424404Y-127618857D01*
X284376785Y-127523619D01*
X284329166Y-127476000D01*
X284233928Y-127428380D01*
X284043452Y-127428380D01*
X283948214Y-127476000D01*
X283900595Y-127523619D01*
X283852976Y-127618857D01*
X283852976Y-127666476D01*
X283900595Y-127761714D01*
X283948214Y-127809333D01*
X284043452Y-127856952D01*
X284233928Y-127856952D01*
X284329166Y-127904571D01*
X284376785Y-127952190D01*
X284424404Y-128047428D01*
X284424404Y-128237904D01*
X284376785Y-128333142D01*
X284329166Y-128380761D01*
X284233928Y-128428380D01*
X284043452Y-128428380D01*
X283948214Y-128380761D01*
X283900595Y-128333142D01*
X283852976Y-128237904D01*
X283852976Y-128047428D01*
X283900595Y-127952190D01*
X283948214Y-127904571D01*
X284043452Y-127856952D01*
%TO.C,D45*%
X146464880Y-114073214D02*
X145464880Y-114073214D01*
X145464880Y-114311309D01*
X145512500Y-114454166D01*
X145607738Y-114549404D01*
X145702976Y-114597023D01*
X145893452Y-114644642D01*
X146036309Y-114644642D01*
X146226785Y-114597023D01*
X146322023Y-114549404D01*
X146417261Y-114454166D01*
X146464880Y-114311309D01*
X146464880Y-114073214D01*
X145798214Y-115501785D02*
X146464880Y-115501785D01*
X145417261Y-115263690D02*
X146131547Y-115025595D01*
X146131547Y-115644642D01*
X145464880Y-116501785D02*
X145464880Y-116025595D01*
X145941071Y-115977976D01*
X145893452Y-116025595D01*
X145845833Y-116120833D01*
X145845833Y-116358928D01*
X145893452Y-116454166D01*
X145941071Y-116501785D01*
X146036309Y-116549404D01*
X146274404Y-116549404D01*
X146369642Y-116501785D01*
X146417261Y-116454166D01*
X146464880Y-116358928D01*
X146464880Y-116120833D01*
X146417261Y-116025595D01*
X146369642Y-115977976D01*
%TO.C,SW3*%
X363053333Y-147340761D02*
X362910476Y-147388380D01*
X362672380Y-147388380D01*
X362577142Y-147340761D01*
X362529523Y-147293142D01*
X362481904Y-147197904D01*
X362481904Y-147102666D01*
X362529523Y-147007428D01*
X362577142Y-146959809D01*
X362672380Y-146912190D01*
X362862857Y-146864571D01*
X362958095Y-146816952D01*
X363005714Y-146769333D01*
X363053333Y-146674095D01*
X363053333Y-146578857D01*
X363005714Y-146483619D01*
X362958095Y-146436000D01*
X362862857Y-146388380D01*
X362624761Y-146388380D01*
X362481904Y-146436000D01*
X362148571Y-146388380D02*
X361910476Y-147388380D01*
X361720000Y-146674095D01*
X361529523Y-147388380D01*
X361291428Y-146388380D01*
X361005714Y-146388380D02*
X360386666Y-146388380D01*
X360720000Y-146769333D01*
X360577142Y-146769333D01*
X360481904Y-146816952D01*
X360434285Y-146864571D01*
X360386666Y-146959809D01*
X360386666Y-147197904D01*
X360434285Y-147293142D01*
X360481904Y-147340761D01*
X360577142Y-147388380D01*
X360862857Y-147388380D01*
X360958095Y-147340761D01*
X361005714Y-147293142D01*
%TO.C,D50*%
X127514880Y-133105714D02*
X126514880Y-133105714D01*
X126514880Y-133343809D01*
X126562500Y-133486666D01*
X126657738Y-133581904D01*
X126752976Y-133629523D01*
X126943452Y-133677142D01*
X127086309Y-133677142D01*
X127276785Y-133629523D01*
X127372023Y-133581904D01*
X127467261Y-133486666D01*
X127514880Y-133343809D01*
X127514880Y-133105714D01*
X126514880Y-134581904D02*
X126514880Y-134105714D01*
X126991071Y-134058095D01*
X126943452Y-134105714D01*
X126895833Y-134200952D01*
X126895833Y-134439047D01*
X126943452Y-134534285D01*
X126991071Y-134581904D01*
X127086309Y-134629523D01*
X127324404Y-134629523D01*
X127419642Y-134581904D01*
X127467261Y-134534285D01*
X127514880Y-134439047D01*
X127514880Y-134200952D01*
X127467261Y-134105714D01*
X127419642Y-134058095D01*
X126514880Y-135248571D02*
X126514880Y-135343809D01*
X126562500Y-135439047D01*
X126610119Y-135486666D01*
X126705357Y-135534285D01*
X126895833Y-135581904D01*
X127133928Y-135581904D01*
X127324404Y-135534285D01*
X127419642Y-135486666D01*
X127467261Y-135439047D01*
X127514880Y-135343809D01*
X127514880Y-135248571D01*
X127467261Y-135153333D01*
X127419642Y-135105714D01*
X127324404Y-135058095D01*
X127133928Y-135010476D01*
X126895833Y-135010476D01*
X126705357Y-135058095D01*
X126610119Y-135105714D01*
X126562500Y-135153333D01*
X126514880Y-135248571D01*
%TO.C,D10*%
X334369880Y-133348214D02*
X333369880Y-133348214D01*
X333369880Y-133586309D01*
X333417500Y-133729166D01*
X333512738Y-133824404D01*
X333607976Y-133872023D01*
X333798452Y-133919642D01*
X333941309Y-133919642D01*
X334131785Y-133872023D01*
X334227023Y-133824404D01*
X334322261Y-133729166D01*
X334369880Y-133586309D01*
X334369880Y-133348214D01*
X334369880Y-134872023D02*
X334369880Y-134300595D01*
X334369880Y-134586309D02*
X333369880Y-134586309D01*
X333512738Y-134491071D01*
X333607976Y-134395833D01*
X333655595Y-134300595D01*
X333369880Y-135491071D02*
X333369880Y-135586309D01*
X333417500Y-135681547D01*
X333465119Y-135729166D01*
X333560357Y-135776785D01*
X333750833Y-135824404D01*
X333988928Y-135824404D01*
X334179404Y-135776785D01*
X334274642Y-135729166D01*
X334322261Y-135681547D01*
X334369880Y-135586309D01*
X334369880Y-135491071D01*
X334322261Y-135395833D01*
X334274642Y-135348214D01*
X334179404Y-135300595D01*
X333988928Y-135252976D01*
X333750833Y-135252976D01*
X333560357Y-135300595D01*
X333465119Y-135348214D01*
X333417500Y-135395833D01*
X333369880Y-135491071D01*
%TO.C,SW64*%
X77779523Y-166390761D02*
X77636666Y-166438380D01*
X77398571Y-166438380D01*
X77303333Y-166390761D01*
X77255714Y-166343142D01*
X77208095Y-166247904D01*
X77208095Y-166152666D01*
X77255714Y-166057428D01*
X77303333Y-166009809D01*
X77398571Y-165962190D01*
X77589047Y-165914571D01*
X77684285Y-165866952D01*
X77731904Y-165819333D01*
X77779523Y-165724095D01*
X77779523Y-165628857D01*
X77731904Y-165533619D01*
X77684285Y-165486000D01*
X77589047Y-165438380D01*
X77350952Y-165438380D01*
X77208095Y-165486000D01*
X76874761Y-165438380D02*
X76636666Y-166438380D01*
X76446190Y-165724095D01*
X76255714Y-166438380D01*
X76017619Y-165438380D01*
X75208095Y-165438380D02*
X75398571Y-165438380D01*
X75493809Y-165486000D01*
X75541428Y-165533619D01*
X75636666Y-165676476D01*
X75684285Y-165866952D01*
X75684285Y-166247904D01*
X75636666Y-166343142D01*
X75589047Y-166390761D01*
X75493809Y-166438380D01*
X75303333Y-166438380D01*
X75208095Y-166390761D01*
X75160476Y-166343142D01*
X75112857Y-166247904D01*
X75112857Y-166009809D01*
X75160476Y-165914571D01*
X75208095Y-165866952D01*
X75303333Y-165819333D01*
X75493809Y-165819333D01*
X75589047Y-165866952D01*
X75636666Y-165914571D01*
X75684285Y-166009809D01*
X74255714Y-165771714D02*
X74255714Y-166438380D01*
X74493809Y-165390761D02*
X74731904Y-166105047D01*
X74112857Y-166105047D01*
%TO.C,SW8*%
X344050833Y-166390761D02*
X343907976Y-166438380D01*
X343669880Y-166438380D01*
X343574642Y-166390761D01*
X343527023Y-166343142D01*
X343479404Y-166247904D01*
X343479404Y-166152666D01*
X343527023Y-166057428D01*
X343574642Y-166009809D01*
X343669880Y-165962190D01*
X343860357Y-165914571D01*
X343955595Y-165866952D01*
X344003214Y-165819333D01*
X344050833Y-165724095D01*
X344050833Y-165628857D01*
X344003214Y-165533619D01*
X343955595Y-165486000D01*
X343860357Y-165438380D01*
X343622261Y-165438380D01*
X343479404Y-165486000D01*
X343146071Y-165438380D02*
X342907976Y-166438380D01*
X342717500Y-165724095D01*
X342527023Y-166438380D01*
X342288928Y-165438380D01*
X341765119Y-165866952D02*
X341860357Y-165819333D01*
X341907976Y-165771714D01*
X341955595Y-165676476D01*
X341955595Y-165628857D01*
X341907976Y-165533619D01*
X341860357Y-165486000D01*
X341765119Y-165438380D01*
X341574642Y-165438380D01*
X341479404Y-165486000D01*
X341431785Y-165533619D01*
X341384166Y-165628857D01*
X341384166Y-165676476D01*
X341431785Y-165771714D01*
X341479404Y-165819333D01*
X341574642Y-165866952D01*
X341765119Y-165866952D01*
X341860357Y-165914571D01*
X341907976Y-165962190D01*
X341955595Y-166057428D01*
X341955595Y-166247904D01*
X341907976Y-166343142D01*
X341860357Y-166390761D01*
X341765119Y-166438380D01*
X341574642Y-166438380D01*
X341479404Y-166390761D01*
X341431785Y-166343142D01*
X341384166Y-166247904D01*
X341384166Y-166057428D01*
X341431785Y-165962190D01*
X341479404Y-165914571D01*
X341574642Y-165866952D01*
%TO.C,D61*%
X70082380Y-114063214D02*
X69082380Y-114063214D01*
X69082380Y-114301309D01*
X69130000Y-114444166D01*
X69225238Y-114539404D01*
X69320476Y-114587023D01*
X69510952Y-114634642D01*
X69653809Y-114634642D01*
X69844285Y-114587023D01*
X69939523Y-114539404D01*
X70034761Y-114444166D01*
X70082380Y-114301309D01*
X70082380Y-114063214D01*
X69082380Y-115491785D02*
X69082380Y-115301309D01*
X69130000Y-115206071D01*
X69177619Y-115158452D01*
X69320476Y-115063214D01*
X69510952Y-115015595D01*
X69891904Y-115015595D01*
X69987142Y-115063214D01*
X70034761Y-115110833D01*
X70082380Y-115206071D01*
X70082380Y-115396547D01*
X70034761Y-115491785D01*
X69987142Y-115539404D01*
X69891904Y-115587023D01*
X69653809Y-115587023D01*
X69558571Y-115539404D01*
X69510952Y-115491785D01*
X69463333Y-115396547D01*
X69463333Y-115206071D01*
X69510952Y-115110833D01*
X69558571Y-115063214D01*
X69653809Y-115015595D01*
X70082380Y-116539404D02*
X70082380Y-115967976D01*
X70082380Y-116253690D02*
X69082380Y-116253690D01*
X69225238Y-116158452D01*
X69320476Y-116063214D01*
X69368095Y-115967976D01*
%TO.C,D37*%
X184609880Y-114063214D02*
X183609880Y-114063214D01*
X183609880Y-114301309D01*
X183657500Y-114444166D01*
X183752738Y-114539404D01*
X183847976Y-114587023D01*
X184038452Y-114634642D01*
X184181309Y-114634642D01*
X184371785Y-114587023D01*
X184467023Y-114539404D01*
X184562261Y-114444166D01*
X184609880Y-114301309D01*
X184609880Y-114063214D01*
X183609880Y-114967976D02*
X183609880Y-115587023D01*
X183990833Y-115253690D01*
X183990833Y-115396547D01*
X184038452Y-115491785D01*
X184086071Y-115539404D01*
X184181309Y-115587023D01*
X184419404Y-115587023D01*
X184514642Y-115539404D01*
X184562261Y-115491785D01*
X184609880Y-115396547D01*
X184609880Y-115110833D01*
X184562261Y-115015595D01*
X184514642Y-114967976D01*
X183609880Y-115920357D02*
X183609880Y-116587023D01*
X184609880Y-116158452D01*
%TO.C,SW58*%
X96877023Y-128380761D02*
X96734166Y-128428380D01*
X96496071Y-128428380D01*
X96400833Y-128380761D01*
X96353214Y-128333142D01*
X96305595Y-128237904D01*
X96305595Y-128142666D01*
X96353214Y-128047428D01*
X96400833Y-127999809D01*
X96496071Y-127952190D01*
X96686547Y-127904571D01*
X96781785Y-127856952D01*
X96829404Y-127809333D01*
X96877023Y-127714095D01*
X96877023Y-127618857D01*
X96829404Y-127523619D01*
X96781785Y-127476000D01*
X96686547Y-127428380D01*
X96448452Y-127428380D01*
X96305595Y-127476000D01*
X95972261Y-127428380D02*
X95734166Y-128428380D01*
X95543690Y-127714095D01*
X95353214Y-128428380D01*
X95115119Y-127428380D01*
X94257976Y-127428380D02*
X94734166Y-127428380D01*
X94781785Y-127904571D01*
X94734166Y-127856952D01*
X94638928Y-127809333D01*
X94400833Y-127809333D01*
X94305595Y-127856952D01*
X94257976Y-127904571D01*
X94210357Y-127999809D01*
X94210357Y-128237904D01*
X94257976Y-128333142D01*
X94305595Y-128380761D01*
X94400833Y-128428380D01*
X94638928Y-128428380D01*
X94734166Y-128380761D01*
X94781785Y-128333142D01*
X93638928Y-127856952D02*
X93734166Y-127809333D01*
X93781785Y-127761714D01*
X93829404Y-127666476D01*
X93829404Y-127618857D01*
X93781785Y-127523619D01*
X93734166Y-127476000D01*
X93638928Y-127428380D01*
X93448452Y-127428380D01*
X93353214Y-127476000D01*
X93305595Y-127523619D01*
X93257976Y-127618857D01*
X93257976Y-127666476D01*
X93305595Y-127761714D01*
X93353214Y-127809333D01*
X93448452Y-127856952D01*
X93638928Y-127856952D01*
X93734166Y-127904571D01*
X93781785Y-127952190D01*
X93829404Y-128047428D01*
X93829404Y-128237904D01*
X93781785Y-128333142D01*
X93734166Y-128380761D01*
X93638928Y-128428380D01*
X93448452Y-128428380D01*
X93353214Y-128380761D01*
X93305595Y-128333142D01*
X93257976Y-128237904D01*
X93257976Y-128047428D01*
X93305595Y-127952190D01*
X93353214Y-127904571D01*
X93448452Y-127856952D01*
%TO.C,D62*%
X70072380Y-133173214D02*
X69072380Y-133173214D01*
X69072380Y-133411309D01*
X69120000Y-133554166D01*
X69215238Y-133649404D01*
X69310476Y-133697023D01*
X69500952Y-133744642D01*
X69643809Y-133744642D01*
X69834285Y-133697023D01*
X69929523Y-133649404D01*
X70024761Y-133554166D01*
X70072380Y-133411309D01*
X70072380Y-133173214D01*
X69072380Y-134601785D02*
X69072380Y-134411309D01*
X69120000Y-134316071D01*
X69167619Y-134268452D01*
X69310476Y-134173214D01*
X69500952Y-134125595D01*
X69881904Y-134125595D01*
X69977142Y-134173214D01*
X70024761Y-134220833D01*
X70072380Y-134316071D01*
X70072380Y-134506547D01*
X70024761Y-134601785D01*
X69977142Y-134649404D01*
X69881904Y-134697023D01*
X69643809Y-134697023D01*
X69548571Y-134649404D01*
X69500952Y-134601785D01*
X69453333Y-134506547D01*
X69453333Y-134316071D01*
X69500952Y-134220833D01*
X69548571Y-134173214D01*
X69643809Y-134125595D01*
X69167619Y-135077976D02*
X69120000Y-135125595D01*
X69072380Y-135220833D01*
X69072380Y-135458928D01*
X69120000Y-135554166D01*
X69167619Y-135601785D01*
X69262857Y-135649404D01*
X69358095Y-135649404D01*
X69500952Y-135601785D01*
X70072380Y-135030357D01*
X70072380Y-135649404D01*
%TO.C,D6*%
X353419880Y-133824404D02*
X352419880Y-133824404D01*
X352419880Y-134062500D01*
X352467500Y-134205357D01*
X352562738Y-134300595D01*
X352657976Y-134348214D01*
X352848452Y-134395833D01*
X352991309Y-134395833D01*
X353181785Y-134348214D01*
X353277023Y-134300595D01*
X353372261Y-134205357D01*
X353419880Y-134062500D01*
X353419880Y-133824404D01*
X352419880Y-135252976D02*
X352419880Y-135062500D01*
X352467500Y-134967261D01*
X352515119Y-134919642D01*
X352657976Y-134824404D01*
X352848452Y-134776785D01*
X353229404Y-134776785D01*
X353324642Y-134824404D01*
X353372261Y-134872023D01*
X353419880Y-134967261D01*
X353419880Y-135157738D01*
X353372261Y-135252976D01*
X353324642Y-135300595D01*
X353229404Y-135348214D01*
X352991309Y-135348214D01*
X352896071Y-135300595D01*
X352848452Y-135252976D01*
X352800833Y-135157738D01*
X352800833Y-134967261D01*
X352848452Y-134872023D01*
X352896071Y-134824404D01*
X352991309Y-134776785D01*
%TO.C,D27*%
X258202380Y-152093214D02*
X257202380Y-152093214D01*
X257202380Y-152331309D01*
X257250000Y-152474166D01*
X257345238Y-152569404D01*
X257440476Y-152617023D01*
X257630952Y-152664642D01*
X257773809Y-152664642D01*
X257964285Y-152617023D01*
X258059523Y-152569404D01*
X258154761Y-152474166D01*
X258202380Y-152331309D01*
X258202380Y-152093214D01*
X257297619Y-153045595D02*
X257250000Y-153093214D01*
X257202380Y-153188452D01*
X257202380Y-153426547D01*
X257250000Y-153521785D01*
X257297619Y-153569404D01*
X257392857Y-153617023D01*
X257488095Y-153617023D01*
X257630952Y-153569404D01*
X258202380Y-152997976D01*
X258202380Y-153617023D01*
X257202380Y-153950357D02*
X257202380Y-154617023D01*
X258202380Y-154188452D01*
%TO.C,SW44*%
X173267023Y-166390761D02*
X173124166Y-166438380D01*
X172886071Y-166438380D01*
X172790833Y-166390761D01*
X172743214Y-166343142D01*
X172695595Y-166247904D01*
X172695595Y-166152666D01*
X172743214Y-166057428D01*
X172790833Y-166009809D01*
X172886071Y-165962190D01*
X173076547Y-165914571D01*
X173171785Y-165866952D01*
X173219404Y-165819333D01*
X173267023Y-165724095D01*
X173267023Y-165628857D01*
X173219404Y-165533619D01*
X173171785Y-165486000D01*
X173076547Y-165438380D01*
X172838452Y-165438380D01*
X172695595Y-165486000D01*
X172362261Y-165438380D02*
X172124166Y-166438380D01*
X171933690Y-165724095D01*
X171743214Y-166438380D01*
X171505119Y-165438380D01*
X170695595Y-165771714D02*
X170695595Y-166438380D01*
X170933690Y-165390761D02*
X171171785Y-166105047D01*
X170552738Y-166105047D01*
X169743214Y-165771714D02*
X169743214Y-166438380D01*
X169981309Y-165390761D02*
X170219404Y-166105047D01*
X169600357Y-166105047D01*
%TO.C,D54*%
X108197380Y-133125714D02*
X107197380Y-133125714D01*
X107197380Y-133363809D01*
X107245000Y-133506666D01*
X107340238Y-133601904D01*
X107435476Y-133649523D01*
X107625952Y-133697142D01*
X107768809Y-133697142D01*
X107959285Y-133649523D01*
X108054523Y-133601904D01*
X108149761Y-133506666D01*
X108197380Y-133363809D01*
X108197380Y-133125714D01*
X107197380Y-134601904D02*
X107197380Y-134125714D01*
X107673571Y-134078095D01*
X107625952Y-134125714D01*
X107578333Y-134220952D01*
X107578333Y-134459047D01*
X107625952Y-134554285D01*
X107673571Y-134601904D01*
X107768809Y-134649523D01*
X108006904Y-134649523D01*
X108102142Y-134601904D01*
X108149761Y-134554285D01*
X108197380Y-134459047D01*
X108197380Y-134220952D01*
X108149761Y-134125714D01*
X108102142Y-134078095D01*
X107530714Y-135506666D02*
X108197380Y-135506666D01*
X107149761Y-135268571D02*
X107864047Y-135030476D01*
X107864047Y-135649523D01*
%TO.C,SW42*%
X173267023Y-128380761D02*
X173124166Y-128428380D01*
X172886071Y-128428380D01*
X172790833Y-128380761D01*
X172743214Y-128333142D01*
X172695595Y-128237904D01*
X172695595Y-128142666D01*
X172743214Y-128047428D01*
X172790833Y-127999809D01*
X172886071Y-127952190D01*
X173076547Y-127904571D01*
X173171785Y-127856952D01*
X173219404Y-127809333D01*
X173267023Y-127714095D01*
X173267023Y-127618857D01*
X173219404Y-127523619D01*
X173171785Y-127476000D01*
X173076547Y-127428380D01*
X172838452Y-127428380D01*
X172695595Y-127476000D01*
X172362261Y-127428380D02*
X172124166Y-128428380D01*
X171933690Y-127714095D01*
X171743214Y-128428380D01*
X171505119Y-127428380D01*
X170695595Y-127761714D02*
X170695595Y-128428380D01*
X170933690Y-127380761D02*
X171171785Y-128095047D01*
X170552738Y-128095047D01*
X170219404Y-127523619D02*
X170171785Y-127476000D01*
X170076547Y-127428380D01*
X169838452Y-127428380D01*
X169743214Y-127476000D01*
X169695595Y-127523619D01*
X169647976Y-127618857D01*
X169647976Y-127714095D01*
X169695595Y-127856952D01*
X170267023Y-128428380D01*
X169647976Y-128428380D01*
%TO.C,SW2*%
X363053333Y-128380761D02*
X362910476Y-128428380D01*
X362672380Y-128428380D01*
X362577142Y-128380761D01*
X362529523Y-128333142D01*
X362481904Y-128237904D01*
X362481904Y-128142666D01*
X362529523Y-128047428D01*
X362577142Y-127999809D01*
X362672380Y-127952190D01*
X362862857Y-127904571D01*
X362958095Y-127856952D01*
X363005714Y-127809333D01*
X363053333Y-127714095D01*
X363053333Y-127618857D01*
X363005714Y-127523619D01*
X362958095Y-127476000D01*
X362862857Y-127428380D01*
X362624761Y-127428380D01*
X362481904Y-127476000D01*
X362148571Y-127428380D02*
X361910476Y-128428380D01*
X361720000Y-127714095D01*
X361529523Y-128428380D01*
X361291428Y-127428380D01*
X360958095Y-127523619D02*
X360910476Y-127476000D01*
X360815238Y-127428380D01*
X360577142Y-127428380D01*
X360481904Y-127476000D01*
X360434285Y-127523619D01*
X360386666Y-127618857D01*
X360386666Y-127714095D01*
X360434285Y-127856952D01*
X361005714Y-128428380D01*
X360386666Y-128428380D01*
%TO.C,D11*%
X334259880Y-152093214D02*
X333259880Y-152093214D01*
X333259880Y-152331309D01*
X333307500Y-152474166D01*
X333402738Y-152569404D01*
X333497976Y-152617023D01*
X333688452Y-152664642D01*
X333831309Y-152664642D01*
X334021785Y-152617023D01*
X334117023Y-152569404D01*
X334212261Y-152474166D01*
X334259880Y-152331309D01*
X334259880Y-152093214D01*
X334259880Y-153617023D02*
X334259880Y-153045595D01*
X334259880Y-153331309D02*
X333259880Y-153331309D01*
X333402738Y-153236071D01*
X333497976Y-153140833D01*
X333545595Y-153045595D01*
X334259880Y-154569404D02*
X334259880Y-153997976D01*
X334259880Y-154283690D02*
X333259880Y-154283690D01*
X333402738Y-154188452D01*
X333497976Y-154093214D01*
X333545595Y-153997976D01*
%TO.C,D43*%
X165609880Y-152113214D02*
X164609880Y-152113214D01*
X164609880Y-152351309D01*
X164657500Y-152494166D01*
X164752738Y-152589404D01*
X164847976Y-152637023D01*
X165038452Y-152684642D01*
X165181309Y-152684642D01*
X165371785Y-152637023D01*
X165467023Y-152589404D01*
X165562261Y-152494166D01*
X165609880Y-152351309D01*
X165609880Y-152113214D01*
X164943214Y-153541785D02*
X165609880Y-153541785D01*
X164562261Y-153303690D02*
X165276547Y-153065595D01*
X165276547Y-153684642D01*
X164609880Y-153970357D02*
X164609880Y-154589404D01*
X164990833Y-154256071D01*
X164990833Y-154398928D01*
X165038452Y-154494166D01*
X165086071Y-154541785D01*
X165181309Y-154589404D01*
X165419404Y-154589404D01*
X165514642Y-154541785D01*
X165562261Y-154494166D01*
X165609880Y-154398928D01*
X165609880Y-154113214D01*
X165562261Y-154017976D01*
X165514642Y-153970357D01*
%TO.C,SW26*%
X249419523Y-128380761D02*
X249276666Y-128428380D01*
X249038571Y-128428380D01*
X248943333Y-128380761D01*
X248895714Y-128333142D01*
X248848095Y-128237904D01*
X248848095Y-128142666D01*
X248895714Y-128047428D01*
X248943333Y-127999809D01*
X249038571Y-127952190D01*
X249229047Y-127904571D01*
X249324285Y-127856952D01*
X249371904Y-127809333D01*
X249419523Y-127714095D01*
X249419523Y-127618857D01*
X249371904Y-127523619D01*
X249324285Y-127476000D01*
X249229047Y-127428380D01*
X248990952Y-127428380D01*
X248848095Y-127476000D01*
X248514761Y-127428380D02*
X248276666Y-128428380D01*
X248086190Y-127714095D01*
X247895714Y-128428380D01*
X247657619Y-127428380D01*
X247324285Y-127523619D02*
X247276666Y-127476000D01*
X247181428Y-127428380D01*
X246943333Y-127428380D01*
X246848095Y-127476000D01*
X246800476Y-127523619D01*
X246752857Y-127618857D01*
X246752857Y-127714095D01*
X246800476Y-127856952D01*
X247371904Y-128428380D01*
X246752857Y-128428380D01*
X245895714Y-127428380D02*
X246086190Y-127428380D01*
X246181428Y-127476000D01*
X246229047Y-127523619D01*
X246324285Y-127666476D01*
X246371904Y-127856952D01*
X246371904Y-128237904D01*
X246324285Y-128333142D01*
X246276666Y-128380761D01*
X246181428Y-128428380D01*
X245990952Y-128428380D01*
X245895714Y-128380761D01*
X245848095Y-128333142D01*
X245800476Y-128237904D01*
X245800476Y-127999809D01*
X245848095Y-127904571D01*
X245895714Y-127856952D01*
X245990952Y-127809333D01*
X246181428Y-127809333D01*
X246276666Y-127856952D01*
X246324285Y-127904571D01*
X246371904Y-127999809D01*
%TO.C,D28*%
X258232380Y-171133214D02*
X257232380Y-171133214D01*
X257232380Y-171371309D01*
X257280000Y-171514166D01*
X257375238Y-171609404D01*
X257470476Y-171657023D01*
X257660952Y-171704642D01*
X257803809Y-171704642D01*
X257994285Y-171657023D01*
X258089523Y-171609404D01*
X258184761Y-171514166D01*
X258232380Y-171371309D01*
X258232380Y-171133214D01*
X257327619Y-172085595D02*
X257280000Y-172133214D01*
X257232380Y-172228452D01*
X257232380Y-172466547D01*
X257280000Y-172561785D01*
X257327619Y-172609404D01*
X257422857Y-172657023D01*
X257518095Y-172657023D01*
X257660952Y-172609404D01*
X258232380Y-172037976D01*
X258232380Y-172657023D01*
X257660952Y-173228452D02*
X257613333Y-173133214D01*
X257565714Y-173085595D01*
X257470476Y-173037976D01*
X257422857Y-173037976D01*
X257327619Y-173085595D01*
X257280000Y-173133214D01*
X257232380Y-173228452D01*
X257232380Y-173418928D01*
X257280000Y-173514166D01*
X257327619Y-173561785D01*
X257422857Y-173609404D01*
X257470476Y-173609404D01*
X257565714Y-173561785D01*
X257613333Y-173514166D01*
X257660952Y-173418928D01*
X257660952Y-173228452D01*
X257708571Y-173133214D01*
X257756190Y-173085595D01*
X257851428Y-173037976D01*
X258041904Y-173037976D01*
X258137142Y-173085595D01*
X258184761Y-173133214D01*
X258232380Y-173228452D01*
X258232380Y-173418928D01*
X258184761Y-173514166D01*
X258137142Y-173561785D01*
X258041904Y-173609404D01*
X257851428Y-173609404D01*
X257756190Y-173561785D01*
X257708571Y-173514166D01*
X257660952Y-173418928D01*
%TO.C,SW33*%
X211367023Y-109330761D02*
X211224166Y-109378380D01*
X210986071Y-109378380D01*
X210890833Y-109330761D01*
X210843214Y-109283142D01*
X210795595Y-109187904D01*
X210795595Y-109092666D01*
X210843214Y-108997428D01*
X210890833Y-108949809D01*
X210986071Y-108902190D01*
X211176547Y-108854571D01*
X211271785Y-108806952D01*
X211319404Y-108759333D01*
X211367023Y-108664095D01*
X211367023Y-108568857D01*
X211319404Y-108473619D01*
X211271785Y-108426000D01*
X211176547Y-108378380D01*
X210938452Y-108378380D01*
X210795595Y-108426000D01*
X210462261Y-108378380D02*
X210224166Y-109378380D01*
X210033690Y-108664095D01*
X209843214Y-109378380D01*
X209605119Y-108378380D01*
X209319404Y-108378380D02*
X208700357Y-108378380D01*
X209033690Y-108759333D01*
X208890833Y-108759333D01*
X208795595Y-108806952D01*
X208747976Y-108854571D01*
X208700357Y-108949809D01*
X208700357Y-109187904D01*
X208747976Y-109283142D01*
X208795595Y-109330761D01*
X208890833Y-109378380D01*
X209176547Y-109378380D01*
X209271785Y-109330761D01*
X209319404Y-109283142D01*
X208367023Y-108378380D02*
X207747976Y-108378380D01*
X208081309Y-108759333D01*
X207938452Y-108759333D01*
X207843214Y-108806952D01*
X207795595Y-108854571D01*
X207747976Y-108949809D01*
X207747976Y-109187904D01*
X207795595Y-109283142D01*
X207843214Y-109330761D01*
X207938452Y-109378380D01*
X208224166Y-109378380D01*
X208319404Y-109330761D01*
X208367023Y-109283142D01*
%TO.C,D41*%
X165582380Y-114113214D02*
X164582380Y-114113214D01*
X164582380Y-114351309D01*
X164630000Y-114494166D01*
X164725238Y-114589404D01*
X164820476Y-114637023D01*
X165010952Y-114684642D01*
X165153809Y-114684642D01*
X165344285Y-114637023D01*
X165439523Y-114589404D01*
X165534761Y-114494166D01*
X165582380Y-114351309D01*
X165582380Y-114113214D01*
X164915714Y-115541785D02*
X165582380Y-115541785D01*
X164534761Y-115303690D02*
X165249047Y-115065595D01*
X165249047Y-115684642D01*
X165582380Y-116589404D02*
X165582380Y-116017976D01*
X165582380Y-116303690D02*
X164582380Y-116303690D01*
X164725238Y-116208452D01*
X164820476Y-116113214D01*
X164868095Y-116017976D01*
%TO.C,D44*%
X165559880Y-171103214D02*
X164559880Y-171103214D01*
X164559880Y-171341309D01*
X164607500Y-171484166D01*
X164702738Y-171579404D01*
X164797976Y-171627023D01*
X164988452Y-171674642D01*
X165131309Y-171674642D01*
X165321785Y-171627023D01*
X165417023Y-171579404D01*
X165512261Y-171484166D01*
X165559880Y-171341309D01*
X165559880Y-171103214D01*
X164893214Y-172531785D02*
X165559880Y-172531785D01*
X164512261Y-172293690D02*
X165226547Y-172055595D01*
X165226547Y-172674642D01*
X164893214Y-173484166D02*
X165559880Y-173484166D01*
X164512261Y-173246071D02*
X165226547Y-173007976D01*
X165226547Y-173627023D01*
%TO.C,SW54*%
X115974523Y-128380761D02*
X115831666Y-128428380D01*
X115593571Y-128428380D01*
X115498333Y-128380761D01*
X115450714Y-128333142D01*
X115403095Y-128237904D01*
X115403095Y-128142666D01*
X115450714Y-128047428D01*
X115498333Y-127999809D01*
X115593571Y-127952190D01*
X115784047Y-127904571D01*
X115879285Y-127856952D01*
X115926904Y-127809333D01*
X115974523Y-127714095D01*
X115974523Y-127618857D01*
X115926904Y-127523619D01*
X115879285Y-127476000D01*
X115784047Y-127428380D01*
X115545952Y-127428380D01*
X115403095Y-127476000D01*
X115069761Y-127428380D02*
X114831666Y-128428380D01*
X114641190Y-127714095D01*
X114450714Y-128428380D01*
X114212619Y-127428380D01*
X113355476Y-127428380D02*
X113831666Y-127428380D01*
X113879285Y-127904571D01*
X113831666Y-127856952D01*
X113736428Y-127809333D01*
X113498333Y-127809333D01*
X113403095Y-127856952D01*
X113355476Y-127904571D01*
X113307857Y-127999809D01*
X113307857Y-128237904D01*
X113355476Y-128333142D01*
X113403095Y-128380761D01*
X113498333Y-128428380D01*
X113736428Y-128428380D01*
X113831666Y-128380761D01*
X113879285Y-128333142D01*
X112450714Y-127761714D02*
X112450714Y-128428380D01*
X112688809Y-127380761D02*
X112926904Y-128095047D01*
X112307857Y-128095047D01*
%TO.C,SW19*%
X287472023Y-147340761D02*
X287329166Y-147388380D01*
X287091071Y-147388380D01*
X286995833Y-147340761D01*
X286948214Y-147293142D01*
X286900595Y-147197904D01*
X286900595Y-147102666D01*
X286948214Y-147007428D01*
X286995833Y-146959809D01*
X287091071Y-146912190D01*
X287281547Y-146864571D01*
X287376785Y-146816952D01*
X287424404Y-146769333D01*
X287472023Y-146674095D01*
X287472023Y-146578857D01*
X287424404Y-146483619D01*
X287376785Y-146436000D01*
X287281547Y-146388380D01*
X287043452Y-146388380D01*
X286900595Y-146436000D01*
X286567261Y-146388380D02*
X286329166Y-147388380D01*
X286138690Y-146674095D01*
X285948214Y-147388380D01*
X285710119Y-146388380D01*
X284805357Y-147388380D02*
X285376785Y-147388380D01*
X285091071Y-147388380D02*
X285091071Y-146388380D01*
X285186309Y-146531238D01*
X285281547Y-146626476D01*
X285376785Y-146674095D01*
X284329166Y-147388380D02*
X284138690Y-147388380D01*
X284043452Y-147340761D01*
X283995833Y-147293142D01*
X283900595Y-147150285D01*
X283852976Y-146959809D01*
X283852976Y-146578857D01*
X283900595Y-146483619D01*
X283948214Y-146436000D01*
X284043452Y-146388380D01*
X284233928Y-146388380D01*
X284329166Y-146436000D01*
X284376785Y-146483619D01*
X284424404Y-146578857D01*
X284424404Y-146816952D01*
X284376785Y-146912190D01*
X284329166Y-146959809D01*
X284233928Y-147007428D01*
X284043452Y-147007428D01*
X283948214Y-146959809D01*
X283900595Y-146912190D01*
X283852976Y-146816952D01*
%TO.C,SW13*%
X306474523Y-109330761D02*
X306331666Y-109378380D01*
X306093571Y-109378380D01*
X305998333Y-109330761D01*
X305950714Y-109283142D01*
X305903095Y-109187904D01*
X305903095Y-109092666D01*
X305950714Y-108997428D01*
X305998333Y-108949809D01*
X306093571Y-108902190D01*
X306284047Y-108854571D01*
X306379285Y-108806952D01*
X306426904Y-108759333D01*
X306474523Y-108664095D01*
X306474523Y-108568857D01*
X306426904Y-108473619D01*
X306379285Y-108426000D01*
X306284047Y-108378380D01*
X306045952Y-108378380D01*
X305903095Y-108426000D01*
X305569761Y-108378380D02*
X305331666Y-109378380D01*
X305141190Y-108664095D01*
X304950714Y-109378380D01*
X304712619Y-108378380D01*
X303807857Y-109378380D02*
X304379285Y-109378380D01*
X304093571Y-109378380D02*
X304093571Y-108378380D01*
X304188809Y-108521238D01*
X304284047Y-108616476D01*
X304379285Y-108664095D01*
X303474523Y-108378380D02*
X302855476Y-108378380D01*
X303188809Y-108759333D01*
X303045952Y-108759333D01*
X302950714Y-108806952D01*
X302903095Y-108854571D01*
X302855476Y-108949809D01*
X302855476Y-109187904D01*
X302903095Y-109283142D01*
X302950714Y-109330761D01*
X303045952Y-109378380D01*
X303331666Y-109378380D01*
X303426904Y-109330761D01*
X303474523Y-109283142D01*
%TO.C,D57*%
X89172380Y-114123214D02*
X88172380Y-114123214D01*
X88172380Y-114361309D01*
X88220000Y-114504166D01*
X88315238Y-114599404D01*
X88410476Y-114647023D01*
X88600952Y-114694642D01*
X88743809Y-114694642D01*
X88934285Y-114647023D01*
X89029523Y-114599404D01*
X89124761Y-114504166D01*
X89172380Y-114361309D01*
X89172380Y-114123214D01*
X88172380Y-115599404D02*
X88172380Y-115123214D01*
X88648571Y-115075595D01*
X88600952Y-115123214D01*
X88553333Y-115218452D01*
X88553333Y-115456547D01*
X88600952Y-115551785D01*
X88648571Y-115599404D01*
X88743809Y-115647023D01*
X88981904Y-115647023D01*
X89077142Y-115599404D01*
X89124761Y-115551785D01*
X89172380Y-115456547D01*
X89172380Y-115218452D01*
X89124761Y-115123214D01*
X89077142Y-115075595D01*
X88172380Y-115980357D02*
X88172380Y-116647023D01*
X89172380Y-116218452D01*
%TO.C,SW50*%
X135072023Y-128380761D02*
X134929166Y-128428380D01*
X134691071Y-128428380D01*
X134595833Y-128380761D01*
X134548214Y-128333142D01*
X134500595Y-128237904D01*
X134500595Y-128142666D01*
X134548214Y-128047428D01*
X134595833Y-127999809D01*
X134691071Y-127952190D01*
X134881547Y-127904571D01*
X134976785Y-127856952D01*
X135024404Y-127809333D01*
X135072023Y-127714095D01*
X135072023Y-127618857D01*
X135024404Y-127523619D01*
X134976785Y-127476000D01*
X134881547Y-127428380D01*
X134643452Y-127428380D01*
X134500595Y-127476000D01*
X134167261Y-127428380D02*
X133929166Y-128428380D01*
X133738690Y-127714095D01*
X133548214Y-128428380D01*
X133310119Y-127428380D01*
X132452976Y-127428380D02*
X132929166Y-127428380D01*
X132976785Y-127904571D01*
X132929166Y-127856952D01*
X132833928Y-127809333D01*
X132595833Y-127809333D01*
X132500595Y-127856952D01*
X132452976Y-127904571D01*
X132405357Y-127999809D01*
X132405357Y-128237904D01*
X132452976Y-128333142D01*
X132500595Y-128380761D01*
X132595833Y-128428380D01*
X132833928Y-128428380D01*
X132929166Y-128380761D01*
X132976785Y-128333142D01*
X131786309Y-127428380D02*
X131691071Y-127428380D01*
X131595833Y-127476000D01*
X131548214Y-127523619D01*
X131500595Y-127618857D01*
X131452976Y-127809333D01*
X131452976Y-128047428D01*
X131500595Y-128237904D01*
X131548214Y-128333142D01*
X131595833Y-128380761D01*
X131691071Y-128428380D01*
X131786309Y-128428380D01*
X131881547Y-128380761D01*
X131929166Y-128333142D01*
X131976785Y-128237904D01*
X132024404Y-128047428D01*
X132024404Y-127809333D01*
X131976785Y-127618857D01*
X131929166Y-127523619D01*
X131881547Y-127476000D01*
X131786309Y-127428380D01*
%TO.C,D59*%
X89149880Y-152063214D02*
X88149880Y-152063214D01*
X88149880Y-152301309D01*
X88197500Y-152444166D01*
X88292738Y-152539404D01*
X88387976Y-152587023D01*
X88578452Y-152634642D01*
X88721309Y-152634642D01*
X88911785Y-152587023D01*
X89007023Y-152539404D01*
X89102261Y-152444166D01*
X89149880Y-152301309D01*
X89149880Y-152063214D01*
X88149880Y-153539404D02*
X88149880Y-153063214D01*
X88626071Y-153015595D01*
X88578452Y-153063214D01*
X88530833Y-153158452D01*
X88530833Y-153396547D01*
X88578452Y-153491785D01*
X88626071Y-153539404D01*
X88721309Y-153587023D01*
X88959404Y-153587023D01*
X89054642Y-153539404D01*
X89102261Y-153491785D01*
X89149880Y-153396547D01*
X89149880Y-153158452D01*
X89102261Y-153063214D01*
X89054642Y-153015595D01*
X89149880Y-154063214D02*
X89149880Y-154253690D01*
X89102261Y-154348928D01*
X89054642Y-154396547D01*
X88911785Y-154491785D01*
X88721309Y-154539404D01*
X88340357Y-154539404D01*
X88245119Y-154491785D01*
X88197500Y-154444166D01*
X88149880Y-154348928D01*
X88149880Y-154158452D01*
X88197500Y-154063214D01*
X88245119Y-154015595D01*
X88340357Y-153967976D01*
X88578452Y-153967976D01*
X88673690Y-154015595D01*
X88721309Y-154063214D01*
X88768928Y-154158452D01*
X88768928Y-154348928D01*
X88721309Y-154444166D01*
X88673690Y-154491785D01*
X88578452Y-154539404D01*
%TO.C,SW32*%
X230417023Y-166390761D02*
X230274166Y-166438380D01*
X230036071Y-166438380D01*
X229940833Y-166390761D01*
X229893214Y-166343142D01*
X229845595Y-166247904D01*
X229845595Y-166152666D01*
X229893214Y-166057428D01*
X229940833Y-166009809D01*
X230036071Y-165962190D01*
X230226547Y-165914571D01*
X230321785Y-165866952D01*
X230369404Y-165819333D01*
X230417023Y-165724095D01*
X230417023Y-165628857D01*
X230369404Y-165533619D01*
X230321785Y-165486000D01*
X230226547Y-165438380D01*
X229988452Y-165438380D01*
X229845595Y-165486000D01*
X229512261Y-165438380D02*
X229274166Y-166438380D01*
X229083690Y-165724095D01*
X228893214Y-166438380D01*
X228655119Y-165438380D01*
X228369404Y-165438380D02*
X227750357Y-165438380D01*
X228083690Y-165819333D01*
X227940833Y-165819333D01*
X227845595Y-165866952D01*
X227797976Y-165914571D01*
X227750357Y-166009809D01*
X227750357Y-166247904D01*
X227797976Y-166343142D01*
X227845595Y-166390761D01*
X227940833Y-166438380D01*
X228226547Y-166438380D01*
X228321785Y-166390761D01*
X228369404Y-166343142D01*
X227369404Y-165533619D02*
X227321785Y-165486000D01*
X227226547Y-165438380D01*
X226988452Y-165438380D01*
X226893214Y-165486000D01*
X226845595Y-165533619D01*
X226797976Y-165628857D01*
X226797976Y-165724095D01*
X226845595Y-165866952D01*
X227417023Y-166438380D01*
X226797976Y-166438380D01*
%TO.C,SW49*%
X135072023Y-109330761D02*
X134929166Y-109378380D01*
X134691071Y-109378380D01*
X134595833Y-109330761D01*
X134548214Y-109283142D01*
X134500595Y-109187904D01*
X134500595Y-109092666D01*
X134548214Y-108997428D01*
X134595833Y-108949809D01*
X134691071Y-108902190D01*
X134881547Y-108854571D01*
X134976785Y-108806952D01*
X135024404Y-108759333D01*
X135072023Y-108664095D01*
X135072023Y-108568857D01*
X135024404Y-108473619D01*
X134976785Y-108426000D01*
X134881547Y-108378380D01*
X134643452Y-108378380D01*
X134500595Y-108426000D01*
X134167261Y-108378380D02*
X133929166Y-109378380D01*
X133738690Y-108664095D01*
X133548214Y-109378380D01*
X133310119Y-108378380D01*
X132500595Y-108711714D02*
X132500595Y-109378380D01*
X132738690Y-108330761D02*
X132976785Y-109045047D01*
X132357738Y-109045047D01*
X131929166Y-109378380D02*
X131738690Y-109378380D01*
X131643452Y-109330761D01*
X131595833Y-109283142D01*
X131500595Y-109140285D01*
X131452976Y-108949809D01*
X131452976Y-108568857D01*
X131500595Y-108473619D01*
X131548214Y-108426000D01*
X131643452Y-108378380D01*
X131833928Y-108378380D01*
X131929166Y-108426000D01*
X131976785Y-108473619D01*
X132024404Y-108568857D01*
X132024404Y-108806952D01*
X131976785Y-108902190D01*
X131929166Y-108949809D01*
X131833928Y-108997428D01*
X131643452Y-108997428D01*
X131548214Y-108949809D01*
X131500595Y-108902190D01*
X131452976Y-108806952D01*
%TO.C,D35*%
X204352380Y-151105714D02*
X203352380Y-151105714D01*
X203352380Y-151343809D01*
X203400000Y-151486666D01*
X203495238Y-151581904D01*
X203590476Y-151629523D01*
X203780952Y-151677142D01*
X203923809Y-151677142D01*
X204114285Y-151629523D01*
X204209523Y-151581904D01*
X204304761Y-151486666D01*
X204352380Y-151343809D01*
X204352380Y-151105714D01*
X203352380Y-152010476D02*
X203352380Y-152629523D01*
X203733333Y-152296190D01*
X203733333Y-152439047D01*
X203780952Y-152534285D01*
X203828571Y-152581904D01*
X203923809Y-152629523D01*
X204161904Y-152629523D01*
X204257142Y-152581904D01*
X204304761Y-152534285D01*
X204352380Y-152439047D01*
X204352380Y-152153333D01*
X204304761Y-152058095D01*
X204257142Y-152010476D01*
X203352380Y-153534285D02*
X203352380Y-153058095D01*
X203828571Y-153010476D01*
X203780952Y-153058095D01*
X203733333Y-153153333D01*
X203733333Y-153391428D01*
X203780952Y-153486666D01*
X203828571Y-153534285D01*
X203923809Y-153581904D01*
X204161904Y-153581904D01*
X204257142Y-153534285D01*
X204304761Y-153486666D01*
X204352380Y-153391428D01*
X204352380Y-153153333D01*
X204304761Y-153058095D01*
X204257142Y-153010476D01*
%TO.C,D24*%
X277282380Y-171133214D02*
X276282380Y-171133214D01*
X276282380Y-171371309D01*
X276330000Y-171514166D01*
X276425238Y-171609404D01*
X276520476Y-171657023D01*
X276710952Y-171704642D01*
X276853809Y-171704642D01*
X277044285Y-171657023D01*
X277139523Y-171609404D01*
X277234761Y-171514166D01*
X277282380Y-171371309D01*
X277282380Y-171133214D01*
X276377619Y-172085595D02*
X276330000Y-172133214D01*
X276282380Y-172228452D01*
X276282380Y-172466547D01*
X276330000Y-172561785D01*
X276377619Y-172609404D01*
X276472857Y-172657023D01*
X276568095Y-172657023D01*
X276710952Y-172609404D01*
X277282380Y-172037976D01*
X277282380Y-172657023D01*
X276615714Y-173514166D02*
X277282380Y-173514166D01*
X276234761Y-173276071D02*
X276949047Y-173037976D01*
X276949047Y-173657023D01*
%TO.C,D47*%
X146462380Y-152123214D02*
X145462380Y-152123214D01*
X145462380Y-152361309D01*
X145510000Y-152504166D01*
X145605238Y-152599404D01*
X145700476Y-152647023D01*
X145890952Y-152694642D01*
X146033809Y-152694642D01*
X146224285Y-152647023D01*
X146319523Y-152599404D01*
X146414761Y-152504166D01*
X146462380Y-152361309D01*
X146462380Y-152123214D01*
X145795714Y-153551785D02*
X146462380Y-153551785D01*
X145414761Y-153313690D02*
X146129047Y-153075595D01*
X146129047Y-153694642D01*
X145462380Y-153980357D02*
X145462380Y-154647023D01*
X146462380Y-154218452D01*
%TO.C,D16*%
X315287380Y-171133214D02*
X314287380Y-171133214D01*
X314287380Y-171371309D01*
X314335000Y-171514166D01*
X314430238Y-171609404D01*
X314525476Y-171657023D01*
X314715952Y-171704642D01*
X314858809Y-171704642D01*
X315049285Y-171657023D01*
X315144523Y-171609404D01*
X315239761Y-171514166D01*
X315287380Y-171371309D01*
X315287380Y-171133214D01*
X315287380Y-172657023D02*
X315287380Y-172085595D01*
X315287380Y-172371309D02*
X314287380Y-172371309D01*
X314430238Y-172276071D01*
X314525476Y-172180833D01*
X314573095Y-172085595D01*
X314287380Y-173514166D02*
X314287380Y-173323690D01*
X314335000Y-173228452D01*
X314382619Y-173180833D01*
X314525476Y-173085595D01*
X314715952Y-173037976D01*
X315096904Y-173037976D01*
X315192142Y-173085595D01*
X315239761Y-173133214D01*
X315287380Y-173228452D01*
X315287380Y-173418928D01*
X315239761Y-173514166D01*
X315192142Y-173561785D01*
X315096904Y-173609404D01*
X314858809Y-173609404D01*
X314763571Y-173561785D01*
X314715952Y-173514166D01*
X314668333Y-173418928D01*
X314668333Y-173228452D01*
X314715952Y-173133214D01*
X314763571Y-173085595D01*
X314858809Y-173037976D01*
%TO.C,SW14*%
X306474523Y-128380761D02*
X306331666Y-128428380D01*
X306093571Y-128428380D01*
X305998333Y-128380761D01*
X305950714Y-128333142D01*
X305903095Y-128237904D01*
X305903095Y-128142666D01*
X305950714Y-128047428D01*
X305998333Y-127999809D01*
X306093571Y-127952190D01*
X306284047Y-127904571D01*
X306379285Y-127856952D01*
X306426904Y-127809333D01*
X306474523Y-127714095D01*
X306474523Y-127618857D01*
X306426904Y-127523619D01*
X306379285Y-127476000D01*
X306284047Y-127428380D01*
X306045952Y-127428380D01*
X305903095Y-127476000D01*
X305569761Y-127428380D02*
X305331666Y-128428380D01*
X305141190Y-127714095D01*
X304950714Y-128428380D01*
X304712619Y-127428380D01*
X303807857Y-128428380D02*
X304379285Y-128428380D01*
X304093571Y-128428380D02*
X304093571Y-127428380D01*
X304188809Y-127571238D01*
X304284047Y-127666476D01*
X304379285Y-127714095D01*
X302950714Y-127761714D02*
X302950714Y-128428380D01*
X303188809Y-127380761D02*
X303426904Y-128095047D01*
X302807857Y-128095047D01*
%TO.C,SW23*%
X268469523Y-147340761D02*
X268326666Y-147388380D01*
X268088571Y-147388380D01*
X267993333Y-147340761D01*
X267945714Y-147293142D01*
X267898095Y-147197904D01*
X267898095Y-147102666D01*
X267945714Y-147007428D01*
X267993333Y-146959809D01*
X268088571Y-146912190D01*
X268279047Y-146864571D01*
X268374285Y-146816952D01*
X268421904Y-146769333D01*
X268469523Y-146674095D01*
X268469523Y-146578857D01*
X268421904Y-146483619D01*
X268374285Y-146436000D01*
X268279047Y-146388380D01*
X268040952Y-146388380D01*
X267898095Y-146436000D01*
X267564761Y-146388380D02*
X267326666Y-147388380D01*
X267136190Y-146674095D01*
X266945714Y-147388380D01*
X266707619Y-146388380D01*
X266374285Y-146483619D02*
X266326666Y-146436000D01*
X266231428Y-146388380D01*
X265993333Y-146388380D01*
X265898095Y-146436000D01*
X265850476Y-146483619D01*
X265802857Y-146578857D01*
X265802857Y-146674095D01*
X265850476Y-146816952D01*
X266421904Y-147388380D01*
X265802857Y-147388380D01*
X265469523Y-146388380D02*
X264850476Y-146388380D01*
X265183809Y-146769333D01*
X265040952Y-146769333D01*
X264945714Y-146816952D01*
X264898095Y-146864571D01*
X264850476Y-146959809D01*
X264850476Y-147197904D01*
X264898095Y-147293142D01*
X264945714Y-147340761D01*
X265040952Y-147388380D01*
X265326666Y-147388380D01*
X265421904Y-147340761D01*
X265469523Y-147293142D01*
%TO.C,SW15*%
X306474523Y-147340761D02*
X306331666Y-147388380D01*
X306093571Y-147388380D01*
X305998333Y-147340761D01*
X305950714Y-147293142D01*
X305903095Y-147197904D01*
X305903095Y-147102666D01*
X305950714Y-147007428D01*
X305998333Y-146959809D01*
X306093571Y-146912190D01*
X306284047Y-146864571D01*
X306379285Y-146816952D01*
X306426904Y-146769333D01*
X306474523Y-146674095D01*
X306474523Y-146578857D01*
X306426904Y-146483619D01*
X306379285Y-146436000D01*
X306284047Y-146388380D01*
X306045952Y-146388380D01*
X305903095Y-146436000D01*
X305569761Y-146388380D02*
X305331666Y-147388380D01*
X305141190Y-146674095D01*
X304950714Y-147388380D01*
X304712619Y-146388380D01*
X303807857Y-147388380D02*
X304379285Y-147388380D01*
X304093571Y-147388380D02*
X304093571Y-146388380D01*
X304188809Y-146531238D01*
X304284047Y-146626476D01*
X304379285Y-146674095D01*
X302903095Y-146388380D02*
X303379285Y-146388380D01*
X303426904Y-146864571D01*
X303379285Y-146816952D01*
X303284047Y-146769333D01*
X303045952Y-146769333D01*
X302950714Y-146816952D01*
X302903095Y-146864571D01*
X302855476Y-146959809D01*
X302855476Y-147197904D01*
X302903095Y-147293142D01*
X302950714Y-147340761D01*
X303045952Y-147388380D01*
X303284047Y-147388380D01*
X303379285Y-147340761D01*
X303426904Y-147293142D01*
%TO.C,SW61*%
X77779523Y-109330761D02*
X77636666Y-109378380D01*
X77398571Y-109378380D01*
X77303333Y-109330761D01*
X77255714Y-109283142D01*
X77208095Y-109187904D01*
X77208095Y-109092666D01*
X77255714Y-108997428D01*
X77303333Y-108949809D01*
X77398571Y-108902190D01*
X77589047Y-108854571D01*
X77684285Y-108806952D01*
X77731904Y-108759333D01*
X77779523Y-108664095D01*
X77779523Y-108568857D01*
X77731904Y-108473619D01*
X77684285Y-108426000D01*
X77589047Y-108378380D01*
X77350952Y-108378380D01*
X77208095Y-108426000D01*
X76874761Y-108378380D02*
X76636666Y-109378380D01*
X76446190Y-108664095D01*
X76255714Y-109378380D01*
X76017619Y-108378380D01*
X75208095Y-108378380D02*
X75398571Y-108378380D01*
X75493809Y-108426000D01*
X75541428Y-108473619D01*
X75636666Y-108616476D01*
X75684285Y-108806952D01*
X75684285Y-109187904D01*
X75636666Y-109283142D01*
X75589047Y-109330761D01*
X75493809Y-109378380D01*
X75303333Y-109378380D01*
X75208095Y-109330761D01*
X75160476Y-109283142D01*
X75112857Y-109187904D01*
X75112857Y-108949809D01*
X75160476Y-108854571D01*
X75208095Y-108806952D01*
X75303333Y-108759333D01*
X75493809Y-108759333D01*
X75589047Y-108806952D01*
X75636666Y-108854571D01*
X75684285Y-108949809D01*
X74160476Y-109378380D02*
X74731904Y-109378380D01*
X74446190Y-109378380D02*
X74446190Y-108378380D01*
X74541428Y-108521238D01*
X74636666Y-108616476D01*
X74731904Y-108664095D01*
%TO.C,D14*%
X315367380Y-133348214D02*
X314367380Y-133348214D01*
X314367380Y-133586309D01*
X314415000Y-133729166D01*
X314510238Y-133824404D01*
X314605476Y-133872023D01*
X314795952Y-133919642D01*
X314938809Y-133919642D01*
X315129285Y-133872023D01*
X315224523Y-133824404D01*
X315319761Y-133729166D01*
X315367380Y-133586309D01*
X315367380Y-133348214D01*
X315367380Y-134872023D02*
X315367380Y-134300595D01*
X315367380Y-134586309D02*
X314367380Y-134586309D01*
X314510238Y-134491071D01*
X314605476Y-134395833D01*
X314653095Y-134300595D01*
X314700714Y-135729166D02*
X315367380Y-135729166D01*
X314319761Y-135491071D02*
X315034047Y-135252976D01*
X315034047Y-135872023D01*
%TO.C,D1*%
X372304880Y-114559404D02*
X371304880Y-114559404D01*
X371304880Y-114797500D01*
X371352500Y-114940357D01*
X371447738Y-115035595D01*
X371542976Y-115083214D01*
X371733452Y-115130833D01*
X371876309Y-115130833D01*
X372066785Y-115083214D01*
X372162023Y-115035595D01*
X372257261Y-114940357D01*
X372304880Y-114797500D01*
X372304880Y-114559404D01*
X372304880Y-116083214D02*
X372304880Y-115511785D01*
X372304880Y-115797500D02*
X371304880Y-115797500D01*
X371447738Y-115702261D01*
X371542976Y-115607023D01*
X371590595Y-115511785D01*
%TO.C,SW62*%
X77779523Y-128380761D02*
X77636666Y-128428380D01*
X77398571Y-128428380D01*
X77303333Y-128380761D01*
X77255714Y-128333142D01*
X77208095Y-128237904D01*
X77208095Y-128142666D01*
X77255714Y-128047428D01*
X77303333Y-127999809D01*
X77398571Y-127952190D01*
X77589047Y-127904571D01*
X77684285Y-127856952D01*
X77731904Y-127809333D01*
X77779523Y-127714095D01*
X77779523Y-127618857D01*
X77731904Y-127523619D01*
X77684285Y-127476000D01*
X77589047Y-127428380D01*
X77350952Y-127428380D01*
X77208095Y-127476000D01*
X76874761Y-127428380D02*
X76636666Y-128428380D01*
X76446190Y-127714095D01*
X76255714Y-128428380D01*
X76017619Y-127428380D01*
X75208095Y-127428380D02*
X75398571Y-127428380D01*
X75493809Y-127476000D01*
X75541428Y-127523619D01*
X75636666Y-127666476D01*
X75684285Y-127856952D01*
X75684285Y-128237904D01*
X75636666Y-128333142D01*
X75589047Y-128380761D01*
X75493809Y-128428380D01*
X75303333Y-128428380D01*
X75208095Y-128380761D01*
X75160476Y-128333142D01*
X75112857Y-128237904D01*
X75112857Y-127999809D01*
X75160476Y-127904571D01*
X75208095Y-127856952D01*
X75303333Y-127809333D01*
X75493809Y-127809333D01*
X75589047Y-127856952D01*
X75636666Y-127904571D01*
X75684285Y-127999809D01*
X74731904Y-127523619D02*
X74684285Y-127476000D01*
X74589047Y-127428380D01*
X74350952Y-127428380D01*
X74255714Y-127476000D01*
X74208095Y-127523619D01*
X74160476Y-127618857D01*
X74160476Y-127714095D01*
X74208095Y-127856952D01*
X74779523Y-128428380D01*
X74160476Y-128428380D01*
%TO.C,D53*%
X108199880Y-114083214D02*
X107199880Y-114083214D01*
X107199880Y-114321309D01*
X107247500Y-114464166D01*
X107342738Y-114559404D01*
X107437976Y-114607023D01*
X107628452Y-114654642D01*
X107771309Y-114654642D01*
X107961785Y-114607023D01*
X108057023Y-114559404D01*
X108152261Y-114464166D01*
X108199880Y-114321309D01*
X108199880Y-114083214D01*
X107199880Y-115559404D02*
X107199880Y-115083214D01*
X107676071Y-115035595D01*
X107628452Y-115083214D01*
X107580833Y-115178452D01*
X107580833Y-115416547D01*
X107628452Y-115511785D01*
X107676071Y-115559404D01*
X107771309Y-115607023D01*
X108009404Y-115607023D01*
X108104642Y-115559404D01*
X108152261Y-115511785D01*
X108199880Y-115416547D01*
X108199880Y-115178452D01*
X108152261Y-115083214D01*
X108104642Y-115035595D01*
X107199880Y-115940357D02*
X107199880Y-116559404D01*
X107580833Y-116226071D01*
X107580833Y-116368928D01*
X107628452Y-116464166D01*
X107676071Y-116511785D01*
X107771309Y-116559404D01*
X108009404Y-116559404D01*
X108104642Y-116511785D01*
X108152261Y-116464166D01*
X108199880Y-116368928D01*
X108199880Y-116083214D01*
X108152261Y-115987976D01*
X108104642Y-115940357D01*
%TO.C,D15*%
X315257380Y-152093214D02*
X314257380Y-152093214D01*
X314257380Y-152331309D01*
X314305000Y-152474166D01*
X314400238Y-152569404D01*
X314495476Y-152617023D01*
X314685952Y-152664642D01*
X314828809Y-152664642D01*
X315019285Y-152617023D01*
X315114523Y-152569404D01*
X315209761Y-152474166D01*
X315257380Y-152331309D01*
X315257380Y-152093214D01*
X315257380Y-153617023D02*
X315257380Y-153045595D01*
X315257380Y-153331309D02*
X314257380Y-153331309D01*
X314400238Y-153236071D01*
X314495476Y-153140833D01*
X314543095Y-153045595D01*
X314257380Y-154521785D02*
X314257380Y-154045595D01*
X314733571Y-153997976D01*
X314685952Y-154045595D01*
X314638333Y-154140833D01*
X314638333Y-154378928D01*
X314685952Y-154474166D01*
X314733571Y-154521785D01*
X314828809Y-154569404D01*
X315066904Y-154569404D01*
X315162142Y-154521785D01*
X315209761Y-154474166D01*
X315257380Y-154378928D01*
X315257380Y-154140833D01*
X315209761Y-154045595D01*
X315162142Y-153997976D01*
%TO.C,SW57*%
X96877023Y-109330761D02*
X96734166Y-109378380D01*
X96496071Y-109378380D01*
X96400833Y-109330761D01*
X96353214Y-109283142D01*
X96305595Y-109187904D01*
X96305595Y-109092666D01*
X96353214Y-108997428D01*
X96400833Y-108949809D01*
X96496071Y-108902190D01*
X96686547Y-108854571D01*
X96781785Y-108806952D01*
X96829404Y-108759333D01*
X96877023Y-108664095D01*
X96877023Y-108568857D01*
X96829404Y-108473619D01*
X96781785Y-108426000D01*
X96686547Y-108378380D01*
X96448452Y-108378380D01*
X96305595Y-108426000D01*
X95972261Y-108378380D02*
X95734166Y-109378380D01*
X95543690Y-108664095D01*
X95353214Y-109378380D01*
X95115119Y-108378380D01*
X94257976Y-108378380D02*
X94734166Y-108378380D01*
X94781785Y-108854571D01*
X94734166Y-108806952D01*
X94638928Y-108759333D01*
X94400833Y-108759333D01*
X94305595Y-108806952D01*
X94257976Y-108854571D01*
X94210357Y-108949809D01*
X94210357Y-109187904D01*
X94257976Y-109283142D01*
X94305595Y-109330761D01*
X94400833Y-109378380D01*
X94638928Y-109378380D01*
X94734166Y-109330761D01*
X94781785Y-109283142D01*
X93877023Y-108378380D02*
X93210357Y-108378380D01*
X93638928Y-109378380D01*
%TO.C,D25*%
X258194880Y-114083214D02*
X257194880Y-114083214D01*
X257194880Y-114321309D01*
X257242500Y-114464166D01*
X257337738Y-114559404D01*
X257432976Y-114607023D01*
X257623452Y-114654642D01*
X257766309Y-114654642D01*
X257956785Y-114607023D01*
X258052023Y-114559404D01*
X258147261Y-114464166D01*
X258194880Y-114321309D01*
X258194880Y-114083214D01*
X257290119Y-115035595D02*
X257242500Y-115083214D01*
X257194880Y-115178452D01*
X257194880Y-115416547D01*
X257242500Y-115511785D01*
X257290119Y-115559404D01*
X257385357Y-115607023D01*
X257480595Y-115607023D01*
X257623452Y-115559404D01*
X258194880Y-114987976D01*
X258194880Y-115607023D01*
X257194880Y-116511785D02*
X257194880Y-116035595D01*
X257671071Y-115987976D01*
X257623452Y-116035595D01*
X257575833Y-116130833D01*
X257575833Y-116368928D01*
X257623452Y-116464166D01*
X257671071Y-116511785D01*
X257766309Y-116559404D01*
X258004404Y-116559404D01*
X258099642Y-116511785D01*
X258147261Y-116464166D01*
X258194880Y-116368928D01*
X258194880Y-116130833D01*
X258147261Y-116035595D01*
X258099642Y-115987976D01*
%TO.C,D4*%
X372342380Y-171609404D02*
X371342380Y-171609404D01*
X371342380Y-171847500D01*
X371390000Y-171990357D01*
X371485238Y-172085595D01*
X371580476Y-172133214D01*
X371770952Y-172180833D01*
X371913809Y-172180833D01*
X372104285Y-172133214D01*
X372199523Y-172085595D01*
X372294761Y-171990357D01*
X372342380Y-171847500D01*
X372342380Y-171609404D01*
X371675714Y-173037976D02*
X372342380Y-173037976D01*
X371294761Y-172799880D02*
X372009047Y-172561785D01*
X372009047Y-173180833D01*
%TO.C,SW28*%
X249419523Y-166390761D02*
X249276666Y-166438380D01*
X249038571Y-166438380D01*
X248943333Y-166390761D01*
X248895714Y-166343142D01*
X248848095Y-166247904D01*
X248848095Y-166152666D01*
X248895714Y-166057428D01*
X248943333Y-166009809D01*
X249038571Y-165962190D01*
X249229047Y-165914571D01*
X249324285Y-165866952D01*
X249371904Y-165819333D01*
X249419523Y-165724095D01*
X249419523Y-165628857D01*
X249371904Y-165533619D01*
X249324285Y-165486000D01*
X249229047Y-165438380D01*
X248990952Y-165438380D01*
X248848095Y-165486000D01*
X248514761Y-165438380D02*
X248276666Y-166438380D01*
X248086190Y-165724095D01*
X247895714Y-166438380D01*
X247657619Y-165438380D01*
X247324285Y-165533619D02*
X247276666Y-165486000D01*
X247181428Y-165438380D01*
X246943333Y-165438380D01*
X246848095Y-165486000D01*
X246800476Y-165533619D01*
X246752857Y-165628857D01*
X246752857Y-165724095D01*
X246800476Y-165866952D01*
X247371904Y-166438380D01*
X246752857Y-166438380D01*
X246181428Y-165866952D02*
X246276666Y-165819333D01*
X246324285Y-165771714D01*
X246371904Y-165676476D01*
X246371904Y-165628857D01*
X246324285Y-165533619D01*
X246276666Y-165486000D01*
X246181428Y-165438380D01*
X245990952Y-165438380D01*
X245895714Y-165486000D01*
X245848095Y-165533619D01*
X245800476Y-165628857D01*
X245800476Y-165676476D01*
X245848095Y-165771714D01*
X245895714Y-165819333D01*
X245990952Y-165866952D01*
X246181428Y-165866952D01*
X246276666Y-165914571D01*
X246324285Y-165962190D01*
X246371904Y-166057428D01*
X246371904Y-166247904D01*
X246324285Y-166343142D01*
X246276666Y-166390761D01*
X246181428Y-166438380D01*
X245990952Y-166438380D01*
X245895714Y-166390761D01*
X245848095Y-166343142D01*
X245800476Y-166247904D01*
X245800476Y-166057428D01*
X245848095Y-165962190D01*
X245895714Y-165914571D01*
X245990952Y-165866952D01*
%TO.C,SW36*%
X211367023Y-166390761D02*
X211224166Y-166438380D01*
X210986071Y-166438380D01*
X210890833Y-166390761D01*
X210843214Y-166343142D01*
X210795595Y-166247904D01*
X210795595Y-166152666D01*
X210843214Y-166057428D01*
X210890833Y-166009809D01*
X210986071Y-165962190D01*
X211176547Y-165914571D01*
X211271785Y-165866952D01*
X211319404Y-165819333D01*
X211367023Y-165724095D01*
X211367023Y-165628857D01*
X211319404Y-165533619D01*
X211271785Y-165486000D01*
X211176547Y-165438380D01*
X210938452Y-165438380D01*
X210795595Y-165486000D01*
X210462261Y-165438380D02*
X210224166Y-166438380D01*
X210033690Y-165724095D01*
X209843214Y-166438380D01*
X209605119Y-165438380D01*
X209319404Y-165438380D02*
X208700357Y-165438380D01*
X209033690Y-165819333D01*
X208890833Y-165819333D01*
X208795595Y-165866952D01*
X208747976Y-165914571D01*
X208700357Y-166009809D01*
X208700357Y-166247904D01*
X208747976Y-166343142D01*
X208795595Y-166390761D01*
X208890833Y-166438380D01*
X209176547Y-166438380D01*
X209271785Y-166390761D01*
X209319404Y-166343142D01*
X207843214Y-165438380D02*
X208033690Y-165438380D01*
X208128928Y-165486000D01*
X208176547Y-165533619D01*
X208271785Y-165676476D01*
X208319404Y-165866952D01*
X208319404Y-166247904D01*
X208271785Y-166343142D01*
X208224166Y-166390761D01*
X208128928Y-166438380D01*
X207938452Y-166438380D01*
X207843214Y-166390761D01*
X207795595Y-166343142D01*
X207747976Y-166247904D01*
X207747976Y-166009809D01*
X207795595Y-165914571D01*
X207843214Y-165866952D01*
X207938452Y-165819333D01*
X208128928Y-165819333D01*
X208224166Y-165866952D01*
X208271785Y-165914571D01*
X208319404Y-166009809D01*
%TO.C,SW51*%
X135072023Y-147340761D02*
X134929166Y-147388380D01*
X134691071Y-147388380D01*
X134595833Y-147340761D01*
X134548214Y-147293142D01*
X134500595Y-147197904D01*
X134500595Y-147102666D01*
X134548214Y-147007428D01*
X134595833Y-146959809D01*
X134691071Y-146912190D01*
X134881547Y-146864571D01*
X134976785Y-146816952D01*
X135024404Y-146769333D01*
X135072023Y-146674095D01*
X135072023Y-146578857D01*
X135024404Y-146483619D01*
X134976785Y-146436000D01*
X134881547Y-146388380D01*
X134643452Y-146388380D01*
X134500595Y-146436000D01*
X134167261Y-146388380D02*
X133929166Y-147388380D01*
X133738690Y-146674095D01*
X133548214Y-147388380D01*
X133310119Y-146388380D01*
X132452976Y-146388380D02*
X132929166Y-146388380D01*
X132976785Y-146864571D01*
X132929166Y-146816952D01*
X132833928Y-146769333D01*
X132595833Y-146769333D01*
X132500595Y-146816952D01*
X132452976Y-146864571D01*
X132405357Y-146959809D01*
X132405357Y-147197904D01*
X132452976Y-147293142D01*
X132500595Y-147340761D01*
X132595833Y-147388380D01*
X132833928Y-147388380D01*
X132929166Y-147340761D01*
X132976785Y-147293142D01*
X131452976Y-147388380D02*
X132024404Y-147388380D01*
X131738690Y-147388380D02*
X131738690Y-146388380D01*
X131833928Y-146531238D01*
X131929166Y-146626476D01*
X132024404Y-146674095D01*
%TO.C,SW12*%
X325477023Y-166390761D02*
X325334166Y-166438380D01*
X325096071Y-166438380D01*
X325000833Y-166390761D01*
X324953214Y-166343142D01*
X324905595Y-166247904D01*
X324905595Y-166152666D01*
X324953214Y-166057428D01*
X325000833Y-166009809D01*
X325096071Y-165962190D01*
X325286547Y-165914571D01*
X325381785Y-165866952D01*
X325429404Y-165819333D01*
X325477023Y-165724095D01*
X325477023Y-165628857D01*
X325429404Y-165533619D01*
X325381785Y-165486000D01*
X325286547Y-165438380D01*
X325048452Y-165438380D01*
X324905595Y-165486000D01*
X324572261Y-165438380D02*
X324334166Y-166438380D01*
X324143690Y-165724095D01*
X323953214Y-166438380D01*
X323715119Y-165438380D01*
X322810357Y-166438380D02*
X323381785Y-166438380D01*
X323096071Y-166438380D02*
X323096071Y-165438380D01*
X323191309Y-165581238D01*
X323286547Y-165676476D01*
X323381785Y-165724095D01*
X322429404Y-165533619D02*
X322381785Y-165486000D01*
X322286547Y-165438380D01*
X322048452Y-165438380D01*
X321953214Y-165486000D01*
X321905595Y-165533619D01*
X321857976Y-165628857D01*
X321857976Y-165724095D01*
X321905595Y-165866952D01*
X322477023Y-166438380D01*
X321857976Y-166438380D01*
%TO.C,D23*%
X277252380Y-151848214D02*
X276252380Y-151848214D01*
X276252380Y-152086309D01*
X276300000Y-152229166D01*
X276395238Y-152324404D01*
X276490476Y-152372023D01*
X276680952Y-152419642D01*
X276823809Y-152419642D01*
X277014285Y-152372023D01*
X277109523Y-152324404D01*
X277204761Y-152229166D01*
X277252380Y-152086309D01*
X277252380Y-151848214D01*
X276347619Y-152800595D02*
X276300000Y-152848214D01*
X276252380Y-152943452D01*
X276252380Y-153181547D01*
X276300000Y-153276785D01*
X276347619Y-153324404D01*
X276442857Y-153372023D01*
X276538095Y-153372023D01*
X276680952Y-153324404D01*
X277252380Y-152752976D01*
X277252380Y-153372023D01*
X276252380Y-153705357D02*
X276252380Y-154324404D01*
X276633333Y-153991071D01*
X276633333Y-154133928D01*
X276680952Y-154229166D01*
X276728571Y-154276785D01*
X276823809Y-154324404D01*
X277061904Y-154324404D01*
X277157142Y-154276785D01*
X277204761Y-154229166D01*
X277252380Y-154133928D01*
X277252380Y-153848214D01*
X277204761Y-153752976D01*
X277157142Y-153705357D01*
%TO.C,SW38*%
X192364523Y-128380761D02*
X192221666Y-128428380D01*
X191983571Y-128428380D01*
X191888333Y-128380761D01*
X191840714Y-128333142D01*
X191793095Y-128237904D01*
X191793095Y-128142666D01*
X191840714Y-128047428D01*
X191888333Y-127999809D01*
X191983571Y-127952190D01*
X192174047Y-127904571D01*
X192269285Y-127856952D01*
X192316904Y-127809333D01*
X192364523Y-127714095D01*
X192364523Y-127618857D01*
X192316904Y-127523619D01*
X192269285Y-127476000D01*
X192174047Y-127428380D01*
X191935952Y-127428380D01*
X191793095Y-127476000D01*
X191459761Y-127428380D02*
X191221666Y-128428380D01*
X191031190Y-127714095D01*
X190840714Y-128428380D01*
X190602619Y-127428380D01*
X190316904Y-127428380D02*
X189697857Y-127428380D01*
X190031190Y-127809333D01*
X189888333Y-127809333D01*
X189793095Y-127856952D01*
X189745476Y-127904571D01*
X189697857Y-127999809D01*
X189697857Y-128237904D01*
X189745476Y-128333142D01*
X189793095Y-128380761D01*
X189888333Y-128428380D01*
X190174047Y-128428380D01*
X190269285Y-128380761D01*
X190316904Y-128333142D01*
X189126428Y-127856952D02*
X189221666Y-127809333D01*
X189269285Y-127761714D01*
X189316904Y-127666476D01*
X189316904Y-127618857D01*
X189269285Y-127523619D01*
X189221666Y-127476000D01*
X189126428Y-127428380D01*
X188935952Y-127428380D01*
X188840714Y-127476000D01*
X188793095Y-127523619D01*
X188745476Y-127618857D01*
X188745476Y-127666476D01*
X188793095Y-127761714D01*
X188840714Y-127809333D01*
X188935952Y-127856952D01*
X189126428Y-127856952D01*
X189221666Y-127904571D01*
X189269285Y-127952190D01*
X189316904Y-128047428D01*
X189316904Y-128237904D01*
X189269285Y-128333142D01*
X189221666Y-128380761D01*
X189126428Y-128428380D01*
X188935952Y-128428380D01*
X188840714Y-128380761D01*
X188793095Y-128333142D01*
X188745476Y-128237904D01*
X188745476Y-128047428D01*
X188793095Y-127952190D01*
X188840714Y-127904571D01*
X188935952Y-127856952D01*
%TO.C,D9*%
X334252380Y-114559404D02*
X333252380Y-114559404D01*
X333252380Y-114797500D01*
X333300000Y-114940357D01*
X333395238Y-115035595D01*
X333490476Y-115083214D01*
X333680952Y-115130833D01*
X333823809Y-115130833D01*
X334014285Y-115083214D01*
X334109523Y-115035595D01*
X334204761Y-114940357D01*
X334252380Y-114797500D01*
X334252380Y-114559404D01*
X334252380Y-115607023D02*
X334252380Y-115797500D01*
X334204761Y-115892738D01*
X334157142Y-115940357D01*
X334014285Y-116035595D01*
X333823809Y-116083214D01*
X333442857Y-116083214D01*
X333347619Y-116035595D01*
X333300000Y-115987976D01*
X333252380Y-115892738D01*
X333252380Y-115702261D01*
X333300000Y-115607023D01*
X333347619Y-115559404D01*
X333442857Y-115511785D01*
X333680952Y-115511785D01*
X333776190Y-115559404D01*
X333823809Y-115607023D01*
X333871428Y-115702261D01*
X333871428Y-115892738D01*
X333823809Y-115987976D01*
X333776190Y-116035595D01*
X333680952Y-116083214D01*
%TO.C,SW11*%
X325477023Y-147340761D02*
X325334166Y-147388380D01*
X325096071Y-147388380D01*
X325000833Y-147340761D01*
X324953214Y-147293142D01*
X324905595Y-147197904D01*
X324905595Y-147102666D01*
X324953214Y-147007428D01*
X325000833Y-146959809D01*
X325096071Y-146912190D01*
X325286547Y-146864571D01*
X325381785Y-146816952D01*
X325429404Y-146769333D01*
X325477023Y-146674095D01*
X325477023Y-146578857D01*
X325429404Y-146483619D01*
X325381785Y-146436000D01*
X325286547Y-146388380D01*
X325048452Y-146388380D01*
X324905595Y-146436000D01*
X324572261Y-146388380D02*
X324334166Y-147388380D01*
X324143690Y-146674095D01*
X323953214Y-147388380D01*
X323715119Y-146388380D01*
X322810357Y-147388380D02*
X323381785Y-147388380D01*
X323096071Y-147388380D02*
X323096071Y-146388380D01*
X323191309Y-146531238D01*
X323286547Y-146626476D01*
X323381785Y-146674095D01*
X321857976Y-147388380D02*
X322429404Y-147388380D01*
X322143690Y-147388380D02*
X322143690Y-146388380D01*
X322238928Y-146531238D01*
X322334166Y-146626476D01*
X322429404Y-146674095D01*
%TO.C,SW21*%
X268469523Y-109330761D02*
X268326666Y-109378380D01*
X268088571Y-109378380D01*
X267993333Y-109330761D01*
X267945714Y-109283142D01*
X267898095Y-109187904D01*
X267898095Y-109092666D01*
X267945714Y-108997428D01*
X267993333Y-108949809D01*
X268088571Y-108902190D01*
X268279047Y-108854571D01*
X268374285Y-108806952D01*
X268421904Y-108759333D01*
X268469523Y-108664095D01*
X268469523Y-108568857D01*
X268421904Y-108473619D01*
X268374285Y-108426000D01*
X268279047Y-108378380D01*
X268040952Y-108378380D01*
X267898095Y-108426000D01*
X267564761Y-108378380D02*
X267326666Y-109378380D01*
X267136190Y-108664095D01*
X266945714Y-109378380D01*
X266707619Y-108378380D01*
X266374285Y-108473619D02*
X266326666Y-108426000D01*
X266231428Y-108378380D01*
X265993333Y-108378380D01*
X265898095Y-108426000D01*
X265850476Y-108473619D01*
X265802857Y-108568857D01*
X265802857Y-108664095D01*
X265850476Y-108806952D01*
X266421904Y-109378380D01*
X265802857Y-109378380D01*
X264850476Y-109378380D02*
X265421904Y-109378380D01*
X265136190Y-109378380D02*
X265136190Y-108378380D01*
X265231428Y-108521238D01*
X265326666Y-108616476D01*
X265421904Y-108664095D01*
%TO.C,D7*%
X353309880Y-152569404D02*
X352309880Y-152569404D01*
X352309880Y-152807500D01*
X352357500Y-152950357D01*
X352452738Y-153045595D01*
X352547976Y-153093214D01*
X352738452Y-153140833D01*
X352881309Y-153140833D01*
X353071785Y-153093214D01*
X353167023Y-153045595D01*
X353262261Y-152950357D01*
X353309880Y-152807500D01*
X353309880Y-152569404D01*
X352309880Y-153474166D02*
X352309880Y-154140833D01*
X353309880Y-153712261D01*
%TO.C,D51*%
X127514880Y-152023214D02*
X126514880Y-152023214D01*
X126514880Y-152261309D01*
X126562500Y-152404166D01*
X126657738Y-152499404D01*
X126752976Y-152547023D01*
X126943452Y-152594642D01*
X127086309Y-152594642D01*
X127276785Y-152547023D01*
X127372023Y-152499404D01*
X127467261Y-152404166D01*
X127514880Y-152261309D01*
X127514880Y-152023214D01*
X126514880Y-153499404D02*
X126514880Y-153023214D01*
X126991071Y-152975595D01*
X126943452Y-153023214D01*
X126895833Y-153118452D01*
X126895833Y-153356547D01*
X126943452Y-153451785D01*
X126991071Y-153499404D01*
X127086309Y-153547023D01*
X127324404Y-153547023D01*
X127419642Y-153499404D01*
X127467261Y-153451785D01*
X127514880Y-153356547D01*
X127514880Y-153118452D01*
X127467261Y-153023214D01*
X127419642Y-152975595D01*
X127514880Y-154499404D02*
X127514880Y-153927976D01*
X127514880Y-154213690D02*
X126514880Y-154213690D01*
X126657738Y-154118452D01*
X126752976Y-154023214D01*
X126800595Y-153927976D01*
%TO.C,SW1*%
X363053333Y-109330761D02*
X362910476Y-109378380D01*
X362672380Y-109378380D01*
X362577142Y-109330761D01*
X362529523Y-109283142D01*
X362481904Y-109187904D01*
X362481904Y-109092666D01*
X362529523Y-108997428D01*
X362577142Y-108949809D01*
X362672380Y-108902190D01*
X362862857Y-108854571D01*
X362958095Y-108806952D01*
X363005714Y-108759333D01*
X363053333Y-108664095D01*
X363053333Y-108568857D01*
X363005714Y-108473619D01*
X362958095Y-108426000D01*
X362862857Y-108378380D01*
X362624761Y-108378380D01*
X362481904Y-108426000D01*
X362148571Y-108378380D02*
X361910476Y-109378380D01*
X361720000Y-108664095D01*
X361529523Y-109378380D01*
X361291428Y-108378380D01*
X360386666Y-109378380D02*
X360958095Y-109378380D01*
X360672380Y-109378380D02*
X360672380Y-108378380D01*
X360767619Y-108521238D01*
X360862857Y-108616476D01*
X360958095Y-108664095D01*
%TO.C,SW39*%
X192364523Y-147340761D02*
X192221666Y-147388380D01*
X191983571Y-147388380D01*
X191888333Y-147340761D01*
X191840714Y-147293142D01*
X191793095Y-147197904D01*
X191793095Y-147102666D01*
X191840714Y-147007428D01*
X191888333Y-146959809D01*
X191983571Y-146912190D01*
X192174047Y-146864571D01*
X192269285Y-146816952D01*
X192316904Y-146769333D01*
X192364523Y-146674095D01*
X192364523Y-146578857D01*
X192316904Y-146483619D01*
X192269285Y-146436000D01*
X192174047Y-146388380D01*
X191935952Y-146388380D01*
X191793095Y-146436000D01*
X191459761Y-146388380D02*
X191221666Y-147388380D01*
X191031190Y-146674095D01*
X190840714Y-147388380D01*
X190602619Y-146388380D01*
X190316904Y-146388380D02*
X189697857Y-146388380D01*
X190031190Y-146769333D01*
X189888333Y-146769333D01*
X189793095Y-146816952D01*
X189745476Y-146864571D01*
X189697857Y-146959809D01*
X189697857Y-147197904D01*
X189745476Y-147293142D01*
X189793095Y-147340761D01*
X189888333Y-147388380D01*
X190174047Y-147388380D01*
X190269285Y-147340761D01*
X190316904Y-147293142D01*
X189221666Y-147388380D02*
X189031190Y-147388380D01*
X188935952Y-147340761D01*
X188888333Y-147293142D01*
X188793095Y-147150285D01*
X188745476Y-146959809D01*
X188745476Y-146578857D01*
X188793095Y-146483619D01*
X188840714Y-146436000D01*
X188935952Y-146388380D01*
X189126428Y-146388380D01*
X189221666Y-146436000D01*
X189269285Y-146483619D01*
X189316904Y-146578857D01*
X189316904Y-146816952D01*
X189269285Y-146912190D01*
X189221666Y-146959809D01*
X189126428Y-147007428D01*
X188935952Y-147007428D01*
X188840714Y-146959809D01*
X188793095Y-146912190D01*
X188745476Y-146816952D01*
%TO.C,SW16*%
X306474523Y-166390761D02*
X306331666Y-166438380D01*
X306093571Y-166438380D01*
X305998333Y-166390761D01*
X305950714Y-166343142D01*
X305903095Y-166247904D01*
X305903095Y-166152666D01*
X305950714Y-166057428D01*
X305998333Y-166009809D01*
X306093571Y-165962190D01*
X306284047Y-165914571D01*
X306379285Y-165866952D01*
X306426904Y-165819333D01*
X306474523Y-165724095D01*
X306474523Y-165628857D01*
X306426904Y-165533619D01*
X306379285Y-165486000D01*
X306284047Y-165438380D01*
X306045952Y-165438380D01*
X305903095Y-165486000D01*
X305569761Y-165438380D02*
X305331666Y-166438380D01*
X305141190Y-165724095D01*
X304950714Y-166438380D01*
X304712619Y-165438380D01*
X303807857Y-166438380D02*
X304379285Y-166438380D01*
X304093571Y-166438380D02*
X304093571Y-165438380D01*
X304188809Y-165581238D01*
X304284047Y-165676476D01*
X304379285Y-165724095D01*
X302950714Y-165438380D02*
X303141190Y-165438380D01*
X303236428Y-165486000D01*
X303284047Y-165533619D01*
X303379285Y-165676476D01*
X303426904Y-165866952D01*
X303426904Y-166247904D01*
X303379285Y-166343142D01*
X303331666Y-166390761D01*
X303236428Y-166438380D01*
X303045952Y-166438380D01*
X302950714Y-166390761D01*
X302903095Y-166343142D01*
X302855476Y-166247904D01*
X302855476Y-166009809D01*
X302903095Y-165914571D01*
X302950714Y-165866952D01*
X303045952Y-165819333D01*
X303236428Y-165819333D01*
X303331666Y-165866952D01*
X303379285Y-165914571D01*
X303426904Y-166009809D01*
%TO.C,SW47*%
X154169523Y-147340761D02*
X154026666Y-147388380D01*
X153788571Y-147388380D01*
X153693333Y-147340761D01*
X153645714Y-147293142D01*
X153598095Y-147197904D01*
X153598095Y-147102666D01*
X153645714Y-147007428D01*
X153693333Y-146959809D01*
X153788571Y-146912190D01*
X153979047Y-146864571D01*
X154074285Y-146816952D01*
X154121904Y-146769333D01*
X154169523Y-146674095D01*
X154169523Y-146578857D01*
X154121904Y-146483619D01*
X154074285Y-146436000D01*
X153979047Y-146388380D01*
X153740952Y-146388380D01*
X153598095Y-146436000D01*
X153264761Y-146388380D02*
X153026666Y-147388380D01*
X152836190Y-146674095D01*
X152645714Y-147388380D01*
X152407619Y-146388380D01*
X151598095Y-146721714D02*
X151598095Y-147388380D01*
X151836190Y-146340761D02*
X152074285Y-147055047D01*
X151455238Y-147055047D01*
X151169523Y-146388380D02*
X150502857Y-146388380D01*
X150931428Y-147388380D01*
%TO.C,SW35*%
X211399523Y-147380761D02*
X211256666Y-147428380D01*
X211018571Y-147428380D01*
X210923333Y-147380761D01*
X210875714Y-147333142D01*
X210828095Y-147237904D01*
X210828095Y-147142666D01*
X210875714Y-147047428D01*
X210923333Y-146999809D01*
X211018571Y-146952190D01*
X211209047Y-146904571D01*
X211304285Y-146856952D01*
X211351904Y-146809333D01*
X211399523Y-146714095D01*
X211399523Y-146618857D01*
X211351904Y-146523619D01*
X211304285Y-146476000D01*
X211209047Y-146428380D01*
X210970952Y-146428380D01*
X210828095Y-146476000D01*
X210494761Y-146428380D02*
X210256666Y-147428380D01*
X210066190Y-146714095D01*
X209875714Y-147428380D01*
X209637619Y-146428380D01*
X209351904Y-146428380D02*
X208732857Y-146428380D01*
X209066190Y-146809333D01*
X208923333Y-146809333D01*
X208828095Y-146856952D01*
X208780476Y-146904571D01*
X208732857Y-146999809D01*
X208732857Y-147237904D01*
X208780476Y-147333142D01*
X208828095Y-147380761D01*
X208923333Y-147428380D01*
X209209047Y-147428380D01*
X209304285Y-147380761D01*
X209351904Y-147333142D01*
X207828095Y-146428380D02*
X208304285Y-146428380D01*
X208351904Y-146904571D01*
X208304285Y-146856952D01*
X208209047Y-146809333D01*
X207970952Y-146809333D01*
X207875714Y-146856952D01*
X207828095Y-146904571D01*
X207780476Y-146999809D01*
X207780476Y-147237904D01*
X207828095Y-147333142D01*
X207875714Y-147380761D01*
X207970952Y-147428380D01*
X208209047Y-147428380D01*
X208304285Y-147380761D01*
X208351904Y-147333142D01*
%TO.C,SW20*%
X287472023Y-166390761D02*
X287329166Y-166438380D01*
X287091071Y-166438380D01*
X286995833Y-166390761D01*
X286948214Y-166343142D01*
X286900595Y-166247904D01*
X286900595Y-166152666D01*
X286948214Y-166057428D01*
X286995833Y-166009809D01*
X287091071Y-165962190D01*
X287281547Y-165914571D01*
X287376785Y-165866952D01*
X287424404Y-165819333D01*
X287472023Y-165724095D01*
X287472023Y-165628857D01*
X287424404Y-165533619D01*
X287376785Y-165486000D01*
X287281547Y-165438380D01*
X287043452Y-165438380D01*
X286900595Y-165486000D01*
X286567261Y-165438380D02*
X286329166Y-166438380D01*
X286138690Y-165724095D01*
X285948214Y-166438380D01*
X285710119Y-165438380D01*
X285376785Y-165533619D02*
X285329166Y-165486000D01*
X285233928Y-165438380D01*
X284995833Y-165438380D01*
X284900595Y-165486000D01*
X284852976Y-165533619D01*
X284805357Y-165628857D01*
X284805357Y-165724095D01*
X284852976Y-165866952D01*
X285424404Y-166438380D01*
X284805357Y-166438380D01*
X284186309Y-165438380D02*
X284091071Y-165438380D01*
X283995833Y-165486000D01*
X283948214Y-165533619D01*
X283900595Y-165628857D01*
X283852976Y-165819333D01*
X283852976Y-166057428D01*
X283900595Y-166247904D01*
X283948214Y-166343142D01*
X283995833Y-166390761D01*
X284091071Y-166438380D01*
X284186309Y-166438380D01*
X284281547Y-166390761D01*
X284329166Y-166343142D01*
X284376785Y-166247904D01*
X284424404Y-166057428D01*
X284424404Y-165819333D01*
X284376785Y-165628857D01*
X284329166Y-165533619D01*
X284281547Y-165486000D01*
X284186309Y-165438380D01*
%TO.C,SW17*%
X287472023Y-109330761D02*
X287329166Y-109378380D01*
X287091071Y-109378380D01*
X286995833Y-109330761D01*
X286948214Y-109283142D01*
X286900595Y-109187904D01*
X286900595Y-109092666D01*
X286948214Y-108997428D01*
X286995833Y-108949809D01*
X287091071Y-108902190D01*
X287281547Y-108854571D01*
X287376785Y-108806952D01*
X287424404Y-108759333D01*
X287472023Y-108664095D01*
X287472023Y-108568857D01*
X287424404Y-108473619D01*
X287376785Y-108426000D01*
X287281547Y-108378380D01*
X287043452Y-108378380D01*
X286900595Y-108426000D01*
X286567261Y-108378380D02*
X286329166Y-109378380D01*
X286138690Y-108664095D01*
X285948214Y-109378380D01*
X285710119Y-108378380D01*
X284805357Y-109378380D02*
X285376785Y-109378380D01*
X285091071Y-109378380D02*
X285091071Y-108378380D01*
X285186309Y-108521238D01*
X285281547Y-108616476D01*
X285376785Y-108664095D01*
X284472023Y-108378380D02*
X283805357Y-108378380D01*
X284233928Y-109378380D01*
%TO.C,SW53*%
X115974523Y-109330761D02*
X115831666Y-109378380D01*
X115593571Y-109378380D01*
X115498333Y-109330761D01*
X115450714Y-109283142D01*
X115403095Y-109187904D01*
X115403095Y-109092666D01*
X115450714Y-108997428D01*
X115498333Y-108949809D01*
X115593571Y-108902190D01*
X115784047Y-108854571D01*
X115879285Y-108806952D01*
X115926904Y-108759333D01*
X115974523Y-108664095D01*
X115974523Y-108568857D01*
X115926904Y-108473619D01*
X115879285Y-108426000D01*
X115784047Y-108378380D01*
X115545952Y-108378380D01*
X115403095Y-108426000D01*
X115069761Y-108378380D02*
X114831666Y-109378380D01*
X114641190Y-108664095D01*
X114450714Y-109378380D01*
X114212619Y-108378380D01*
X113355476Y-108378380D02*
X113831666Y-108378380D01*
X113879285Y-108854571D01*
X113831666Y-108806952D01*
X113736428Y-108759333D01*
X113498333Y-108759333D01*
X113403095Y-108806952D01*
X113355476Y-108854571D01*
X113307857Y-108949809D01*
X113307857Y-109187904D01*
X113355476Y-109283142D01*
X113403095Y-109330761D01*
X113498333Y-109378380D01*
X113736428Y-109378380D01*
X113831666Y-109330761D01*
X113879285Y-109283142D01*
X112974523Y-108378380D02*
X112355476Y-108378380D01*
X112688809Y-108759333D01*
X112545952Y-108759333D01*
X112450714Y-108806952D01*
X112403095Y-108854571D01*
X112355476Y-108949809D01*
X112355476Y-109187904D01*
X112403095Y-109283142D01*
X112450714Y-109330761D01*
X112545952Y-109378380D01*
X112831666Y-109378380D01*
X112926904Y-109330761D01*
X112974523Y-109283142D01*
%TO.C,D18*%
X296364880Y-133348214D02*
X295364880Y-133348214D01*
X295364880Y-133586309D01*
X295412500Y-133729166D01*
X295507738Y-133824404D01*
X295602976Y-133872023D01*
X295793452Y-133919642D01*
X295936309Y-133919642D01*
X296126785Y-133872023D01*
X296222023Y-133824404D01*
X296317261Y-133729166D01*
X296364880Y-133586309D01*
X296364880Y-133348214D01*
X296364880Y-134872023D02*
X296364880Y-134300595D01*
X296364880Y-134586309D02*
X295364880Y-134586309D01*
X295507738Y-134491071D01*
X295602976Y-134395833D01*
X295650595Y-134300595D01*
X295793452Y-135443452D02*
X295745833Y-135348214D01*
X295698214Y-135300595D01*
X295602976Y-135252976D01*
X295555357Y-135252976D01*
X295460119Y-135300595D01*
X295412500Y-135348214D01*
X295364880Y-135443452D01*
X295364880Y-135633928D01*
X295412500Y-135729166D01*
X295460119Y-135776785D01*
X295555357Y-135824404D01*
X295602976Y-135824404D01*
X295698214Y-135776785D01*
X295745833Y-135729166D01*
X295793452Y-135633928D01*
X295793452Y-135443452D01*
X295841071Y-135348214D01*
X295888690Y-135300595D01*
X295983928Y-135252976D01*
X296174404Y-135252976D01*
X296269642Y-135300595D01*
X296317261Y-135348214D01*
X296364880Y-135443452D01*
X296364880Y-135633928D01*
X296317261Y-135729166D01*
X296269642Y-135776785D01*
X296174404Y-135824404D01*
X295983928Y-135824404D01*
X295888690Y-135776785D01*
X295841071Y-135729166D01*
X295793452Y-135633928D01*
%TO.C,SW24*%
X268469523Y-166390761D02*
X268326666Y-166438380D01*
X268088571Y-166438380D01*
X267993333Y-166390761D01*
X267945714Y-166343142D01*
X267898095Y-166247904D01*
X267898095Y-166152666D01*
X267945714Y-166057428D01*
X267993333Y-166009809D01*
X268088571Y-165962190D01*
X268279047Y-165914571D01*
X268374285Y-165866952D01*
X268421904Y-165819333D01*
X268469523Y-165724095D01*
X268469523Y-165628857D01*
X268421904Y-165533619D01*
X268374285Y-165486000D01*
X268279047Y-165438380D01*
X268040952Y-165438380D01*
X267898095Y-165486000D01*
X267564761Y-165438380D02*
X267326666Y-166438380D01*
X267136190Y-165724095D01*
X266945714Y-166438380D01*
X266707619Y-165438380D01*
X266374285Y-165533619D02*
X266326666Y-165486000D01*
X266231428Y-165438380D01*
X265993333Y-165438380D01*
X265898095Y-165486000D01*
X265850476Y-165533619D01*
X265802857Y-165628857D01*
X265802857Y-165724095D01*
X265850476Y-165866952D01*
X266421904Y-166438380D01*
X265802857Y-166438380D01*
X264945714Y-165771714D02*
X264945714Y-166438380D01*
X265183809Y-165390761D02*
X265421904Y-166105047D01*
X264802857Y-166105047D01*
%TO.C,D49*%
X127377380Y-114033214D02*
X126377380Y-114033214D01*
X126377380Y-114271309D01*
X126425000Y-114414166D01*
X126520238Y-114509404D01*
X126615476Y-114557023D01*
X126805952Y-114604642D01*
X126948809Y-114604642D01*
X127139285Y-114557023D01*
X127234523Y-114509404D01*
X127329761Y-114414166D01*
X127377380Y-114271309D01*
X127377380Y-114033214D01*
X126710714Y-115461785D02*
X127377380Y-115461785D01*
X126329761Y-115223690D02*
X127044047Y-114985595D01*
X127044047Y-115604642D01*
X127377380Y-116033214D02*
X127377380Y-116223690D01*
X127329761Y-116318928D01*
X127282142Y-116366547D01*
X127139285Y-116461785D01*
X126948809Y-116509404D01*
X126567857Y-116509404D01*
X126472619Y-116461785D01*
X126425000Y-116414166D01*
X126377380Y-116318928D01*
X126377380Y-116128452D01*
X126425000Y-116033214D01*
X126472619Y-115985595D01*
X126567857Y-115937976D01*
X126805952Y-115937976D01*
X126901190Y-115985595D01*
X126948809Y-116033214D01*
X126996428Y-116128452D01*
X126996428Y-116318928D01*
X126948809Y-116414166D01*
X126901190Y-116461785D01*
X126805952Y-116509404D01*
%TO.C,D39*%
X184922380Y-152053214D02*
X183922380Y-152053214D01*
X183922380Y-152291309D01*
X183970000Y-152434166D01*
X184065238Y-152529404D01*
X184160476Y-152577023D01*
X184350952Y-152624642D01*
X184493809Y-152624642D01*
X184684285Y-152577023D01*
X184779523Y-152529404D01*
X184874761Y-152434166D01*
X184922380Y-152291309D01*
X184922380Y-152053214D01*
X183922380Y-152957976D02*
X183922380Y-153577023D01*
X184303333Y-153243690D01*
X184303333Y-153386547D01*
X184350952Y-153481785D01*
X184398571Y-153529404D01*
X184493809Y-153577023D01*
X184731904Y-153577023D01*
X184827142Y-153529404D01*
X184874761Y-153481785D01*
X184922380Y-153386547D01*
X184922380Y-153100833D01*
X184874761Y-153005595D01*
X184827142Y-152957976D01*
X184922380Y-154053214D02*
X184922380Y-154243690D01*
X184874761Y-154338928D01*
X184827142Y-154386547D01*
X184684285Y-154481785D01*
X184493809Y-154529404D01*
X184112857Y-154529404D01*
X184017619Y-154481785D01*
X183970000Y-154434166D01*
X183922380Y-154338928D01*
X183922380Y-154148452D01*
X183970000Y-154053214D01*
X184017619Y-154005595D01*
X184112857Y-153957976D01*
X184350952Y-153957976D01*
X184446190Y-154005595D01*
X184493809Y-154053214D01*
X184541428Y-154148452D01*
X184541428Y-154338928D01*
X184493809Y-154434166D01*
X184446190Y-154481785D01*
X184350952Y-154529404D01*
%TO.C,SW6*%
X344050833Y-128380761D02*
X343907976Y-128428380D01*
X343669880Y-128428380D01*
X343574642Y-128380761D01*
X343527023Y-128333142D01*
X343479404Y-128237904D01*
X343479404Y-128142666D01*
X343527023Y-128047428D01*
X343574642Y-127999809D01*
X343669880Y-127952190D01*
X343860357Y-127904571D01*
X343955595Y-127856952D01*
X344003214Y-127809333D01*
X344050833Y-127714095D01*
X344050833Y-127618857D01*
X344003214Y-127523619D01*
X343955595Y-127476000D01*
X343860357Y-127428380D01*
X343622261Y-127428380D01*
X343479404Y-127476000D01*
X343146071Y-127428380D02*
X342907976Y-128428380D01*
X342717500Y-127714095D01*
X342527023Y-128428380D01*
X342288928Y-127428380D01*
X341479404Y-127428380D02*
X341669880Y-127428380D01*
X341765119Y-127476000D01*
X341812738Y-127523619D01*
X341907976Y-127666476D01*
X341955595Y-127856952D01*
X341955595Y-128237904D01*
X341907976Y-128333142D01*
X341860357Y-128380761D01*
X341765119Y-128428380D01*
X341574642Y-128428380D01*
X341479404Y-128380761D01*
X341431785Y-128333142D01*
X341384166Y-128237904D01*
X341384166Y-127999809D01*
X341431785Y-127904571D01*
X341479404Y-127856952D01*
X341574642Y-127809333D01*
X341765119Y-127809333D01*
X341860357Y-127856952D01*
X341907976Y-127904571D01*
X341955595Y-127999809D01*
%TO.C,SW4*%
X363053333Y-166390761D02*
X362910476Y-166438380D01*
X362672380Y-166438380D01*
X362577142Y-166390761D01*
X362529523Y-166343142D01*
X362481904Y-166247904D01*
X362481904Y-166152666D01*
X362529523Y-166057428D01*
X362577142Y-166009809D01*
X362672380Y-165962190D01*
X362862857Y-165914571D01*
X362958095Y-165866952D01*
X363005714Y-165819333D01*
X363053333Y-165724095D01*
X363053333Y-165628857D01*
X363005714Y-165533619D01*
X362958095Y-165486000D01*
X362862857Y-165438380D01*
X362624761Y-165438380D01*
X362481904Y-165486000D01*
X362148571Y-165438380D02*
X361910476Y-166438380D01*
X361720000Y-165724095D01*
X361529523Y-166438380D01*
X361291428Y-165438380D01*
X360481904Y-165771714D02*
X360481904Y-166438380D01*
X360720000Y-165390761D02*
X360958095Y-166105047D01*
X360339047Y-166105047D01*
%TO.C,SW40*%
X192364523Y-166390761D02*
X192221666Y-166438380D01*
X191983571Y-166438380D01*
X191888333Y-166390761D01*
X191840714Y-166343142D01*
X191793095Y-166247904D01*
X191793095Y-166152666D01*
X191840714Y-166057428D01*
X191888333Y-166009809D01*
X191983571Y-165962190D01*
X192174047Y-165914571D01*
X192269285Y-165866952D01*
X192316904Y-165819333D01*
X192364523Y-165724095D01*
X192364523Y-165628857D01*
X192316904Y-165533619D01*
X192269285Y-165486000D01*
X192174047Y-165438380D01*
X191935952Y-165438380D01*
X191793095Y-165486000D01*
X191459761Y-165438380D02*
X191221666Y-166438380D01*
X191031190Y-165724095D01*
X190840714Y-166438380D01*
X190602619Y-165438380D01*
X189793095Y-165771714D02*
X189793095Y-166438380D01*
X190031190Y-165390761D02*
X190269285Y-166105047D01*
X189650238Y-166105047D01*
X189078809Y-165438380D02*
X188983571Y-165438380D01*
X188888333Y-165486000D01*
X188840714Y-165533619D01*
X188793095Y-165628857D01*
X188745476Y-165819333D01*
X188745476Y-166057428D01*
X188793095Y-166247904D01*
X188840714Y-166343142D01*
X188888333Y-166390761D01*
X188983571Y-166438380D01*
X189078809Y-166438380D01*
X189174047Y-166390761D01*
X189221666Y-166343142D01*
X189269285Y-166247904D01*
X189316904Y-166057428D01*
X189316904Y-165819333D01*
X189269285Y-165628857D01*
X189221666Y-165533619D01*
X189174047Y-165486000D01*
X189078809Y-165438380D01*
%TO.C,D52*%
X127414880Y-171173214D02*
X126414880Y-171173214D01*
X126414880Y-171411309D01*
X126462500Y-171554166D01*
X126557738Y-171649404D01*
X126652976Y-171697023D01*
X126843452Y-171744642D01*
X126986309Y-171744642D01*
X127176785Y-171697023D01*
X127272023Y-171649404D01*
X127367261Y-171554166D01*
X127414880Y-171411309D01*
X127414880Y-171173214D01*
X126414880Y-172649404D02*
X126414880Y-172173214D01*
X126891071Y-172125595D01*
X126843452Y-172173214D01*
X126795833Y-172268452D01*
X126795833Y-172506547D01*
X126843452Y-172601785D01*
X126891071Y-172649404D01*
X126986309Y-172697023D01*
X127224404Y-172697023D01*
X127319642Y-172649404D01*
X127367261Y-172601785D01*
X127414880Y-172506547D01*
X127414880Y-172268452D01*
X127367261Y-172173214D01*
X127319642Y-172125595D01*
X126510119Y-173077976D02*
X126462500Y-173125595D01*
X126414880Y-173220833D01*
X126414880Y-173458928D01*
X126462500Y-173554166D01*
X126510119Y-173601785D01*
X126605357Y-173649404D01*
X126700595Y-173649404D01*
X126843452Y-173601785D01*
X127414880Y-173030357D01*
X127414880Y-173649404D01*
%TO.C,SW41*%
X173267023Y-109330761D02*
X173124166Y-109378380D01*
X172886071Y-109378380D01*
X172790833Y-109330761D01*
X172743214Y-109283142D01*
X172695595Y-109187904D01*
X172695595Y-109092666D01*
X172743214Y-108997428D01*
X172790833Y-108949809D01*
X172886071Y-108902190D01*
X173076547Y-108854571D01*
X173171785Y-108806952D01*
X173219404Y-108759333D01*
X173267023Y-108664095D01*
X173267023Y-108568857D01*
X173219404Y-108473619D01*
X173171785Y-108426000D01*
X173076547Y-108378380D01*
X172838452Y-108378380D01*
X172695595Y-108426000D01*
X172362261Y-108378380D02*
X172124166Y-109378380D01*
X171933690Y-108664095D01*
X171743214Y-109378380D01*
X171505119Y-108378380D01*
X170695595Y-108711714D02*
X170695595Y-109378380D01*
X170933690Y-108330761D02*
X171171785Y-109045047D01*
X170552738Y-109045047D01*
X169647976Y-109378380D02*
X170219404Y-109378380D01*
X169933690Y-109378380D02*
X169933690Y-108378380D01*
X170028928Y-108521238D01*
X170124166Y-108616476D01*
X170219404Y-108664095D01*
%TO.C,D8*%
X353339880Y-171609404D02*
X352339880Y-171609404D01*
X352339880Y-171847500D01*
X352387500Y-171990357D01*
X352482738Y-172085595D01*
X352577976Y-172133214D01*
X352768452Y-172180833D01*
X352911309Y-172180833D01*
X353101785Y-172133214D01*
X353197023Y-172085595D01*
X353292261Y-171990357D01*
X353339880Y-171847500D01*
X353339880Y-171609404D01*
X352768452Y-172752261D02*
X352720833Y-172657023D01*
X352673214Y-172609404D01*
X352577976Y-172561785D01*
X352530357Y-172561785D01*
X352435119Y-172609404D01*
X352387500Y-172657023D01*
X352339880Y-172752261D01*
X352339880Y-172942738D01*
X352387500Y-173037976D01*
X352435119Y-173085595D01*
X352530357Y-173133214D01*
X352577976Y-173133214D01*
X352673214Y-173085595D01*
X352720833Y-173037976D01*
X352768452Y-172942738D01*
X352768452Y-172752261D01*
X352816071Y-172657023D01*
X352863690Y-172609404D01*
X352958928Y-172561785D01*
X353149404Y-172561785D01*
X353244642Y-172609404D01*
X353292261Y-172657023D01*
X353339880Y-172752261D01*
X353339880Y-172942738D01*
X353292261Y-173037976D01*
X353244642Y-173085595D01*
X353149404Y-173133214D01*
X352958928Y-173133214D01*
X352863690Y-173085595D01*
X352816071Y-173037976D01*
X352768452Y-172942738D01*
%TO.C,SW48*%
X154169523Y-166390761D02*
X154026666Y-166438380D01*
X153788571Y-166438380D01*
X153693333Y-166390761D01*
X153645714Y-166343142D01*
X153598095Y-166247904D01*
X153598095Y-166152666D01*
X153645714Y-166057428D01*
X153693333Y-166009809D01*
X153788571Y-165962190D01*
X153979047Y-165914571D01*
X154074285Y-165866952D01*
X154121904Y-165819333D01*
X154169523Y-165724095D01*
X154169523Y-165628857D01*
X154121904Y-165533619D01*
X154074285Y-165486000D01*
X153979047Y-165438380D01*
X153740952Y-165438380D01*
X153598095Y-165486000D01*
X153264761Y-165438380D02*
X153026666Y-166438380D01*
X152836190Y-165724095D01*
X152645714Y-166438380D01*
X152407619Y-165438380D01*
X151598095Y-165771714D02*
X151598095Y-166438380D01*
X151836190Y-165390761D02*
X152074285Y-166105047D01*
X151455238Y-166105047D01*
X150931428Y-165866952D02*
X151026666Y-165819333D01*
X151074285Y-165771714D01*
X151121904Y-165676476D01*
X151121904Y-165628857D01*
X151074285Y-165533619D01*
X151026666Y-165486000D01*
X150931428Y-165438380D01*
X150740952Y-165438380D01*
X150645714Y-165486000D01*
X150598095Y-165533619D01*
X150550476Y-165628857D01*
X150550476Y-165676476D01*
X150598095Y-165771714D01*
X150645714Y-165819333D01*
X150740952Y-165866952D01*
X150931428Y-165866952D01*
X151026666Y-165914571D01*
X151074285Y-165962190D01*
X151121904Y-166057428D01*
X151121904Y-166247904D01*
X151074285Y-166343142D01*
X151026666Y-166390761D01*
X150931428Y-166438380D01*
X150740952Y-166438380D01*
X150645714Y-166390761D01*
X150598095Y-166343142D01*
X150550476Y-166247904D01*
X150550476Y-166057428D01*
X150598095Y-165962190D01*
X150645714Y-165914571D01*
X150740952Y-165866952D01*
%TO.C,SW25*%
X249419523Y-109330761D02*
X249276666Y-109378380D01*
X249038571Y-109378380D01*
X248943333Y-109330761D01*
X248895714Y-109283142D01*
X248848095Y-109187904D01*
X248848095Y-109092666D01*
X248895714Y-108997428D01*
X248943333Y-108949809D01*
X249038571Y-108902190D01*
X249229047Y-108854571D01*
X249324285Y-108806952D01*
X249371904Y-108759333D01*
X249419523Y-108664095D01*
X249419523Y-108568857D01*
X249371904Y-108473619D01*
X249324285Y-108426000D01*
X249229047Y-108378380D01*
X248990952Y-108378380D01*
X248848095Y-108426000D01*
X248514761Y-108378380D02*
X248276666Y-109378380D01*
X248086190Y-108664095D01*
X247895714Y-109378380D01*
X247657619Y-108378380D01*
X247324285Y-108473619D02*
X247276666Y-108426000D01*
X247181428Y-108378380D01*
X246943333Y-108378380D01*
X246848095Y-108426000D01*
X246800476Y-108473619D01*
X246752857Y-108568857D01*
X246752857Y-108664095D01*
X246800476Y-108806952D01*
X247371904Y-109378380D01*
X246752857Y-109378380D01*
X245848095Y-108378380D02*
X246324285Y-108378380D01*
X246371904Y-108854571D01*
X246324285Y-108806952D01*
X246229047Y-108759333D01*
X245990952Y-108759333D01*
X245895714Y-108806952D01*
X245848095Y-108854571D01*
X245800476Y-108949809D01*
X245800476Y-109187904D01*
X245848095Y-109283142D01*
X245895714Y-109330761D01*
X245990952Y-109378380D01*
X246229047Y-109378380D01*
X246324285Y-109330761D01*
X246371904Y-109283142D01*
%TO.C,D63*%
X70132380Y-152093214D02*
X69132380Y-152093214D01*
X69132380Y-152331309D01*
X69180000Y-152474166D01*
X69275238Y-152569404D01*
X69370476Y-152617023D01*
X69560952Y-152664642D01*
X69703809Y-152664642D01*
X69894285Y-152617023D01*
X69989523Y-152569404D01*
X70084761Y-152474166D01*
X70132380Y-152331309D01*
X70132380Y-152093214D01*
X69132380Y-153521785D02*
X69132380Y-153331309D01*
X69180000Y-153236071D01*
X69227619Y-153188452D01*
X69370476Y-153093214D01*
X69560952Y-153045595D01*
X69941904Y-153045595D01*
X70037142Y-153093214D01*
X70084761Y-153140833D01*
X70132380Y-153236071D01*
X70132380Y-153426547D01*
X70084761Y-153521785D01*
X70037142Y-153569404D01*
X69941904Y-153617023D01*
X69703809Y-153617023D01*
X69608571Y-153569404D01*
X69560952Y-153521785D01*
X69513333Y-153426547D01*
X69513333Y-153236071D01*
X69560952Y-153140833D01*
X69608571Y-153093214D01*
X69703809Y-153045595D01*
X69132380Y-153950357D02*
X69132380Y-154569404D01*
X69513333Y-154236071D01*
X69513333Y-154378928D01*
X69560952Y-154474166D01*
X69608571Y-154521785D01*
X69703809Y-154569404D01*
X69941904Y-154569404D01*
X70037142Y-154521785D01*
X70084761Y-154474166D01*
X70132380Y-154378928D01*
X70132380Y-154093214D01*
X70084761Y-153997976D01*
X70037142Y-153950357D01*
%TO.C,SW9*%
X325000833Y-109330761D02*
X324857976Y-109378380D01*
X324619880Y-109378380D01*
X324524642Y-109330761D01*
X324477023Y-109283142D01*
X324429404Y-109187904D01*
X324429404Y-109092666D01*
X324477023Y-108997428D01*
X324524642Y-108949809D01*
X324619880Y-108902190D01*
X324810357Y-108854571D01*
X324905595Y-108806952D01*
X324953214Y-108759333D01*
X325000833Y-108664095D01*
X325000833Y-108568857D01*
X324953214Y-108473619D01*
X324905595Y-108426000D01*
X324810357Y-108378380D01*
X324572261Y-108378380D01*
X324429404Y-108426000D01*
X324096071Y-108378380D02*
X323857976Y-109378380D01*
X323667500Y-108664095D01*
X323477023Y-109378380D01*
X323238928Y-108378380D01*
X322810357Y-109378380D02*
X322619880Y-109378380D01*
X322524642Y-109330761D01*
X322477023Y-109283142D01*
X322381785Y-109140285D01*
X322334166Y-108949809D01*
X322334166Y-108568857D01*
X322381785Y-108473619D01*
X322429404Y-108426000D01*
X322524642Y-108378380D01*
X322715119Y-108378380D01*
X322810357Y-108426000D01*
X322857976Y-108473619D01*
X322905595Y-108568857D01*
X322905595Y-108806952D01*
X322857976Y-108902190D01*
X322810357Y-108949809D01*
X322715119Y-108997428D01*
X322524642Y-108997428D01*
X322429404Y-108949809D01*
X322381785Y-108902190D01*
X322334166Y-108806952D01*
%TO.C,D31*%
X239199880Y-152093214D02*
X238199880Y-152093214D01*
X238199880Y-152331309D01*
X238247500Y-152474166D01*
X238342738Y-152569404D01*
X238437976Y-152617023D01*
X238628452Y-152664642D01*
X238771309Y-152664642D01*
X238961785Y-152617023D01*
X239057023Y-152569404D01*
X239152261Y-152474166D01*
X239199880Y-152331309D01*
X239199880Y-152093214D01*
X238199880Y-152997976D02*
X238199880Y-153617023D01*
X238580833Y-153283690D01*
X238580833Y-153426547D01*
X238628452Y-153521785D01*
X238676071Y-153569404D01*
X238771309Y-153617023D01*
X239009404Y-153617023D01*
X239104642Y-153569404D01*
X239152261Y-153521785D01*
X239199880Y-153426547D01*
X239199880Y-153140833D01*
X239152261Y-153045595D01*
X239104642Y-152997976D01*
X239199880Y-154569404D02*
X239199880Y-153997976D01*
X239199880Y-154283690D02*
X238199880Y-154283690D01*
X238342738Y-154188452D01*
X238437976Y-154093214D01*
X238485595Y-153997976D01*
%TO.C,D40*%
X184882380Y-171095714D02*
X183882380Y-171095714D01*
X183882380Y-171333809D01*
X183930000Y-171476666D01*
X184025238Y-171571904D01*
X184120476Y-171619523D01*
X184310952Y-171667142D01*
X184453809Y-171667142D01*
X184644285Y-171619523D01*
X184739523Y-171571904D01*
X184834761Y-171476666D01*
X184882380Y-171333809D01*
X184882380Y-171095714D01*
X184215714Y-172524285D02*
X184882380Y-172524285D01*
X183834761Y-172286190D02*
X184549047Y-172048095D01*
X184549047Y-172667142D01*
X183882380Y-173238571D02*
X183882380Y-173333809D01*
X183930000Y-173429047D01*
X183977619Y-173476666D01*
X184072857Y-173524285D01*
X184263333Y-173571904D01*
X184501428Y-173571904D01*
X184691904Y-173524285D01*
X184787142Y-173476666D01*
X184834761Y-173429047D01*
X184882380Y-173333809D01*
X184882380Y-173238571D01*
X184834761Y-173143333D01*
X184787142Y-173095714D01*
X184691904Y-173048095D01*
X184501428Y-173000476D01*
X184263333Y-173000476D01*
X184072857Y-173048095D01*
X183977619Y-173095714D01*
X183930000Y-173143333D01*
X183882380Y-173238571D01*
D11*
%TO.C,SW22*%
X259675000Y-128865000D02*
X259675000Y-142835000D01*
X259675000Y-142835000D02*
X273645000Y-142835000D01*
X273645000Y-142835000D02*
X273645000Y-128865000D01*
X273645000Y-128865000D02*
X259675000Y-128865000D01*
%TO.C,J1*%
X226299926Y-110213486D02*
G75*
G03*
X226299926Y-110213486I-381000J0D01*
G01*
%TO.C,D55*%
X107005000Y-155157500D02*
X105085000Y-155157500D01*
X105085000Y-155157500D02*
X105085000Y-152297500D01*
X107005000Y-152297500D02*
X107005000Y-155157500D01*
%TO.C,D17*%
X295105000Y-114297500D02*
X295105000Y-117157500D01*
X295105000Y-117157500D02*
X293185000Y-117157500D01*
X293185000Y-117157500D02*
X293185000Y-114297500D01*
%TO.C,SW29*%
X235592500Y-109815000D02*
X221622500Y-109815000D01*
X221622500Y-123785000D02*
X235592500Y-123785000D01*
X235592500Y-123785000D02*
X235592500Y-109815000D01*
X221622500Y-109815000D02*
X221622500Y-123785000D01*
%TO.C,SW7*%
X349702500Y-147825000D02*
X335732500Y-147825000D01*
X335732500Y-147825000D02*
X335732500Y-161795000D01*
X349702500Y-161795000D02*
X349702500Y-147825000D01*
X335732500Y-161795000D02*
X349702500Y-161795000D01*
%TO.C,D33*%
X202450000Y-114257500D02*
X202450000Y-117117500D01*
X200530000Y-117117500D02*
X200530000Y-114257500D01*
X202450000Y-117117500D02*
X200530000Y-117117500D01*
%TO.C,D12*%
X331227500Y-174207500D02*
X331227500Y-171347500D01*
X333147500Y-171347500D02*
X333147500Y-174207500D01*
X333147500Y-174207500D02*
X331227500Y-174207500D01*
%TO.C,SW34*%
X216542500Y-142835000D02*
X216542500Y-128865000D01*
X202572500Y-142835000D02*
X216542500Y-142835000D01*
X216542500Y-128865000D02*
X202572500Y-128865000D01*
X202572500Y-128865000D02*
X202572500Y-142835000D01*
%TO.C,SW46*%
X159345000Y-142835000D02*
X159345000Y-128865000D01*
X145375000Y-142835000D02*
X159345000Y-142835000D01*
X159345000Y-128865000D02*
X145375000Y-128865000D01*
X145375000Y-128865000D02*
X145375000Y-142835000D01*
%TO.C,SW45*%
X145375000Y-109815000D02*
X145375000Y-123785000D01*
X145375000Y-123785000D02*
X159345000Y-123785000D01*
X159345000Y-123785000D02*
X159345000Y-109815000D01*
X159345000Y-109815000D02*
X145375000Y-109815000D01*
%TO.C,D2*%
X371180000Y-133320000D02*
X371180000Y-136180000D01*
X371180000Y-136180000D02*
X369260000Y-136180000D01*
X369260000Y-136180000D02*
X369260000Y-133320000D01*
%TO.C,D26*%
X257170000Y-136422500D02*
X255250000Y-136422500D01*
X255250000Y-136422500D02*
X255250000Y-133562500D01*
X257170000Y-133562500D02*
X257170000Y-136422500D01*
%TO.C,SW30*%
X221622500Y-128865000D02*
X221622500Y-142835000D01*
X235592500Y-142835000D02*
X235592500Y-128865000D01*
X221622500Y-142835000D02*
X235592500Y-142835000D01*
X235592500Y-128865000D02*
X221622500Y-128865000D01*
%TO.C,D48*%
X145540000Y-174197500D02*
X143620000Y-174197500D01*
X143620000Y-174197500D02*
X143620000Y-171337500D01*
X145540000Y-171337500D02*
X145540000Y-174197500D01*
%TO.C,D21*%
X276102500Y-114297500D02*
X276102500Y-117157500D01*
X274182500Y-117157500D02*
X274182500Y-114297500D01*
X276102500Y-117157500D02*
X274182500Y-117157500D01*
%TO.C,D36*%
X202607500Y-171347500D02*
X202607500Y-174207500D01*
X200687500Y-174207500D02*
X200687500Y-171347500D01*
X202607500Y-174207500D02*
X200687500Y-174207500D01*
%TO.C,SW31*%
X221622500Y-147825000D02*
X221622500Y-161795000D01*
X235592500Y-161795000D02*
X235592500Y-147825000D01*
X221622500Y-161795000D02*
X235592500Y-161795000D01*
X235592500Y-147825000D02*
X221622500Y-147825000D01*
%TO.C,D46*%
X145400000Y-136192500D02*
X143480000Y-136192500D01*
X145400000Y-133332500D02*
X145400000Y-136192500D01*
X143480000Y-136192500D02*
X143480000Y-133332500D01*
%TO.C,D34*%
X202570000Y-133330000D02*
X202570000Y-136190000D01*
X202570000Y-136190000D02*
X200650000Y-136190000D01*
X200650000Y-136190000D02*
X200650000Y-133330000D01*
%TO.C,D13*%
X314107500Y-114297500D02*
X314107500Y-117157500D01*
X312187500Y-117157500D02*
X312187500Y-114297500D01*
X314107500Y-117157500D02*
X312187500Y-117157500D01*
%TO.C,D64*%
X66940000Y-174187500D02*
X66940000Y-171327500D01*
X68860000Y-171327500D02*
X68860000Y-174187500D01*
X68860000Y-174187500D02*
X66940000Y-174187500D01*
%TO.C,D5*%
X352160000Y-117157500D02*
X350240000Y-117157500D01*
X350240000Y-117157500D02*
X350240000Y-114297500D01*
X352160000Y-114297500D02*
X352160000Y-117157500D01*
%TO.C,SW10*%
X330652500Y-128865000D02*
X316682500Y-128865000D01*
X316682500Y-142835000D02*
X330652500Y-142835000D01*
X316682500Y-128865000D02*
X316682500Y-142835000D01*
X330652500Y-142835000D02*
X330652500Y-128865000D01*
%TO.C,SW55*%
X121150000Y-161795000D02*
X121150000Y-147825000D01*
X121150000Y-147825000D02*
X107180000Y-147825000D01*
X107180000Y-161795000D02*
X121150000Y-161795000D01*
X107180000Y-147825000D02*
X107180000Y-161795000D01*
%TO.C,D56*%
X105105000Y-174237500D02*
X105105000Y-171377500D01*
X107025000Y-171377500D02*
X107025000Y-174237500D01*
X107025000Y-174237500D02*
X105105000Y-174237500D01*
%TO.C,D29*%
X238050000Y-114297500D02*
X238050000Y-117157500D01*
X236130000Y-117157500D02*
X236130000Y-114297500D01*
X238050000Y-117157500D02*
X236130000Y-117157500D01*
%TO.C,D60*%
X88037500Y-171357500D02*
X88037500Y-174217500D01*
X86117500Y-174217500D02*
X86117500Y-171357500D01*
X88037500Y-174217500D02*
X86117500Y-174217500D01*
%TO.C,D58*%
X88007500Y-136140000D02*
X86087500Y-136140000D01*
X88007500Y-133280000D02*
X88007500Y-136140000D01*
X86087500Y-136140000D02*
X86087500Y-133280000D01*
%TO.C,SW27*%
X254595000Y-147825000D02*
X240625000Y-147825000D01*
X254595000Y-161795000D02*
X254595000Y-147825000D01*
X240625000Y-147825000D02*
X240625000Y-161795000D01*
X240625000Y-161795000D02*
X254595000Y-161795000D01*
%TO.C,SW43*%
X178442500Y-161795000D02*
X178442500Y-147825000D01*
X164472500Y-161795000D02*
X178442500Y-161795000D01*
X164472500Y-147825000D02*
X164472500Y-161795000D01*
X178442500Y-147825000D02*
X164472500Y-147825000D01*
%TO.C,SW5*%
X349702500Y-123785000D02*
X349702500Y-109815000D01*
X349702500Y-109815000D02*
X335732500Y-109815000D01*
X335732500Y-123785000D02*
X349702500Y-123785000D01*
X335732500Y-109815000D02*
X335732500Y-123785000D01*
%TO.C,D38*%
X183655000Y-133322500D02*
X183655000Y-136182500D01*
X181735000Y-136182500D02*
X181735000Y-133322500D01*
X183655000Y-136182500D02*
X181735000Y-136182500D01*
%TO.C,SW56*%
X107180000Y-166875000D02*
X107180000Y-180845000D01*
X121150000Y-166875000D02*
X107180000Y-166875000D01*
X121150000Y-180845000D02*
X121150000Y-166875000D01*
X107180000Y-180845000D02*
X121150000Y-180845000D01*
%TO.C,SW63*%
X82955000Y-147825000D02*
X68985000Y-147825000D01*
X68985000Y-161795000D02*
X82955000Y-161795000D01*
X82955000Y-161795000D02*
X82955000Y-147825000D01*
X68985000Y-147825000D02*
X68985000Y-161795000D01*
%TO.C,D30*%
X238167500Y-133562500D02*
X238167500Y-136422500D01*
X236247500Y-136422500D02*
X236247500Y-133562500D01*
X238167500Y-136422500D02*
X236247500Y-136422500D01*
%TO.C,SW59*%
X102052500Y-161795000D02*
X102052500Y-147825000D01*
X102052500Y-147825000D02*
X88082500Y-147825000D01*
X88082500Y-161795000D02*
X102052500Y-161795000D01*
X88082500Y-147825000D02*
X88082500Y-161795000D01*
%TO.C,D20*%
X293222500Y-174207500D02*
X293222500Y-171347500D01*
X295142500Y-174207500D02*
X293222500Y-174207500D01*
X295142500Y-171347500D02*
X295142500Y-174207500D01*
%TO.C,SW60*%
X102095000Y-180825000D02*
X102095000Y-166855000D01*
X102095000Y-166855000D02*
X88125000Y-166855000D01*
X88125000Y-180825000D02*
X102095000Y-180825000D01*
X88125000Y-166855000D02*
X88125000Y-180825000D01*
%TO.C,D42*%
X164470000Y-136212500D02*
X162550000Y-136212500D01*
X164470000Y-133352500D02*
X164470000Y-136212500D01*
X162550000Y-136212500D02*
X162550000Y-133352500D01*
%TO.C,SW52*%
X140247500Y-166875000D02*
X126277500Y-166875000D01*
X126277500Y-180845000D02*
X140247500Y-180845000D01*
X140247500Y-180845000D02*
X140247500Y-166875000D01*
X126277500Y-166875000D02*
X126277500Y-180845000D01*
%TO.C,D22*%
X276220000Y-136422500D02*
X274300000Y-136422500D01*
X274300000Y-136422500D02*
X274300000Y-133562500D01*
X276220000Y-133562500D02*
X276220000Y-136422500D01*
%TO.C,D19*%
X293192500Y-155167500D02*
X293192500Y-152307500D01*
X295112500Y-152307500D02*
X295112500Y-155167500D01*
X295112500Y-155167500D02*
X293192500Y-155167500D01*
%TO.C,D32*%
X238087500Y-174207500D02*
X236167500Y-174207500D01*
X236167500Y-174207500D02*
X236167500Y-171347500D01*
X238087500Y-171347500D02*
X238087500Y-174207500D01*
%TO.C,D3*%
X371170000Y-152307500D02*
X371170000Y-155167500D01*
X371170000Y-155167500D02*
X369250000Y-155167500D01*
X369250000Y-155167500D02*
X369250000Y-152307500D01*
%TO.C,SW37*%
X197540000Y-109815000D02*
X183570000Y-109815000D01*
X197540000Y-123785000D02*
X197540000Y-109815000D01*
X183570000Y-109815000D02*
X183570000Y-123785000D01*
X183570000Y-123785000D02*
X197540000Y-123785000D01*
%TO.C,SW18*%
X278677500Y-142835000D02*
X292647500Y-142835000D01*
X278677500Y-128865000D02*
X278677500Y-142835000D01*
X292647500Y-142835000D02*
X292647500Y-128865000D01*
X292647500Y-128865000D02*
X278677500Y-128865000D01*
%TO.C,D45*%
X145322500Y-114287500D02*
X145322500Y-117147500D01*
X145322500Y-117147500D02*
X143402500Y-117147500D01*
X143402500Y-117147500D02*
X143402500Y-114287500D01*
%TO.C,SW3*%
X354735000Y-161795000D02*
X368705000Y-161795000D01*
X368705000Y-147825000D02*
X354735000Y-147825000D01*
X354735000Y-147825000D02*
X354735000Y-161795000D01*
X368705000Y-161795000D02*
X368705000Y-147825000D01*
%TO.C,D50*%
X126372500Y-133320000D02*
X126372500Y-136180000D01*
X126372500Y-136180000D02*
X124452500Y-136180000D01*
X124452500Y-136180000D02*
X124452500Y-133320000D01*
%TO.C,D10*%
X331307500Y-136422500D02*
X331307500Y-133562500D01*
X333227500Y-136422500D02*
X331307500Y-136422500D01*
X333227500Y-133562500D02*
X333227500Y-136422500D01*
%TO.C,SW64*%
X82955000Y-180845000D02*
X82955000Y-166875000D01*
X68985000Y-166875000D02*
X68985000Y-180845000D01*
X68985000Y-180845000D02*
X82955000Y-180845000D01*
X82955000Y-166875000D02*
X68985000Y-166875000D01*
%TO.C,SW8*%
X349702500Y-180845000D02*
X349702500Y-166875000D01*
X349702500Y-166875000D02*
X335732500Y-166875000D01*
X335732500Y-166875000D02*
X335732500Y-180845000D01*
X335732500Y-180845000D02*
X349702500Y-180845000D01*
%TO.C,D61*%
X68940000Y-114277500D02*
X68940000Y-117137500D01*
X68940000Y-117137500D02*
X67020000Y-117137500D01*
X67020000Y-117137500D02*
X67020000Y-114277500D01*
%TO.C,D37*%
X183467500Y-117137500D02*
X181547500Y-117137500D01*
X181547500Y-117137500D02*
X181547500Y-114277500D01*
X183467500Y-114277500D02*
X183467500Y-117137500D01*
%TO.C,SW58*%
X88082500Y-142835000D02*
X102052500Y-142835000D01*
X102052500Y-142835000D02*
X102052500Y-128865000D01*
X88082500Y-128865000D02*
X88082500Y-142835000D01*
X102052500Y-128865000D02*
X88082500Y-128865000D01*
%TO.C,D62*%
X68930000Y-136247500D02*
X67010000Y-136247500D01*
X67010000Y-136247500D02*
X67010000Y-133387500D01*
X68930000Y-133387500D02*
X68930000Y-136247500D01*
%TO.C,D6*%
X350357500Y-136422500D02*
X350357500Y-133562500D01*
X352277500Y-136422500D02*
X350357500Y-136422500D01*
X352277500Y-133562500D02*
X352277500Y-136422500D01*
%TO.C,D27*%
X257060000Y-155167500D02*
X255140000Y-155167500D01*
X257060000Y-152307500D02*
X257060000Y-155167500D01*
X255140000Y-155167500D02*
X255140000Y-152307500D01*
%TO.C,SW44*%
X164472500Y-166875000D02*
X164472500Y-180845000D01*
X178442500Y-166875000D02*
X164472500Y-166875000D01*
X178442500Y-180845000D02*
X178442500Y-166875000D01*
X164472500Y-180845000D02*
X178442500Y-180845000D01*
%TO.C,D54*%
X107055000Y-133340000D02*
X107055000Y-136200000D01*
X107055000Y-136200000D02*
X105135000Y-136200000D01*
X105135000Y-136200000D02*
X105135000Y-133340000D01*
%TO.C,SW42*%
X164472500Y-142835000D02*
X178442500Y-142835000D01*
X178442500Y-142835000D02*
X178442500Y-128865000D01*
X178442500Y-128865000D02*
X164472500Y-128865000D01*
X164472500Y-128865000D02*
X164472500Y-142835000D01*
%TO.C,SW2*%
X354735000Y-128865000D02*
X354735000Y-142835000D01*
X368705000Y-128865000D02*
X354735000Y-128865000D01*
X368705000Y-142835000D02*
X368705000Y-128865000D01*
X354735000Y-142835000D02*
X368705000Y-142835000D01*
%TO.C,D11*%
X331197500Y-155167500D02*
X331197500Y-152307500D01*
X333117500Y-155167500D02*
X331197500Y-155167500D01*
X333117500Y-152307500D02*
X333117500Y-155167500D01*
%TO.C,D43*%
X164467500Y-155187500D02*
X162547500Y-155187500D01*
X162547500Y-155187500D02*
X162547500Y-152327500D01*
X164467500Y-152327500D02*
X164467500Y-155187500D01*
%TO.C,SW26*%
X240625000Y-142835000D02*
X254595000Y-142835000D01*
X240625000Y-128865000D02*
X240625000Y-142835000D01*
X254595000Y-128865000D02*
X240625000Y-128865000D01*
X254595000Y-142835000D02*
X254595000Y-128865000D01*
%TO.C,D28*%
X255170000Y-174207500D02*
X255170000Y-171347500D01*
X257090000Y-171347500D02*
X257090000Y-174207500D01*
X257090000Y-174207500D02*
X255170000Y-174207500D01*
%TO.C,SW33*%
X202572500Y-109815000D02*
X202572500Y-123785000D01*
X216542500Y-123785000D02*
X216542500Y-109815000D01*
X202572500Y-123785000D02*
X216542500Y-123785000D01*
X216542500Y-109815000D02*
X202572500Y-109815000D01*
%TO.C,D41*%
X162520000Y-117187500D02*
X162520000Y-114327500D01*
X164440000Y-114327500D02*
X164440000Y-117187500D01*
X164440000Y-117187500D02*
X162520000Y-117187500D01*
%TO.C,D44*%
X162497500Y-174177500D02*
X162497500Y-171317500D01*
X164417500Y-171317500D02*
X164417500Y-174177500D01*
X164417500Y-174177500D02*
X162497500Y-174177500D01*
%TO.C,SW54*%
X121150000Y-128865000D02*
X107180000Y-128865000D01*
X107180000Y-128865000D02*
X107180000Y-142835000D01*
X121150000Y-142835000D02*
X121150000Y-128865000D01*
X107180000Y-142835000D02*
X121150000Y-142835000D01*
%TO.C,SW19*%
X292647500Y-161795000D02*
X292647500Y-147825000D01*
X278677500Y-161795000D02*
X292647500Y-161795000D01*
X278677500Y-147825000D02*
X278677500Y-161795000D01*
X292647500Y-147825000D02*
X278677500Y-147825000D01*
%TO.C,SW13*%
X297680000Y-123785000D02*
X311650000Y-123785000D01*
X311650000Y-123785000D02*
X311650000Y-109815000D01*
X311650000Y-109815000D02*
X297680000Y-109815000D01*
X297680000Y-109815000D02*
X297680000Y-123785000D01*
%TO.C,D57*%
X88030000Y-114337500D02*
X88030000Y-117197500D01*
X86110000Y-117197500D02*
X86110000Y-114337500D01*
X88030000Y-117197500D02*
X86110000Y-117197500D01*
%TO.C,SW50*%
X140247500Y-128865000D02*
X126277500Y-128865000D01*
X126277500Y-128865000D02*
X126277500Y-142835000D01*
X140247500Y-142835000D02*
X140247500Y-128865000D01*
X126277500Y-142835000D02*
X140247500Y-142835000D01*
%TO.C,D59*%
X88007500Y-155137500D02*
X86087500Y-155137500D01*
X88007500Y-152277500D02*
X88007500Y-155137500D01*
X86087500Y-155137500D02*
X86087500Y-152277500D01*
%TO.C,SW32*%
X235592500Y-180845000D02*
X235592500Y-166875000D01*
X221622500Y-180845000D02*
X235592500Y-180845000D01*
X235592500Y-166875000D02*
X221622500Y-166875000D01*
X221622500Y-166875000D02*
X221622500Y-180845000D01*
%TO.C,SW49*%
X126277500Y-109815000D02*
X126277500Y-123785000D01*
X140247500Y-109815000D02*
X126277500Y-109815000D01*
X140247500Y-123785000D02*
X140247500Y-109815000D01*
X126277500Y-123785000D02*
X140247500Y-123785000D01*
%TO.C,D35*%
X202617500Y-155257500D02*
X200697500Y-155257500D01*
X200697500Y-155257500D02*
X200697500Y-152397500D01*
X202617500Y-152397500D02*
X202617500Y-155257500D01*
%TO.C,D24*%
X276140000Y-174207500D02*
X274220000Y-174207500D01*
X276140000Y-171347500D02*
X276140000Y-174207500D01*
X274220000Y-174207500D02*
X274220000Y-171347500D01*
%TO.C,D47*%
X145320000Y-155197500D02*
X143400000Y-155197500D01*
X145320000Y-152337500D02*
X145320000Y-155197500D01*
X143400000Y-155197500D02*
X143400000Y-152337500D01*
%TO.C,D16*%
X314145000Y-171347500D02*
X314145000Y-174207500D01*
X314145000Y-174207500D02*
X312225000Y-174207500D01*
X312225000Y-174207500D02*
X312225000Y-171347500D01*
%TO.C,SW14*%
X297680000Y-142835000D02*
X311650000Y-142835000D01*
X297680000Y-128865000D02*
X297680000Y-142835000D01*
X311650000Y-128865000D02*
X297680000Y-128865000D01*
X311650000Y-142835000D02*
X311650000Y-128865000D01*
%TO.C,SW23*%
X259675000Y-161795000D02*
X273645000Y-161795000D01*
X273645000Y-147825000D02*
X259675000Y-147825000D01*
X273645000Y-161795000D02*
X273645000Y-147825000D01*
X259675000Y-147825000D02*
X259675000Y-161795000D01*
%TO.C,SW15*%
X311650000Y-161795000D02*
X311650000Y-147825000D01*
X311650000Y-147825000D02*
X297680000Y-147825000D01*
X297680000Y-147825000D02*
X297680000Y-161795000D01*
X297680000Y-161795000D02*
X311650000Y-161795000D01*
%TO.C,SW61*%
X68985000Y-123785000D02*
X82955000Y-123785000D01*
X82955000Y-109815000D02*
X68985000Y-109815000D01*
X82955000Y-123785000D02*
X82955000Y-109815000D01*
X68985000Y-109815000D02*
X68985000Y-123785000D01*
%TO.C,D14*%
X314225000Y-133562500D02*
X314225000Y-136422500D01*
X314225000Y-136422500D02*
X312305000Y-136422500D01*
X312305000Y-136422500D02*
X312305000Y-133562500D01*
%TO.C,D1*%
X369242500Y-117157500D02*
X369242500Y-114297500D01*
X371162500Y-117157500D02*
X369242500Y-117157500D01*
X371162500Y-114297500D02*
X371162500Y-117157500D01*
%TO.C,SW62*%
X82955000Y-142835000D02*
X82955000Y-128865000D01*
X68985000Y-142835000D02*
X82955000Y-142835000D01*
X68985000Y-128865000D02*
X68985000Y-142835000D01*
X82955000Y-128865000D02*
X68985000Y-128865000D01*
%TO.C,D53*%
X105137500Y-117157500D02*
X105137500Y-114297500D01*
X107057500Y-117157500D02*
X105137500Y-117157500D01*
X107057500Y-114297500D02*
X107057500Y-117157500D01*
%TO.C,D15*%
X314115000Y-155167500D02*
X312195000Y-155167500D01*
X312195000Y-155167500D02*
X312195000Y-152307500D01*
X314115000Y-152307500D02*
X314115000Y-155167500D01*
%TO.C,SW57*%
X88082500Y-109815000D02*
X88082500Y-123785000D01*
X88082500Y-123785000D02*
X102052500Y-123785000D01*
X102052500Y-109815000D02*
X88082500Y-109815000D01*
X102052500Y-123785000D02*
X102052500Y-109815000D01*
%TO.C,D25*%
X257052500Y-114297500D02*
X257052500Y-117157500D01*
X255132500Y-117157500D02*
X255132500Y-114297500D01*
X257052500Y-117157500D02*
X255132500Y-117157500D01*
%TO.C,D4*%
X371200000Y-174207500D02*
X369280000Y-174207500D01*
X369280000Y-174207500D02*
X369280000Y-171347500D01*
X371200000Y-171347500D02*
X371200000Y-174207500D01*
%TO.C,SW28*%
X254595000Y-166875000D02*
X240625000Y-166875000D01*
X240625000Y-166875000D02*
X240625000Y-180845000D01*
X254595000Y-180845000D02*
X254595000Y-166875000D01*
X240625000Y-180845000D02*
X254595000Y-180845000D01*
%TO.C,SW36*%
X202572500Y-166875000D02*
X202572500Y-180845000D01*
X216542500Y-180845000D02*
X216542500Y-166875000D01*
X202572500Y-180845000D02*
X216542500Y-180845000D01*
X216542500Y-166875000D02*
X202572500Y-166875000D01*
%TO.C,SW51*%
X140247500Y-161795000D02*
X140247500Y-147825000D01*
X140247500Y-147825000D02*
X126277500Y-147825000D01*
X126277500Y-161795000D02*
X140247500Y-161795000D01*
X126277500Y-147825000D02*
X126277500Y-161795000D01*
%TO.C,SW12*%
X330652500Y-166875000D02*
X316682500Y-166875000D01*
X330652500Y-180845000D02*
X330652500Y-166875000D01*
X316682500Y-180845000D02*
X330652500Y-180845000D01*
X316682500Y-166875000D02*
X316682500Y-180845000D01*
%TO.C,D23*%
X274190000Y-154922500D02*
X274190000Y-152062500D01*
X276110000Y-154922500D02*
X274190000Y-154922500D01*
X276110000Y-152062500D02*
X276110000Y-154922500D01*
%TO.C,SW38*%
X197540000Y-128865000D02*
X183570000Y-128865000D01*
X183570000Y-128865000D02*
X183570000Y-142835000D01*
X183570000Y-142835000D02*
X197540000Y-142835000D01*
X197540000Y-142835000D02*
X197540000Y-128865000D01*
%TO.C,D9*%
X333110000Y-114297500D02*
X333110000Y-117157500D01*
X333110000Y-117157500D02*
X331190000Y-117157500D01*
X331190000Y-117157500D02*
X331190000Y-114297500D01*
%TO.C,SW11*%
X330652500Y-161795000D02*
X330652500Y-147825000D01*
X316682500Y-147825000D02*
X316682500Y-161795000D01*
X316682500Y-161795000D02*
X330652500Y-161795000D01*
X330652500Y-147825000D02*
X316682500Y-147825000D01*
%TO.C,SW21*%
X273645000Y-109815000D02*
X259675000Y-109815000D01*
X273645000Y-123785000D02*
X273645000Y-109815000D01*
X259675000Y-109815000D02*
X259675000Y-123785000D01*
X259675000Y-123785000D02*
X273645000Y-123785000D01*
%TO.C,D7*%
X350247500Y-155167500D02*
X350247500Y-152307500D01*
X352167500Y-155167500D02*
X350247500Y-155167500D01*
X352167500Y-152307500D02*
X352167500Y-155167500D01*
%TO.C,D51*%
X124452500Y-155097500D02*
X124452500Y-152237500D01*
X126372500Y-152237500D02*
X126372500Y-155097500D01*
X126372500Y-155097500D02*
X124452500Y-155097500D01*
%TO.C,SW1*%
X368705000Y-109815000D02*
X354735000Y-109815000D01*
X354735000Y-123785000D02*
X368705000Y-123785000D01*
X354735000Y-109815000D02*
X354735000Y-123785000D01*
X368705000Y-123785000D02*
X368705000Y-109815000D01*
%TO.C,SW39*%
X197540000Y-161795000D02*
X197540000Y-147825000D01*
X183570000Y-147825000D02*
X183570000Y-161795000D01*
X183570000Y-161795000D02*
X197540000Y-161795000D01*
X197540000Y-147825000D02*
X183570000Y-147825000D01*
%TO.C,SW16*%
X297680000Y-180845000D02*
X311650000Y-180845000D01*
X311650000Y-166875000D02*
X297680000Y-166875000D01*
X297680000Y-166875000D02*
X297680000Y-180845000D01*
X311650000Y-180845000D02*
X311650000Y-166875000D01*
%TO.C,SW47*%
X159345000Y-147825000D02*
X145375000Y-147825000D01*
X145375000Y-161795000D02*
X159345000Y-161795000D01*
X159345000Y-161795000D02*
X159345000Y-147825000D01*
X145375000Y-147825000D02*
X145375000Y-161795000D01*
%TO.C,SW35*%
X202605000Y-161835000D02*
X216575000Y-161835000D01*
X216575000Y-161835000D02*
X216575000Y-147865000D01*
X216575000Y-147865000D02*
X202605000Y-147865000D01*
X202605000Y-147865000D02*
X202605000Y-161835000D01*
%TO.C,SW20*%
X278677500Y-180845000D02*
X292647500Y-180845000D01*
X292647500Y-166875000D02*
X278677500Y-166875000D01*
X278677500Y-166875000D02*
X278677500Y-180845000D01*
X292647500Y-180845000D02*
X292647500Y-166875000D01*
%TO.C,SW17*%
X278677500Y-123785000D02*
X292647500Y-123785000D01*
X278677500Y-109815000D02*
X278677500Y-123785000D01*
X292647500Y-109815000D02*
X278677500Y-109815000D01*
X292647500Y-123785000D02*
X292647500Y-109815000D01*
%TO.C,SW53*%
X121150000Y-109815000D02*
X107180000Y-109815000D01*
X107180000Y-123785000D02*
X121150000Y-123785000D01*
X121150000Y-123785000D02*
X121150000Y-109815000D01*
X107180000Y-109815000D02*
X107180000Y-123785000D01*
%TO.C,D18*%
X295222500Y-136422500D02*
X293302500Y-136422500D01*
X293302500Y-136422500D02*
X293302500Y-133562500D01*
X295222500Y-133562500D02*
X295222500Y-136422500D01*
%TO.C,SW24*%
X273645000Y-180845000D02*
X273645000Y-166875000D01*
X273645000Y-166875000D02*
X259675000Y-166875000D01*
X259675000Y-180845000D02*
X273645000Y-180845000D01*
X259675000Y-166875000D02*
X259675000Y-180845000D01*
%TO.C,D49*%
X126235000Y-114247500D02*
X126235000Y-117107500D01*
X124315000Y-117107500D02*
X124315000Y-114247500D01*
X126235000Y-117107500D02*
X124315000Y-117107500D01*
%TO.C,D39*%
X183780000Y-155127500D02*
X181860000Y-155127500D01*
X183780000Y-152267500D02*
X183780000Y-155127500D01*
X181860000Y-155127500D02*
X181860000Y-152267500D01*
%TO.C,SW6*%
X349702500Y-128865000D02*
X335732500Y-128865000D01*
X349702500Y-142835000D02*
X349702500Y-128865000D01*
X335732500Y-142835000D02*
X349702500Y-142835000D01*
X335732500Y-128865000D02*
X335732500Y-142835000D01*
%TO.C,SW4*%
X354735000Y-180845000D02*
X368705000Y-180845000D01*
X368705000Y-180845000D02*
X368705000Y-166875000D01*
X368705000Y-166875000D02*
X354735000Y-166875000D01*
X354735000Y-166875000D02*
X354735000Y-180845000D01*
%TO.C,SW40*%
X197540000Y-180845000D02*
X197540000Y-166875000D01*
X183570000Y-166875000D02*
X183570000Y-180845000D01*
X183570000Y-180845000D02*
X197540000Y-180845000D01*
X197540000Y-166875000D02*
X183570000Y-166875000D01*
%TO.C,D52*%
X126272500Y-174247500D02*
X124352500Y-174247500D01*
X126272500Y-171387500D02*
X126272500Y-174247500D01*
X124352500Y-174247500D02*
X124352500Y-171387500D01*
%TO.C,SW41*%
X164472500Y-109815000D02*
X164472500Y-123785000D01*
X178442500Y-123785000D02*
X178442500Y-109815000D01*
X164472500Y-123785000D02*
X178442500Y-123785000D01*
X178442500Y-109815000D02*
X164472500Y-109815000D01*
%TO.C,D8*%
X350277500Y-174207500D02*
X350277500Y-171347500D01*
X352197500Y-174207500D02*
X350277500Y-174207500D01*
X352197500Y-171347500D02*
X352197500Y-174207500D01*
%TO.C,SW48*%
X145375000Y-166875000D02*
X145375000Y-180845000D01*
X159345000Y-166875000D02*
X145375000Y-166875000D01*
X145375000Y-180845000D02*
X159345000Y-180845000D01*
X159345000Y-180845000D02*
X159345000Y-166875000D01*
%TO.C,SW25*%
X240625000Y-109815000D02*
X240625000Y-123785000D01*
X240625000Y-123785000D02*
X254595000Y-123785000D01*
X254595000Y-109815000D02*
X240625000Y-109815000D01*
X254595000Y-123785000D02*
X254595000Y-109815000D01*
%TO.C,D63*%
X68990000Y-155167500D02*
X67070000Y-155167500D01*
X67070000Y-155167500D02*
X67070000Y-152307500D01*
X68990000Y-152307500D02*
X68990000Y-155167500D01*
%TO.C,SW9*%
X330652500Y-109815000D02*
X316682500Y-109815000D01*
X316682500Y-109815000D02*
X316682500Y-123785000D01*
X316682500Y-123785000D02*
X330652500Y-123785000D01*
X330652500Y-123785000D02*
X330652500Y-109815000D01*
%TO.C,D31*%
X238057500Y-155167500D02*
X236137500Y-155167500D01*
X238057500Y-152307500D02*
X238057500Y-155167500D01*
X236137500Y-155167500D02*
X236137500Y-152307500D01*
%TO.C,D40*%
X181820000Y-174170000D02*
X181820000Y-171310000D01*
X183740000Y-174170000D02*
X181820000Y-174170000D01*
X183740000Y-171310000D02*
X183740000Y-174170000D01*
%TD*%
M02*
