M48
; DRILL file {KiCad 6.0.7-f9a2dced07~116~ubuntu20.04.1} date Sun 16 Oct 2022 12:29:05 PM
; FORMAT={-:-/ absolute / inch / decimal}
; #@! TF.CreationDate,2022-10-16T12:29:05-07:00
; #@! TF.GenerationSoftware,Kicad,Pcbnew,6.0.7-f9a2dced07~116~ubuntu20.04.1
; #@! TF.FileFunction,Plated,1,2,PTH
FMAT,2
INCH
; #@! TA.AperFunction,Plated,PTH,ComponentDrill
T1C0.0010
; #@! TA.AperFunction,Plated,PTH,ComponentDrill
T2C0.0138
; #@! TA.AperFunction,Plated,PTH,ViaDrill
T3C0.0157
; #@! TA.AperFunction,Plated,PTH,ComponentDrill
T4C0.0160
; #@! TA.AperFunction,Plated,PTH,ComponentDrill
T5C0.0394
; #@! TA.AperFunction,Plated,PTH,ComponentDrill
T6C0.0591
; #@! TA.AperFunction,Plated,PTH,ComponentDrill
T7C0.1693
%
G90
G05
T1
X8.4487Y-3.9997
X8.4628Y-4.1729
X8.4837Y-4.2218
X8.788Y-4.1729
X8.8022Y-3.9997
T2
X8.5758Y-5.6612
X8.5758Y-5.7114
X8.5758Y-5.7616
X8.626Y-5.6612
X8.626Y-5.7114
X8.626Y-5.7616
X8.6762Y-5.6612
X8.6762Y-5.7114
X8.6762Y-5.7616
T3
X2.674Y-6.9043
X2.6744Y-5.3937
X2.6772Y-4.637
X2.6783Y-6.1425
X3.426Y-6.1472
X3.4264Y-4.6406
X3.4287Y-5.3898
X3.4303Y-6.8909
X4.1752Y-6.8976
X4.1756Y-6.1425
X4.1776Y-5.3937
X4.1807Y-4.6386
X4.9315Y-6.9008
X4.9331Y-4.6425
X4.9343Y-6.1386
X4.9358Y-5.3906
X5.6846Y-6.1453
X5.6854Y-4.6445
X5.6866Y-5.3925
X5.6929Y-6.8961
X6.4339Y-4.6469
X6.4374Y-6.1425
X6.4374Y-6.8961
X6.4382Y-5.3878
X7.1862Y-4.6469
X7.1937Y-5.3957
X7.1969Y-6.1358
X7.2102Y-6.8894
X7.8295Y-6.2961
X7.9307Y-4.6406
X7.9366Y-5.387
X7.9398Y-6.8882
X7.9406Y-6.1386
X8.0252Y-4.4984
X8.0335Y-5.2484
X8.0575Y-5.6043
X8.0594Y-5.678
X8.0646Y-5.4185
X8.0646Y-5.7602
X8.0657Y-5.8012
X8.0803Y-5.8492
X8.0811Y-5.7161
X8.0823Y-5.5717
X8.0827Y-5.6417
X8.1496Y-6.5205
X8.2185Y-5.1071
X8.2185Y-5.2091
X8.2508Y-5.7854
X8.2535Y-5.0264
X8.2791Y-5.5713
X8.3106Y-4.4984
X8.3303Y-5.248
X8.3339Y-5.5768
X8.3976Y-5.5787
X8.3996Y-4.2323
X8.4992Y-5.8965
X8.5551Y-5.2665
X8.589Y-4.3366
X8.6594Y-4.335
X8.7346Y-6.0524
X8.7654Y-5.0264
X8.8386Y-5.5713
X8.8488Y-4.2827
X8.8524Y-5.2972
X8.8693Y-5.7894
X8.876Y-5.5866
X8.9047Y-5.6161
X8.9213Y-5.7661
X8.9244Y-5.6559
X8.9535Y-5.7335
X8.9602Y-5.6846
X8.9925Y-5.2122
X9.3346Y-6.1394
X9.3346Y-6.8921
X9.3362Y-5.4031
X9.3374Y-5.0882
X10.0827Y-4.6528
X10.0843Y-6.1547
X10.085Y-6.8988
X10.0866Y-5.4071
X10.8311Y-6.1394
X10.8339Y-6.8894
X10.835Y-4.6445
X10.835Y-5.4012
X11.5815Y-4.6425
X11.5827Y-6.8854
X11.5846Y-6.1472
X11.5874Y-5.4051
X12.326Y-4.6425
X12.3295Y-6.1433
X12.3303Y-6.8854
X12.3339Y-5.4091
X13.0764Y-4.6406
X13.0764Y-6.1425
X13.0764Y-6.8909
X13.0823Y-5.4051
X13.826Y-6.1453
X13.8268Y-4.6488
X13.8291Y-6.8909
X13.8307Y-5.4051
X14.5728Y-6.898
X14.5732Y-4.6528
X14.5732Y-5.3909
X14.5748Y-6.1406
T4
X8.5152Y-4.1962
X8.531Y-4.1686
X8.5625Y-4.1686
X8.5782Y-4.1962
X8.5949Y-4.1686
X8.6092Y-4.1962
X8.6407Y-4.1962
X8.6579Y-4.1686
X8.6727Y-4.1962
X8.6884Y-4.1686
X8.7199Y-4.1686
X8.7357Y-4.1962
T5
X7.8553Y-6.3699
X7.8553Y-6.4699
T6
X2.8909Y-4.3984
X2.8909Y-5.1484
X2.8909Y-5.8949
X2.8909Y-6.6449
X3.1409Y-4.4984
X3.1409Y-5.2484
X3.1409Y-5.9949
X3.1409Y-6.7449
X3.6428Y-4.3984
X3.6428Y-5.1484
X3.6428Y-5.8949
X3.6445Y-6.6441
X3.8928Y-4.4984
X3.8928Y-5.2484
X3.8928Y-5.9949
X3.8945Y-6.7441
X4.3947Y-4.3984
X4.3947Y-5.1484
X4.3947Y-5.8949
X4.3947Y-6.6449
X4.6447Y-4.4984
X4.6447Y-5.2484
X4.6447Y-5.9949
X4.6447Y-6.7449
X5.1466Y-4.3984
X5.1466Y-5.1484
X5.1466Y-5.8949
X5.1466Y-6.6449
X5.3966Y-4.4984
X5.3966Y-5.2484
X5.3966Y-5.9949
X5.3966Y-6.7449
X5.8984Y-4.3984
X5.8984Y-5.1484
X5.8984Y-5.8949
X5.8984Y-6.6449
X6.1484Y-4.4984
X6.1484Y-5.2484
X6.1484Y-5.9949
X6.1484Y-6.7449
X6.6503Y-4.3984
X6.6503Y-5.1484
X6.6503Y-5.8949
X6.6503Y-6.6449
X6.9003Y-4.4984
X6.9003Y-5.2484
X6.9003Y-5.9949
X6.9003Y-6.7449
X7.4022Y-4.3984
X7.4022Y-5.1484
X7.4022Y-5.8949
X7.4022Y-6.6449
X7.6522Y-4.4984
X7.6522Y-5.2484
X7.6522Y-5.9949
X7.6522Y-6.7449
X8.1503Y-4.3984
X8.1503Y-5.1484
X8.1503Y-6.6449
X8.1516Y-5.8965
X8.4003Y-4.4984
X8.4003Y-5.2484
X8.4003Y-6.7449
X8.4016Y-5.9965
X8.9003Y-4.3984
X8.9003Y-5.1484
X8.9003Y-5.8949
X8.9003Y-6.6449
X9.1503Y-4.4984
X9.1503Y-5.2484
X9.1503Y-5.9949
X9.1503Y-6.7449
X9.6484Y-4.3984
X9.6484Y-5.1484
X9.6484Y-5.8949
X9.6484Y-6.6449
X9.8984Y-4.4984
X9.8984Y-5.2484
X9.8984Y-5.9949
X9.8984Y-6.7449
X10.3984Y-4.3984
X10.3984Y-5.1484
X10.3984Y-5.8949
X10.3984Y-6.6449
X10.6484Y-4.4984
X10.6484Y-5.2484
X10.6484Y-5.9949
X10.6484Y-6.7449
X11.1466Y-4.3984
X11.1466Y-5.1484
X11.1466Y-5.8949
X11.1466Y-6.6449
X11.3966Y-4.4984
X11.3966Y-5.2484
X11.3966Y-5.9949
X11.3966Y-6.7449
X11.8947Y-4.3984
X11.8947Y-5.1484
X11.8947Y-5.8949
X11.8947Y-6.6449
X12.1447Y-4.4984
X12.1447Y-5.2484
X12.1447Y-5.9949
X12.1447Y-6.7449
X12.6428Y-4.3984
X12.6428Y-5.1484
X12.6428Y-5.8949
X12.6428Y-6.6449
X12.8928Y-4.4984
X12.8928Y-5.2484
X12.8928Y-5.9949
X12.8928Y-6.7449
X13.3928Y-4.3984
X13.3928Y-5.1484
X13.3928Y-5.8949
X13.3928Y-6.6449
X13.6428Y-4.4984
X13.6428Y-5.2484
X13.6428Y-5.9949
X13.6428Y-6.7449
X14.1409Y-4.3984
X14.1409Y-5.1484
X14.1409Y-5.8949
X14.1409Y-6.6449
X14.3909Y-4.4984
X14.3909Y-5.2484
X14.3909Y-5.9949
X14.3909Y-6.7449
T7
X3.937Y-4.9213
X3.937Y-6.3976
X13.2874Y-4.9213
X13.2874Y-6.3976
T0
M30
