%TF.GenerationSoftware,KiCad,Pcbnew,8.0.9-8.0.9-0~ubuntu22.04.1*%
%TF.CreationDate,2025-08-11T19:47:09-07:00*%
%TF.ProjectId,keyboard,6b657962-6f61-4726-942e-6b696361645f,rev?*%
%TF.SameCoordinates,Original*%
%TF.FileFunction,Legend,Top*%
%TF.FilePolarity,Positive*%
%FSLAX46Y46*%
G04 Gerber Fmt 4.6, Leading zero omitted, Abs format (unit mm)*
G04 Created by KiCad (PCBNEW 8.0.9-8.0.9-0~ubuntu22.04.1) date 2025-08-11 19:47:09*
%MOMM*%
%LPD*%
G01*
G04 APERTURE LIST*
%ADD10C,0.300000*%
%ADD11C,0.150000*%
%ADD12C,0.120000*%
G04 APERTURE END LIST*
D10*
X344968571Y-102354841D02*
X345682857Y-102354841D01*
X344825714Y-102783412D02*
X345325714Y-101283412D01*
X345325714Y-101283412D02*
X345825714Y-102783412D01*
X346325713Y-102783412D02*
X346325713Y-101783412D01*
X346325713Y-101283412D02*
X346254285Y-101354841D01*
X346254285Y-101354841D02*
X346325713Y-101426269D01*
X346325713Y-101426269D02*
X346397142Y-101354841D01*
X346397142Y-101354841D02*
X346325713Y-101283412D01*
X346325713Y-101283412D02*
X346325713Y-101426269D01*
X347254285Y-102783412D02*
X347111428Y-102711984D01*
X347111428Y-102711984D02*
X347039999Y-102569126D01*
X347039999Y-102569126D02*
X347039999Y-101283412D01*
X348468571Y-102783412D02*
X348468571Y-101997698D01*
X348468571Y-101997698D02*
X348397142Y-101854841D01*
X348397142Y-101854841D02*
X348254285Y-101783412D01*
X348254285Y-101783412D02*
X347968571Y-101783412D01*
X347968571Y-101783412D02*
X347825713Y-101854841D01*
X348468571Y-102711984D02*
X348325713Y-102783412D01*
X348325713Y-102783412D02*
X347968571Y-102783412D01*
X347968571Y-102783412D02*
X347825713Y-102711984D01*
X347825713Y-102711984D02*
X347754285Y-102569126D01*
X347754285Y-102569126D02*
X347754285Y-102426269D01*
X347754285Y-102426269D02*
X347825713Y-102283412D01*
X347825713Y-102283412D02*
X347968571Y-102211984D01*
X347968571Y-102211984D02*
X348325713Y-102211984D01*
X348325713Y-102211984D02*
X348468571Y-102140555D01*
X350254285Y-102711984D02*
X350468571Y-102783412D01*
X350468571Y-102783412D02*
X350825713Y-102783412D01*
X350825713Y-102783412D02*
X350968571Y-102711984D01*
X350968571Y-102711984D02*
X351039999Y-102640555D01*
X351039999Y-102640555D02*
X351111428Y-102497698D01*
X351111428Y-102497698D02*
X351111428Y-102354841D01*
X351111428Y-102354841D02*
X351039999Y-102211984D01*
X351039999Y-102211984D02*
X350968571Y-102140555D01*
X350968571Y-102140555D02*
X350825713Y-102069126D01*
X350825713Y-102069126D02*
X350539999Y-101997698D01*
X350539999Y-101997698D02*
X350397142Y-101926269D01*
X350397142Y-101926269D02*
X350325713Y-101854841D01*
X350325713Y-101854841D02*
X350254285Y-101711984D01*
X350254285Y-101711984D02*
X350254285Y-101569126D01*
X350254285Y-101569126D02*
X350325713Y-101426269D01*
X350325713Y-101426269D02*
X350397142Y-101354841D01*
X350397142Y-101354841D02*
X350539999Y-101283412D01*
X350539999Y-101283412D02*
X350897142Y-101283412D01*
X350897142Y-101283412D02*
X351111428Y-101354841D01*
X351754284Y-102783412D02*
X351754284Y-101783412D01*
X351754284Y-101283412D02*
X351682856Y-101354841D01*
X351682856Y-101354841D02*
X351754284Y-101426269D01*
X351754284Y-101426269D02*
X351825713Y-101354841D01*
X351825713Y-101354841D02*
X351754284Y-101283412D01*
X351754284Y-101283412D02*
X351754284Y-101426269D01*
X352468570Y-102783412D02*
X352468570Y-101783412D01*
X352468570Y-101926269D02*
X352539999Y-101854841D01*
X352539999Y-101854841D02*
X352682856Y-101783412D01*
X352682856Y-101783412D02*
X352897142Y-101783412D01*
X352897142Y-101783412D02*
X353039999Y-101854841D01*
X353039999Y-101854841D02*
X353111428Y-101997698D01*
X353111428Y-101997698D02*
X353111428Y-102783412D01*
X353111428Y-101997698D02*
X353182856Y-101854841D01*
X353182856Y-101854841D02*
X353325713Y-101783412D01*
X353325713Y-101783412D02*
X353539999Y-101783412D01*
X353539999Y-101783412D02*
X353682856Y-101854841D01*
X353682856Y-101854841D02*
X353754285Y-101997698D01*
X353754285Y-101997698D02*
X353754285Y-102783412D01*
X354468570Y-101783412D02*
X354468570Y-103283412D01*
X354468570Y-101854841D02*
X354611428Y-101783412D01*
X354611428Y-101783412D02*
X354897142Y-101783412D01*
X354897142Y-101783412D02*
X355039999Y-101854841D01*
X355039999Y-101854841D02*
X355111428Y-101926269D01*
X355111428Y-101926269D02*
X355182856Y-102069126D01*
X355182856Y-102069126D02*
X355182856Y-102497698D01*
X355182856Y-102497698D02*
X355111428Y-102640555D01*
X355111428Y-102640555D02*
X355039999Y-102711984D01*
X355039999Y-102711984D02*
X354897142Y-102783412D01*
X354897142Y-102783412D02*
X354611428Y-102783412D01*
X354611428Y-102783412D02*
X354468570Y-102711984D01*
X355754285Y-102711984D02*
X355897142Y-102783412D01*
X355897142Y-102783412D02*
X356182856Y-102783412D01*
X356182856Y-102783412D02*
X356325713Y-102711984D01*
X356325713Y-102711984D02*
X356397142Y-102569126D01*
X356397142Y-102569126D02*
X356397142Y-102497698D01*
X356397142Y-102497698D02*
X356325713Y-102354841D01*
X356325713Y-102354841D02*
X356182856Y-102283412D01*
X356182856Y-102283412D02*
X355968571Y-102283412D01*
X355968571Y-102283412D02*
X355825713Y-102211984D01*
X355825713Y-102211984D02*
X355754285Y-102069126D01*
X355754285Y-102069126D02*
X355754285Y-101997698D01*
X355754285Y-101997698D02*
X355825713Y-101854841D01*
X355825713Y-101854841D02*
X355968571Y-101783412D01*
X355968571Y-101783412D02*
X356182856Y-101783412D01*
X356182856Y-101783412D02*
X356325713Y-101854841D01*
X357254285Y-102783412D02*
X357111428Y-102711984D01*
X357111428Y-102711984D02*
X357039999Y-102640555D01*
X357039999Y-102640555D02*
X356968571Y-102497698D01*
X356968571Y-102497698D02*
X356968571Y-102069126D01*
X356968571Y-102069126D02*
X357039999Y-101926269D01*
X357039999Y-101926269D02*
X357111428Y-101854841D01*
X357111428Y-101854841D02*
X357254285Y-101783412D01*
X357254285Y-101783412D02*
X357468571Y-101783412D01*
X357468571Y-101783412D02*
X357611428Y-101854841D01*
X357611428Y-101854841D02*
X357682857Y-101926269D01*
X357682857Y-101926269D02*
X357754285Y-102069126D01*
X357754285Y-102069126D02*
X357754285Y-102497698D01*
X357754285Y-102497698D02*
X357682857Y-102640555D01*
X357682857Y-102640555D02*
X357611428Y-102711984D01*
X357611428Y-102711984D02*
X357468571Y-102783412D01*
X357468571Y-102783412D02*
X357254285Y-102783412D01*
X358397142Y-101783412D02*
X358397142Y-102783412D01*
X358397142Y-101926269D02*
X358468571Y-101854841D01*
X358468571Y-101854841D02*
X358611428Y-101783412D01*
X358611428Y-101783412D02*
X358825714Y-101783412D01*
X358825714Y-101783412D02*
X358968571Y-101854841D01*
X358968571Y-101854841D02*
X359040000Y-101997698D01*
X359040000Y-101997698D02*
X359040000Y-102783412D01*
X347254285Y-105198328D02*
X347254285Y-103698328D01*
X348111428Y-105198328D02*
X347468571Y-104341185D01*
X348111428Y-103698328D02*
X347254285Y-104555471D01*
X349325714Y-105126900D02*
X349182857Y-105198328D01*
X349182857Y-105198328D02*
X348897143Y-105198328D01*
X348897143Y-105198328D02*
X348754285Y-105126900D01*
X348754285Y-105126900D02*
X348682857Y-104984042D01*
X348682857Y-104984042D02*
X348682857Y-104412614D01*
X348682857Y-104412614D02*
X348754285Y-104269757D01*
X348754285Y-104269757D02*
X348897143Y-104198328D01*
X348897143Y-104198328D02*
X349182857Y-104198328D01*
X349182857Y-104198328D02*
X349325714Y-104269757D01*
X349325714Y-104269757D02*
X349397143Y-104412614D01*
X349397143Y-104412614D02*
X349397143Y-104555471D01*
X349397143Y-104555471D02*
X348682857Y-104698328D01*
X349897142Y-104198328D02*
X350254285Y-105198328D01*
X350611428Y-104198328D02*
X350254285Y-105198328D01*
X350254285Y-105198328D02*
X350111428Y-105555471D01*
X350111428Y-105555471D02*
X350039999Y-105626900D01*
X350039999Y-105626900D02*
X349897142Y-105698328D01*
X351182856Y-105198328D02*
X351182856Y-103698328D01*
X351182856Y-104269757D02*
X351325714Y-104198328D01*
X351325714Y-104198328D02*
X351611428Y-104198328D01*
X351611428Y-104198328D02*
X351754285Y-104269757D01*
X351754285Y-104269757D02*
X351825714Y-104341185D01*
X351825714Y-104341185D02*
X351897142Y-104484042D01*
X351897142Y-104484042D02*
X351897142Y-104912614D01*
X351897142Y-104912614D02*
X351825714Y-105055471D01*
X351825714Y-105055471D02*
X351754285Y-105126900D01*
X351754285Y-105126900D02*
X351611428Y-105198328D01*
X351611428Y-105198328D02*
X351325714Y-105198328D01*
X351325714Y-105198328D02*
X351182856Y-105126900D01*
X352754285Y-105198328D02*
X352611428Y-105126900D01*
X352611428Y-105126900D02*
X352539999Y-105055471D01*
X352539999Y-105055471D02*
X352468571Y-104912614D01*
X352468571Y-104912614D02*
X352468571Y-104484042D01*
X352468571Y-104484042D02*
X352539999Y-104341185D01*
X352539999Y-104341185D02*
X352611428Y-104269757D01*
X352611428Y-104269757D02*
X352754285Y-104198328D01*
X352754285Y-104198328D02*
X352968571Y-104198328D01*
X352968571Y-104198328D02*
X353111428Y-104269757D01*
X353111428Y-104269757D02*
X353182857Y-104341185D01*
X353182857Y-104341185D02*
X353254285Y-104484042D01*
X353254285Y-104484042D02*
X353254285Y-104912614D01*
X353254285Y-104912614D02*
X353182857Y-105055471D01*
X353182857Y-105055471D02*
X353111428Y-105126900D01*
X353111428Y-105126900D02*
X352968571Y-105198328D01*
X352968571Y-105198328D02*
X352754285Y-105198328D01*
X354540000Y-105198328D02*
X354540000Y-104412614D01*
X354540000Y-104412614D02*
X354468571Y-104269757D01*
X354468571Y-104269757D02*
X354325714Y-104198328D01*
X354325714Y-104198328D02*
X354040000Y-104198328D01*
X354040000Y-104198328D02*
X353897142Y-104269757D01*
X354540000Y-105126900D02*
X354397142Y-105198328D01*
X354397142Y-105198328D02*
X354040000Y-105198328D01*
X354040000Y-105198328D02*
X353897142Y-105126900D01*
X353897142Y-105126900D02*
X353825714Y-104984042D01*
X353825714Y-104984042D02*
X353825714Y-104841185D01*
X353825714Y-104841185D02*
X353897142Y-104698328D01*
X353897142Y-104698328D02*
X354040000Y-104626900D01*
X354040000Y-104626900D02*
X354397142Y-104626900D01*
X354397142Y-104626900D02*
X354540000Y-104555471D01*
X355254285Y-105198328D02*
X355254285Y-104198328D01*
X355254285Y-104484042D02*
X355325714Y-104341185D01*
X355325714Y-104341185D02*
X355397143Y-104269757D01*
X355397143Y-104269757D02*
X355540000Y-104198328D01*
X355540000Y-104198328D02*
X355682857Y-104198328D01*
X356825714Y-105198328D02*
X356825714Y-103698328D01*
X356825714Y-105126900D02*
X356682856Y-105198328D01*
X356682856Y-105198328D02*
X356397142Y-105198328D01*
X356397142Y-105198328D02*
X356254285Y-105126900D01*
X356254285Y-105126900D02*
X356182856Y-105055471D01*
X356182856Y-105055471D02*
X356111428Y-104912614D01*
X356111428Y-104912614D02*
X356111428Y-104484042D01*
X356111428Y-104484042D02*
X356182856Y-104341185D01*
X356182856Y-104341185D02*
X356254285Y-104269757D01*
X356254285Y-104269757D02*
X356397142Y-104198328D01*
X356397142Y-104198328D02*
X356682856Y-104198328D01*
X356682856Y-104198328D02*
X356825714Y-104269757D01*
X349754286Y-106113244D02*
X350254286Y-107613244D01*
X350254286Y-107613244D02*
X350754286Y-106113244D01*
X352040000Y-107613244D02*
X351182857Y-107613244D01*
X351611428Y-107613244D02*
X351611428Y-106113244D01*
X351611428Y-106113244D02*
X351468571Y-106327530D01*
X351468571Y-106327530D02*
X351325714Y-106470387D01*
X351325714Y-106470387D02*
X351182857Y-106541816D01*
X352682856Y-107470387D02*
X352754285Y-107541816D01*
X352754285Y-107541816D02*
X352682856Y-107613244D01*
X352682856Y-107613244D02*
X352611428Y-107541816D01*
X352611428Y-107541816D02*
X352682856Y-107470387D01*
X352682856Y-107470387D02*
X352682856Y-107613244D01*
X353682857Y-106113244D02*
X353825714Y-106113244D01*
X353825714Y-106113244D02*
X353968571Y-106184673D01*
X353968571Y-106184673D02*
X354040000Y-106256101D01*
X354040000Y-106256101D02*
X354111428Y-106398958D01*
X354111428Y-106398958D02*
X354182857Y-106684673D01*
X354182857Y-106684673D02*
X354182857Y-107041816D01*
X354182857Y-107041816D02*
X354111428Y-107327530D01*
X354111428Y-107327530D02*
X354040000Y-107470387D01*
X354040000Y-107470387D02*
X353968571Y-107541816D01*
X353968571Y-107541816D02*
X353825714Y-107613244D01*
X353825714Y-107613244D02*
X353682857Y-107613244D01*
X353682857Y-107613244D02*
X353540000Y-107541816D01*
X353540000Y-107541816D02*
X353468571Y-107470387D01*
X353468571Y-107470387D02*
X353397142Y-107327530D01*
X353397142Y-107327530D02*
X353325714Y-107041816D01*
X353325714Y-107041816D02*
X353325714Y-106684673D01*
X353325714Y-106684673D02*
X353397142Y-106398958D01*
X353397142Y-106398958D02*
X353468571Y-106256101D01*
X353468571Y-106256101D02*
X353540000Y-106184673D01*
X353540000Y-106184673D02*
X353682857Y-106113244D01*
D11*
X216083809Y-168853628D02*
X216083809Y-169329819D01*
X215750476Y-168329819D02*
X216083809Y-168853628D01*
X216083809Y-168853628D02*
X216417142Y-168329819D01*
X217274285Y-169329819D02*
X216702857Y-169329819D01*
X216988571Y-169329819D02*
X216988571Y-168329819D01*
X216988571Y-168329819D02*
X216893333Y-168472676D01*
X216893333Y-168472676D02*
X216798095Y-168567914D01*
X216798095Y-168567914D02*
X216702857Y-168615533D01*
X224485714Y-122096819D02*
X225057142Y-122096819D01*
X224771428Y-123096819D02*
X224771428Y-122096819D01*
X225390476Y-123096819D02*
X225390476Y-122096819D01*
X225390476Y-122096819D02*
X225771428Y-122096819D01*
X225771428Y-122096819D02*
X225866666Y-122144438D01*
X225866666Y-122144438D02*
X225914285Y-122192057D01*
X225914285Y-122192057D02*
X225961904Y-122287295D01*
X225961904Y-122287295D02*
X225961904Y-122430152D01*
X225961904Y-122430152D02*
X225914285Y-122525390D01*
X225914285Y-122525390D02*
X225866666Y-122573009D01*
X225866666Y-122573009D02*
X225771428Y-122620628D01*
X225771428Y-122620628D02*
X225390476Y-122620628D01*
X226914285Y-123096819D02*
X226342857Y-123096819D01*
X226628571Y-123096819D02*
X226628571Y-122096819D01*
X226628571Y-122096819D02*
X226533333Y-122239676D01*
X226533333Y-122239676D02*
X226438095Y-122334914D01*
X226438095Y-122334914D02*
X226342857Y-122382533D01*
X227533333Y-122096819D02*
X227628571Y-122096819D01*
X227628571Y-122096819D02*
X227723809Y-122144438D01*
X227723809Y-122144438D02*
X227771428Y-122192057D01*
X227771428Y-122192057D02*
X227819047Y-122287295D01*
X227819047Y-122287295D02*
X227866666Y-122477771D01*
X227866666Y-122477771D02*
X227866666Y-122715866D01*
X227866666Y-122715866D02*
X227819047Y-122906342D01*
X227819047Y-122906342D02*
X227771428Y-123001580D01*
X227771428Y-123001580D02*
X227723809Y-123049200D01*
X227723809Y-123049200D02*
X227628571Y-123096819D01*
X227628571Y-123096819D02*
X227533333Y-123096819D01*
X227533333Y-123096819D02*
X227438095Y-123049200D01*
X227438095Y-123049200D02*
X227390476Y-123001580D01*
X227390476Y-123001580D02*
X227342857Y-122906342D01*
X227342857Y-122906342D02*
X227295238Y-122715866D01*
X227295238Y-122715866D02*
X227295238Y-122477771D01*
X227295238Y-122477771D02*
X227342857Y-122287295D01*
X227342857Y-122287295D02*
X227390476Y-122192057D01*
X227390476Y-122192057D02*
X227438095Y-122144438D01*
X227438095Y-122144438D02*
X227533333Y-122096819D01*
X228723809Y-122430152D02*
X228723809Y-123096819D01*
X228485714Y-122049200D02*
X228247619Y-122763485D01*
X228247619Y-122763485D02*
X228866666Y-122763485D01*
X241585714Y-119896819D02*
X242157142Y-119896819D01*
X241871428Y-120896819D02*
X241871428Y-119896819D01*
X242490476Y-120896819D02*
X242490476Y-119896819D01*
X242490476Y-119896819D02*
X242871428Y-119896819D01*
X242871428Y-119896819D02*
X242966666Y-119944438D01*
X242966666Y-119944438D02*
X243014285Y-119992057D01*
X243014285Y-119992057D02*
X243061904Y-120087295D01*
X243061904Y-120087295D02*
X243061904Y-120230152D01*
X243061904Y-120230152D02*
X243014285Y-120325390D01*
X243014285Y-120325390D02*
X242966666Y-120373009D01*
X242966666Y-120373009D02*
X242871428Y-120420628D01*
X242871428Y-120420628D02*
X242490476Y-120420628D01*
X244014285Y-120896819D02*
X243442857Y-120896819D01*
X243728571Y-120896819D02*
X243728571Y-119896819D01*
X243728571Y-119896819D02*
X243633333Y-120039676D01*
X243633333Y-120039676D02*
X243538095Y-120134914D01*
X243538095Y-120134914D02*
X243442857Y-120182533D01*
X244633333Y-119896819D02*
X244728571Y-119896819D01*
X244728571Y-119896819D02*
X244823809Y-119944438D01*
X244823809Y-119944438D02*
X244871428Y-119992057D01*
X244871428Y-119992057D02*
X244919047Y-120087295D01*
X244919047Y-120087295D02*
X244966666Y-120277771D01*
X244966666Y-120277771D02*
X244966666Y-120515866D01*
X244966666Y-120515866D02*
X244919047Y-120706342D01*
X244919047Y-120706342D02*
X244871428Y-120801580D01*
X244871428Y-120801580D02*
X244823809Y-120849200D01*
X244823809Y-120849200D02*
X244728571Y-120896819D01*
X244728571Y-120896819D02*
X244633333Y-120896819D01*
X244633333Y-120896819D02*
X244538095Y-120849200D01*
X244538095Y-120849200D02*
X244490476Y-120801580D01*
X244490476Y-120801580D02*
X244442857Y-120706342D01*
X244442857Y-120706342D02*
X244395238Y-120515866D01*
X244395238Y-120515866D02*
X244395238Y-120277771D01*
X244395238Y-120277771D02*
X244442857Y-120087295D01*
X244442857Y-120087295D02*
X244490476Y-119992057D01*
X244490476Y-119992057D02*
X244538095Y-119944438D01*
X244538095Y-119944438D02*
X244633333Y-119896819D01*
X245300000Y-119896819D02*
X245919047Y-119896819D01*
X245919047Y-119896819D02*
X245585714Y-120277771D01*
X245585714Y-120277771D02*
X245728571Y-120277771D01*
X245728571Y-120277771D02*
X245823809Y-120325390D01*
X245823809Y-120325390D02*
X245871428Y-120373009D01*
X245871428Y-120373009D02*
X245919047Y-120468247D01*
X245919047Y-120468247D02*
X245919047Y-120706342D01*
X245919047Y-120706342D02*
X245871428Y-120801580D01*
X245871428Y-120801580D02*
X245823809Y-120849200D01*
X245823809Y-120849200D02*
X245728571Y-120896819D01*
X245728571Y-120896819D02*
X245442857Y-120896819D01*
X245442857Y-120896819D02*
X245347619Y-120849200D01*
X245347619Y-120849200D02*
X245300000Y-120801580D01*
X220444819Y-160696666D02*
X219968628Y-161029999D01*
X220444819Y-161268094D02*
X219444819Y-161268094D01*
X219444819Y-161268094D02*
X219444819Y-160887142D01*
X219444819Y-160887142D02*
X219492438Y-160791904D01*
X219492438Y-160791904D02*
X219540057Y-160744285D01*
X219540057Y-160744285D02*
X219635295Y-160696666D01*
X219635295Y-160696666D02*
X219778152Y-160696666D01*
X219778152Y-160696666D02*
X219873390Y-160744285D01*
X219873390Y-160744285D02*
X219921009Y-160791904D01*
X219921009Y-160791904D02*
X219968628Y-160887142D01*
X219968628Y-160887142D02*
X219968628Y-161268094D01*
X219444819Y-160363332D02*
X219444819Y-159744285D01*
X219444819Y-159744285D02*
X219825771Y-160077618D01*
X219825771Y-160077618D02*
X219825771Y-159934761D01*
X219825771Y-159934761D02*
X219873390Y-159839523D01*
X219873390Y-159839523D02*
X219921009Y-159791904D01*
X219921009Y-159791904D02*
X220016247Y-159744285D01*
X220016247Y-159744285D02*
X220254342Y-159744285D01*
X220254342Y-159744285D02*
X220349580Y-159791904D01*
X220349580Y-159791904D02*
X220397200Y-159839523D01*
X220397200Y-159839523D02*
X220444819Y-159934761D01*
X220444819Y-159934761D02*
X220444819Y-160220475D01*
X220444819Y-160220475D02*
X220397200Y-160315713D01*
X220397200Y-160315713D02*
X220349580Y-160363332D01*
X237199580Y-129666666D02*
X237247200Y-129714285D01*
X237247200Y-129714285D02*
X237294819Y-129857142D01*
X237294819Y-129857142D02*
X237294819Y-129952380D01*
X237294819Y-129952380D02*
X237247200Y-130095237D01*
X237247200Y-130095237D02*
X237151961Y-130190475D01*
X237151961Y-130190475D02*
X237056723Y-130238094D01*
X237056723Y-130238094D02*
X236866247Y-130285713D01*
X236866247Y-130285713D02*
X236723390Y-130285713D01*
X236723390Y-130285713D02*
X236532914Y-130238094D01*
X236532914Y-130238094D02*
X236437676Y-130190475D01*
X236437676Y-130190475D02*
X236342438Y-130095237D01*
X236342438Y-130095237D02*
X236294819Y-129952380D01*
X236294819Y-129952380D02*
X236294819Y-129857142D01*
X236294819Y-129857142D02*
X236342438Y-129714285D01*
X236342438Y-129714285D02*
X236390057Y-129666666D01*
X236390057Y-129285713D02*
X236342438Y-129238094D01*
X236342438Y-129238094D02*
X236294819Y-129142856D01*
X236294819Y-129142856D02*
X236294819Y-128904761D01*
X236294819Y-128904761D02*
X236342438Y-128809523D01*
X236342438Y-128809523D02*
X236390057Y-128761904D01*
X236390057Y-128761904D02*
X236485295Y-128714285D01*
X236485295Y-128714285D02*
X236580533Y-128714285D01*
X236580533Y-128714285D02*
X236723390Y-128761904D01*
X236723390Y-128761904D02*
X237294819Y-129333332D01*
X237294819Y-129333332D02*
X237294819Y-128714285D01*
X195423333Y-150724819D02*
X195090000Y-150248628D01*
X194851905Y-150724819D02*
X194851905Y-149724819D01*
X194851905Y-149724819D02*
X195232857Y-149724819D01*
X195232857Y-149724819D02*
X195328095Y-149772438D01*
X195328095Y-149772438D02*
X195375714Y-149820057D01*
X195375714Y-149820057D02*
X195423333Y-149915295D01*
X195423333Y-149915295D02*
X195423333Y-150058152D01*
X195423333Y-150058152D02*
X195375714Y-150153390D01*
X195375714Y-150153390D02*
X195328095Y-150201009D01*
X195328095Y-150201009D02*
X195232857Y-150248628D01*
X195232857Y-150248628D02*
X194851905Y-150248628D01*
X196280476Y-149724819D02*
X196090000Y-149724819D01*
X196090000Y-149724819D02*
X195994762Y-149772438D01*
X195994762Y-149772438D02*
X195947143Y-149820057D01*
X195947143Y-149820057D02*
X195851905Y-149962914D01*
X195851905Y-149962914D02*
X195804286Y-150153390D01*
X195804286Y-150153390D02*
X195804286Y-150534342D01*
X195804286Y-150534342D02*
X195851905Y-150629580D01*
X195851905Y-150629580D02*
X195899524Y-150677200D01*
X195899524Y-150677200D02*
X195994762Y-150724819D01*
X195994762Y-150724819D02*
X196185238Y-150724819D01*
X196185238Y-150724819D02*
X196280476Y-150677200D01*
X196280476Y-150677200D02*
X196328095Y-150629580D01*
X196328095Y-150629580D02*
X196375714Y-150534342D01*
X196375714Y-150534342D02*
X196375714Y-150296247D01*
X196375714Y-150296247D02*
X196328095Y-150201009D01*
X196328095Y-150201009D02*
X196280476Y-150153390D01*
X196280476Y-150153390D02*
X196185238Y-150105771D01*
X196185238Y-150105771D02*
X195994762Y-150105771D01*
X195994762Y-150105771D02*
X195899524Y-150153390D01*
X195899524Y-150153390D02*
X195851905Y-150201009D01*
X195851905Y-150201009D02*
X195804286Y-150296247D01*
X241585714Y-124496819D02*
X242157142Y-124496819D01*
X241871428Y-125496819D02*
X241871428Y-124496819D01*
X242490476Y-125496819D02*
X242490476Y-124496819D01*
X242490476Y-124496819D02*
X242871428Y-124496819D01*
X242871428Y-124496819D02*
X242966666Y-124544438D01*
X242966666Y-124544438D02*
X243014285Y-124592057D01*
X243014285Y-124592057D02*
X243061904Y-124687295D01*
X243061904Y-124687295D02*
X243061904Y-124830152D01*
X243061904Y-124830152D02*
X243014285Y-124925390D01*
X243014285Y-124925390D02*
X242966666Y-124973009D01*
X242966666Y-124973009D02*
X242871428Y-125020628D01*
X242871428Y-125020628D02*
X242490476Y-125020628D01*
X244014285Y-125496819D02*
X243442857Y-125496819D01*
X243728571Y-125496819D02*
X243728571Y-124496819D01*
X243728571Y-124496819D02*
X243633333Y-124639676D01*
X243633333Y-124639676D02*
X243538095Y-124734914D01*
X243538095Y-124734914D02*
X243442857Y-124782533D01*
X244633333Y-124496819D02*
X244728571Y-124496819D01*
X244728571Y-124496819D02*
X244823809Y-124544438D01*
X244823809Y-124544438D02*
X244871428Y-124592057D01*
X244871428Y-124592057D02*
X244919047Y-124687295D01*
X244919047Y-124687295D02*
X244966666Y-124877771D01*
X244966666Y-124877771D02*
X244966666Y-125115866D01*
X244966666Y-125115866D02*
X244919047Y-125306342D01*
X244919047Y-125306342D02*
X244871428Y-125401580D01*
X244871428Y-125401580D02*
X244823809Y-125449200D01*
X244823809Y-125449200D02*
X244728571Y-125496819D01*
X244728571Y-125496819D02*
X244633333Y-125496819D01*
X244633333Y-125496819D02*
X244538095Y-125449200D01*
X244538095Y-125449200D02*
X244490476Y-125401580D01*
X244490476Y-125401580D02*
X244442857Y-125306342D01*
X244442857Y-125306342D02*
X244395238Y-125115866D01*
X244395238Y-125115866D02*
X244395238Y-124877771D01*
X244395238Y-124877771D02*
X244442857Y-124687295D01*
X244442857Y-124687295D02*
X244490476Y-124592057D01*
X244490476Y-124592057D02*
X244538095Y-124544438D01*
X244538095Y-124544438D02*
X244633333Y-124496819D01*
X245871428Y-124496819D02*
X245395238Y-124496819D01*
X245395238Y-124496819D02*
X245347619Y-124973009D01*
X245347619Y-124973009D02*
X245395238Y-124925390D01*
X245395238Y-124925390D02*
X245490476Y-124877771D01*
X245490476Y-124877771D02*
X245728571Y-124877771D01*
X245728571Y-124877771D02*
X245823809Y-124925390D01*
X245823809Y-124925390D02*
X245871428Y-124973009D01*
X245871428Y-124973009D02*
X245919047Y-125068247D01*
X245919047Y-125068247D02*
X245919047Y-125306342D01*
X245919047Y-125306342D02*
X245871428Y-125401580D01*
X245871428Y-125401580D02*
X245823809Y-125449200D01*
X245823809Y-125449200D02*
X245728571Y-125496819D01*
X245728571Y-125496819D02*
X245490476Y-125496819D01*
X245490476Y-125496819D02*
X245395238Y-125449200D01*
X245395238Y-125449200D02*
X245347619Y-125401580D01*
X213238095Y-149064819D02*
X213238095Y-149874342D01*
X213238095Y-149874342D02*
X213285714Y-149969580D01*
X213285714Y-149969580D02*
X213333333Y-150017200D01*
X213333333Y-150017200D02*
X213428571Y-150064819D01*
X213428571Y-150064819D02*
X213619047Y-150064819D01*
X213619047Y-150064819D02*
X213714285Y-150017200D01*
X213714285Y-150017200D02*
X213761904Y-149969580D01*
X213761904Y-149969580D02*
X213809523Y-149874342D01*
X213809523Y-149874342D02*
X213809523Y-149064819D01*
X214238095Y-149160057D02*
X214285714Y-149112438D01*
X214285714Y-149112438D02*
X214380952Y-149064819D01*
X214380952Y-149064819D02*
X214619047Y-149064819D01*
X214619047Y-149064819D02*
X214714285Y-149112438D01*
X214714285Y-149112438D02*
X214761904Y-149160057D01*
X214761904Y-149160057D02*
X214809523Y-149255295D01*
X214809523Y-149255295D02*
X214809523Y-149350533D01*
X214809523Y-149350533D02*
X214761904Y-149493390D01*
X214761904Y-149493390D02*
X214190476Y-150064819D01*
X214190476Y-150064819D02*
X214809523Y-150064819D01*
X336738095Y-157654819D02*
X336738095Y-156654819D01*
X336738095Y-157131009D02*
X337309523Y-157131009D01*
X337309523Y-157654819D02*
X337309523Y-156654819D01*
X337690476Y-156654819D02*
X338309523Y-156654819D01*
X338309523Y-156654819D02*
X337976190Y-157035771D01*
X337976190Y-157035771D02*
X338119047Y-157035771D01*
X338119047Y-157035771D02*
X338214285Y-157083390D01*
X338214285Y-157083390D02*
X338261904Y-157131009D01*
X338261904Y-157131009D02*
X338309523Y-157226247D01*
X338309523Y-157226247D02*
X338309523Y-157464342D01*
X338309523Y-157464342D02*
X338261904Y-157559580D01*
X338261904Y-157559580D02*
X338214285Y-157607200D01*
X338214285Y-157607200D02*
X338119047Y-157654819D01*
X338119047Y-157654819D02*
X337833333Y-157654819D01*
X337833333Y-157654819D02*
X337738095Y-157607200D01*
X337738095Y-157607200D02*
X337690476Y-157559580D01*
X99238095Y-120154819D02*
X99238095Y-119154819D01*
X99238095Y-119631009D02*
X99809523Y-119631009D01*
X99809523Y-120154819D02*
X99809523Y-119154819D01*
X100809523Y-120154819D02*
X100238095Y-120154819D01*
X100523809Y-120154819D02*
X100523809Y-119154819D01*
X100523809Y-119154819D02*
X100428571Y-119297676D01*
X100428571Y-119297676D02*
X100333333Y-119392914D01*
X100333333Y-119392914D02*
X100238095Y-119440533D01*
X230887142Y-148089580D02*
X230839523Y-148137200D01*
X230839523Y-148137200D02*
X230696666Y-148184819D01*
X230696666Y-148184819D02*
X230601428Y-148184819D01*
X230601428Y-148184819D02*
X230458571Y-148137200D01*
X230458571Y-148137200D02*
X230363333Y-148041961D01*
X230363333Y-148041961D02*
X230315714Y-147946723D01*
X230315714Y-147946723D02*
X230268095Y-147756247D01*
X230268095Y-147756247D02*
X230268095Y-147613390D01*
X230268095Y-147613390D02*
X230315714Y-147422914D01*
X230315714Y-147422914D02*
X230363333Y-147327676D01*
X230363333Y-147327676D02*
X230458571Y-147232438D01*
X230458571Y-147232438D02*
X230601428Y-147184819D01*
X230601428Y-147184819D02*
X230696666Y-147184819D01*
X230696666Y-147184819D02*
X230839523Y-147232438D01*
X230839523Y-147232438D02*
X230887142Y-147280057D01*
X231839523Y-148184819D02*
X231268095Y-148184819D01*
X231553809Y-148184819D02*
X231553809Y-147184819D01*
X231553809Y-147184819D02*
X231458571Y-147327676D01*
X231458571Y-147327676D02*
X231363333Y-147422914D01*
X231363333Y-147422914D02*
X231268095Y-147470533D01*
X232172857Y-147184819D02*
X232791904Y-147184819D01*
X232791904Y-147184819D02*
X232458571Y-147565771D01*
X232458571Y-147565771D02*
X232601428Y-147565771D01*
X232601428Y-147565771D02*
X232696666Y-147613390D01*
X232696666Y-147613390D02*
X232744285Y-147661009D01*
X232744285Y-147661009D02*
X232791904Y-147756247D01*
X232791904Y-147756247D02*
X232791904Y-147994342D01*
X232791904Y-147994342D02*
X232744285Y-148089580D01*
X232744285Y-148089580D02*
X232696666Y-148137200D01*
X232696666Y-148137200D02*
X232601428Y-148184819D01*
X232601428Y-148184819D02*
X232315714Y-148184819D01*
X232315714Y-148184819D02*
X232220476Y-148137200D01*
X232220476Y-148137200D02*
X232172857Y-148089580D01*
X221879580Y-135486666D02*
X221927200Y-135534285D01*
X221927200Y-135534285D02*
X221974819Y-135677142D01*
X221974819Y-135677142D02*
X221974819Y-135772380D01*
X221974819Y-135772380D02*
X221927200Y-135915237D01*
X221927200Y-135915237D02*
X221831961Y-136010475D01*
X221831961Y-136010475D02*
X221736723Y-136058094D01*
X221736723Y-136058094D02*
X221546247Y-136105713D01*
X221546247Y-136105713D02*
X221403390Y-136105713D01*
X221403390Y-136105713D02*
X221212914Y-136058094D01*
X221212914Y-136058094D02*
X221117676Y-136010475D01*
X221117676Y-136010475D02*
X221022438Y-135915237D01*
X221022438Y-135915237D02*
X220974819Y-135772380D01*
X220974819Y-135772380D02*
X220974819Y-135677142D01*
X220974819Y-135677142D02*
X221022438Y-135534285D01*
X221022438Y-135534285D02*
X221070057Y-135486666D01*
X221974819Y-135010475D02*
X221974819Y-134819999D01*
X221974819Y-134819999D02*
X221927200Y-134724761D01*
X221927200Y-134724761D02*
X221879580Y-134677142D01*
X221879580Y-134677142D02*
X221736723Y-134581904D01*
X221736723Y-134581904D02*
X221546247Y-134534285D01*
X221546247Y-134534285D02*
X221165295Y-134534285D01*
X221165295Y-134534285D02*
X221070057Y-134581904D01*
X221070057Y-134581904D02*
X221022438Y-134629523D01*
X221022438Y-134629523D02*
X220974819Y-134724761D01*
X220974819Y-134724761D02*
X220974819Y-134915237D01*
X220974819Y-134915237D02*
X221022438Y-135010475D01*
X221022438Y-135010475D02*
X221070057Y-135058094D01*
X221070057Y-135058094D02*
X221165295Y-135105713D01*
X221165295Y-135105713D02*
X221403390Y-135105713D01*
X221403390Y-135105713D02*
X221498628Y-135058094D01*
X221498628Y-135058094D02*
X221546247Y-135010475D01*
X221546247Y-135010475D02*
X221593866Y-134915237D01*
X221593866Y-134915237D02*
X221593866Y-134724761D01*
X221593866Y-134724761D02*
X221546247Y-134629523D01*
X221546247Y-134629523D02*
X221498628Y-134581904D01*
X221498628Y-134581904D02*
X221403390Y-134534285D01*
X215459580Y-170476666D02*
X215507200Y-170524285D01*
X215507200Y-170524285D02*
X215554819Y-170667142D01*
X215554819Y-170667142D02*
X215554819Y-170762380D01*
X215554819Y-170762380D02*
X215507200Y-170905237D01*
X215507200Y-170905237D02*
X215411961Y-171000475D01*
X215411961Y-171000475D02*
X215316723Y-171048094D01*
X215316723Y-171048094D02*
X215126247Y-171095713D01*
X215126247Y-171095713D02*
X214983390Y-171095713D01*
X214983390Y-171095713D02*
X214792914Y-171048094D01*
X214792914Y-171048094D02*
X214697676Y-171000475D01*
X214697676Y-171000475D02*
X214602438Y-170905237D01*
X214602438Y-170905237D02*
X214554819Y-170762380D01*
X214554819Y-170762380D02*
X214554819Y-170667142D01*
X214554819Y-170667142D02*
X214602438Y-170524285D01*
X214602438Y-170524285D02*
X214650057Y-170476666D01*
X214554819Y-170143332D02*
X214554819Y-169524285D01*
X214554819Y-169524285D02*
X214935771Y-169857618D01*
X214935771Y-169857618D02*
X214935771Y-169714761D01*
X214935771Y-169714761D02*
X214983390Y-169619523D01*
X214983390Y-169619523D02*
X215031009Y-169571904D01*
X215031009Y-169571904D02*
X215126247Y-169524285D01*
X215126247Y-169524285D02*
X215364342Y-169524285D01*
X215364342Y-169524285D02*
X215459580Y-169571904D01*
X215459580Y-169571904D02*
X215507200Y-169619523D01*
X215507200Y-169619523D02*
X215554819Y-169714761D01*
X215554819Y-169714761D02*
X215554819Y-170000475D01*
X215554819Y-170000475D02*
X215507200Y-170095713D01*
X215507200Y-170095713D02*
X215459580Y-170143332D01*
X230817142Y-142199580D02*
X230769523Y-142247200D01*
X230769523Y-142247200D02*
X230626666Y-142294819D01*
X230626666Y-142294819D02*
X230531428Y-142294819D01*
X230531428Y-142294819D02*
X230388571Y-142247200D01*
X230388571Y-142247200D02*
X230293333Y-142151961D01*
X230293333Y-142151961D02*
X230245714Y-142056723D01*
X230245714Y-142056723D02*
X230198095Y-141866247D01*
X230198095Y-141866247D02*
X230198095Y-141723390D01*
X230198095Y-141723390D02*
X230245714Y-141532914D01*
X230245714Y-141532914D02*
X230293333Y-141437676D01*
X230293333Y-141437676D02*
X230388571Y-141342438D01*
X230388571Y-141342438D02*
X230531428Y-141294819D01*
X230531428Y-141294819D02*
X230626666Y-141294819D01*
X230626666Y-141294819D02*
X230769523Y-141342438D01*
X230769523Y-141342438D02*
X230817142Y-141390057D01*
X231769523Y-142294819D02*
X231198095Y-142294819D01*
X231483809Y-142294819D02*
X231483809Y-141294819D01*
X231483809Y-141294819D02*
X231388571Y-141437676D01*
X231388571Y-141437676D02*
X231293333Y-141532914D01*
X231293333Y-141532914D02*
X231198095Y-141580533D01*
X232626666Y-141294819D02*
X232436190Y-141294819D01*
X232436190Y-141294819D02*
X232340952Y-141342438D01*
X232340952Y-141342438D02*
X232293333Y-141390057D01*
X232293333Y-141390057D02*
X232198095Y-141532914D01*
X232198095Y-141532914D02*
X232150476Y-141723390D01*
X232150476Y-141723390D02*
X232150476Y-142104342D01*
X232150476Y-142104342D02*
X232198095Y-142199580D01*
X232198095Y-142199580D02*
X232245714Y-142247200D01*
X232245714Y-142247200D02*
X232340952Y-142294819D01*
X232340952Y-142294819D02*
X232531428Y-142294819D01*
X232531428Y-142294819D02*
X232626666Y-142247200D01*
X232626666Y-142247200D02*
X232674285Y-142199580D01*
X232674285Y-142199580D02*
X232721904Y-142104342D01*
X232721904Y-142104342D02*
X232721904Y-141866247D01*
X232721904Y-141866247D02*
X232674285Y-141771009D01*
X232674285Y-141771009D02*
X232626666Y-141723390D01*
X232626666Y-141723390D02*
X232531428Y-141675771D01*
X232531428Y-141675771D02*
X232340952Y-141675771D01*
X232340952Y-141675771D02*
X232245714Y-141723390D01*
X232245714Y-141723390D02*
X232198095Y-141771009D01*
X232198095Y-141771009D02*
X232150476Y-141866247D01*
X227877142Y-139169580D02*
X227829523Y-139217200D01*
X227829523Y-139217200D02*
X227686666Y-139264819D01*
X227686666Y-139264819D02*
X227591428Y-139264819D01*
X227591428Y-139264819D02*
X227448571Y-139217200D01*
X227448571Y-139217200D02*
X227353333Y-139121961D01*
X227353333Y-139121961D02*
X227305714Y-139026723D01*
X227305714Y-139026723D02*
X227258095Y-138836247D01*
X227258095Y-138836247D02*
X227258095Y-138693390D01*
X227258095Y-138693390D02*
X227305714Y-138502914D01*
X227305714Y-138502914D02*
X227353333Y-138407676D01*
X227353333Y-138407676D02*
X227448571Y-138312438D01*
X227448571Y-138312438D02*
X227591428Y-138264819D01*
X227591428Y-138264819D02*
X227686666Y-138264819D01*
X227686666Y-138264819D02*
X227829523Y-138312438D01*
X227829523Y-138312438D02*
X227877142Y-138360057D01*
X228829523Y-139264819D02*
X228258095Y-139264819D01*
X228543809Y-139264819D02*
X228543809Y-138264819D01*
X228543809Y-138264819D02*
X228448571Y-138407676D01*
X228448571Y-138407676D02*
X228353333Y-138502914D01*
X228353333Y-138502914D02*
X228258095Y-138550533D01*
X229448571Y-138264819D02*
X229543809Y-138264819D01*
X229543809Y-138264819D02*
X229639047Y-138312438D01*
X229639047Y-138312438D02*
X229686666Y-138360057D01*
X229686666Y-138360057D02*
X229734285Y-138455295D01*
X229734285Y-138455295D02*
X229781904Y-138645771D01*
X229781904Y-138645771D02*
X229781904Y-138883866D01*
X229781904Y-138883866D02*
X229734285Y-139074342D01*
X229734285Y-139074342D02*
X229686666Y-139169580D01*
X229686666Y-139169580D02*
X229639047Y-139217200D01*
X229639047Y-139217200D02*
X229543809Y-139264819D01*
X229543809Y-139264819D02*
X229448571Y-139264819D01*
X229448571Y-139264819D02*
X229353333Y-139217200D01*
X229353333Y-139217200D02*
X229305714Y-139169580D01*
X229305714Y-139169580D02*
X229258095Y-139074342D01*
X229258095Y-139074342D02*
X229210476Y-138883866D01*
X229210476Y-138883866D02*
X229210476Y-138645771D01*
X229210476Y-138645771D02*
X229258095Y-138455295D01*
X229258095Y-138455295D02*
X229305714Y-138360057D01*
X229305714Y-138360057D02*
X229353333Y-138312438D01*
X229353333Y-138312438D02*
X229448571Y-138264819D01*
X221233333Y-115564819D02*
X220900000Y-115088628D01*
X220661905Y-115564819D02*
X220661905Y-114564819D01*
X220661905Y-114564819D02*
X221042857Y-114564819D01*
X221042857Y-114564819D02*
X221138095Y-114612438D01*
X221138095Y-114612438D02*
X221185714Y-114660057D01*
X221185714Y-114660057D02*
X221233333Y-114755295D01*
X221233333Y-114755295D02*
X221233333Y-114898152D01*
X221233333Y-114898152D02*
X221185714Y-114993390D01*
X221185714Y-114993390D02*
X221138095Y-115041009D01*
X221138095Y-115041009D02*
X221042857Y-115088628D01*
X221042857Y-115088628D02*
X220661905Y-115088628D01*
X222090476Y-114898152D02*
X222090476Y-115564819D01*
X221852381Y-114517200D02*
X221614286Y-115231485D01*
X221614286Y-115231485D02*
X222233333Y-115231485D01*
X194806666Y-166059819D02*
X194806666Y-166774104D01*
X194806666Y-166774104D02*
X194759047Y-166916961D01*
X194759047Y-166916961D02*
X194663809Y-167012200D01*
X194663809Y-167012200D02*
X194520952Y-167059819D01*
X194520952Y-167059819D02*
X194425714Y-167059819D01*
X195235238Y-166155057D02*
X195282857Y-166107438D01*
X195282857Y-166107438D02*
X195378095Y-166059819D01*
X195378095Y-166059819D02*
X195616190Y-166059819D01*
X195616190Y-166059819D02*
X195711428Y-166107438D01*
X195711428Y-166107438D02*
X195759047Y-166155057D01*
X195759047Y-166155057D02*
X195806666Y-166250295D01*
X195806666Y-166250295D02*
X195806666Y-166345533D01*
X195806666Y-166345533D02*
X195759047Y-166488390D01*
X195759047Y-166488390D02*
X195187619Y-167059819D01*
X195187619Y-167059819D02*
X195806666Y-167059819D01*
X195974819Y-144951904D02*
X196784342Y-144951904D01*
X196784342Y-144951904D02*
X196879580Y-144904285D01*
X196879580Y-144904285D02*
X196927200Y-144856666D01*
X196927200Y-144856666D02*
X196974819Y-144761428D01*
X196974819Y-144761428D02*
X196974819Y-144570952D01*
X196974819Y-144570952D02*
X196927200Y-144475714D01*
X196927200Y-144475714D02*
X196879580Y-144428095D01*
X196879580Y-144428095D02*
X196784342Y-144380476D01*
X196784342Y-144380476D02*
X195974819Y-144380476D01*
X195974819Y-143999523D02*
X195974819Y-143380476D01*
X195974819Y-143380476D02*
X196355771Y-143713809D01*
X196355771Y-143713809D02*
X196355771Y-143570952D01*
X196355771Y-143570952D02*
X196403390Y-143475714D01*
X196403390Y-143475714D02*
X196451009Y-143428095D01*
X196451009Y-143428095D02*
X196546247Y-143380476D01*
X196546247Y-143380476D02*
X196784342Y-143380476D01*
X196784342Y-143380476D02*
X196879580Y-143428095D01*
X196879580Y-143428095D02*
X196927200Y-143475714D01*
X196927200Y-143475714D02*
X196974819Y-143570952D01*
X196974819Y-143570952D02*
X196974819Y-143856666D01*
X196974819Y-143856666D02*
X196927200Y-143951904D01*
X196927200Y-143951904D02*
X196879580Y-143999523D01*
X216513333Y-115354819D02*
X216180000Y-114878628D01*
X215941905Y-115354819D02*
X215941905Y-114354819D01*
X215941905Y-114354819D02*
X216322857Y-114354819D01*
X216322857Y-114354819D02*
X216418095Y-114402438D01*
X216418095Y-114402438D02*
X216465714Y-114450057D01*
X216465714Y-114450057D02*
X216513333Y-114545295D01*
X216513333Y-114545295D02*
X216513333Y-114688152D01*
X216513333Y-114688152D02*
X216465714Y-114783390D01*
X216465714Y-114783390D02*
X216418095Y-114831009D01*
X216418095Y-114831009D02*
X216322857Y-114878628D01*
X216322857Y-114878628D02*
X215941905Y-114878628D01*
X217418095Y-114354819D02*
X216941905Y-114354819D01*
X216941905Y-114354819D02*
X216894286Y-114831009D01*
X216894286Y-114831009D02*
X216941905Y-114783390D01*
X216941905Y-114783390D02*
X217037143Y-114735771D01*
X217037143Y-114735771D02*
X217275238Y-114735771D01*
X217275238Y-114735771D02*
X217370476Y-114783390D01*
X217370476Y-114783390D02*
X217418095Y-114831009D01*
X217418095Y-114831009D02*
X217465714Y-114926247D01*
X217465714Y-114926247D02*
X217465714Y-115164342D01*
X217465714Y-115164342D02*
X217418095Y-115259580D01*
X217418095Y-115259580D02*
X217370476Y-115307200D01*
X217370476Y-115307200D02*
X217275238Y-115354819D01*
X217275238Y-115354819D02*
X217037143Y-115354819D01*
X217037143Y-115354819D02*
X216941905Y-115307200D01*
X216941905Y-115307200D02*
X216894286Y-115259580D01*
X228143333Y-140549580D02*
X228095714Y-140597200D01*
X228095714Y-140597200D02*
X227952857Y-140644819D01*
X227952857Y-140644819D02*
X227857619Y-140644819D01*
X227857619Y-140644819D02*
X227714762Y-140597200D01*
X227714762Y-140597200D02*
X227619524Y-140501961D01*
X227619524Y-140501961D02*
X227571905Y-140406723D01*
X227571905Y-140406723D02*
X227524286Y-140216247D01*
X227524286Y-140216247D02*
X227524286Y-140073390D01*
X227524286Y-140073390D02*
X227571905Y-139882914D01*
X227571905Y-139882914D02*
X227619524Y-139787676D01*
X227619524Y-139787676D02*
X227714762Y-139692438D01*
X227714762Y-139692438D02*
X227857619Y-139644819D01*
X227857619Y-139644819D02*
X227952857Y-139644819D01*
X227952857Y-139644819D02*
X228095714Y-139692438D01*
X228095714Y-139692438D02*
X228143333Y-139740057D01*
X229000476Y-139644819D02*
X228810000Y-139644819D01*
X228810000Y-139644819D02*
X228714762Y-139692438D01*
X228714762Y-139692438D02*
X228667143Y-139740057D01*
X228667143Y-139740057D02*
X228571905Y-139882914D01*
X228571905Y-139882914D02*
X228524286Y-140073390D01*
X228524286Y-140073390D02*
X228524286Y-140454342D01*
X228524286Y-140454342D02*
X228571905Y-140549580D01*
X228571905Y-140549580D02*
X228619524Y-140597200D01*
X228619524Y-140597200D02*
X228714762Y-140644819D01*
X228714762Y-140644819D02*
X228905238Y-140644819D01*
X228905238Y-140644819D02*
X229000476Y-140597200D01*
X229000476Y-140597200D02*
X229048095Y-140549580D01*
X229048095Y-140549580D02*
X229095714Y-140454342D01*
X229095714Y-140454342D02*
X229095714Y-140216247D01*
X229095714Y-140216247D02*
X229048095Y-140121009D01*
X229048095Y-140121009D02*
X229000476Y-140073390D01*
X229000476Y-140073390D02*
X228905238Y-140025771D01*
X228905238Y-140025771D02*
X228714762Y-140025771D01*
X228714762Y-140025771D02*
X228619524Y-140073390D01*
X228619524Y-140073390D02*
X228571905Y-140121009D01*
X228571905Y-140121009D02*
X228524286Y-140216247D01*
X193407142Y-138999580D02*
X193359523Y-139047200D01*
X193359523Y-139047200D02*
X193216666Y-139094819D01*
X193216666Y-139094819D02*
X193121428Y-139094819D01*
X193121428Y-139094819D02*
X192978571Y-139047200D01*
X192978571Y-139047200D02*
X192883333Y-138951961D01*
X192883333Y-138951961D02*
X192835714Y-138856723D01*
X192835714Y-138856723D02*
X192788095Y-138666247D01*
X192788095Y-138666247D02*
X192788095Y-138523390D01*
X192788095Y-138523390D02*
X192835714Y-138332914D01*
X192835714Y-138332914D02*
X192883333Y-138237676D01*
X192883333Y-138237676D02*
X192978571Y-138142438D01*
X192978571Y-138142438D02*
X193121428Y-138094819D01*
X193121428Y-138094819D02*
X193216666Y-138094819D01*
X193216666Y-138094819D02*
X193359523Y-138142438D01*
X193359523Y-138142438D02*
X193407142Y-138190057D01*
X194359523Y-139094819D02*
X193788095Y-139094819D01*
X194073809Y-139094819D02*
X194073809Y-138094819D01*
X194073809Y-138094819D02*
X193978571Y-138237676D01*
X193978571Y-138237676D02*
X193883333Y-138332914D01*
X193883333Y-138332914D02*
X193788095Y-138380533D01*
X195216666Y-138428152D02*
X195216666Y-139094819D01*
X194978571Y-138047200D02*
X194740476Y-138761485D01*
X194740476Y-138761485D02*
X195359523Y-138761485D01*
X222299580Y-155172857D02*
X222347200Y-155220476D01*
X222347200Y-155220476D02*
X222394819Y-155363333D01*
X222394819Y-155363333D02*
X222394819Y-155458571D01*
X222394819Y-155458571D02*
X222347200Y-155601428D01*
X222347200Y-155601428D02*
X222251961Y-155696666D01*
X222251961Y-155696666D02*
X222156723Y-155744285D01*
X222156723Y-155744285D02*
X221966247Y-155791904D01*
X221966247Y-155791904D02*
X221823390Y-155791904D01*
X221823390Y-155791904D02*
X221632914Y-155744285D01*
X221632914Y-155744285D02*
X221537676Y-155696666D01*
X221537676Y-155696666D02*
X221442438Y-155601428D01*
X221442438Y-155601428D02*
X221394819Y-155458571D01*
X221394819Y-155458571D02*
X221394819Y-155363333D01*
X221394819Y-155363333D02*
X221442438Y-155220476D01*
X221442438Y-155220476D02*
X221490057Y-155172857D01*
X222394819Y-154220476D02*
X222394819Y-154791904D01*
X222394819Y-154506190D02*
X221394819Y-154506190D01*
X221394819Y-154506190D02*
X221537676Y-154601428D01*
X221537676Y-154601428D02*
X221632914Y-154696666D01*
X221632914Y-154696666D02*
X221680533Y-154791904D01*
X222394819Y-153268095D02*
X222394819Y-153839523D01*
X222394819Y-153553809D02*
X221394819Y-153553809D01*
X221394819Y-153553809D02*
X221537676Y-153649047D01*
X221537676Y-153649047D02*
X221632914Y-153744285D01*
X221632914Y-153744285D02*
X221680533Y-153839523D01*
X197934819Y-157066666D02*
X197458628Y-157399999D01*
X197934819Y-157638094D02*
X196934819Y-157638094D01*
X196934819Y-157638094D02*
X196934819Y-157257142D01*
X196934819Y-157257142D02*
X196982438Y-157161904D01*
X196982438Y-157161904D02*
X197030057Y-157114285D01*
X197030057Y-157114285D02*
X197125295Y-157066666D01*
X197125295Y-157066666D02*
X197268152Y-157066666D01*
X197268152Y-157066666D02*
X197363390Y-157114285D01*
X197363390Y-157114285D02*
X197411009Y-157161904D01*
X197411009Y-157161904D02*
X197458628Y-157257142D01*
X197458628Y-157257142D02*
X197458628Y-157638094D01*
X196934819Y-156733332D02*
X196934819Y-156066666D01*
X196934819Y-156066666D02*
X197934819Y-156495237D01*
X223913333Y-113639580D02*
X223865714Y-113687200D01*
X223865714Y-113687200D02*
X223722857Y-113734819D01*
X223722857Y-113734819D02*
X223627619Y-113734819D01*
X223627619Y-113734819D02*
X223484762Y-113687200D01*
X223484762Y-113687200D02*
X223389524Y-113591961D01*
X223389524Y-113591961D02*
X223341905Y-113496723D01*
X223341905Y-113496723D02*
X223294286Y-113306247D01*
X223294286Y-113306247D02*
X223294286Y-113163390D01*
X223294286Y-113163390D02*
X223341905Y-112972914D01*
X223341905Y-112972914D02*
X223389524Y-112877676D01*
X223389524Y-112877676D02*
X223484762Y-112782438D01*
X223484762Y-112782438D02*
X223627619Y-112734819D01*
X223627619Y-112734819D02*
X223722857Y-112734819D01*
X223722857Y-112734819D02*
X223865714Y-112782438D01*
X223865714Y-112782438D02*
X223913333Y-112830057D01*
X224865714Y-113734819D02*
X224294286Y-113734819D01*
X224580000Y-113734819D02*
X224580000Y-112734819D01*
X224580000Y-112734819D02*
X224484762Y-112877676D01*
X224484762Y-112877676D02*
X224389524Y-112972914D01*
X224389524Y-112972914D02*
X224294286Y-113020533D01*
X211613333Y-149679580D02*
X211565714Y-149727200D01*
X211565714Y-149727200D02*
X211422857Y-149774819D01*
X211422857Y-149774819D02*
X211327619Y-149774819D01*
X211327619Y-149774819D02*
X211184762Y-149727200D01*
X211184762Y-149727200D02*
X211089524Y-149631961D01*
X211089524Y-149631961D02*
X211041905Y-149536723D01*
X211041905Y-149536723D02*
X210994286Y-149346247D01*
X210994286Y-149346247D02*
X210994286Y-149203390D01*
X210994286Y-149203390D02*
X211041905Y-149012914D01*
X211041905Y-149012914D02*
X211089524Y-148917676D01*
X211089524Y-148917676D02*
X211184762Y-148822438D01*
X211184762Y-148822438D02*
X211327619Y-148774819D01*
X211327619Y-148774819D02*
X211422857Y-148774819D01*
X211422857Y-148774819D02*
X211565714Y-148822438D01*
X211565714Y-148822438D02*
X211613333Y-148870057D01*
X212184762Y-149203390D02*
X212089524Y-149155771D01*
X212089524Y-149155771D02*
X212041905Y-149108152D01*
X212041905Y-149108152D02*
X211994286Y-149012914D01*
X211994286Y-149012914D02*
X211994286Y-148965295D01*
X211994286Y-148965295D02*
X212041905Y-148870057D01*
X212041905Y-148870057D02*
X212089524Y-148822438D01*
X212089524Y-148822438D02*
X212184762Y-148774819D01*
X212184762Y-148774819D02*
X212375238Y-148774819D01*
X212375238Y-148774819D02*
X212470476Y-148822438D01*
X212470476Y-148822438D02*
X212518095Y-148870057D01*
X212518095Y-148870057D02*
X212565714Y-148965295D01*
X212565714Y-148965295D02*
X212565714Y-149012914D01*
X212565714Y-149012914D02*
X212518095Y-149108152D01*
X212518095Y-149108152D02*
X212470476Y-149155771D01*
X212470476Y-149155771D02*
X212375238Y-149203390D01*
X212375238Y-149203390D02*
X212184762Y-149203390D01*
X212184762Y-149203390D02*
X212089524Y-149251009D01*
X212089524Y-149251009D02*
X212041905Y-149298628D01*
X212041905Y-149298628D02*
X211994286Y-149393866D01*
X211994286Y-149393866D02*
X211994286Y-149584342D01*
X211994286Y-149584342D02*
X212041905Y-149679580D01*
X212041905Y-149679580D02*
X212089524Y-149727200D01*
X212089524Y-149727200D02*
X212184762Y-149774819D01*
X212184762Y-149774819D02*
X212375238Y-149774819D01*
X212375238Y-149774819D02*
X212470476Y-149727200D01*
X212470476Y-149727200D02*
X212518095Y-149679580D01*
X212518095Y-149679580D02*
X212565714Y-149584342D01*
X212565714Y-149584342D02*
X212565714Y-149393866D01*
X212565714Y-149393866D02*
X212518095Y-149298628D01*
X212518095Y-149298628D02*
X212470476Y-149251009D01*
X212470476Y-149251009D02*
X212375238Y-149203390D01*
X219459580Y-128032857D02*
X219507200Y-128080476D01*
X219507200Y-128080476D02*
X219554819Y-128223333D01*
X219554819Y-128223333D02*
X219554819Y-128318571D01*
X219554819Y-128318571D02*
X219507200Y-128461428D01*
X219507200Y-128461428D02*
X219411961Y-128556666D01*
X219411961Y-128556666D02*
X219316723Y-128604285D01*
X219316723Y-128604285D02*
X219126247Y-128651904D01*
X219126247Y-128651904D02*
X218983390Y-128651904D01*
X218983390Y-128651904D02*
X218792914Y-128604285D01*
X218792914Y-128604285D02*
X218697676Y-128556666D01*
X218697676Y-128556666D02*
X218602438Y-128461428D01*
X218602438Y-128461428D02*
X218554819Y-128318571D01*
X218554819Y-128318571D02*
X218554819Y-128223333D01*
X218554819Y-128223333D02*
X218602438Y-128080476D01*
X218602438Y-128080476D02*
X218650057Y-128032857D01*
X219554819Y-127080476D02*
X219554819Y-127651904D01*
X219554819Y-127366190D02*
X218554819Y-127366190D01*
X218554819Y-127366190D02*
X218697676Y-127461428D01*
X218697676Y-127461428D02*
X218792914Y-127556666D01*
X218792914Y-127556666D02*
X218840533Y-127651904D01*
X218554819Y-126175714D02*
X218554819Y-126651904D01*
X218554819Y-126651904D02*
X219031009Y-126699523D01*
X219031009Y-126699523D02*
X218983390Y-126651904D01*
X218983390Y-126651904D02*
X218935771Y-126556666D01*
X218935771Y-126556666D02*
X218935771Y-126318571D01*
X218935771Y-126318571D02*
X218983390Y-126223333D01*
X218983390Y-126223333D02*
X219031009Y-126175714D01*
X219031009Y-126175714D02*
X219126247Y-126128095D01*
X219126247Y-126128095D02*
X219364342Y-126128095D01*
X219364342Y-126128095D02*
X219459580Y-126175714D01*
X219459580Y-126175714D02*
X219507200Y-126223333D01*
X219507200Y-126223333D02*
X219554819Y-126318571D01*
X219554819Y-126318571D02*
X219554819Y-126556666D01*
X219554819Y-126556666D02*
X219507200Y-126651904D01*
X219507200Y-126651904D02*
X219459580Y-126699523D01*
X221253333Y-150939580D02*
X221205714Y-150987200D01*
X221205714Y-150987200D02*
X221062857Y-151034819D01*
X221062857Y-151034819D02*
X220967619Y-151034819D01*
X220967619Y-151034819D02*
X220824762Y-150987200D01*
X220824762Y-150987200D02*
X220729524Y-150891961D01*
X220729524Y-150891961D02*
X220681905Y-150796723D01*
X220681905Y-150796723D02*
X220634286Y-150606247D01*
X220634286Y-150606247D02*
X220634286Y-150463390D01*
X220634286Y-150463390D02*
X220681905Y-150272914D01*
X220681905Y-150272914D02*
X220729524Y-150177676D01*
X220729524Y-150177676D02*
X220824762Y-150082438D01*
X220824762Y-150082438D02*
X220967619Y-150034819D01*
X220967619Y-150034819D02*
X221062857Y-150034819D01*
X221062857Y-150034819D02*
X221205714Y-150082438D01*
X221205714Y-150082438D02*
X221253333Y-150130057D01*
X221586667Y-150034819D02*
X222253333Y-150034819D01*
X222253333Y-150034819D02*
X221824762Y-151034819D01*
X99238095Y-157654819D02*
X99238095Y-156654819D01*
X99238095Y-157131009D02*
X99809523Y-157131009D01*
X99809523Y-157654819D02*
X99809523Y-156654819D01*
X100714285Y-156988152D02*
X100714285Y-157654819D01*
X100476190Y-156607200D02*
X100238095Y-157321485D01*
X100238095Y-157321485D02*
X100857142Y-157321485D01*
X214383333Y-137999580D02*
X214335714Y-138047200D01*
X214335714Y-138047200D02*
X214192857Y-138094819D01*
X214192857Y-138094819D02*
X214097619Y-138094819D01*
X214097619Y-138094819D02*
X213954762Y-138047200D01*
X213954762Y-138047200D02*
X213859524Y-137951961D01*
X213859524Y-137951961D02*
X213811905Y-137856723D01*
X213811905Y-137856723D02*
X213764286Y-137666247D01*
X213764286Y-137666247D02*
X213764286Y-137523390D01*
X213764286Y-137523390D02*
X213811905Y-137332914D01*
X213811905Y-137332914D02*
X213859524Y-137237676D01*
X213859524Y-137237676D02*
X213954762Y-137142438D01*
X213954762Y-137142438D02*
X214097619Y-137094819D01*
X214097619Y-137094819D02*
X214192857Y-137094819D01*
X214192857Y-137094819D02*
X214335714Y-137142438D01*
X214335714Y-137142438D02*
X214383333Y-137190057D01*
X215288095Y-137094819D02*
X214811905Y-137094819D01*
X214811905Y-137094819D02*
X214764286Y-137571009D01*
X214764286Y-137571009D02*
X214811905Y-137523390D01*
X214811905Y-137523390D02*
X214907143Y-137475771D01*
X214907143Y-137475771D02*
X215145238Y-137475771D01*
X215145238Y-137475771D02*
X215240476Y-137523390D01*
X215240476Y-137523390D02*
X215288095Y-137571009D01*
X215288095Y-137571009D02*
X215335714Y-137666247D01*
X215335714Y-137666247D02*
X215335714Y-137904342D01*
X215335714Y-137904342D02*
X215288095Y-137999580D01*
X215288095Y-137999580D02*
X215240476Y-138047200D01*
X215240476Y-138047200D02*
X215145238Y-138094819D01*
X215145238Y-138094819D02*
X214907143Y-138094819D01*
X214907143Y-138094819D02*
X214811905Y-138047200D01*
X214811905Y-138047200D02*
X214764286Y-137999580D01*
X336738095Y-120154819D02*
X336738095Y-119154819D01*
X336738095Y-119631009D02*
X337309523Y-119631009D01*
X337309523Y-120154819D02*
X337309523Y-119154819D01*
X337738095Y-119250057D02*
X337785714Y-119202438D01*
X337785714Y-119202438D02*
X337880952Y-119154819D01*
X337880952Y-119154819D02*
X338119047Y-119154819D01*
X338119047Y-119154819D02*
X338214285Y-119202438D01*
X338214285Y-119202438D02*
X338261904Y-119250057D01*
X338261904Y-119250057D02*
X338309523Y-119345295D01*
X338309523Y-119345295D02*
X338309523Y-119440533D01*
X338309523Y-119440533D02*
X338261904Y-119583390D01*
X338261904Y-119583390D02*
X337690476Y-120154819D01*
X337690476Y-120154819D02*
X338309523Y-120154819D01*
X217809580Y-128432857D02*
X217857200Y-128480476D01*
X217857200Y-128480476D02*
X217904819Y-128623333D01*
X217904819Y-128623333D02*
X217904819Y-128718571D01*
X217904819Y-128718571D02*
X217857200Y-128861428D01*
X217857200Y-128861428D02*
X217761961Y-128956666D01*
X217761961Y-128956666D02*
X217666723Y-129004285D01*
X217666723Y-129004285D02*
X217476247Y-129051904D01*
X217476247Y-129051904D02*
X217333390Y-129051904D01*
X217333390Y-129051904D02*
X217142914Y-129004285D01*
X217142914Y-129004285D02*
X217047676Y-128956666D01*
X217047676Y-128956666D02*
X216952438Y-128861428D01*
X216952438Y-128861428D02*
X216904819Y-128718571D01*
X216904819Y-128718571D02*
X216904819Y-128623333D01*
X216904819Y-128623333D02*
X216952438Y-128480476D01*
X216952438Y-128480476D02*
X217000057Y-128432857D01*
X217904819Y-127480476D02*
X217904819Y-128051904D01*
X217904819Y-127766190D02*
X216904819Y-127766190D01*
X216904819Y-127766190D02*
X217047676Y-127861428D01*
X217047676Y-127861428D02*
X217142914Y-127956666D01*
X217142914Y-127956666D02*
X217190533Y-128051904D01*
X217000057Y-127099523D02*
X216952438Y-127051904D01*
X216952438Y-127051904D02*
X216904819Y-126956666D01*
X216904819Y-126956666D02*
X216904819Y-126718571D01*
X216904819Y-126718571D02*
X216952438Y-126623333D01*
X216952438Y-126623333D02*
X217000057Y-126575714D01*
X217000057Y-126575714D02*
X217095295Y-126528095D01*
X217095295Y-126528095D02*
X217190533Y-126528095D01*
X217190533Y-126528095D02*
X217333390Y-126575714D01*
X217333390Y-126575714D02*
X217904819Y-127147142D01*
X217904819Y-127147142D02*
X217904819Y-126528095D01*
X238938095Y-128154819D02*
X238938095Y-128964342D01*
X238938095Y-128964342D02*
X238985714Y-129059580D01*
X238985714Y-129059580D02*
X239033333Y-129107200D01*
X239033333Y-129107200D02*
X239128571Y-129154819D01*
X239128571Y-129154819D02*
X239319047Y-129154819D01*
X239319047Y-129154819D02*
X239414285Y-129107200D01*
X239414285Y-129107200D02*
X239461904Y-129059580D01*
X239461904Y-129059580D02*
X239509523Y-128964342D01*
X239509523Y-128964342D02*
X239509523Y-128154819D01*
X240509523Y-129154819D02*
X239938095Y-129154819D01*
X240223809Y-129154819D02*
X240223809Y-128154819D01*
X240223809Y-128154819D02*
X240128571Y-128297676D01*
X240128571Y-128297676D02*
X240033333Y-128392914D01*
X240033333Y-128392914D02*
X239938095Y-128440533D01*
X220339580Y-170466666D02*
X220387200Y-170514285D01*
X220387200Y-170514285D02*
X220434819Y-170657142D01*
X220434819Y-170657142D02*
X220434819Y-170752380D01*
X220434819Y-170752380D02*
X220387200Y-170895237D01*
X220387200Y-170895237D02*
X220291961Y-170990475D01*
X220291961Y-170990475D02*
X220196723Y-171038094D01*
X220196723Y-171038094D02*
X220006247Y-171085713D01*
X220006247Y-171085713D02*
X219863390Y-171085713D01*
X219863390Y-171085713D02*
X219672914Y-171038094D01*
X219672914Y-171038094D02*
X219577676Y-170990475D01*
X219577676Y-170990475D02*
X219482438Y-170895237D01*
X219482438Y-170895237D02*
X219434819Y-170752380D01*
X219434819Y-170752380D02*
X219434819Y-170657142D01*
X219434819Y-170657142D02*
X219482438Y-170514285D01*
X219482438Y-170514285D02*
X219530057Y-170466666D01*
X219768152Y-169609523D02*
X220434819Y-169609523D01*
X219387200Y-169847618D02*
X220101485Y-170085713D01*
X220101485Y-170085713D02*
X220101485Y-169466666D01*
D12*
%TO.C,Y1*%
X219685000Y-162825000D02*
X213435000Y-162825000D01*
X219685000Y-167875000D02*
X213435000Y-167875000D01*
X213435000Y-167875000D02*
G75*
G02*
X213435000Y-162825000I0J2525000D01*
G01*
X219685000Y-162825000D02*
G75*
G02*
X219685000Y-167875000I0J-2525000D01*
G01*
%TO.C,TP104*%
X227400000Y-124090000D02*
G75*
G02*
X226000000Y-124090000I-700000J0D01*
G01*
X226000000Y-124090000D02*
G75*
G02*
X227400000Y-124090000I700000J0D01*
G01*
%TO.C,TP103*%
X244500000Y-121890000D02*
G75*
G02*
X243100000Y-121890000I-700000J0D01*
G01*
X243100000Y-121890000D02*
G75*
G02*
X244500000Y-121890000I700000J0D01*
G01*
%TO.C,R3*%
X220897500Y-160784724D02*
X220897500Y-160275276D01*
X221942500Y-160784724D02*
X221942500Y-160275276D01*
%TO.C,C2*%
X234900000Y-129353733D02*
X234900000Y-129646267D01*
X235920000Y-129353733D02*
X235920000Y-129646267D01*
%TO.C,R6*%
X200084724Y-151217500D02*
X199575276Y-151217500D01*
X200084724Y-152262500D02*
X199575276Y-152262500D01*
%TO.C,TP105*%
X244500000Y-126490000D02*
G75*
G02*
X243100000Y-126490000I-700000J0D01*
G01*
X243100000Y-126490000D02*
G75*
G02*
X244500000Y-126490000I700000J0D01*
G01*
%TO.C,U2*%
X215490000Y-148680000D02*
X215490000Y-148030000D01*
X216140000Y-141460000D02*
X215490000Y-141460000D01*
X216140000Y-148680000D02*
X215490000Y-148680000D01*
X222060000Y-141460000D02*
X222710000Y-141460000D01*
X222060000Y-148680000D02*
X222710000Y-148680000D01*
X222710000Y-141460000D02*
X222710000Y-142110000D01*
X222710000Y-148680000D02*
X222710000Y-148030000D01*
%TO.C,C13*%
X228123733Y-147140000D02*
X228416267Y-147140000D01*
X228123733Y-148160000D02*
X228416267Y-148160000D01*
%TO.C,C9*%
X220940000Y-138076267D02*
X220940000Y-137783733D01*
X221960000Y-138076267D02*
X221960000Y-137783733D01*
%TO.C,C3*%
X216020000Y-170456267D02*
X216020000Y-170163733D01*
X217040000Y-170456267D02*
X217040000Y-170163733D01*
%TO.C,C16*%
X228123733Y-141360000D02*
X228416267Y-141360000D01*
X228123733Y-142380000D02*
X228416267Y-142380000D01*
%TO.C,C10*%
X224273733Y-137440000D02*
X224566267Y-137440000D01*
X224273733Y-138460000D02*
X224566267Y-138460000D01*
%TO.C,R4*%
X219447500Y-112375276D02*
X219447500Y-112884724D01*
X220492500Y-112375276D02*
X220492500Y-112884724D01*
%TO.C,J2*%
X189425000Y-161415000D02*
X195425000Y-161415000D01*
X189425000Y-162175000D02*
X189425000Y-161415000D01*
X189425000Y-163955000D02*
X195425000Y-163955000D01*
X189425000Y-164715000D02*
X189425000Y-163955000D01*
X195425000Y-160465000D02*
X195425000Y-165665000D01*
X195425000Y-162175000D02*
X189425000Y-162175000D01*
X195425000Y-164055000D02*
X189425000Y-164055000D01*
X195425000Y-164175000D02*
X189425000Y-164175000D01*
X195425000Y-164295000D02*
X189425000Y-164295000D01*
X195425000Y-164415000D02*
X189425000Y-164415000D01*
X195425000Y-164535000D02*
X189425000Y-164535000D01*
X195425000Y-164655000D02*
X189425000Y-164655000D01*
X195425000Y-164715000D02*
X189425000Y-164715000D01*
X195425000Y-165665000D02*
X198085000Y-165665000D01*
X198085000Y-160465000D02*
X195425000Y-160465000D01*
X198085000Y-163065000D02*
X195425000Y-163065000D01*
X198085000Y-165665000D02*
X198085000Y-160465000D01*
X198415000Y-163955000D02*
X198085000Y-163955000D01*
X198415000Y-164715000D02*
X198085000Y-164715000D01*
X198482071Y-161415000D02*
X198085000Y-161415000D01*
X198482071Y-162175000D02*
X198085000Y-162175000D01*
X200795000Y-164335000D02*
X200795000Y-165605000D01*
X200795000Y-165605000D02*
X199525000Y-165605000D01*
%TO.C,U3*%
X197355000Y-141465000D02*
X197615000Y-141465000D01*
X197355000Y-144190000D02*
X197355000Y-141465000D01*
X197355000Y-144190000D02*
X197355000Y-146915000D01*
X197355000Y-146915000D02*
X197615000Y-146915000D01*
X197615000Y-146915000D02*
X197615000Y-148590000D01*
X202805000Y-141465000D02*
X202545000Y-141465000D01*
X202805000Y-144190000D02*
X202805000Y-141465000D01*
X202805000Y-144190000D02*
X202805000Y-146915000D01*
X202805000Y-146915000D02*
X202545000Y-146915000D01*
%TO.C,R5*%
X217687500Y-112375276D02*
X217687500Y-112884724D01*
X218732500Y-112375276D02*
X218732500Y-112884724D01*
%TO.C,C6*%
X225463733Y-139500000D02*
X225756267Y-139500000D01*
X225463733Y-140520000D02*
X225756267Y-140520000D01*
%TO.C,C14*%
X197426267Y-137990000D02*
X197133733Y-137990000D01*
X197426267Y-139010000D02*
X197133733Y-139010000D01*
%TO.C,C11*%
X220000000Y-154383733D02*
X220000000Y-154676267D01*
X221020000Y-154383733D02*
X221020000Y-154676267D01*
%TO.C,R7*%
X198387500Y-157154724D02*
X198387500Y-156645276D01*
X199432500Y-157154724D02*
X199432500Y-156645276D01*
%TO.C,C1*%
X223160000Y-110593733D02*
X223160000Y-110886267D01*
X224180000Y-110593733D02*
X224180000Y-110886267D01*
%TO.C,C8*%
X212146267Y-146290000D02*
X211853733Y-146290000D01*
X212146267Y-147310000D02*
X211853733Y-147310000D01*
%TO.C,C15*%
X218630000Y-131056267D02*
X218630000Y-130763733D01*
X219650000Y-131056267D02*
X219650000Y-130763733D01*
%TO.C,C7*%
X221273733Y-151500000D02*
X221566267Y-151500000D01*
X221273733Y-152520000D02*
X221566267Y-152520000D01*
%TO.C,C5*%
X217496267Y-136830000D02*
X217203733Y-136830000D01*
X217496267Y-137850000D02*
X217203733Y-137850000D01*
%TO.C,C12*%
X217010000Y-131306267D02*
X217010000Y-131013733D01*
X218030000Y-131306267D02*
X218030000Y-131013733D01*
%TO.C,U1*%
X235960000Y-120750000D02*
X237460000Y-120750000D01*
X235960000Y-127650000D02*
X237460000Y-127650000D01*
X237460000Y-120750000D02*
X237460000Y-121020000D01*
X237460000Y-121020000D02*
X238560000Y-121020000D01*
X237460000Y-127380000D02*
X240290000Y-127380000D01*
X237460000Y-127650000D02*
X237460000Y-127380000D01*
%TO.C,C4*%
X220900000Y-170446267D02*
X220900000Y-170153733D01*
X221920000Y-170446267D02*
X221920000Y-170153733D01*
%TD*%
M02*
