M48
; DRILL file {KiCad 8.0.9-8.0.9-0~ubuntu22.04.1} date 2025-08-11T19:45:56-0700
; FORMAT={-:-/ absolute / metric / decimal}
; #@! TF.CreationDate,2025-08-11T19:45:56-07:00
; #@! TF.GenerationSoftware,Kicad,Pcbnew,8.0.9-8.0.9-0~ubuntu22.04.1
; #@! TF.FileFunction,NonPlated,1,2,NPTH
FMAT,2
METRIC
; #@! TA.AperFunction,NonPlated,NPTH,ComponentDrill
T1C1.700
; #@! TA.AperFunction,NonPlated,NPTH,ComponentDrill
T2C4.000
%
G90
G05
T1
X70.89Y-116.8
X70.89Y-135.85
X70.89Y-154.81
X70.89Y-173.86
X81.05Y-116.8
X81.05Y-135.85
X81.05Y-154.81
X81.05Y-173.86
X89.987Y-116.8
X89.987Y-135.85
X89.987Y-154.81
X90.03Y-173.84
X100.147Y-116.8
X100.147Y-135.85
X100.147Y-154.81
X100.19Y-173.84
X109.085Y-116.8
X109.085Y-135.85
X109.085Y-154.81
X109.085Y-173.86
X119.245Y-116.8
X119.245Y-135.85
X119.245Y-154.81
X119.245Y-173.86
X128.183Y-116.8
X128.183Y-135.85
X128.183Y-154.81
X128.183Y-173.86
X138.343Y-116.8
X138.343Y-135.85
X138.343Y-154.81
X138.343Y-173.86
X147.28Y-116.8
X147.28Y-135.85
X147.28Y-154.81
X147.28Y-173.86
X157.44Y-116.8
X157.44Y-135.85
X157.44Y-154.81
X157.44Y-173.86
X166.377Y-116.8
X166.377Y-135.85
X166.377Y-154.81
X166.377Y-173.86
X176.537Y-116.8
X176.537Y-135.85
X176.537Y-154.81
X176.537Y-173.86
X185.475Y-116.8
X185.475Y-135.85
X185.475Y-154.81
X185.475Y-173.86
X195.635Y-116.8
X195.635Y-135.85
X195.635Y-154.81
X195.635Y-173.86
X204.477Y-116.8
X204.477Y-135.85
X204.477Y-173.86
X204.51Y-154.85
X214.637Y-116.8
X214.637Y-135.85
X214.637Y-173.86
X214.67Y-154.85
X223.528Y-116.8
X223.528Y-135.85
X223.528Y-154.81
X223.528Y-173.86
X233.688Y-116.8
X233.688Y-135.85
X233.688Y-154.81
X233.688Y-173.86
X242.53Y-116.8
X242.53Y-135.85
X242.53Y-154.81
X242.53Y-173.86
X252.69Y-116.8
X252.69Y-135.85
X252.69Y-154.81
X252.69Y-173.86
X261.58Y-116.8
X261.58Y-135.85
X261.58Y-154.81
X261.58Y-173.86
X271.74Y-116.8
X271.74Y-135.85
X271.74Y-154.81
X271.74Y-173.86
X280.582Y-116.8
X280.582Y-135.85
X280.582Y-154.81
X280.582Y-173.86
X290.743Y-116.8
X290.743Y-135.85
X290.743Y-154.81
X290.743Y-173.86
X299.585Y-116.8
X299.585Y-135.85
X299.585Y-154.81
X299.585Y-173.86
X309.745Y-116.8
X309.745Y-135.85
X309.745Y-154.81
X309.745Y-173.86
X318.587Y-116.8
X318.587Y-135.85
X318.587Y-154.81
X318.587Y-173.86
X328.748Y-116.8
X328.748Y-135.85
X328.748Y-154.81
X328.748Y-173.86
X337.637Y-116.8
X337.637Y-135.85
X337.637Y-154.81
X337.637Y-173.86
X347.797Y-116.8
X347.797Y-135.85
X347.797Y-154.81
X347.797Y-173.86
X356.64Y-116.8
X356.64Y-135.85
X356.64Y-154.81
X356.64Y-173.86
X366.8Y-116.8
X366.8Y-135.85
X366.8Y-154.81
X366.8Y-173.86
T2
X75.97Y-116.8
X75.97Y-135.85
X75.97Y-154.81
X75.97Y-173.86
X95.067Y-116.8
X95.067Y-135.85
X95.067Y-154.81
X95.11Y-173.84
X114.165Y-116.8
X114.165Y-135.85
X114.165Y-154.81
X114.165Y-173.86
X133.262Y-116.8
X133.262Y-135.85
X133.262Y-154.81
X133.262Y-173.86
X152.36Y-116.8
X152.36Y-135.85
X152.36Y-154.81
X152.36Y-173.86
X171.457Y-116.8
X171.457Y-135.85
X171.457Y-154.81
X171.457Y-173.86
X190.555Y-116.8
X190.555Y-135.85
X190.555Y-154.81
X190.555Y-173.86
X209.558Y-116.8
X209.558Y-135.85
X209.558Y-173.86
X209.59Y-154.85
X228.607Y-116.8
X228.607Y-135.85
X228.607Y-154.81
X228.607Y-173.86
X247.61Y-116.8
X247.61Y-135.85
X247.61Y-154.81
X247.61Y-173.86
X266.66Y-116.8
X266.66Y-135.85
X266.66Y-154.81
X266.66Y-173.86
X285.662Y-116.8
X285.662Y-135.85
X285.662Y-154.81
X285.662Y-173.86
X304.665Y-116.8
X304.665Y-135.85
X304.665Y-154.81
X304.665Y-173.86
X323.667Y-116.8
X323.667Y-135.85
X323.667Y-154.81
X323.667Y-173.86
X342.717Y-116.8
X342.717Y-135.85
X342.717Y-154.81
X342.717Y-173.86
X361.72Y-116.8
X361.72Y-135.85
X361.72Y-154.81
X361.72Y-173.86
M30
