M48
; DRILL file {KiCad 8.0.9-8.0.9-0~ubuntu22.04.1} date 2025-08-11T19:45:56-0700
; FORMAT={-:-/ absolute / metric / decimal}
; #@! TF.CreationDate,2025-08-11T19:45:56-07:00
; #@! TF.GenerationSoftware,Kicad,Pcbnew,8.0.9-8.0.9-0~ubuntu22.04.1
; #@! TF.FileFunction,Plated,1,2,PTH
FMAT,2
METRIC
; #@! TA.AperFunction,Plated,PTH,ComponentDrill
T1C0.350
; #@! TA.AperFunction,Plated,PTH,ViaDrill
T2C0.400
; #@! TA.AperFunction,Plated,PTH,ComponentDrill
T3C0.500
; #@! TA.AperFunction,Plated,PTH,ComponentDrill
T4C0.600
; #@! TA.AperFunction,Plated,PTH,ComponentDrill
T5C0.650
; #@! TA.AperFunction,Plated,PTH,ComponentDrill
T6C0.800
; #@! TA.AperFunction,Plated,PTH,ComponentDrill
T7C1.000
; #@! TA.AperFunction,Plated,PTH,ComponentDrill
T8C1.500
; #@! TA.AperFunction,Plated,PTH,ComponentDrill
T9C4.300
%
G90
G05
T1
X217.825Y-143.795
X217.825Y-145.07
X217.825Y-146.345
X219.1Y-143.795
X219.1Y-145.07
X219.1Y-146.345
X220.375Y-143.795
X220.375Y-145.07
X220.375Y-146.345
T2
X67.92Y-175.37
X67.93Y-137.0
X68.0Y-117.78
X68.03Y-156.02
X87.02Y-156.14
X87.03Y-117.87
X87.09Y-136.9
X87.13Y-175.03
X106.05Y-175.2
X106.06Y-156.02
X106.11Y-137.0
X106.19Y-117.82
X125.26Y-175.28
X125.3Y-117.92
X125.33Y-155.92
X125.37Y-136.92
X144.39Y-156.09
X144.41Y-117.97
X144.44Y-136.97
X144.6Y-175.16
X163.42Y-118.03
X163.51Y-156.02
X163.51Y-175.16
X163.53Y-136.85
X182.53Y-118.03
X182.72Y-137.05
X182.8Y-155.85
X183.14Y-174.99
X195.85Y-147.89
X196.0Y-140.49
X198.87Y-159.92
X201.44Y-117.87
X201.59Y-136.83
X201.67Y-174.96
X201.69Y-155.92
X202.0Y-146.28
X203.84Y-114.26
X204.05Y-133.31
X204.66Y-142.35
X204.71Y-144.22
X204.84Y-137.63
X204.84Y-146.31
X204.87Y-147.35
X205.24Y-148.57
X205.26Y-145.19
X205.29Y-141.52
X205.3Y-143.3
X207.0Y-165.62
X208.75Y-129.72
X208.75Y-132.31
X209.57Y-146.95
X209.64Y-127.67
X210.29Y-141.51
X210.58Y-142.92
X211.09Y-114.26
X211.59Y-133.3
X211.68Y-141.65
X213.3Y-141.7
X215.55Y-148.59
X215.6Y-141.59
X215.65Y-108.79
X215.88Y-149.77
X217.3Y-133.77
X217.75Y-151.49
X218.65Y-106.74
X219.65Y-106.74
X221.0Y-106.69
X221.4Y-142.79
X221.86Y-153.73
X222.6Y-148.59
X222.64Y-127.67
X224.5Y-141.51
X224.76Y-108.78
X224.85Y-134.55
X225.28Y-147.05
X225.45Y-141.9
X226.18Y-142.65
X226.6Y-146.46
X226.68Y-143.66
X227.42Y-145.63
X227.59Y-144.39
X228.41Y-132.39
X237.1Y-155.94
X237.1Y-175.06
X237.14Y-137.24
X237.17Y-129.24
X256.1Y-118.18
X256.14Y-156.33
X256.16Y-175.23
X256.2Y-137.34
X275.11Y-155.94
X275.18Y-174.99
X275.21Y-117.97
X275.21Y-137.19
X294.17Y-117.92
X294.2Y-174.89
X294.25Y-156.14
X294.32Y-137.29
X313.08Y-117.92
X313.17Y-156.04
X313.19Y-174.89
X313.28Y-137.39
X332.14Y-117.87
X332.14Y-156.02
X332.14Y-175.03
X332.29Y-137.29
X351.18Y-156.09
X351.2Y-118.08
X351.26Y-175.03
X351.3Y-137.29
X370.15Y-175.21
X370.16Y-118.18
X370.16Y-136.93
X370.2Y-155.97
T3
X217.15Y-109.04
X221.1Y-109.14
X226.7Y-124.09
X243.8Y-121.89
X243.8Y-126.49
T6
X214.11Y-165.35
X219.01Y-165.35
T7
X199.525Y-161.795
X199.525Y-164.335
T8
X73.43Y-111.72
X73.43Y-130.77
X73.43Y-149.73
X73.43Y-168.78
X79.78Y-114.26
X79.78Y-133.31
X79.78Y-152.27
X79.78Y-171.32
X92.527Y-111.72
X92.527Y-130.77
X92.527Y-149.73
X92.57Y-168.76
X98.877Y-114.26
X98.877Y-133.31
X98.877Y-152.27
X98.92Y-171.3
X111.625Y-111.72
X111.625Y-130.77
X111.625Y-149.73
X111.625Y-168.78
X117.975Y-114.26
X117.975Y-133.31
X117.975Y-152.27
X117.975Y-171.32
X130.722Y-111.72
X130.722Y-130.77
X130.722Y-149.73
X130.722Y-168.78
X137.072Y-114.26
X137.072Y-133.31
X137.072Y-152.27
X137.072Y-171.32
X149.82Y-111.72
X149.82Y-130.77
X149.82Y-149.73
X149.82Y-168.78
X156.17Y-114.26
X156.17Y-133.31
X156.17Y-152.27
X156.17Y-171.32
X168.917Y-111.72
X168.917Y-130.77
X168.917Y-149.73
X168.917Y-168.78
X175.267Y-114.26
X175.267Y-133.31
X175.267Y-152.27
X175.267Y-171.32
X188.015Y-111.72
X188.015Y-130.77
X188.015Y-149.73
X188.015Y-168.78
X194.365Y-114.26
X194.365Y-133.31
X194.365Y-152.27
X194.365Y-171.32
X207.017Y-111.72
X207.017Y-130.77
X207.017Y-168.78
X207.05Y-149.77
X213.367Y-114.26
X213.367Y-133.31
X213.367Y-171.32
X213.4Y-152.31
X226.067Y-111.72
X226.067Y-130.77
X226.067Y-149.73
X226.067Y-168.78
X232.417Y-114.26
X232.417Y-133.31
X232.417Y-152.27
X232.417Y-171.32
X245.07Y-111.72
X245.07Y-130.77
X245.07Y-149.73
X245.07Y-168.78
X251.42Y-114.26
X251.42Y-133.31
X251.42Y-152.27
X251.42Y-171.32
X264.12Y-111.72
X264.12Y-130.77
X264.12Y-149.73
X264.12Y-168.78
X270.47Y-114.26
X270.47Y-133.31
X270.47Y-152.27
X270.47Y-171.32
X283.123Y-111.72
X283.123Y-130.77
X283.123Y-149.73
X283.123Y-168.78
X289.472Y-114.26
X289.472Y-133.31
X289.472Y-152.27
X289.472Y-171.32
X302.125Y-111.72
X302.125Y-130.77
X302.125Y-149.73
X302.125Y-168.78
X308.475Y-114.26
X308.475Y-133.31
X308.475Y-152.27
X308.475Y-171.32
X321.127Y-111.72
X321.127Y-130.77
X321.127Y-149.73
X321.127Y-168.78
X327.477Y-114.26
X327.477Y-133.31
X327.477Y-152.27
X327.477Y-171.32
X340.178Y-111.72
X340.178Y-130.77
X340.178Y-149.73
X340.178Y-168.78
X346.527Y-114.26
X346.527Y-133.31
X346.527Y-152.27
X346.527Y-171.32
X359.18Y-111.72
X359.18Y-130.77
X359.18Y-149.73
X359.18Y-168.78
X365.53Y-114.26
X365.53Y-133.31
X365.53Y-152.27
X365.53Y-171.32
T9
X100.0Y-125.0
X100.0Y-162.5
X337.5Y-125.0
X337.5Y-162.5
T4
G00X214.675Y-101.15
M15
G01X214.675Y-101.85
M16
G05
G00X223.025Y-101.15
M15
G01X223.025Y-101.85
M16
G05
T5
G00X216.625Y-104.4
M15
G01X216.625Y-104.6
M16
G05
G00X221.075Y-104.4
M15
G01X221.075Y-104.6
M16
G05
M30
