%TF.GenerationSoftware,KiCad,Pcbnew,8.0.9-8.0.9-0~ubuntu22.04.1*%
%TF.CreationDate,2025-08-11T19:47:09-07:00*%
%TF.ProjectId,keyboard,6b657962-6f61-4726-942e-6b696361645f,rev?*%
%TF.SameCoordinates,Original*%
%TF.FileFunction,Copper,L2,Bot*%
%TF.FilePolarity,Positive*%
%FSLAX46Y46*%
G04 Gerber Fmt 4.6, Leading zero omitted, Abs format (unit mm)*
G04 Created by KiCad (PCBNEW 8.0.9-8.0.9-0~ubuntu22.04.1) date 2025-08-11 19:47:09*
%MOMM*%
%LPD*%
G01*
G04 APERTURE LIST*
G04 Aperture macros list*
%AMRoundRect*
0 Rectangle with rounded corners*
0 $1 Rounding radius*
0 $2 $3 $4 $5 $6 $7 $8 $9 X,Y pos of 4 corners*
0 Add a 4 corners polygon primitive as box body*
4,1,4,$2,$3,$4,$5,$6,$7,$8,$9,$2,$3,0*
0 Add four circle primitives for the rounded corners*
1,1,$1+$1,$2,$3*
1,1,$1+$1,$4,$5*
1,1,$1+$1,$6,$7*
1,1,$1+$1,$8,$9*
0 Add four rect primitives between the rounded corners*
20,1,$1+$1,$2,$3,$4,$5,0*
20,1,$1+$1,$4,$5,$6,$7,0*
20,1,$1+$1,$6,$7,$8,$9,0*
20,1,$1+$1,$8,$9,$2,$3,0*%
G04 Aperture macros list end*
%TA.AperFunction,ComponentPad*%
%ADD10C,1.500000*%
%TD*%
%TA.AperFunction,ComponentPad*%
%ADD11C,1.000000*%
%TD*%
%TA.AperFunction,HeatsinkPad*%
%ADD12C,0.600000*%
%TD*%
%TA.AperFunction,ComponentPad*%
%ADD13C,0.600000*%
%TD*%
%TA.AperFunction,ComponentPad*%
%ADD14C,8.600000*%
%TD*%
%TA.AperFunction,ComponentPad*%
%ADD15R,1.700000X1.700000*%
%TD*%
%TA.AperFunction,ComponentPad*%
%ADD16O,1.700000X1.700000*%
%TD*%
%TA.AperFunction,SMDPad,CuDef*%
%ADD17RoundRect,0.250000X0.450000X-0.325000X0.450000X0.325000X-0.450000X0.325000X-0.450000X-0.325000X0*%
%TD*%
%TA.AperFunction,ComponentPad*%
%ADD18C,2.200000*%
%TD*%
%TA.AperFunction,SMDPad,CuDef*%
%ADD19RoundRect,0.100000X-0.100000X-0.575000X0.100000X-0.575000X0.100000X0.575000X-0.100000X0.575000X0*%
%TD*%
%TA.AperFunction,HeatsinkPad*%
%ADD20O,1.000000X1.900000*%
%TD*%
%TA.AperFunction,SMDPad,CuDef*%
%ADD21R,0.875000X1.900000*%
%TD*%
%TA.AperFunction,HeatsinkPad*%
%ADD22O,1.050000X1.250000*%
%TD*%
%TA.AperFunction,SMDPad,CuDef*%
%ADD23RoundRect,0.250000X-1.200000X-0.700000X1.200000X-0.700000X1.200000X0.700000X-1.200000X0.700000X0*%
%TD*%
%TA.AperFunction,ViaPad*%
%ADD24C,0.800000*%
%TD*%
%TA.AperFunction,Conductor*%
%ADD25C,0.250000*%
%TD*%
%TA.AperFunction,Conductor*%
%ADD26C,0.280000*%
%TD*%
%TA.AperFunction,Conductor*%
%ADD27C,0.200000*%
%TD*%
G04 APERTURE END LIST*
D10*
%TO.P,Y1,1,1*%
%TO.N,Net-(C4-Pad2)*%
X219010000Y-165350000D03*
%TO.P,Y1,2,2*%
%TO.N,/XIN*%
X214110000Y-165350000D03*
%TD*%
D11*
%TO.P,TP104,1,1*%
%TO.N,+3V3*%
X226700000Y-124090000D03*
%TD*%
%TO.P,TP103,1,1*%
%TO.N,VBUS*%
X243800000Y-121890000D03*
%TD*%
%TO.P,TP105,1,1*%
%TO.N,GND*%
X243800000Y-126490000D03*
%TD*%
D12*
%TO.P,U2,57,GND*%
%TO.N,GND*%
X217825000Y-143795000D03*
D13*
X217825000Y-145070000D03*
X217825000Y-146345000D03*
X219100000Y-143795000D03*
X219100000Y-145070000D03*
X219100000Y-146345000D03*
X220375000Y-143795000D03*
X220375000Y-145070000D03*
X220375000Y-146345000D03*
%TD*%
D14*
%TO.P,H3,1*%
%TO.N,N/C*%
X337500000Y-162500000D03*
%TD*%
%TO.P,H1,1*%
%TO.N,N/C*%
X100000000Y-125000000D03*
%TD*%
D15*
%TO.P,J2,1,Pin_1*%
%TO.N,GND*%
X199525000Y-164335000D03*
D16*
%TO.P,J2,2,Pin_2*%
%TO.N,Net-(J2-Pin_2)*%
X199525000Y-161795000D03*
%TD*%
D14*
%TO.P,H4,1*%
%TO.N,N/C*%
X100000000Y-162500000D03*
%TD*%
%TO.P,H2,1*%
%TO.N,N/C*%
X337500000Y-125000000D03*
%TD*%
D17*
%TO.P,D55,1,K*%
%TO.N,/Key Matrix/C14*%
X106045000Y-154322500D03*
%TO.P,D55,2,A*%
%TO.N,Net-(D55-A)*%
X106045000Y-152272500D03*
%TD*%
%TO.P,D17,1,K*%
%TO.N,/Key Matrix/C5*%
X294145000Y-116322500D03*
%TO.P,D17,2,A*%
%TO.N,Net-(D17-A)*%
X294145000Y-114272500D03*
%TD*%
D18*
%TO.P,SW29,1,1*%
%TO.N,/Key Matrix/R1*%
X226067500Y-111720000D03*
%TO.P,SW29,2,2*%
%TO.N,Net-(D29-A)*%
X232417500Y-114260000D03*
%TD*%
%TO.P,SW7,1,1*%
%TO.N,/Key Matrix/R3*%
X340177500Y-149730000D03*
%TO.P,SW7,2,2*%
%TO.N,Net-(D7-A)*%
X346527500Y-152270000D03*
%TD*%
D17*
%TO.P,D33,1,K*%
%TO.N,/Key Matrix/C9*%
X201490000Y-116282500D03*
%TO.P,D33,2,A*%
%TO.N,Net-(D33-A)*%
X201490000Y-114232500D03*
%TD*%
%TO.P,D12,1,K*%
%TO.N,/Key Matrix/C3*%
X332187500Y-173372500D03*
%TO.P,D12,2,A*%
%TO.N,Net-(D12-A)*%
X332187500Y-171322500D03*
%TD*%
D18*
%TO.P,SW34,1,1*%
%TO.N,/Key Matrix/R2*%
X207017500Y-130770000D03*
%TO.P,SW34,2,2*%
%TO.N,Net-(D34-A)*%
X213367500Y-133310000D03*
%TD*%
%TO.P,SW46,1,1*%
%TO.N,/Key Matrix/R2*%
X149820000Y-130770000D03*
%TO.P,SW46,2,2*%
%TO.N,Net-(D46-A)*%
X156170000Y-133310000D03*
%TD*%
%TO.P,SW45,1,1*%
%TO.N,/Key Matrix/R1*%
X149820000Y-111720000D03*
%TO.P,SW45,2,2*%
%TO.N,Net-(D45-A)*%
X156170000Y-114260000D03*
%TD*%
D17*
%TO.P,D2,1,K*%
%TO.N,/Key Matrix/C1*%
X370220000Y-135345000D03*
%TO.P,D2,2,A*%
%TO.N,Net-(D2-A)*%
X370220000Y-133295000D03*
%TD*%
%TO.P,D26,1,K*%
%TO.N,/Key Matrix/C7*%
X256210000Y-135587500D03*
%TO.P,D26,2,A*%
%TO.N,Net-(D26-A)*%
X256210000Y-133537500D03*
%TD*%
D18*
%TO.P,SW30,1,1*%
%TO.N,/Key Matrix/R2*%
X226067500Y-130770000D03*
%TO.P,SW30,2,2*%
%TO.N,Net-(D30-A)*%
X232417500Y-133310000D03*
%TD*%
D11*
%TO.P,TP102,1,1*%
%TO.N,/USB_D+*%
X217150000Y-109040000D03*
%TD*%
D17*
%TO.P,D48,1,K*%
%TO.N,/Key Matrix/C12*%
X144580000Y-173362500D03*
%TO.P,D48,2,A*%
%TO.N,Net-(D48-A)*%
X144580000Y-171312500D03*
%TD*%
%TO.P,D21,1,K*%
%TO.N,/Key Matrix/C6*%
X275142500Y-116322500D03*
%TO.P,D21,2,A*%
%TO.N,Net-(D21-A)*%
X275142500Y-114272500D03*
%TD*%
%TO.P,D36,1,K*%
%TO.N,/Key Matrix/C9*%
X201647500Y-173372500D03*
%TO.P,D36,2,A*%
%TO.N,Net-(D36-A)*%
X201647500Y-171322500D03*
%TD*%
D18*
%TO.P,SW31,1,1*%
%TO.N,/Key Matrix/R3*%
X226067500Y-149730000D03*
%TO.P,SW31,2,2*%
%TO.N,Net-(D31-A)*%
X232417500Y-152270000D03*
%TD*%
D17*
%TO.P,D46,1,K*%
%TO.N,/Key Matrix/C12*%
X144440000Y-135357500D03*
%TO.P,D46,2,A*%
%TO.N,Net-(D46-A)*%
X144440000Y-133307500D03*
%TD*%
%TO.P,D34,1,K*%
%TO.N,/Key Matrix/C9*%
X201610000Y-135355000D03*
%TO.P,D34,2,A*%
%TO.N,Net-(D34-A)*%
X201610000Y-133305000D03*
%TD*%
%TO.P,D13,1,K*%
%TO.N,/Key Matrix/C4*%
X313147500Y-116322500D03*
%TO.P,D13,2,A*%
%TO.N,Net-(D13-A)*%
X313147500Y-114272500D03*
%TD*%
%TO.P,D64,1,K*%
%TO.N,/Key Matrix/C16*%
X67900000Y-173352500D03*
%TO.P,D64,2,A*%
%TO.N,Net-(D64-A)*%
X67900000Y-171302500D03*
%TD*%
%TO.P,D5,1,K*%
%TO.N,/Key Matrix/C2*%
X351200000Y-116322500D03*
%TO.P,D5,2,A*%
%TO.N,Net-(D5-A)*%
X351200000Y-114272500D03*
%TD*%
D18*
%TO.P,SW10,1,1*%
%TO.N,/Key Matrix/R2*%
X321127500Y-130770000D03*
%TO.P,SW10,2,2*%
%TO.N,Net-(D10-A)*%
X327477500Y-133310000D03*
%TD*%
%TO.P,SW55,1,1*%
%TO.N,/Key Matrix/R3*%
X111625000Y-149730000D03*
%TO.P,SW55,2,2*%
%TO.N,Net-(D55-A)*%
X117975000Y-152270000D03*
%TD*%
D17*
%TO.P,D56,1,K*%
%TO.N,/Key Matrix/C14*%
X106065000Y-173402500D03*
%TO.P,D56,2,A*%
%TO.N,Net-(D56-A)*%
X106065000Y-171352500D03*
%TD*%
%TO.P,D29,1,K*%
%TO.N,/Key Matrix/C8*%
X237090000Y-116322500D03*
%TO.P,D29,2,A*%
%TO.N,Net-(D29-A)*%
X237090000Y-114272500D03*
%TD*%
%TO.P,D60,1,K*%
%TO.N,/Key Matrix/C15*%
X87077500Y-173382500D03*
%TO.P,D60,2,A*%
%TO.N,Net-(D60-A)*%
X87077500Y-171332500D03*
%TD*%
%TO.P,D58,1,K*%
%TO.N,/Key Matrix/C15*%
X87047500Y-135305000D03*
%TO.P,D58,2,A*%
%TO.N,Net-(D58-A)*%
X87047500Y-133255000D03*
%TD*%
D18*
%TO.P,SW27,1,1*%
%TO.N,/Key Matrix/R3*%
X245070000Y-149730000D03*
%TO.P,SW27,2,2*%
%TO.N,Net-(D27-A)*%
X251420000Y-152270000D03*
%TD*%
%TO.P,SW43,1,1*%
%TO.N,/Key Matrix/R3*%
X168917500Y-149730000D03*
%TO.P,SW43,2,2*%
%TO.N,Net-(D43-A)*%
X175267500Y-152270000D03*
%TD*%
%TO.P,SW5,1,1*%
%TO.N,/Key Matrix/R1*%
X340177500Y-111720000D03*
%TO.P,SW5,2,2*%
%TO.N,Net-(D5-A)*%
X346527500Y-114260000D03*
%TD*%
D17*
%TO.P,D38,1,K*%
%TO.N,/Key Matrix/C10*%
X182695000Y-135347500D03*
%TO.P,D38,2,A*%
%TO.N,Net-(D38-A)*%
X182695000Y-133297500D03*
%TD*%
D18*
%TO.P,SW56,1,1*%
%TO.N,/Key Matrix/R4*%
X111625000Y-168780000D03*
%TO.P,SW56,2,2*%
%TO.N,Net-(D56-A)*%
X117975000Y-171320000D03*
%TD*%
%TO.P,SW63,1,1*%
%TO.N,/Key Matrix/R3*%
X73430000Y-149730000D03*
%TO.P,SW63,2,2*%
%TO.N,Net-(D63-A)*%
X79780000Y-152270000D03*
%TD*%
D17*
%TO.P,D30,1,K*%
%TO.N,/Key Matrix/C8*%
X237207500Y-135587500D03*
%TO.P,D30,2,A*%
%TO.N,Net-(D30-A)*%
X237207500Y-133537500D03*
%TD*%
D18*
%TO.P,SW59,1,1*%
%TO.N,/Key Matrix/R3*%
X92527500Y-149730000D03*
%TO.P,SW59,2,2*%
%TO.N,Net-(D59-A)*%
X98877500Y-152270000D03*
%TD*%
D17*
%TO.P,D20,1,K*%
%TO.N,/Key Matrix/C5*%
X294182500Y-173372500D03*
%TO.P,D20,2,A*%
%TO.N,Net-(D20-A)*%
X294182500Y-171322500D03*
%TD*%
D18*
%TO.P,SW60,1,1*%
%TO.N,/Key Matrix/R4*%
X92570000Y-168760000D03*
%TO.P,SW60,2,2*%
%TO.N,Net-(D60-A)*%
X98920000Y-171300000D03*
%TD*%
D17*
%TO.P,D42,1,K*%
%TO.N,/Key Matrix/C11*%
X163510000Y-135377500D03*
%TO.P,D42,2,A*%
%TO.N,Net-(D42-A)*%
X163510000Y-133327500D03*
%TD*%
D18*
%TO.P,SW52,1,1*%
%TO.N,/Key Matrix/R4*%
X130722500Y-168780000D03*
%TO.P,SW52,2,2*%
%TO.N,Net-(D52-A)*%
X137072500Y-171320000D03*
%TD*%
D17*
%TO.P,D22,1,K*%
%TO.N,/Key Matrix/C6*%
X275260000Y-135587500D03*
%TO.P,D22,2,A*%
%TO.N,Net-(D22-A)*%
X275260000Y-133537500D03*
%TD*%
%TO.P,D19,1,K*%
%TO.N,/Key Matrix/C5*%
X294152500Y-154332500D03*
%TO.P,D19,2,A*%
%TO.N,Net-(D19-A)*%
X294152500Y-152282500D03*
%TD*%
%TO.P,D32,1,K*%
%TO.N,/Key Matrix/C8*%
X237127500Y-173372500D03*
%TO.P,D32,2,A*%
%TO.N,Net-(D32-A)*%
X237127500Y-171322500D03*
%TD*%
%TO.P,D3,1,K*%
%TO.N,/Key Matrix/C1*%
X370210000Y-154332500D03*
%TO.P,D3,2,A*%
%TO.N,Net-(D3-A)*%
X370210000Y-152282500D03*
%TD*%
D18*
%TO.P,SW37,1,1*%
%TO.N,/Key Matrix/R1*%
X188015000Y-111720000D03*
%TO.P,SW37,2,2*%
%TO.N,Net-(D37-A)*%
X194365000Y-114260000D03*
%TD*%
%TO.P,SW18,1,1*%
%TO.N,/Key Matrix/R2*%
X283122500Y-130770000D03*
%TO.P,SW18,2,2*%
%TO.N,Net-(D18-A)*%
X289472500Y-133310000D03*
%TD*%
D17*
%TO.P,D45,1,K*%
%TO.N,/Key Matrix/C12*%
X144362500Y-116312500D03*
%TO.P,D45,2,A*%
%TO.N,Net-(D45-A)*%
X144362500Y-114262500D03*
%TD*%
D18*
%TO.P,SW3,1,1*%
%TO.N,/Key Matrix/R3*%
X359180000Y-149730000D03*
%TO.P,SW3,2,2*%
%TO.N,Net-(D3-A)*%
X365530000Y-152270000D03*
%TD*%
D17*
%TO.P,D50,1,K*%
%TO.N,/Key Matrix/C13*%
X125412500Y-135345000D03*
%TO.P,D50,2,A*%
%TO.N,Net-(D50-A)*%
X125412500Y-133295000D03*
%TD*%
%TO.P,D10,1,K*%
%TO.N,/Key Matrix/C3*%
X332267500Y-135587500D03*
%TO.P,D10,2,A*%
%TO.N,Net-(D10-A)*%
X332267500Y-133537500D03*
%TD*%
D18*
%TO.P,SW64,1,1*%
%TO.N,/Key Matrix/R4*%
X73430000Y-168780000D03*
%TO.P,SW64,2,2*%
%TO.N,Net-(D64-A)*%
X79780000Y-171320000D03*
%TD*%
%TO.P,SW8,1,1*%
%TO.N,/Key Matrix/R4*%
X340177500Y-168780000D03*
%TO.P,SW8,2,2*%
%TO.N,Net-(D8-A)*%
X346527500Y-171320000D03*
%TD*%
D17*
%TO.P,D61,1,K*%
%TO.N,/Key Matrix/C16*%
X67980000Y-116302500D03*
%TO.P,D61,2,A*%
%TO.N,Net-(D61-A)*%
X67980000Y-114252500D03*
%TD*%
%TO.P,D37,1,K*%
%TO.N,/Key Matrix/C10*%
X182507500Y-116302500D03*
%TO.P,D37,2,A*%
%TO.N,Net-(D37-A)*%
X182507500Y-114252500D03*
%TD*%
D18*
%TO.P,SW58,1,1*%
%TO.N,/Key Matrix/R2*%
X92527500Y-130770000D03*
%TO.P,SW58,2,2*%
%TO.N,Net-(D58-A)*%
X98877500Y-133310000D03*
%TD*%
D19*
%TO.P,J101,1,VBUS*%
%TO.N,VBUS*%
X220150000Y-104175000D03*
%TO.P,J101,2,D-*%
%TO.N,/USB_D-*%
X219500000Y-104175000D03*
%TO.P,J101,3,D+*%
%TO.N,/USB_D+*%
X218850000Y-104175000D03*
%TO.P,J101,4,ID*%
%TO.N,unconnected-(J101-ID-Pad4)*%
X218200000Y-104175000D03*
%TO.P,J101,5,GND*%
%TO.N,GND*%
X217550000Y-104175000D03*
D20*
%TO.P,J101,6,Shield*%
X214675000Y-101500000D03*
D21*
X215112500Y-101500000D03*
D22*
X216625000Y-104500000D03*
D23*
X218850000Y-101500000D03*
D22*
X221075000Y-104500000D03*
D21*
X222587500Y-101500000D03*
D20*
X223025000Y-101500000D03*
%TD*%
D17*
%TO.P,D62,1,K*%
%TO.N,/Key Matrix/C16*%
X67970000Y-135412500D03*
%TO.P,D62,2,A*%
%TO.N,Net-(D62-A)*%
X67970000Y-133362500D03*
%TD*%
%TO.P,D6,1,K*%
%TO.N,/Key Matrix/C2*%
X351317500Y-135587500D03*
%TO.P,D6,2,A*%
%TO.N,Net-(D6-A)*%
X351317500Y-133537500D03*
%TD*%
%TO.P,D27,1,K*%
%TO.N,/Key Matrix/C7*%
X256100000Y-154332500D03*
%TO.P,D27,2,A*%
%TO.N,Net-(D27-A)*%
X256100000Y-152282500D03*
%TD*%
D18*
%TO.P,SW44,1,1*%
%TO.N,/Key Matrix/R4*%
X168917500Y-168780000D03*
%TO.P,SW44,2,2*%
%TO.N,Net-(D44-A)*%
X175267500Y-171320000D03*
%TD*%
D17*
%TO.P,D54,1,K*%
%TO.N,/Key Matrix/C14*%
X106095000Y-135365000D03*
%TO.P,D54,2,A*%
%TO.N,Net-(D54-A)*%
X106095000Y-133315000D03*
%TD*%
D18*
%TO.P,SW42,1,1*%
%TO.N,/Key Matrix/R2*%
X168917500Y-130770000D03*
%TO.P,SW42,2,2*%
%TO.N,Net-(D42-A)*%
X175267500Y-133310000D03*
%TD*%
%TO.P,SW2,1,1*%
%TO.N,/Key Matrix/R2*%
X359180000Y-130770000D03*
%TO.P,SW2,2,2*%
%TO.N,Net-(D2-A)*%
X365530000Y-133310000D03*
%TD*%
D17*
%TO.P,D11,1,K*%
%TO.N,/Key Matrix/C3*%
X332157500Y-154332500D03*
%TO.P,D11,2,A*%
%TO.N,Net-(D11-A)*%
X332157500Y-152282500D03*
%TD*%
%TO.P,D43,1,K*%
%TO.N,/Key Matrix/C11*%
X163507500Y-154352500D03*
%TO.P,D43,2,A*%
%TO.N,Net-(D43-A)*%
X163507500Y-152302500D03*
%TD*%
D18*
%TO.P,SW26,1,1*%
%TO.N,/Key Matrix/R2*%
X245070000Y-130770000D03*
%TO.P,SW26,2,2*%
%TO.N,Net-(D26-A)*%
X251420000Y-133310000D03*
%TD*%
D17*
%TO.P,D28,1,K*%
%TO.N,/Key Matrix/C7*%
X256130000Y-173372500D03*
%TO.P,D28,2,A*%
%TO.N,Net-(D28-A)*%
X256130000Y-171322500D03*
%TD*%
D18*
%TO.P,SW33,1,1*%
%TO.N,/Key Matrix/R1*%
X207017500Y-111720000D03*
%TO.P,SW33,2,2*%
%TO.N,Net-(D33-A)*%
X213367500Y-114260000D03*
%TD*%
D17*
%TO.P,D41,1,K*%
%TO.N,/Key Matrix/C11*%
X163480000Y-116352500D03*
%TO.P,D41,2,A*%
%TO.N,Net-(D41-A)*%
X163480000Y-114302500D03*
%TD*%
%TO.P,D44,1,K*%
%TO.N,/Key Matrix/C11*%
X163457500Y-173342500D03*
%TO.P,D44,2,A*%
%TO.N,Net-(D44-A)*%
X163457500Y-171292500D03*
%TD*%
D18*
%TO.P,SW54,1,1*%
%TO.N,/Key Matrix/R2*%
X111625000Y-130770000D03*
%TO.P,SW54,2,2*%
%TO.N,Net-(D54-A)*%
X117975000Y-133310000D03*
%TD*%
%TO.P,SW19,1,1*%
%TO.N,/Key Matrix/R3*%
X283122500Y-149730000D03*
%TO.P,SW19,2,2*%
%TO.N,Net-(D19-A)*%
X289472500Y-152270000D03*
%TD*%
%TO.P,SW13,1,1*%
%TO.N,/Key Matrix/R1*%
X302125000Y-111720000D03*
%TO.P,SW13,2,2*%
%TO.N,Net-(D13-A)*%
X308475000Y-114260000D03*
%TD*%
D17*
%TO.P,D57,1,K*%
%TO.N,/Key Matrix/C15*%
X87070000Y-116362500D03*
%TO.P,D57,2,A*%
%TO.N,Net-(D57-A)*%
X87070000Y-114312500D03*
%TD*%
D18*
%TO.P,SW50,1,1*%
%TO.N,/Key Matrix/R2*%
X130722500Y-130770000D03*
%TO.P,SW50,2,2*%
%TO.N,Net-(D50-A)*%
X137072500Y-133310000D03*
%TD*%
D17*
%TO.P,D59,1,K*%
%TO.N,/Key Matrix/C15*%
X87047500Y-154302500D03*
%TO.P,D59,2,A*%
%TO.N,Net-(D59-A)*%
X87047500Y-152252500D03*
%TD*%
D18*
%TO.P,SW32,1,1*%
%TO.N,/Key Matrix/R4*%
X226067500Y-168780000D03*
%TO.P,SW32,2,2*%
%TO.N,Net-(D32-A)*%
X232417500Y-171320000D03*
%TD*%
%TO.P,SW49,1,1*%
%TO.N,/Key Matrix/R1*%
X130722500Y-111720000D03*
%TO.P,SW49,2,2*%
%TO.N,Net-(D49-A)*%
X137072500Y-114260000D03*
%TD*%
D17*
%TO.P,D35,1,K*%
%TO.N,/Key Matrix/C9*%
X201657500Y-154422500D03*
%TO.P,D35,2,A*%
%TO.N,Net-(D35-A)*%
X201657500Y-152372500D03*
%TD*%
%TO.P,D24,1,K*%
%TO.N,/Key Matrix/C6*%
X275180000Y-173372500D03*
%TO.P,D24,2,A*%
%TO.N,Net-(D24-A)*%
X275180000Y-171322500D03*
%TD*%
%TO.P,D47,1,K*%
%TO.N,/Key Matrix/C12*%
X144360000Y-154362500D03*
%TO.P,D47,2,A*%
%TO.N,Net-(D47-A)*%
X144360000Y-152312500D03*
%TD*%
%TO.P,D16,1,K*%
%TO.N,/Key Matrix/C4*%
X313185000Y-173372500D03*
%TO.P,D16,2,A*%
%TO.N,Net-(D16-A)*%
X313185000Y-171322500D03*
%TD*%
D18*
%TO.P,SW14,1,1*%
%TO.N,/Key Matrix/R2*%
X302125000Y-130770000D03*
%TO.P,SW14,2,2*%
%TO.N,Net-(D14-A)*%
X308475000Y-133310000D03*
%TD*%
%TO.P,SW23,1,1*%
%TO.N,/Key Matrix/R3*%
X264120000Y-149730000D03*
%TO.P,SW23,2,2*%
%TO.N,Net-(D23-A)*%
X270470000Y-152270000D03*
%TD*%
%TO.P,SW15,1,1*%
%TO.N,/Key Matrix/R3*%
X302125000Y-149730000D03*
%TO.P,SW15,2,2*%
%TO.N,Net-(D15-A)*%
X308475000Y-152270000D03*
%TD*%
%TO.P,SW61,1,1*%
%TO.N,/Key Matrix/R1*%
X73430000Y-111720000D03*
%TO.P,SW61,2,2*%
%TO.N,Net-(D61-A)*%
X79780000Y-114260000D03*
%TD*%
D17*
%TO.P,D14,1,K*%
%TO.N,/Key Matrix/C4*%
X313265000Y-135587500D03*
%TO.P,D14,2,A*%
%TO.N,Net-(D14-A)*%
X313265000Y-133537500D03*
%TD*%
%TO.P,D1,1,K*%
%TO.N,/Key Matrix/C1*%
X370202500Y-116322500D03*
%TO.P,D1,2,A*%
%TO.N,Net-(D1-A)*%
X370202500Y-114272500D03*
%TD*%
D18*
%TO.P,SW62,1,1*%
%TO.N,/Key Matrix/R2*%
X73430000Y-130770000D03*
%TO.P,SW62,2,2*%
%TO.N,Net-(D62-A)*%
X79780000Y-133310000D03*
%TD*%
D17*
%TO.P,D53,1,K*%
%TO.N,/Key Matrix/C14*%
X106097500Y-116322500D03*
%TO.P,D53,2,A*%
%TO.N,Net-(D53-A)*%
X106097500Y-114272500D03*
%TD*%
%TO.P,D15,1,K*%
%TO.N,/Key Matrix/C4*%
X313155000Y-154332500D03*
%TO.P,D15,2,A*%
%TO.N,Net-(D15-A)*%
X313155000Y-152282500D03*
%TD*%
D18*
%TO.P,SW57,1,1*%
%TO.N,/Key Matrix/R1*%
X92527500Y-111720000D03*
%TO.P,SW57,2,2*%
%TO.N,Net-(D57-A)*%
X98877500Y-114260000D03*
%TD*%
D17*
%TO.P,D25,1,K*%
%TO.N,/Key Matrix/C7*%
X256092500Y-116322500D03*
%TO.P,D25,2,A*%
%TO.N,Net-(D25-A)*%
X256092500Y-114272500D03*
%TD*%
%TO.P,D4,1,K*%
%TO.N,/Key Matrix/C1*%
X370240000Y-173372500D03*
%TO.P,D4,2,A*%
%TO.N,Net-(D4-A)*%
X370240000Y-171322500D03*
%TD*%
D18*
%TO.P,SW28,1,1*%
%TO.N,/Key Matrix/R4*%
X245070000Y-168780000D03*
%TO.P,SW28,2,2*%
%TO.N,Net-(D28-A)*%
X251420000Y-171320000D03*
%TD*%
%TO.P,SW36,1,1*%
%TO.N,/Key Matrix/R4*%
X207017500Y-168780000D03*
%TO.P,SW36,2,2*%
%TO.N,Net-(D36-A)*%
X213367500Y-171320000D03*
%TD*%
%TO.P,SW51,1,1*%
%TO.N,/Key Matrix/R3*%
X130722500Y-149730000D03*
%TO.P,SW51,2,2*%
%TO.N,Net-(D51-A)*%
X137072500Y-152270000D03*
%TD*%
%TO.P,SW12,1,1*%
%TO.N,/Key Matrix/R4*%
X321127500Y-168780000D03*
%TO.P,SW12,2,2*%
%TO.N,Net-(D12-A)*%
X327477500Y-171320000D03*
%TD*%
D17*
%TO.P,D23,1,K*%
%TO.N,/Key Matrix/C6*%
X275150000Y-154087500D03*
%TO.P,D23,2,A*%
%TO.N,Net-(D23-A)*%
X275150000Y-152037500D03*
%TD*%
D18*
%TO.P,SW38,1,1*%
%TO.N,/Key Matrix/R2*%
X188015000Y-130770000D03*
%TO.P,SW38,2,2*%
%TO.N,Net-(D38-A)*%
X194365000Y-133310000D03*
%TD*%
D17*
%TO.P,D9,1,K*%
%TO.N,/Key Matrix/C3*%
X332150000Y-116322500D03*
%TO.P,D9,2,A*%
%TO.N,Net-(D9-A)*%
X332150000Y-114272500D03*
%TD*%
D18*
%TO.P,SW11,1,1*%
%TO.N,/Key Matrix/R3*%
X321127500Y-149730000D03*
%TO.P,SW11,2,2*%
%TO.N,Net-(D11-A)*%
X327477500Y-152270000D03*
%TD*%
%TO.P,SW21,1,1*%
%TO.N,/Key Matrix/R1*%
X264120000Y-111720000D03*
%TO.P,SW21,2,2*%
%TO.N,Net-(D21-A)*%
X270470000Y-114260000D03*
%TD*%
D17*
%TO.P,D7,1,K*%
%TO.N,/Key Matrix/C2*%
X351207500Y-154332500D03*
%TO.P,D7,2,A*%
%TO.N,Net-(D7-A)*%
X351207500Y-152282500D03*
%TD*%
%TO.P,D51,1,K*%
%TO.N,/Key Matrix/C13*%
X125412500Y-154262500D03*
%TO.P,D51,2,A*%
%TO.N,Net-(D51-A)*%
X125412500Y-152212500D03*
%TD*%
D18*
%TO.P,SW1,1,1*%
%TO.N,/Key Matrix/R1*%
X359180000Y-111720000D03*
%TO.P,SW1,2,2*%
%TO.N,Net-(D1-A)*%
X365530000Y-114260000D03*
%TD*%
%TO.P,SW39,1,1*%
%TO.N,/Key Matrix/R3*%
X188015000Y-149730000D03*
%TO.P,SW39,2,2*%
%TO.N,Net-(D39-A)*%
X194365000Y-152270000D03*
%TD*%
%TO.P,SW16,1,1*%
%TO.N,/Key Matrix/R4*%
X302125000Y-168780000D03*
%TO.P,SW16,2,2*%
%TO.N,Net-(D16-A)*%
X308475000Y-171320000D03*
%TD*%
%TO.P,SW47,1,1*%
%TO.N,/Key Matrix/R3*%
X149820000Y-149730000D03*
%TO.P,SW47,2,2*%
%TO.N,Net-(D47-A)*%
X156170000Y-152270000D03*
%TD*%
%TO.P,SW35,1,1*%
%TO.N,/Key Matrix/R3*%
X207050000Y-149770000D03*
%TO.P,SW35,2,2*%
%TO.N,Net-(D35-A)*%
X213400000Y-152310000D03*
%TD*%
%TO.P,SW20,1,1*%
%TO.N,/Key Matrix/R4*%
X283122500Y-168780000D03*
%TO.P,SW20,2,2*%
%TO.N,Net-(D20-A)*%
X289472500Y-171320000D03*
%TD*%
%TO.P,SW17,1,1*%
%TO.N,/Key Matrix/R1*%
X283122500Y-111720000D03*
%TO.P,SW17,2,2*%
%TO.N,Net-(D17-A)*%
X289472500Y-114260000D03*
%TD*%
%TO.P,SW53,1,1*%
%TO.N,/Key Matrix/R1*%
X111625000Y-111720000D03*
%TO.P,SW53,2,2*%
%TO.N,Net-(D53-A)*%
X117975000Y-114260000D03*
%TD*%
D11*
%TO.P,TP101,1,1*%
%TO.N,/USB_D-*%
X221100000Y-109140000D03*
%TD*%
D17*
%TO.P,D18,1,K*%
%TO.N,/Key Matrix/C5*%
X294262500Y-135587500D03*
%TO.P,D18,2,A*%
%TO.N,Net-(D18-A)*%
X294262500Y-133537500D03*
%TD*%
D18*
%TO.P,SW24,1,1*%
%TO.N,/Key Matrix/R4*%
X264120000Y-168780000D03*
%TO.P,SW24,2,2*%
%TO.N,Net-(D24-A)*%
X270470000Y-171320000D03*
%TD*%
D17*
%TO.P,D49,1,K*%
%TO.N,/Key Matrix/C13*%
X125275000Y-116272500D03*
%TO.P,D49,2,A*%
%TO.N,Net-(D49-A)*%
X125275000Y-114222500D03*
%TD*%
%TO.P,D39,1,K*%
%TO.N,/Key Matrix/C10*%
X182820000Y-154292500D03*
%TO.P,D39,2,A*%
%TO.N,Net-(D39-A)*%
X182820000Y-152242500D03*
%TD*%
D18*
%TO.P,SW6,1,1*%
%TO.N,/Key Matrix/R2*%
X340177500Y-130770000D03*
%TO.P,SW6,2,2*%
%TO.N,Net-(D6-A)*%
X346527500Y-133310000D03*
%TD*%
%TO.P,SW4,1,1*%
%TO.N,/Key Matrix/R4*%
X359180000Y-168780000D03*
%TO.P,SW4,2,2*%
%TO.N,Net-(D4-A)*%
X365530000Y-171320000D03*
%TD*%
%TO.P,SW40,1,1*%
%TO.N,/Key Matrix/R4*%
X188015000Y-168780000D03*
%TO.P,SW40,2,2*%
%TO.N,Net-(D40-A)*%
X194365000Y-171320000D03*
%TD*%
D17*
%TO.P,D52,1,K*%
%TO.N,/Key Matrix/C13*%
X125312500Y-173412500D03*
%TO.P,D52,2,A*%
%TO.N,Net-(D52-A)*%
X125312500Y-171362500D03*
%TD*%
D18*
%TO.P,SW41,1,1*%
%TO.N,/Key Matrix/R1*%
X168917500Y-111720000D03*
%TO.P,SW41,2,2*%
%TO.N,Net-(D41-A)*%
X175267500Y-114260000D03*
%TD*%
D17*
%TO.P,D8,1,K*%
%TO.N,/Key Matrix/C2*%
X351237500Y-173372500D03*
%TO.P,D8,2,A*%
%TO.N,Net-(D8-A)*%
X351237500Y-171322500D03*
%TD*%
D18*
%TO.P,SW48,1,1*%
%TO.N,/Key Matrix/R4*%
X149820000Y-168780000D03*
%TO.P,SW48,2,2*%
%TO.N,Net-(D48-A)*%
X156170000Y-171320000D03*
%TD*%
%TO.P,SW25,1,1*%
%TO.N,/Key Matrix/R1*%
X245070000Y-111720000D03*
%TO.P,SW25,2,2*%
%TO.N,Net-(D25-A)*%
X251420000Y-114260000D03*
%TD*%
D17*
%TO.P,D63,1,K*%
%TO.N,/Key Matrix/C16*%
X68030000Y-154332500D03*
%TO.P,D63,2,A*%
%TO.N,Net-(D63-A)*%
X68030000Y-152282500D03*
%TD*%
D18*
%TO.P,SW9,1,1*%
%TO.N,/Key Matrix/R1*%
X321127500Y-111720000D03*
%TO.P,SW9,2,2*%
%TO.N,Net-(D9-A)*%
X327477500Y-114260000D03*
%TD*%
D17*
%TO.P,D31,1,K*%
%TO.N,/Key Matrix/C8*%
X237097500Y-154332500D03*
%TO.P,D31,2,A*%
%TO.N,Net-(D31-A)*%
X237097500Y-152282500D03*
%TD*%
%TO.P,D40,1,K*%
%TO.N,/Key Matrix/C10*%
X182780000Y-173335000D03*
%TO.P,D40,2,A*%
%TO.N,Net-(D40-A)*%
X182780000Y-171285000D03*
%TD*%
D18*
%TO.P,SW22,1,1*%
%TO.N,/Key Matrix/R2*%
X264120000Y-130770000D03*
%TO.P,SW22,2,2*%
%TO.N,Net-(D22-A)*%
X270470000Y-133310000D03*
%TD*%
D24*
%TO.N,GND*%
X210580000Y-142920000D03*
%TO.N,VBUS*%
X221000000Y-106690000D03*
%TO.N,GND*%
X202000000Y-146280000D03*
X217750000Y-151490000D03*
X195850000Y-147890000D03*
X215600000Y-141590000D03*
X209570000Y-146950000D03*
X224760000Y-108780000D03*
X215550000Y-148590000D03*
X204840000Y-137630000D03*
X196000000Y-140490000D03*
X215650000Y-108790000D03*
%TO.N,+3V3*%
X221860000Y-153730000D03*
X228410000Y-132390000D03*
X222640000Y-127670000D03*
X224850000Y-134550000D03*
X217300000Y-133770000D03*
X198870000Y-159920000D03*
X213300000Y-141700000D03*
X209640000Y-127670000D03*
%TO.N,+1V1*%
X222600000Y-148590000D03*
X221400000Y-142790000D03*
%TO.N,/Key Matrix/C1*%
X370160000Y-118180000D03*
X370150000Y-175210000D03*
X370200000Y-155970000D03*
X225280000Y-147050000D03*
X370160000Y-136930000D03*
%TO.N,/Key Matrix/C2*%
X351260000Y-175030000D03*
X226600000Y-146460000D03*
X351200000Y-118080000D03*
X351300000Y-137290000D03*
X351180000Y-156090000D03*
%TO.N,/Key Matrix/C3*%
X332140000Y-175030000D03*
X332140000Y-156020000D03*
X332290000Y-137290000D03*
X227420000Y-145630000D03*
X332140000Y-117870000D03*
%TO.N,/Key Matrix/C4*%
X313170000Y-156040000D03*
X313190000Y-174890000D03*
X313080000Y-117920000D03*
X227590000Y-144390000D03*
X313280000Y-137390000D03*
%TO.N,/Key Matrix/C5*%
X294200000Y-174890000D03*
X294250000Y-156140000D03*
X294170000Y-117920000D03*
X226680000Y-143660000D03*
X294320000Y-137290000D03*
%TO.N,/Key Matrix/C6*%
X275110000Y-155940000D03*
X226180000Y-142650000D03*
X275210000Y-117970000D03*
X275180000Y-174990000D03*
X275210000Y-137190000D03*
%TO.N,/Key Matrix/C7*%
X256140000Y-156330000D03*
X225450000Y-141900000D03*
X256100000Y-118180000D03*
X256160000Y-175230000D03*
X256200000Y-137340000D03*
%TO.N,/Key Matrix/C8*%
X237140000Y-137240000D03*
X237100000Y-175060000D03*
X237100000Y-155940000D03*
X224500000Y-141510000D03*
X237170000Y-129240000D03*
%TO.N,/Key Matrix/C9*%
X201690000Y-155920000D03*
X201440000Y-117870000D03*
X201590000Y-136830000D03*
X201670000Y-174960000D03*
X205240000Y-148570000D03*
%TO.N,Net-(D33-A)*%
X203840000Y-114260000D03*
X211090000Y-114260000D03*
%TO.N,Net-(D34-A)*%
X211590000Y-133300000D03*
X204050000Y-133310000D03*
%TO.N,/Key Matrix/C10*%
X182720000Y-137050000D03*
X182800000Y-155850000D03*
X205290000Y-141520000D03*
X182530000Y-118030000D03*
X183140000Y-174990000D03*
%TO.N,/Key Matrix/C11*%
X163530000Y-136850000D03*
X163510000Y-156020000D03*
X204660000Y-142350000D03*
X163420000Y-118030000D03*
X163510000Y-175160000D03*
%TO.N,/Key Matrix/C12*%
X144410000Y-117970000D03*
X144600000Y-175160000D03*
X205300000Y-143300000D03*
X144440000Y-136970000D03*
X144390000Y-156090000D03*
%TO.N,/Key Matrix/C13*%
X125370000Y-136920000D03*
X125300000Y-117920000D03*
X204710000Y-144220000D03*
X125330000Y-155920000D03*
X125260000Y-175280000D03*
%TO.N,/Key Matrix/C14*%
X106060000Y-156020000D03*
X205260000Y-145190000D03*
X106110000Y-137000000D03*
X106050000Y-175200000D03*
X106190000Y-117820000D03*
%TO.N,/Key Matrix/C15*%
X87130000Y-175030000D03*
X204840000Y-146310000D03*
X87030000Y-117870000D03*
X87090000Y-136900000D03*
X87020000Y-156140000D03*
%TO.N,/Key Matrix/C16*%
X68000000Y-117780000D03*
X67920000Y-175370000D03*
X67930000Y-137000000D03*
X204870000Y-147350000D03*
X68030000Y-156020000D03*
%TO.N,/USB_D+*%
X218650000Y-106740000D03*
%TO.N,/USB_D-*%
X219650000Y-106740000D03*
%TO.N,/Key Matrix/R1*%
X211680000Y-141650000D03*
X208750000Y-132310000D03*
X208750000Y-129720000D03*
%TO.N,/Key Matrix/R2*%
X210290000Y-141510000D03*
%TO.N,/Key Matrix/R3*%
X215880000Y-149770000D03*
%TO.N,/Key Matrix/R4*%
X207000000Y-165620000D03*
%TD*%
D25*
%TO.N,VBUS*%
X220150000Y-105840000D02*
X221000000Y-106690000D01*
X220150000Y-104175000D02*
X220150000Y-105840000D01*
%TO.N,GND*%
X221075000Y-104500000D02*
X221075000Y-103012500D01*
X217550000Y-104175000D02*
X217550000Y-102800000D01*
X221075000Y-103012500D02*
X222587500Y-101500000D01*
D26*
X204710000Y-137760000D02*
X204840000Y-137630000D01*
D25*
X216625000Y-104500000D02*
X216625000Y-103012500D01*
X217225000Y-104500000D02*
X217550000Y-104175000D01*
X216625000Y-103012500D02*
X215112500Y-101500000D01*
D26*
X204710000Y-138870000D02*
X204710000Y-137760000D01*
D25*
X216625000Y-104500000D02*
X217225000Y-104500000D01*
D26*
X206690000Y-144070000D02*
X206690000Y-140850000D01*
D25*
X217550000Y-102800000D02*
X218850000Y-101500000D01*
D26*
X206690000Y-140850000D02*
X204710000Y-138870000D01*
X209570000Y-146950000D02*
X206690000Y-144070000D01*
%TO.N,+3V3*%
X222640000Y-127670000D02*
X209640000Y-127670000D01*
X217300000Y-133770000D02*
X227030000Y-133770000D01*
X221860000Y-153730000D02*
X215670000Y-159920000D01*
X227030000Y-133770000D02*
X228410000Y-132390000D01*
X220450000Y-134550000D02*
X213300000Y-141700000D01*
X224850000Y-134550000D02*
X220450000Y-134550000D01*
X215670000Y-159920000D02*
X198870000Y-159920000D01*
D25*
%TO.N,+1V1*%
X221400000Y-142790000D02*
X222600000Y-143990000D01*
X222600000Y-143990000D02*
X222600000Y-148590000D01*
D27*
%TO.N,/Key Matrix/C1*%
X225390000Y-147160000D02*
X359930000Y-147160000D01*
D25*
X370240000Y-173372500D02*
X370240000Y-175120000D01*
X370210000Y-155960000D02*
X370200000Y-155970000D01*
X370202500Y-118137500D02*
X370160000Y-118180000D01*
X370240000Y-175120000D02*
X370150000Y-175210000D01*
X370220000Y-136870000D02*
X370160000Y-136930000D01*
D27*
X359930000Y-147160000D02*
X370160000Y-136930000D01*
X225280000Y-147050000D02*
X225390000Y-147160000D01*
D25*
X370220000Y-135345000D02*
X370220000Y-136870000D01*
X370210000Y-154332500D02*
X370210000Y-155960000D01*
X370202500Y-116322500D02*
X370202500Y-118137500D01*
D26*
%TO.N,Net-(D1-A)*%
X365530000Y-114260000D02*
X370190000Y-114260000D01*
%TO.N,Net-(D2-A)*%
X370205000Y-133310000D02*
X365530000Y-133310000D01*
%TO.N,Net-(D3-A)*%
X365530000Y-152270000D02*
X370197500Y-152270000D01*
%TO.N,Net-(D4-A)*%
X365530000Y-171320000D02*
X370237500Y-171320000D01*
D25*
%TO.N,/Key Matrix/C2*%
X351237500Y-173372500D02*
X351237500Y-175007500D01*
X351200000Y-116322500D02*
X351200000Y-118080000D01*
X351317500Y-137272500D02*
X351300000Y-137290000D01*
D27*
X342130000Y-146460000D02*
X351300000Y-137290000D01*
X226600000Y-146460000D02*
X342130000Y-146460000D01*
D25*
X351237500Y-175007500D02*
X351260000Y-175030000D01*
X351207500Y-154332500D02*
X351207500Y-156062500D01*
X351207500Y-156062500D02*
X351180000Y-156090000D01*
X351317500Y-135587500D02*
X351317500Y-137272500D01*
D26*
%TO.N,Net-(D5-A)*%
X346527500Y-114260000D02*
X351187500Y-114260000D01*
%TO.N,Net-(D6-A)*%
X346527500Y-133310000D02*
X350650000Y-133310000D01*
X350650000Y-133310000D02*
X350877500Y-133537500D01*
%TO.N,Net-(D7-A)*%
X346527500Y-152270000D02*
X351195000Y-152270000D01*
%TO.N,Net-(D8-A)*%
X346527500Y-171320000D02*
X351235000Y-171320000D01*
D27*
%TO.N,/Key Matrix/C3*%
X227420000Y-145630000D02*
X227610000Y-145440000D01*
D25*
X332267500Y-135587500D02*
X332267500Y-137267500D01*
X332150000Y-116322500D02*
X332150000Y-117860000D01*
X332187500Y-174982500D02*
X332140000Y-175030000D01*
X332150000Y-117860000D02*
X332140000Y-117870000D01*
X332187500Y-173372500D02*
X332187500Y-174982500D01*
X332157500Y-154332500D02*
X332157500Y-156002500D01*
X332267500Y-137267500D02*
X332290000Y-137290000D01*
D27*
X227610000Y-145440000D02*
X326420000Y-145440000D01*
D25*
X332157500Y-156002500D02*
X332140000Y-156020000D01*
D27*
X324140000Y-145440000D02*
X332290000Y-137290000D01*
D26*
%TO.N,Net-(D9-A)*%
X327477500Y-114260000D02*
X332137500Y-114260000D01*
%TO.N,Net-(D10-A)*%
X332040000Y-133310000D02*
X327477500Y-133310000D01*
%TO.N,Net-(D11-A)*%
X327477500Y-152270000D02*
X332145000Y-152270000D01*
%TO.N,Net-(D12-A)*%
X327477500Y-171320000D02*
X332185000Y-171320000D01*
D25*
%TO.N,/Key Matrix/C4*%
X313147500Y-117852500D02*
X313080000Y-117920000D01*
D27*
X227570000Y-144420000D02*
X306980000Y-144420000D01*
D25*
X313155000Y-156025000D02*
X313170000Y-156040000D01*
X313265000Y-137375000D02*
X313280000Y-137390000D01*
X313155000Y-154332500D02*
X313155000Y-156025000D01*
D27*
X306300000Y-144370000D02*
X313280000Y-137390000D01*
D25*
X313185000Y-173372500D02*
X313185000Y-174885000D01*
X313265000Y-135587500D02*
X313265000Y-137375000D01*
X313147500Y-116322500D02*
X313147500Y-117852500D01*
X313185000Y-174885000D02*
X313190000Y-174890000D01*
D26*
%TO.N,Net-(D13-A)*%
X308475000Y-114260000D02*
X313135000Y-114260000D01*
%TO.N,Net-(D14-A)*%
X313037500Y-133310000D02*
X308475000Y-133310000D01*
%TO.N,Net-(D15-A)*%
X308475000Y-152270000D02*
X313142500Y-152270000D01*
%TO.N,Net-(D16-A)*%
X308475000Y-171320000D02*
X313182500Y-171320000D01*
D27*
%TO.N,/Key Matrix/C5*%
X228960000Y-143640000D02*
X290280000Y-143640000D01*
X226870000Y-143470000D02*
X226680000Y-143660000D01*
D25*
X294262500Y-135587500D02*
X294262500Y-137232500D01*
X294170000Y-117920000D02*
X294145000Y-117895000D01*
X294152500Y-154332500D02*
X294152500Y-156042500D01*
X294152500Y-156042500D02*
X294250000Y-156140000D01*
X294145000Y-117895000D02*
X294145000Y-116322500D01*
X294262500Y-137232500D02*
X294320000Y-137290000D01*
X294182500Y-173372500D02*
X294182500Y-174872500D01*
D27*
X228790000Y-143470000D02*
X226870000Y-143470000D01*
D25*
X294182500Y-174872500D02*
X294200000Y-174890000D01*
D27*
X228960000Y-143640000D02*
X228790000Y-143470000D01*
X287900000Y-143710000D02*
X294320000Y-137290000D01*
D26*
%TO.N,Net-(D17-A)*%
X289472500Y-114260000D02*
X294132500Y-114260000D01*
%TO.N,Net-(D18-A)*%
X294035000Y-133310000D02*
X289472500Y-133310000D01*
%TO.N,Net-(D19-A)*%
X289472500Y-152270000D02*
X294140000Y-152270000D01*
%TO.N,Net-(D20-A)*%
X289472500Y-171320000D02*
X294180000Y-171320000D01*
D25*
%TO.N,/Key Matrix/C6*%
X275142500Y-116322500D02*
X275142500Y-117902500D01*
X275260000Y-137140000D02*
X275210000Y-137190000D01*
X275260000Y-135587500D02*
X275260000Y-137140000D01*
X275150000Y-155900000D02*
X275110000Y-155940000D01*
X275150000Y-154087500D02*
X275150000Y-155900000D01*
D27*
X226410000Y-142790000D02*
X269610000Y-142790000D01*
D25*
X275180000Y-173372500D02*
X275180000Y-174990000D01*
X275142500Y-117902500D02*
X275210000Y-117970000D01*
D27*
X269610000Y-142790000D02*
X275210000Y-137190000D01*
D26*
%TO.N,Net-(D21-A)*%
X270470000Y-114260000D02*
X275130000Y-114260000D01*
%TO.N,Net-(D22-A)*%
X270470000Y-133310000D02*
X275032500Y-133310000D01*
%TO.N,Net-(D23-A)*%
X270470000Y-152270000D02*
X274917500Y-152270000D01*
%TO.N,Net-(D24-A)*%
X270470000Y-171320000D02*
X275177500Y-171320000D01*
D25*
%TO.N,/Key Matrix/C7*%
X256092500Y-116322500D02*
X256092500Y-118172500D01*
X256130000Y-173372500D02*
X256130000Y-175200000D01*
D27*
X251640000Y-141900000D02*
X256200000Y-137340000D01*
D25*
X256092500Y-118172500D02*
X256100000Y-118180000D01*
X256100000Y-154332500D02*
X256100000Y-156290000D01*
D27*
X225450000Y-141900000D02*
X251640000Y-141900000D01*
D25*
X256210000Y-137330000D02*
X256200000Y-137340000D01*
X256100000Y-156290000D02*
X256140000Y-156330000D01*
X256130000Y-175200000D02*
X256160000Y-175230000D01*
X256210000Y-135587500D02*
X256210000Y-137330000D01*
D26*
%TO.N,Net-(D25-A)*%
X251420000Y-114260000D02*
X256080000Y-114260000D01*
%TO.N,Net-(D26-A)*%
X251420000Y-133310000D02*
X255982500Y-133310000D01*
%TO.N,Net-(D27-A)*%
X251420000Y-152270000D02*
X256087500Y-152270000D01*
%TO.N,Net-(D28-A)*%
X251420000Y-171320000D02*
X256127500Y-171320000D01*
D25*
%TO.N,/Key Matrix/C8*%
X237127500Y-175032500D02*
X237100000Y-175060000D01*
X237097500Y-154332500D02*
X237097500Y-155937500D01*
X237207500Y-137172500D02*
X237140000Y-137240000D01*
X237090000Y-129160000D02*
X237170000Y-129240000D01*
X237090000Y-116322500D02*
X237090000Y-129160000D01*
D27*
X237140000Y-138540000D02*
X234480000Y-141200000D01*
X237140000Y-137240000D02*
X237140000Y-138540000D01*
D25*
X237127500Y-173372500D02*
X237127500Y-175032500D01*
X237097500Y-155937500D02*
X237100000Y-155940000D01*
D27*
X224810000Y-141200000D02*
X224500000Y-141510000D01*
X234480000Y-141200000D02*
X224810000Y-141200000D01*
D25*
X237207500Y-135587500D02*
X237207500Y-137172500D01*
D26*
%TO.N,Net-(D29-A)*%
X232417500Y-114260000D02*
X237077500Y-114260000D01*
%TO.N,Net-(D30-A)*%
X232417500Y-133310000D02*
X236980000Y-133310000D01*
%TO.N,Net-(D31-A)*%
X232417500Y-152270000D02*
X237085000Y-152270000D01*
%TO.N,Net-(D32-A)*%
X232417500Y-171320000D02*
X237125000Y-171320000D01*
D25*
%TO.N,/Key Matrix/C9*%
X201657500Y-155887500D02*
X201690000Y-155920000D01*
D26*
X201590000Y-136830000D02*
X203370000Y-138610000D01*
D25*
X201610000Y-135355000D02*
X201610000Y-136810000D01*
X201647500Y-173372500D02*
X201647500Y-174937500D01*
D26*
X203370000Y-138610000D02*
X203426519Y-138610000D01*
D25*
X201647500Y-174937500D02*
X201670000Y-174960000D01*
X201490000Y-117820000D02*
X201440000Y-117870000D01*
X201490000Y-116282500D02*
X201490000Y-117820000D01*
X201610000Y-136810000D02*
X201590000Y-136830000D01*
D26*
X206200000Y-141383481D02*
X206200000Y-147610000D01*
X206200000Y-147610000D02*
X205240000Y-148570000D01*
X203426519Y-138610000D02*
X206200000Y-141383481D01*
D25*
X201657500Y-154422500D02*
X201657500Y-155887500D01*
%TO.N,Net-(D33-A)*%
X203840000Y-114260000D02*
X201517500Y-114260000D01*
X213367500Y-114260000D02*
X211090000Y-114260000D01*
%TO.N,Net-(D34-A)*%
X201615000Y-133310000D02*
X204050000Y-133310000D01*
D27*
X211590000Y-133300000D02*
X213357500Y-133300000D01*
D25*
%TO.N,Net-(D35-A)*%
X201720000Y-152310000D02*
X213400000Y-152310000D01*
%TO.N,Net-(D36-A)*%
X201650000Y-171320000D02*
X213367500Y-171320000D01*
%TO.N,/Key Matrix/C10*%
X182820000Y-154292500D02*
X182820000Y-155830000D01*
X182507500Y-116302500D02*
X182507500Y-118007500D01*
X182820000Y-155830000D02*
X182800000Y-155850000D01*
D27*
X196430000Y-141520000D02*
X205290000Y-141520000D01*
D25*
X183135000Y-174985000D02*
X183140000Y-174990000D01*
D27*
X195510000Y-142440000D02*
X196430000Y-141520000D01*
X182720000Y-137050000D02*
X188110000Y-142440000D01*
D25*
X182695000Y-137025000D02*
X182720000Y-137050000D01*
D27*
X188110000Y-142440000D02*
X195510000Y-142440000D01*
D25*
X182695000Y-135347500D02*
X182695000Y-137025000D01*
X182507500Y-118007500D02*
X182530000Y-118030000D01*
X183135000Y-173352500D02*
X183135000Y-174985000D01*
%TO.N,Net-(D37-A)*%
X194365000Y-114260000D02*
X182515000Y-114260000D01*
%TO.N,Net-(D38-A)*%
X182707500Y-133310000D02*
X194365000Y-133310000D01*
%TO.N,Net-(D39-A)*%
X182847500Y-152270000D02*
X194365000Y-152270000D01*
%TO.N,Net-(D40-A)*%
X183152500Y-171320000D02*
X194365000Y-171320000D01*
%TO.N,/Key Matrix/C11*%
X163510000Y-135377500D02*
X163510000Y-136830000D01*
X163510000Y-136830000D02*
X163530000Y-136850000D01*
X163457500Y-175107500D02*
X163510000Y-175160000D01*
X163507500Y-156017500D02*
X163510000Y-156020000D01*
D27*
X196440000Y-143100000D02*
X197190000Y-142350000D01*
D25*
X163457500Y-173342500D02*
X163457500Y-175107500D01*
D27*
X197190000Y-142350000D02*
X204660000Y-142350000D01*
X169780000Y-143100000D02*
X196440000Y-143100000D01*
D25*
X163480000Y-117970000D02*
X163420000Y-118030000D01*
X163507500Y-154352500D02*
X163507500Y-156017500D01*
X163480000Y-116352500D02*
X163480000Y-117970000D01*
D27*
X163530000Y-136850000D02*
X169780000Y-143100000D01*
D25*
%TO.N,Net-(D41-A)*%
X163522500Y-114260000D02*
X175267500Y-114260000D01*
%TO.N,Net-(D42-A)*%
X163527500Y-133310000D02*
X175267500Y-133310000D01*
%TO.N,Net-(D43-A)*%
X163540000Y-152270000D02*
X175267500Y-152270000D01*
%TO.N,Net-(D44-A)*%
X163485000Y-171320000D02*
X175267500Y-171320000D01*
%TO.N,/Key Matrix/C12*%
X144440000Y-135357500D02*
X144440000Y-136970000D01*
D27*
X144440000Y-136970000D02*
X151150000Y-143680000D01*
D25*
X144362500Y-116312500D02*
X144362500Y-117922500D01*
X144360000Y-154362500D02*
X144360000Y-156060000D01*
D27*
X196815685Y-143290000D02*
X205290000Y-143290000D01*
X196425685Y-143680000D02*
X196815685Y-143290000D01*
D25*
X144580000Y-175140000D02*
X144600000Y-175160000D01*
D27*
X151150000Y-143680000D02*
X196425685Y-143680000D01*
D25*
X144362500Y-117922500D02*
X144410000Y-117970000D01*
X144580000Y-173362500D02*
X144580000Y-175140000D01*
D27*
X205290000Y-143290000D02*
X205300000Y-143300000D01*
D25*
X144360000Y-156060000D02*
X144390000Y-156090000D01*
%TO.N,Net-(D45-A)*%
X144365000Y-114260000D02*
X156170000Y-114260000D01*
%TO.N,Net-(D46-A)*%
X144442500Y-133310000D02*
X156170000Y-133310000D01*
%TO.N,Net-(D47-A)*%
X144402500Y-152270000D02*
X156170000Y-152270000D01*
%TO.N,Net-(D48-A)*%
X144587500Y-171320000D02*
X156170000Y-171320000D01*
%TO.N,/Key Matrix/C13*%
X125275000Y-117895000D02*
X125300000Y-117920000D01*
X125412500Y-135345000D02*
X125412500Y-136877500D01*
X125412500Y-136877500D02*
X125370000Y-136920000D01*
D27*
X204680000Y-144190000D02*
X204710000Y-144220000D01*
X125370000Y-136920000D02*
X132640000Y-144190000D01*
D25*
X125412500Y-154262500D02*
X125412500Y-155837500D01*
X125312500Y-173412500D02*
X125312500Y-175227500D01*
D27*
X132640000Y-144190000D02*
X204680000Y-144190000D01*
D25*
X125275000Y-116272500D02*
X125275000Y-117895000D01*
X125412500Y-155837500D02*
X125330000Y-155920000D01*
X125312500Y-175227500D02*
X125260000Y-175280000D01*
%TO.N,Net-(D49-A)*%
X125312500Y-114260000D02*
X137072500Y-114260000D01*
%TO.N,Net-(D50-A)*%
X125427500Y-133310000D02*
X137072500Y-133310000D01*
%TO.N,Net-(D51-A)*%
X125470000Y-152270000D02*
X137072500Y-152270000D01*
%TO.N,Net-(D52-A)*%
X125355000Y-171320000D02*
X137072500Y-171320000D01*
%TO.N,/Key Matrix/C14*%
X106095000Y-135365000D02*
X106095000Y-136985000D01*
X106097500Y-117727500D02*
X106190000Y-117820000D01*
X106095000Y-136985000D02*
X106110000Y-137000000D01*
X106045000Y-154322500D02*
X106045000Y-156005000D01*
X106065000Y-175185000D02*
X106050000Y-175200000D01*
D27*
X203960000Y-145190000D02*
X205260000Y-145190000D01*
X106110000Y-137000000D02*
X113880000Y-144770000D01*
D25*
X106045000Y-156005000D02*
X106060000Y-156020000D01*
X106065000Y-173402500D02*
X106065000Y-175185000D01*
X106097500Y-116322500D02*
X106097500Y-117727500D01*
D27*
X203540000Y-144770000D02*
X203960000Y-145190000D01*
X205230000Y-145160000D02*
X205260000Y-145190000D01*
X113880000Y-144770000D02*
X203540000Y-144770000D01*
D25*
%TO.N,Net-(D53-A)*%
X106110000Y-114260000D02*
X117975000Y-114260000D01*
%TO.N,Net-(D54-A)*%
X106100000Y-133310000D02*
X117975000Y-133310000D01*
%TO.N,Net-(D55-A)*%
X106047500Y-152270000D02*
X117975000Y-152270000D01*
%TO.N,Net-(D56-A)*%
X106097500Y-171320000D02*
X117975000Y-171320000D01*
%TO.N,/Key Matrix/C15*%
X87047500Y-136857500D02*
X87090000Y-136900000D01*
D27*
X87090000Y-136900000D02*
X95770000Y-145580000D01*
D25*
X87077500Y-173382500D02*
X87077500Y-174977500D01*
D27*
X203510000Y-145580000D02*
X204240000Y-146310000D01*
D25*
X87077500Y-174977500D02*
X87130000Y-175030000D01*
X87047500Y-156112500D02*
X87020000Y-156140000D01*
D27*
X204240000Y-146310000D02*
X204840000Y-146310000D01*
D25*
X87070000Y-116362500D02*
X87070000Y-117830000D01*
X87047500Y-154302500D02*
X87047500Y-156112500D01*
D27*
X95770000Y-145580000D02*
X203510000Y-145580000D01*
D25*
X87070000Y-117830000D02*
X87030000Y-117870000D01*
X87047500Y-135305000D02*
X87047500Y-136857500D01*
%TO.N,Net-(D57-A)*%
X87122500Y-114260000D02*
X98877500Y-114260000D01*
%TO.N,Net-(D58-A)*%
X87102500Y-133310000D02*
X98877500Y-133310000D01*
%TO.N,Net-(D59-A)*%
X87065000Y-152270000D02*
X98877500Y-152270000D01*
%TO.N,Net-(D60-A)*%
X87110000Y-171300000D02*
X98920000Y-171300000D01*
%TO.N,/Key Matrix/C16*%
X67900000Y-175350000D02*
X67920000Y-175370000D01*
X68030000Y-154332500D02*
X68030000Y-156020000D01*
X67980000Y-116302500D02*
X67980000Y-117760000D01*
X67980000Y-117760000D02*
X68000000Y-117780000D01*
D27*
X197800000Y-147350000D02*
X204870000Y-147350000D01*
X196680000Y-146230000D02*
X197800000Y-147350000D01*
X77160000Y-146230000D02*
X196680000Y-146230000D01*
D25*
X67900000Y-173352500D02*
X67900000Y-175350000D01*
X67970000Y-135412500D02*
X67970000Y-136960000D01*
D27*
X67930000Y-137000000D02*
X77160000Y-146230000D01*
D25*
X67970000Y-136960000D02*
X67930000Y-137000000D01*
%TO.N,Net-(D61-A)*%
X79780000Y-114260000D02*
X67987500Y-114260000D01*
%TO.N,Net-(D62-A)*%
X68022500Y-133310000D02*
X79780000Y-133310000D01*
%TO.N,Net-(D63-A)*%
X68042500Y-152270000D02*
X79780000Y-152270000D01*
%TO.N,Net-(D64-A)*%
X67917500Y-171320000D02*
X79780000Y-171320000D01*
D27*
%TO.N,/USB_D+*%
X218650000Y-106740000D02*
X218850000Y-106540000D01*
X218850000Y-106540000D02*
X218850000Y-104175000D01*
%TO.N,/USB_D-*%
X219500000Y-106590000D02*
X219500000Y-104175000D01*
X219650000Y-106740000D02*
X219500000Y-106590000D01*
D26*
%TO.N,/Key Matrix/R1*%
X207017500Y-111720000D02*
X226067500Y-111720000D01*
X302125000Y-111720000D02*
X321127500Y-111720000D01*
D27*
X211680000Y-141650000D02*
X211440000Y-141650000D01*
D26*
X168917500Y-111720000D02*
X188015000Y-111720000D01*
D27*
X207017500Y-127987500D02*
X207017500Y-111720000D01*
D26*
X226067500Y-111720000D02*
X245070000Y-111720000D01*
X130722500Y-111720000D02*
X149820000Y-111720000D01*
X188015000Y-111720000D02*
X207017500Y-111720000D01*
X340177500Y-111720000D02*
X359180000Y-111720000D01*
D27*
X207030000Y-137240000D02*
X207030000Y-134030000D01*
D26*
X283122500Y-111720000D02*
X302125000Y-111720000D01*
D27*
X211440000Y-141650000D02*
X207030000Y-137240000D01*
D26*
X92527500Y-111720000D02*
X111625000Y-111720000D01*
X149820000Y-111720000D02*
X168917500Y-111720000D01*
X111625000Y-111720000D02*
X130722500Y-111720000D01*
X73430000Y-111720000D02*
X92527500Y-111720000D01*
X321127500Y-111720000D02*
X340177500Y-111720000D01*
D27*
X208750000Y-129720000D02*
X207017500Y-127987500D01*
D26*
X245070000Y-111720000D02*
X264120000Y-111720000D01*
D27*
X207030000Y-134030000D02*
X208750000Y-132310000D01*
D26*
X264120000Y-111720000D02*
X283122500Y-111720000D01*
%TO.N,/Key Matrix/R2*%
X245070000Y-130770000D02*
X226067500Y-130770000D01*
X203600000Y-130770000D02*
X188015000Y-130770000D01*
D27*
X206420000Y-133340000D02*
X203850000Y-130770000D01*
D26*
X321127500Y-130770000D02*
X302125000Y-130770000D01*
X264120000Y-130770000D02*
X245070000Y-130770000D01*
X283122500Y-130770000D02*
X264120000Y-130770000D01*
X207017500Y-130770000D02*
X203600000Y-130770000D01*
D27*
X206420000Y-137640000D02*
X206420000Y-133340000D01*
D26*
X359180000Y-130770000D02*
X340177500Y-130770000D01*
X321127500Y-130770000D02*
X340177500Y-130770000D01*
D27*
X210290000Y-141510000D02*
X206420000Y-137640000D01*
X203850000Y-130770000D02*
X203600000Y-130770000D01*
D26*
X188015000Y-130770000D02*
X168917500Y-130770000D01*
X149820000Y-130770000D02*
X130722500Y-130770000D01*
X130722500Y-130770000D02*
X111625000Y-130770000D01*
X92527500Y-130770000D02*
X73430000Y-130770000D01*
X92527500Y-130770000D02*
X111625000Y-130770000D01*
X226067500Y-130770000D02*
X207017500Y-130770000D01*
X302125000Y-130770000D02*
X283122500Y-130770000D01*
X168917500Y-130770000D02*
X149820000Y-130770000D01*
%TO.N,/Key Matrix/R3*%
X283122500Y-149730000D02*
X302125000Y-149730000D01*
X264120000Y-149730000D02*
X283122500Y-149730000D01*
X111625000Y-149730000D02*
X130722500Y-149730000D01*
X168917500Y-149730000D02*
X188015000Y-149730000D01*
X188015000Y-149730000D02*
X206377500Y-149730000D01*
X149820000Y-149730000D02*
X168917500Y-149730000D01*
X302125000Y-149730000D02*
X321127500Y-149730000D01*
X73430000Y-149730000D02*
X92527500Y-149730000D01*
X340177500Y-149730000D02*
X359180000Y-149730000D01*
X321127500Y-149730000D02*
X340177500Y-149730000D01*
X130722500Y-149730000D02*
X148950000Y-149730000D01*
X207050000Y-149770000D02*
X215880000Y-149770000D01*
X245070000Y-149730000D02*
X264120000Y-149730000D01*
X226067500Y-149730000D02*
X245070000Y-149730000D01*
X215880000Y-149770000D02*
X226027500Y-149770000D01*
X92527500Y-149730000D02*
X111625000Y-149730000D01*
D27*
%TO.N,/Key Matrix/R4*%
X207017500Y-165637500D02*
X207000000Y-165620000D01*
D26*
X92570000Y-168760000D02*
X111605000Y-168760000D01*
X264120000Y-168780000D02*
X283122500Y-168780000D01*
X168917500Y-168780000D02*
X188015000Y-168780000D01*
X207017500Y-168780000D02*
X226067500Y-168780000D01*
X245070000Y-168780000D02*
X264120000Y-168780000D01*
X226067500Y-168780000D02*
X245070000Y-168780000D01*
X130722500Y-168780000D02*
X149820000Y-168780000D01*
D27*
X207017500Y-168780000D02*
X207017500Y-165637500D01*
D26*
X321127500Y-168780000D02*
X340177500Y-168780000D01*
X321127500Y-168780000D02*
X302125000Y-168780000D01*
X149820000Y-168780000D02*
X168917500Y-168780000D01*
X302125000Y-168780000D02*
X283122500Y-168780000D01*
X111625000Y-168780000D02*
X130722500Y-168780000D01*
X188015000Y-168780000D02*
X207017500Y-168780000D01*
X359180000Y-168780000D02*
X340177500Y-168780000D01*
X73430000Y-168780000D02*
X92550000Y-168780000D01*
%TD*%
%TA.AperFunction,Conductor*%
%TO.N,GND*%
G36*
X203971692Y-136883515D02*
G01*
X204035860Y-136916211D01*
X204035863Y-136916212D01*
X204066561Y-136926186D01*
X204208091Y-136972171D01*
X204290929Y-136985291D01*
X204386949Y-137000500D01*
X204386954Y-137000500D01*
X204568051Y-137000500D01*
X204654791Y-136986761D01*
X204746909Y-136972171D01*
X204919139Y-136916211D01*
X204983308Y-136883514D01*
X205039603Y-136870000D01*
X205995500Y-136870000D01*
X206062539Y-136889685D01*
X206108294Y-136942489D01*
X206119500Y-136994000D01*
X206119500Y-137679562D01*
X206133152Y-137730513D01*
X206139979Y-137755990D01*
X206139982Y-137755995D01*
X206179535Y-137824504D01*
X206179541Y-137824512D01*
X209662101Y-141307072D01*
X209695586Y-141368395D01*
X209697359Y-141410938D01*
X209684318Y-141509998D01*
X209684318Y-141510001D01*
X209704955Y-141666760D01*
X209704956Y-141666762D01*
X209762945Y-141806761D01*
X209765464Y-141812841D01*
X209861718Y-141938282D01*
X209987159Y-142034536D01*
X210133238Y-142095044D01*
X210195045Y-142103181D01*
X210289999Y-142115682D01*
X210290000Y-142115682D01*
X210290001Y-142115682D01*
X210370804Y-142105044D01*
X210446762Y-142095044D01*
X210592841Y-142034536D01*
X210718282Y-141938282D01*
X210814536Y-141812841D01*
X210849936Y-141727378D01*
X210893777Y-141672974D01*
X210960071Y-141650909D01*
X211027770Y-141668188D01*
X211052178Y-141687149D01*
X211053542Y-141688513D01*
X211087027Y-141749836D01*
X211088800Y-141760007D01*
X211094956Y-141806762D01*
X211137741Y-141910054D01*
X211153575Y-141948282D01*
X211155464Y-141952841D01*
X211251718Y-142078282D01*
X211377159Y-142174536D01*
X211523238Y-142235044D01*
X211601619Y-142245363D01*
X211679999Y-142255682D01*
X211680000Y-142255682D01*
X211680001Y-142255682D01*
X211732254Y-142248802D01*
X211836762Y-142235044D01*
X211982841Y-142174536D01*
X212108282Y-142078282D01*
X212204536Y-141952841D01*
X212265044Y-141806762D01*
X212280791Y-141687149D01*
X212285682Y-141650001D01*
X212285682Y-141649998D01*
X212265044Y-141493239D01*
X212265044Y-141493238D01*
X212204536Y-141347159D01*
X212108282Y-141221718D01*
X211982841Y-141125464D01*
X211957472Y-141114956D01*
X211836762Y-141064956D01*
X211836760Y-141064955D01*
X211680001Y-141044318D01*
X211679999Y-141044318D01*
X211523239Y-141064955D01*
X211523234Y-141064957D01*
X211427737Y-141104513D01*
X211358268Y-141111982D01*
X211295789Y-141080706D01*
X211292604Y-141077633D01*
X208245175Y-138030204D01*
X208211690Y-137968881D01*
X208216674Y-137899189D01*
X208258546Y-137843256D01*
X208324010Y-137818839D01*
X208392283Y-137833691D01*
X208394856Y-137835136D01*
X208537828Y-137917681D01*
X208537829Y-137917681D01*
X208537832Y-137917683D01*
X208661435Y-137968881D01*
X208816439Y-138033086D01*
X208816440Y-138033086D01*
X208816442Y-138033087D01*
X209107732Y-138111138D01*
X209406717Y-138150500D01*
X209406724Y-138150500D01*
X209708276Y-138150500D01*
X209708283Y-138150500D01*
X210007268Y-138111138D01*
X210298558Y-138033087D01*
X210577168Y-137917683D01*
X210838332Y-137766900D01*
X211077580Y-137583319D01*
X211290819Y-137370080D01*
X211474400Y-137130832D01*
X211589196Y-136931998D01*
X211639761Y-136883785D01*
X211696582Y-136870000D01*
X214075397Y-136870000D01*
X214131692Y-136883515D01*
X214195860Y-136916211D01*
X214195863Y-136916212D01*
X214226561Y-136926186D01*
X214368091Y-136972171D01*
X214450929Y-136985291D01*
X214546949Y-137000500D01*
X214546954Y-137000500D01*
X214728051Y-137000500D01*
X214814791Y-136986761D01*
X214906909Y-136972171D01*
X215079139Y-136916211D01*
X215143308Y-136883514D01*
X215199603Y-136870000D01*
X217349098Y-136870000D01*
X217416137Y-136889685D01*
X217461892Y-136942489D01*
X217471836Y-137011647D01*
X217442811Y-137075203D01*
X217436784Y-137081675D01*
X216407321Y-138111138D01*
X213452938Y-141065520D01*
X213391615Y-141099005D01*
X213349072Y-141100778D01*
X213300001Y-141094318D01*
X213299999Y-141094318D01*
X213143239Y-141114955D01*
X213143237Y-141114956D01*
X212997160Y-141175463D01*
X212871718Y-141271718D01*
X212775463Y-141397160D01*
X212714956Y-141543237D01*
X212714955Y-141543239D01*
X212694318Y-141699998D01*
X212694318Y-141700001D01*
X212714955Y-141856760D01*
X212714956Y-141856762D01*
X212775464Y-142002841D01*
X212871718Y-142128282D01*
X212997159Y-142224536D01*
X213143238Y-142285044D01*
X213221619Y-142295363D01*
X213299999Y-142305682D01*
X213300000Y-142305682D01*
X213300001Y-142305682D01*
X213352254Y-142298802D01*
X213456762Y-142285044D01*
X213602841Y-142224536D01*
X213728282Y-142128282D01*
X213824536Y-142002841D01*
X213885044Y-141856762D01*
X213905682Y-141700000D01*
X213899221Y-141650926D01*
X213909986Y-141581891D01*
X213934476Y-141547062D01*
X218575221Y-136906319D01*
X218636544Y-136872834D01*
X218662902Y-136870000D01*
X222965397Y-136870000D01*
X223021692Y-136883515D01*
X223085860Y-136916211D01*
X223085863Y-136916212D01*
X223116561Y-136926186D01*
X223258091Y-136972171D01*
X223340929Y-136985291D01*
X223436949Y-137000500D01*
X223454871Y-137000500D01*
X223521910Y-137020185D01*
X223567665Y-137072989D01*
X223578869Y-137125048D01*
X223525429Y-149184955D01*
X223524892Y-149306049D01*
X223504910Y-149373001D01*
X223451904Y-149418522D01*
X223400893Y-149429500D01*
X222715849Y-149429500D01*
X222648810Y-149409815D01*
X222603055Y-149357011D01*
X222601040Y-149343001D01*
X222566463Y-149398240D01*
X222503257Y-149428019D01*
X222484151Y-149429500D01*
X216436789Y-149429500D01*
X216369750Y-149409815D01*
X216338413Y-149380986D01*
X216308283Y-149341719D01*
X216308282Y-149341718D01*
X216182841Y-149245464D01*
X216131739Y-149224297D01*
X216036762Y-149184956D01*
X216036760Y-149184955D01*
X215880001Y-149164318D01*
X215879999Y-149164318D01*
X215723239Y-149184955D01*
X215723237Y-149184956D01*
X215577160Y-149245463D01*
X215451716Y-149341719D01*
X215421587Y-149380986D01*
X215365159Y-149422189D01*
X215323211Y-149429500D01*
X208400289Y-149429500D01*
X208333250Y-149409815D01*
X208287495Y-149357011D01*
X208280515Y-149337596D01*
X208276739Y-149323504D01*
X208180568Y-149117266D01*
X208050047Y-148930861D01*
X208050045Y-148930858D01*
X207889141Y-148769954D01*
X207702734Y-148639432D01*
X207702732Y-148639431D01*
X207496497Y-148543261D01*
X207496488Y-148543258D01*
X207276697Y-148484366D01*
X207276693Y-148484365D01*
X207276692Y-148484365D01*
X207276691Y-148484364D01*
X207276686Y-148484364D01*
X207050002Y-148464532D01*
X207049998Y-148464532D01*
X206823313Y-148484364D01*
X206823302Y-148484366D01*
X206603511Y-148543258D01*
X206603502Y-148543261D01*
X206397267Y-148639431D01*
X206397265Y-148639432D01*
X206210858Y-148769954D01*
X206049954Y-148930858D01*
X205919432Y-149117265D01*
X205919431Y-149117267D01*
X205875803Y-149210827D01*
X205831401Y-149306049D01*
X205825872Y-149317905D01*
X205779699Y-149370344D01*
X205713490Y-149389500D01*
X205454125Y-149389500D01*
X205387086Y-149369815D01*
X205341331Y-149317011D01*
X205331387Y-149247853D01*
X205360412Y-149184297D01*
X205406672Y-149150939D01*
X205542841Y-149094536D01*
X205668282Y-148998282D01*
X205764536Y-148872841D01*
X205825044Y-148726762D01*
X205845682Y-148570000D01*
X205839221Y-148520926D01*
X205849986Y-148451891D01*
X205874476Y-148417062D01*
X206472468Y-147819072D01*
X206517295Y-147741428D01*
X206540500Y-147654828D01*
X206540500Y-147565172D01*
X206540500Y-147061660D01*
X217461891Y-147061660D01*
X217475697Y-147070335D01*
X217475701Y-147070337D01*
X217645858Y-147129877D01*
X217645861Y-147129878D01*
X217824997Y-147150062D01*
X217825003Y-147150062D01*
X218004138Y-147129878D01*
X218174307Y-147070333D01*
X218188107Y-147061661D01*
X218188107Y-147061660D01*
X218736891Y-147061660D01*
X218750697Y-147070335D01*
X218750701Y-147070337D01*
X218920858Y-147129877D01*
X218920861Y-147129878D01*
X219099997Y-147150062D01*
X219100003Y-147150062D01*
X219279138Y-147129878D01*
X219449307Y-147070333D01*
X219463107Y-147061661D01*
X219463107Y-147061660D01*
X220011891Y-147061660D01*
X220025697Y-147070335D01*
X220025701Y-147070337D01*
X220195858Y-147129877D01*
X220195861Y-147129878D01*
X220374997Y-147150062D01*
X220375003Y-147150062D01*
X220554138Y-147129878D01*
X220724307Y-147070333D01*
X220738107Y-147061661D01*
X220738107Y-147061660D01*
X220375001Y-146698553D01*
X220375000Y-146698553D01*
X220011891Y-147061660D01*
X219463107Y-147061660D01*
X219100001Y-146698553D01*
X219100000Y-146698553D01*
X218736891Y-147061660D01*
X218188107Y-147061660D01*
X217825001Y-146698553D01*
X217825000Y-146698553D01*
X217461891Y-147061660D01*
X206540500Y-147061660D01*
X206540500Y-146344997D01*
X217019938Y-146344997D01*
X217019938Y-146345002D01*
X217040121Y-146524138D01*
X217040122Y-146524141D01*
X217099662Y-146694298D01*
X217099667Y-146694308D01*
X217108338Y-146708108D01*
X217471446Y-146345001D01*
X217471446Y-146344999D01*
X217436637Y-146310190D01*
X217650000Y-146310190D01*
X217650000Y-146379810D01*
X217676643Y-146444129D01*
X217725871Y-146493357D01*
X217790190Y-146520000D01*
X217859810Y-146520000D01*
X217924129Y-146493357D01*
X217973357Y-146444129D01*
X218000000Y-146379810D01*
X218000000Y-146345000D01*
X218178553Y-146345000D01*
X218462500Y-146628946D01*
X218462501Y-146628946D01*
X218746446Y-146345001D01*
X218746446Y-146344999D01*
X218711637Y-146310190D01*
X218925000Y-146310190D01*
X218925000Y-146379810D01*
X218951643Y-146444129D01*
X219000871Y-146493357D01*
X219065190Y-146520000D01*
X219134810Y-146520000D01*
X219199129Y-146493357D01*
X219248357Y-146444129D01*
X219275000Y-146379810D01*
X219275000Y-146345000D01*
X219453552Y-146345000D01*
X219737500Y-146628946D01*
X219737501Y-146628946D01*
X220021446Y-146345001D01*
X220021446Y-146344999D01*
X219986637Y-146310190D01*
X220200000Y-146310190D01*
X220200000Y-146379810D01*
X220226643Y-146444129D01*
X220275871Y-146493357D01*
X220340190Y-146520000D01*
X220409810Y-146520000D01*
X220474129Y-146493357D01*
X220523357Y-146444129D01*
X220550000Y-146379810D01*
X220550000Y-146344999D01*
X220728553Y-146344999D01*
X220728553Y-146345000D01*
X221091660Y-146708107D01*
X221091661Y-146708107D01*
X221100333Y-146694307D01*
X221159878Y-146524138D01*
X221180062Y-146345002D01*
X221180062Y-146344997D01*
X221159878Y-146165861D01*
X221159877Y-146165858D01*
X221100337Y-145995701D01*
X221100335Y-145995697D01*
X221091660Y-145981891D01*
X220728553Y-146344999D01*
X220550000Y-146344999D01*
X220550000Y-146310190D01*
X220523357Y-146245871D01*
X220474129Y-146196643D01*
X220409810Y-146170000D01*
X220340190Y-146170000D01*
X220275871Y-146196643D01*
X220226643Y-146245871D01*
X220200000Y-146310190D01*
X219986637Y-146310190D01*
X219737501Y-146061053D01*
X219737500Y-146061053D01*
X219453552Y-146345000D01*
X219275000Y-146345000D01*
X219275000Y-146310190D01*
X219248357Y-146245871D01*
X219199129Y-146196643D01*
X219134810Y-146170000D01*
X219065190Y-146170000D01*
X219000871Y-146196643D01*
X218951643Y-146245871D01*
X218925000Y-146310190D01*
X218711637Y-146310190D01*
X218462501Y-146061053D01*
X218462500Y-146061053D01*
X218178553Y-146345000D01*
X218000000Y-146345000D01*
X218000000Y-146310190D01*
X217973357Y-146245871D01*
X217924129Y-146196643D01*
X217859810Y-146170000D01*
X217790190Y-146170000D01*
X217725871Y-146196643D01*
X217676643Y-146245871D01*
X217650000Y-146310190D01*
X217436637Y-146310190D01*
X217108338Y-145981890D01*
X217108338Y-145981891D01*
X217099664Y-145995696D01*
X217040122Y-146165858D01*
X217040121Y-146165861D01*
X217019938Y-146344997D01*
X206540500Y-146344997D01*
X206540500Y-145707500D01*
X217541053Y-145707500D01*
X217825000Y-145991446D01*
X217825001Y-145991446D01*
X218108946Y-145707501D01*
X218108946Y-145707500D01*
X218816053Y-145707500D01*
X219100000Y-145991446D01*
X219100001Y-145991446D01*
X219383946Y-145707501D01*
X219383946Y-145707500D01*
X220091053Y-145707500D01*
X220375000Y-145991446D01*
X220375001Y-145991446D01*
X220658946Y-145707501D01*
X220658946Y-145707499D01*
X220375001Y-145423553D01*
X220375000Y-145423553D01*
X220091053Y-145707500D01*
X219383946Y-145707500D01*
X219383946Y-145707499D01*
X219100001Y-145423553D01*
X219100000Y-145423553D01*
X218816053Y-145707500D01*
X218108946Y-145707500D01*
X218108946Y-145707499D01*
X217825001Y-145423553D01*
X217825000Y-145423553D01*
X217541053Y-145707500D01*
X206540500Y-145707500D01*
X206540500Y-145069997D01*
X217019938Y-145069997D01*
X217019938Y-145070002D01*
X217040121Y-145249138D01*
X217040122Y-145249141D01*
X217099662Y-145419298D01*
X217099667Y-145419308D01*
X217108338Y-145433108D01*
X217471446Y-145070001D01*
X217471446Y-145069999D01*
X217436637Y-145035190D01*
X217650000Y-145035190D01*
X217650000Y-145104810D01*
X217676643Y-145169129D01*
X217725871Y-145218357D01*
X217790190Y-145245000D01*
X217859810Y-145245000D01*
X217924129Y-145218357D01*
X217973357Y-145169129D01*
X218000000Y-145104810D01*
X218000000Y-145070000D01*
X218178552Y-145070000D01*
X218462500Y-145353946D01*
X218462501Y-145353946D01*
X218746446Y-145070001D01*
X218746446Y-145069999D01*
X218711637Y-145035190D01*
X218925000Y-145035190D01*
X218925000Y-145104810D01*
X218951643Y-145169129D01*
X219000871Y-145218357D01*
X219065190Y-145245000D01*
X219134810Y-145245000D01*
X219199129Y-145218357D01*
X219248357Y-145169129D01*
X219275000Y-145104810D01*
X219275000Y-145070000D01*
X219453552Y-145070000D01*
X219737500Y-145353946D01*
X219737501Y-145353946D01*
X220021446Y-145070001D01*
X220021446Y-145069999D01*
X219986637Y-145035190D01*
X220200000Y-145035190D01*
X220200000Y-145104810D01*
X220226643Y-145169129D01*
X220275871Y-145218357D01*
X220340190Y-145245000D01*
X220409810Y-145245000D01*
X220474129Y-145218357D01*
X220523357Y-145169129D01*
X220550000Y-145104810D01*
X220550000Y-145069999D01*
X220728553Y-145069999D01*
X220728553Y-145070000D01*
X221091660Y-145433107D01*
X221091661Y-145433107D01*
X221100333Y-145419307D01*
X221159878Y-145249138D01*
X221180062Y-145070002D01*
X221180062Y-145069997D01*
X221159878Y-144890861D01*
X221159877Y-144890858D01*
X221100337Y-144720701D01*
X221100335Y-144720697D01*
X221091660Y-144706891D01*
X220728553Y-145069999D01*
X220550000Y-145069999D01*
X220550000Y-145035190D01*
X220523357Y-144970871D01*
X220474129Y-144921643D01*
X220409810Y-144895000D01*
X220340190Y-144895000D01*
X220275871Y-144921643D01*
X220226643Y-144970871D01*
X220200000Y-145035190D01*
X219986637Y-145035190D01*
X219737501Y-144786053D01*
X219737500Y-144786053D01*
X219453552Y-145070000D01*
X219275000Y-145070000D01*
X219275000Y-145035190D01*
X219248357Y-144970871D01*
X219199129Y-144921643D01*
X219134810Y-144895000D01*
X219065190Y-144895000D01*
X219000871Y-144921643D01*
X218951643Y-144970871D01*
X218925000Y-145035190D01*
X218711637Y-145035190D01*
X218462501Y-144786053D01*
X218462500Y-144786053D01*
X218178552Y-145070000D01*
X218000000Y-145070000D01*
X218000000Y-145035190D01*
X217973357Y-144970871D01*
X217924129Y-144921643D01*
X217859810Y-144895000D01*
X217790190Y-144895000D01*
X217725871Y-144921643D01*
X217676643Y-144970871D01*
X217650000Y-145035190D01*
X217436637Y-145035190D01*
X217108338Y-144706890D01*
X217108338Y-144706891D01*
X217099664Y-144720696D01*
X217040122Y-144890858D01*
X217040121Y-144890861D01*
X217019938Y-145069997D01*
X206540500Y-145069997D01*
X206540500Y-144432500D01*
X217541052Y-144432500D01*
X217825000Y-144716446D01*
X217825001Y-144716446D01*
X218108946Y-144432501D01*
X218108946Y-144432500D01*
X218816052Y-144432500D01*
X219100000Y-144716446D01*
X219100001Y-144716446D01*
X219383946Y-144432501D01*
X219383946Y-144432500D01*
X220091052Y-144432500D01*
X220375000Y-144716446D01*
X220375001Y-144716446D01*
X220658946Y-144432501D01*
X220658946Y-144432499D01*
X220375001Y-144148553D01*
X220375000Y-144148553D01*
X220091052Y-144432500D01*
X219383946Y-144432500D01*
X219383946Y-144432499D01*
X219100001Y-144148553D01*
X219100000Y-144148553D01*
X218816052Y-144432500D01*
X218108946Y-144432500D01*
X218108946Y-144432499D01*
X217825001Y-144148553D01*
X217825000Y-144148553D01*
X217541052Y-144432500D01*
X206540500Y-144432500D01*
X206540500Y-143794997D01*
X217019938Y-143794997D01*
X217019938Y-143795002D01*
X217040121Y-143974138D01*
X217040122Y-143974141D01*
X217099662Y-144144298D01*
X217099667Y-144144308D01*
X217108338Y-144158108D01*
X217471446Y-143795001D01*
X217471446Y-143794999D01*
X217436637Y-143760190D01*
X217650000Y-143760190D01*
X217650000Y-143829810D01*
X217676643Y-143894129D01*
X217725871Y-143943357D01*
X217790190Y-143970000D01*
X217859810Y-143970000D01*
X217924129Y-143943357D01*
X217973357Y-143894129D01*
X218000000Y-143829810D01*
X218000000Y-143795000D01*
X218178552Y-143795000D01*
X218462500Y-144078946D01*
X218462501Y-144078946D01*
X218746446Y-143795001D01*
X218746446Y-143794999D01*
X218711637Y-143760190D01*
X218925000Y-143760190D01*
X218925000Y-143829810D01*
X218951643Y-143894129D01*
X219000871Y-143943357D01*
X219065190Y-143970000D01*
X219134810Y-143970000D01*
X219199129Y-143943357D01*
X219248357Y-143894129D01*
X219275000Y-143829810D01*
X219275000Y-143795000D01*
X219453553Y-143795000D01*
X219737500Y-144078946D01*
X219737501Y-144078946D01*
X220021446Y-143795001D01*
X220021446Y-143794999D01*
X219986637Y-143760190D01*
X220200000Y-143760190D01*
X220200000Y-143829810D01*
X220226643Y-143894129D01*
X220275871Y-143943357D01*
X220340190Y-143970000D01*
X220409810Y-143970000D01*
X220474129Y-143943357D01*
X220523357Y-143894129D01*
X220550000Y-143829810D01*
X220550000Y-143760190D01*
X220523357Y-143695871D01*
X220474129Y-143646643D01*
X220409810Y-143620000D01*
X220340190Y-143620000D01*
X220275871Y-143646643D01*
X220226643Y-143695871D01*
X220200000Y-143760190D01*
X219986637Y-143760190D01*
X219737501Y-143511053D01*
X219737500Y-143511053D01*
X219453553Y-143795000D01*
X219275000Y-143795000D01*
X219275000Y-143760190D01*
X219248357Y-143695871D01*
X219199129Y-143646643D01*
X219134810Y-143620000D01*
X219065190Y-143620000D01*
X219000871Y-143646643D01*
X218951643Y-143695871D01*
X218925000Y-143760190D01*
X218711637Y-143760190D01*
X218462501Y-143511053D01*
X218462500Y-143511053D01*
X218178552Y-143795000D01*
X218000000Y-143795000D01*
X218000000Y-143760190D01*
X217973357Y-143695871D01*
X217924129Y-143646643D01*
X217859810Y-143620000D01*
X217790190Y-143620000D01*
X217725871Y-143646643D01*
X217676643Y-143695871D01*
X217650000Y-143760190D01*
X217436637Y-143760190D01*
X217108338Y-143431890D01*
X217108338Y-143431891D01*
X217099664Y-143445696D01*
X217040122Y-143615858D01*
X217040121Y-143615861D01*
X217019938Y-143794997D01*
X206540500Y-143794997D01*
X206540500Y-143078338D01*
X217461890Y-143078338D01*
X217825000Y-143441446D01*
X217825001Y-143441446D01*
X218188108Y-143078338D01*
X218736890Y-143078338D01*
X219100000Y-143441446D01*
X219100001Y-143441446D01*
X219463108Y-143078338D01*
X220011890Y-143078338D01*
X220551777Y-143618223D01*
X221091660Y-144158107D01*
X221091661Y-144158107D01*
X221100333Y-144144307D01*
X221159878Y-143974138D01*
X221180062Y-143795002D01*
X221180062Y-143794997D01*
X221159878Y-143615861D01*
X221159877Y-143615858D01*
X221134070Y-143542104D01*
X221130509Y-143472325D01*
X221165238Y-143411698D01*
X221227231Y-143379471D01*
X221267294Y-143378211D01*
X221400000Y-143395682D01*
X221467817Y-143386753D01*
X221536852Y-143397518D01*
X221571684Y-143422011D01*
X222238181Y-144088508D01*
X222271666Y-144149831D01*
X222274500Y-144176189D01*
X222274500Y-148021699D01*
X222254815Y-148088738D01*
X222225988Y-148120074D01*
X222171720Y-148161715D01*
X222075463Y-148287160D01*
X222014956Y-148433237D01*
X222014955Y-148433239D01*
X221994318Y-148589998D01*
X221994318Y-148590001D01*
X222014955Y-148746760D01*
X222014956Y-148746762D01*
X222075464Y-148892841D01*
X222171718Y-149018282D01*
X222297159Y-149114536D01*
X222443238Y-149175044D01*
X222500336Y-149182561D01*
X222564233Y-149210827D01*
X222602082Y-149268209D01*
X222622136Y-149224297D01*
X222680914Y-149186523D01*
X222699664Y-149182561D01*
X222756762Y-149175044D01*
X222902841Y-149114536D01*
X223028282Y-149018282D01*
X223124536Y-148892841D01*
X223185044Y-148746762D01*
X223205682Y-148590000D01*
X223185044Y-148433238D01*
X223124536Y-148287159D01*
X223028282Y-148161718D01*
X223028280Y-148161716D01*
X223028279Y-148161715D01*
X222974012Y-148120074D01*
X222932810Y-148063646D01*
X222925500Y-148021699D01*
X222925500Y-143947149D01*
X222925500Y-143947147D01*
X222903318Y-143864362D01*
X222903318Y-143864361D01*
X222860465Y-143790138D01*
X222032011Y-142961684D01*
X221998526Y-142900361D01*
X221996753Y-142857816D01*
X221999922Y-142833752D01*
X222005682Y-142790000D01*
X222005418Y-142787997D01*
X221987625Y-142652841D01*
X221985044Y-142633238D01*
X221924536Y-142487159D01*
X221828282Y-142361718D01*
X221702841Y-142265464D01*
X221679225Y-142255682D01*
X221556762Y-142204956D01*
X221556760Y-142204955D01*
X221400001Y-142184318D01*
X221399999Y-142184318D01*
X221243239Y-142204955D01*
X221243237Y-142204956D01*
X221097160Y-142265463D01*
X220971718Y-142361718D01*
X220875463Y-142487160D01*
X220814956Y-142633237D01*
X220814955Y-142633239D01*
X220794318Y-142789998D01*
X220794318Y-142790001D01*
X220809994Y-142909073D01*
X220799228Y-142978108D01*
X220752848Y-143030364D01*
X220685579Y-143049249D01*
X220646101Y-143042300D01*
X220554142Y-143010122D01*
X220554138Y-143010121D01*
X220375003Y-142989938D01*
X220374997Y-142989938D01*
X220195861Y-143010121D01*
X220195858Y-143010122D01*
X220025696Y-143069664D01*
X220011891Y-143078338D01*
X220011890Y-143078338D01*
X219463108Y-143078338D01*
X219463108Y-143078337D01*
X219449308Y-143069667D01*
X219449298Y-143069662D01*
X219279141Y-143010122D01*
X219279138Y-143010121D01*
X219100003Y-142989938D01*
X219099997Y-142989938D01*
X218920861Y-143010121D01*
X218920858Y-143010122D01*
X218750696Y-143069664D01*
X218736891Y-143078338D01*
X218736890Y-143078338D01*
X218188108Y-143078338D01*
X218188108Y-143078337D01*
X218174308Y-143069667D01*
X218174298Y-143069662D01*
X218004141Y-143010122D01*
X218004138Y-143010121D01*
X217825003Y-142989938D01*
X217824997Y-142989938D01*
X217645861Y-143010121D01*
X217645858Y-143010122D01*
X217475696Y-143069664D01*
X217461891Y-143078338D01*
X217461890Y-143078338D01*
X206540500Y-143078338D01*
X206540500Y-141338653D01*
X206517295Y-141252053D01*
X206472468Y-141174409D01*
X206409072Y-141111013D01*
X203635591Y-138337532D01*
X203635590Y-138337531D01*
X203557947Y-138292705D01*
X203557937Y-138292701D01*
X203557652Y-138292625D01*
X203557395Y-138292477D01*
X203550438Y-138289595D01*
X203550817Y-138288678D01*
X203502074Y-138260534D01*
X202323221Y-137081681D01*
X202289736Y-137020358D01*
X202294720Y-136950666D01*
X202336592Y-136894733D01*
X202402056Y-136870316D01*
X202410902Y-136870000D01*
X203915397Y-136870000D01*
X203971692Y-136883515D01*
G37*
%TD.AperFunction*%
%TA.AperFunction,Conductor*%
G36*
X196571206Y-146550185D02*
G01*
X196591848Y-146566819D01*
X197559540Y-147534511D01*
X197615489Y-147590460D01*
X197615491Y-147590461D01*
X197615495Y-147590464D01*
X197684004Y-147630017D01*
X197684011Y-147630021D01*
X197760438Y-147650500D01*
X197839562Y-147650500D01*
X204282518Y-147650500D01*
X204349557Y-147670185D01*
X204380892Y-147699013D01*
X204441718Y-147778282D01*
X204567159Y-147874536D01*
X204713238Y-147935044D01*
X204733781Y-147937748D01*
X204797677Y-147966013D01*
X204836148Y-148024337D01*
X204836981Y-148094202D01*
X204815972Y-148136173D01*
X204715464Y-148267157D01*
X204654956Y-148413237D01*
X204654955Y-148413239D01*
X204634318Y-148569998D01*
X204634318Y-148570001D01*
X204654955Y-148726760D01*
X204654956Y-148726762D01*
X204715464Y-148872841D01*
X204811718Y-148998282D01*
X204937159Y-149094536D01*
X205073328Y-149150939D01*
X205127731Y-149194780D01*
X205149796Y-149261074D01*
X205132517Y-149328774D01*
X205081380Y-149376384D01*
X205025875Y-149389500D01*
X194401775Y-149389500D01*
X194334736Y-149369815D01*
X194288981Y-149317011D01*
X194277778Y-149264577D01*
X194297205Y-146653575D01*
X194317388Y-146586686D01*
X194370531Y-146541325D01*
X194421202Y-146530500D01*
X196504167Y-146530500D01*
X196571206Y-146550185D01*
G37*
%TD.AperFunction*%
%TA.AperFunction,Conductor*%
G36*
X203401206Y-145900185D02*
G01*
X203421848Y-145916819D01*
X203999540Y-146494511D01*
X204055489Y-146550460D01*
X204055491Y-146550461D01*
X204055495Y-146550464D01*
X204124004Y-146590017D01*
X204124011Y-146590021D01*
X204200438Y-146610500D01*
X204252518Y-146610500D01*
X204319557Y-146630185D01*
X204350892Y-146659013D01*
X204411718Y-146738282D01*
X204420817Y-146745264D01*
X204462019Y-146801688D01*
X204466176Y-146871434D01*
X204443707Y-146919125D01*
X204380894Y-147000986D01*
X204324467Y-147042189D01*
X204282518Y-147049500D01*
X197975833Y-147049500D01*
X197908794Y-147029815D01*
X197888152Y-147013181D01*
X196967152Y-146092181D01*
X196933667Y-146030858D01*
X196938651Y-145961166D01*
X196980523Y-145905233D01*
X197045987Y-145880816D01*
X197054833Y-145880500D01*
X203334167Y-145880500D01*
X203401206Y-145900185D01*
G37*
%TD.AperFunction*%
%TA.AperFunction,Conductor*%
G36*
X195129192Y-136883515D02*
G01*
X195193360Y-136916211D01*
X195193363Y-136916212D01*
X195224061Y-136926186D01*
X195365591Y-136972171D01*
X195448429Y-136985291D01*
X195544449Y-137000500D01*
X195544454Y-137000500D01*
X195725551Y-137000500D01*
X195812291Y-136986761D01*
X195904409Y-136972171D01*
X196076639Y-136916211D01*
X196140808Y-136883514D01*
X196197103Y-136870000D01*
X200880839Y-136870000D01*
X200947878Y-136889685D01*
X200993633Y-136942489D01*
X201003778Y-136977813D01*
X201004956Y-136986761D01*
X201004956Y-136986762D01*
X201041589Y-137075203D01*
X201065464Y-137132841D01*
X201161718Y-137258282D01*
X201287159Y-137354536D01*
X201433238Y-137415044D01*
X201480294Y-137421239D01*
X201589999Y-137435682D01*
X201589999Y-137435681D01*
X201590000Y-137435682D01*
X201639072Y-137429221D01*
X201708107Y-137439986D01*
X201742939Y-137464479D01*
X203097532Y-138819072D01*
X203160928Y-138882468D01*
X203238572Y-138927295D01*
X203238851Y-138927369D01*
X203239103Y-138927515D01*
X203246084Y-138930407D01*
X203245703Y-138931325D01*
X203294444Y-138959465D01*
X205098673Y-140763694D01*
X205132158Y-140825017D01*
X205127174Y-140894709D01*
X205085302Y-140950642D01*
X205058445Y-140965936D01*
X204987160Y-140995463D01*
X204861716Y-141091719D01*
X204800894Y-141170986D01*
X204744466Y-141212189D01*
X204702518Y-141219500D01*
X196390438Y-141219500D01*
X196359867Y-141227691D01*
X196314008Y-141239979D01*
X196314007Y-141239980D01*
X196265726Y-141267856D01*
X196265725Y-141267857D01*
X196245490Y-141279539D01*
X196245487Y-141279541D01*
X195421848Y-142103181D01*
X195360525Y-142136666D01*
X195334167Y-142139500D01*
X194455718Y-142139500D01*
X194388679Y-142119815D01*
X194342924Y-142067011D01*
X194331721Y-142014581D01*
X194369084Y-136993076D01*
X194389267Y-136926186D01*
X194442410Y-136880825D01*
X194493081Y-136870000D01*
X195072897Y-136870000D01*
X195129192Y-136883515D01*
G37*
%TD.AperFunction*%
%TD*%
M02*
